<svg width="25" height="56" viewBox="0 0 25 56" fill="none" xmlns="http://www.w3.org/2000/svg">
<path d="M12.4304 0.384132C9.90191 -0.562493 7.42 0.929153 6.93926 3.67754C6.75991 4.67605 6.86929 5.46269 7.34601 6.39623C7.78649 7.30001 8.83299 8.19062 9.71992 8.40819L10.321 8.54586L10.8539 12.6843L11.3867 16.8227L10.8847 17.0142C9.30355 17.6354 8.2485 19.4475 8.41441 21.3025C8.54925 22.8533 9.4881 24.1665 10.7966 24.6375L11.4429 24.8741L10.4771 30.2745C9.94586 33.2601 9.42412 36.0677 9.31409 36.5348C9.19501 36.9944 9.04801 37.7408 8.96754 38.1856C8.8363 38.9914 8.83184 38.9568 8.48255 35.9291C7.94181 31.2887 7.04618 26.0316 6.02599 21.6322L5.61931 19.8581L6.20109 19.5309C6.70104 19.2603 6.88076 19.0827 7.40681 18.3225C7.95336 17.5328 8.03325 17.3352 8.18945 16.5344C8.38707 15.489 8.28718 14.5243 7.9033 13.6825C7.51258 12.8506 6.27579 11.8037 5.41606 11.6084C4.71288 11.4334 3.55283 11.5489 3.00743 11.8441C1.66442 12.5526 0.782111 14.2588 0.85072 15.9875C0.925875 17.8299 2.76667 19.7291 4.60021 19.8726L5.11533 19.9087L5.48368 21.5739C5.69036 22.4869 6.04728 24.1891 6.27151 25.3643C6.51164 26.5371 6.7427 27.7024 6.79204 27.9597C6.84137 28.217 6.86352 28.452 6.84302 28.4816C6.8157 28.5211 6.6052 28.2707 6.39039 27.924C5.78652 27.0098 4.69975 25.8694 4.04705 25.4571C2.70765 24.6201 1.65237 25.5494 2.37318 26.9312C2.5201 27.1912 3.01595 27.7069 3.77695 28.394C5.06573 29.5301 5.81602 29.9451 6.72818 30.0441L7.17973 30.0898L7.67703 33.8893C7.94455 35.9672 8.20719 38.1959 8.25566 38.8241L8.337 39.9593L8.09767 39.4221C7.53551 38.1396 5.86687 36.3818 4.79441 35.919C4.27972 35.6975 3.73238 35.8517 3.41811 36.3059C2.63245 37.4412 4.35819 40.0201 6.84701 41.4142C7.37968 41.7124 7.91012 41.9932 8.02123 42.0381C8.2684 42.1327 8.03835 42.4857 7.1922 43.2771C6.12535 44.3053 4.82795 44.9273 4.19294 44.7154C3.56016 44.5208 3.21548 43.417 3.43373 42.2801C3.53247 41.7883 3.30609 41.5404 3.04439 41.8364C2.78952 42.1225 2.79974 43.5864 3.06834 44.2252C3.33694 44.8639 3.89651 45.308 4.47744 45.3517C4.95171 45.3851 5.80354 45.0784 6.37641 44.6819C6.64465 44.4996 6.90606 44.3272 6.96963 44.3175C7.0332 44.3078 6.44682 46.6133 5.67763 49.4499C4.90844 52.2865 4.28998 54.7205 4.29875 54.8516C4.33888 55.1632 4.61575 55.1739 4.74584 54.8627C4.80287 54.7392 5.224 53.227 5.68641 51.532C6.15564 49.8271 6.56059 48.441 6.59238 48.4361C6.6151 48.4238 6.32586 49.8275 5.95421 51.5352C5.56667 53.2453 5.28398 54.7628 5.31548 54.8816C5.35367 55.0523 5.41932 55.1217 5.55553 55.1097C5.69174 55.0977 5.84498 54.5888 6.22807 52.844C6.79007 50.2863 6.85882 50.0021 6.91319 50.0468C6.93131 50.0616 6.75599 51.2802 6.53241 52.7534C6.1384 55.2943 6.14171 55.8235 6.52817 55.5525C6.61001 55.4959 6.75657 54.935 6.84431 54.2948C7.27571 51.2891 8.32162 44.6229 8.38311 44.5341C8.40361 44.5045 8.47372 44.6085 8.53686 44.7843C8.59094 44.9525 8.79892 45.3092 8.98669 45.5718C10.0931 47.0536 12.4334 46.9166 13.152 45.3237C13.298 45.01 13.3006 44.9037 13.117 44.7994C12.9583 44.7 12.8742 44.7393 12.7535 44.9344C12.4208 45.4972 11.966 45.8669 11.4619 45.9792C10.7625 46.1479 10.327 46.0379 9.77423 45.5839C9.02214 44.9661 8.6748 44.0304 8.76145 42.8784L8.78504 42.4952L9.44766 42.544C12.207 42.7667 14.9738 40.7813 14.3128 39.0461C14.0038 38.2193 13.1308 37.8583 12.1564 38.1573C11.5954 38.3314 10.0591 39.2371 9.85411 39.5333C9.72891 39.6936 9.71984 39.6862 9.72934 39.5082C9.76407 39.2116 10.5555 37.5545 11.3578 36.1077L12.0164 34.93L12.9018 34.8212C14.7385 34.6111 16.117 34.2415 17.1873 33.6807C18.1281 33.1838 18.3936 32.2251 17.723 31.6743C17.2609 31.2947 16.0438 31.5336 14.6872 32.2618C14.1122 32.5792 13.594 32.8968 13.5462 32.9659C13.4915 33.0449 13.3847 33.0965 13.3099 33.0815C13.1215 33.0661 15.1953 30.4185 16.5605 28.9387L16.8882 28.5884L17.4409 29.0425C18.4989 29.896 19.9716 30.0064 21.3281 29.34C22.0143 29.0056 22.1144 28.902 22.6815 28.0827C23.2144 27.3126 23.3079 27.0953 23.4001 26.4897C23.7044 24.448 22.4857 22.4714 20.6144 21.9717C19.8841 21.7743 18.7011 21.9639 17.9716 22.4021C17.1738 22.8771 16.3926 24.0471 16.2291 25.0431C16.1004 25.7426 16.2378 27.187 16.477 27.7861C16.5718 28.0188 16.5308 28.078 15.3315 29.462C14.3733 30.5795 13.7108 31.4753 12.4058 33.4227L10.7136 35.9501L11.039 34.5762C11.2246 33.8151 11.5275 32.3916 11.7091 31.4104C12.0861 29.3665 12.4833 28.3611 14.0402 25.4748C14.5257 24.5884 14.6236 24.4675 15.1305 24.1252C16.1375 23.4504 16.9557 22.0012 16.8739 21.0514C16.8451 20.7645 17.4792 19.3963 18.2494 18.078L18.6801 17.3324L19.1517 17.534C20.8365 18.2211 22.9536 17.4208 23.8472 15.7394C24.2508 14.9714 24.4417 13.8741 24.3439 12.9885C24.0726 10.567 21.9183 8.81276 19.7384 9.25185C18.6008 9.47868 18.1188 9.82601 17.3195 10.9811C16.7114 11.8597 16.6293 12.04 16.5394 12.6629C16.3296 14.0544 16.7304 15.4057 17.6675 16.5161L18.1836 17.1258L17.6116 18.096C17.2904 18.6218 16.9553 19.2292 16.8595 19.4292L16.6975 19.8071L16.3043 19.0815C15.5517 17.7046 14.1217 16.7931 12.6375 16.7198L11.9522 16.6833L11.7691 15.387L11.5928 14.0809L12.3409 13.4722C13.3392 12.6664 14.2884 11.4796 14.9244 10.2524C15.5149 9.11161 15.6021 8.71868 15.3989 8.27302C15.1775 7.81248 14.7261 7.7049 14.2533 7.99786C13.9237 8.20713 13.7847 8.44908 12.7018 10.5479C12.0474 11.8221 11.4935 12.869 11.4776 12.8714C11.4617 12.8739 11.3232 11.9239 11.1716 10.7465L10.8951 8.59937L11.6945 8.38891C13.9111 7.79415 15.3564 6.05484 15.236 4.11338C15.1489 2.5553 13.927 0.932269 12.4304 0.384132ZM13.9854 2.20343C14.2207 2.5206 14.4783 3.01091 14.5729 3.30543C14.7666 3.9291 14.7303 4.90575 14.4908 5.43673C14.2079 6.07145 13.4137 6.95203 12.8774 7.25471C12.3797 7.54265 12.3797 7.54265 12.6641 7.23434C13.9337 5.89265 14.1573 5.3641 13.6227 4.92495C13.3509 4.70165 12.763 4.7297 12.599 4.96663C12.5443 5.04561 12.4876 5.04545 12.4537 4.97118C12.4289 4.90434 12.4656 4.74866 12.5339 4.64994C12.6091 4.54134 12.7756 4.19809 12.9125 3.87701C13.1042 3.41513 13.1182 3.27175 12.9732 3.15265C12.7738 2.9889 12.7328 3.04813 12.1579 4.31013C11.9915 4.65339 11.9687 4.66569 11.8762 4.4503C11.8175 4.30919 11.7204 4.12099 11.6593 4.02439C11.5982 3.92778 11.5808 3.6038 11.6315 3.30474C11.7351 2.6621 11.6834 2.4493 11.4291 2.48817C11.2861 2.51003 11.213 2.69775 11.1278 3.23164C11.0656 3.62958 10.8713 4.19778 10.6867 4.52615L10.3653 5.11378L10.266 3.90185C10.2063 3.24888 10.1055 2.65513 10.0421 2.60303C9.75212 2.36485 9.65381 2.6712 9.71523 3.58876C9.77888 4.52365 9.76521 4.54339 9.53868 4.35731C9.01313 3.92559 8.36856 4.89808 8.52059 5.89009C8.55626 6.16713 8.75252 6.68448 8.95143 7.03369C9.22938 7.55621 9.26088 7.67499 9.07951 7.58794C8.7961 7.46352 8.33872 6.99491 7.91342 6.3978C7.42023 5.71396 7.25806 4.20265 7.57793 3.28861C8.46449 0.734216 11.2037 -0.143479 13.3289 1.44743C13.4626 1.54176 13.7591 1.89371 13.9854 2.20343ZM23.3443 11.4551C23.8011 12.171 23.9373 13.1036 23.7556 14.1466C23.4796 15.7161 22.4965 16.8286 21.0864 17.1412C20.7798 17.2146 20.412 17.2531 20.2782 17.2206C20.0627 17.1829 20.0922 17.1607 20.4897 17.0382C21.1211 16.8446 21.9394 16.3399 22.208 15.9722C22.4767 15.6045 22.3892 15.1765 21.9993 14.9801L21.7227 14.8458L22.1959 14.3674C22.5098 14.0369 22.6601 13.8197 22.6445 13.6985C22.6111 13.4387 22.3864 13.4554 22.0997 13.7464C21.9564 13.8919 21.7335 14.1114 21.597 14.247L21.3513 14.4788L21.2752 14.0137C21.2216 13.6599 21.2767 13.3955 21.4887 12.9658C21.7281 12.4967 21.7534 12.378 21.5993 12.2515C21.4272 12.1101 21.3908 12.1421 21.0808 12.6927C20.805 13.1939 20.689 13.2999 20.3188 13.4448L19.8781 13.6092L20.0751 12.8111C20.2079 12.3317 20.2337 11.9658 20.1477 11.8642C19.9734 11.6437 19.7844 11.9374 19.5736 12.7553C19.3698 13.5633 19.3766 13.5535 19.1594 13.2512C19.0236 13.0777 18.8763 13.0031 18.6765 13.0248C18.0999 13.0776 17.7324 13.999 17.7816 15.2627L17.8072 15.965L17.5722 15.5242C16.7745 14.0483 16.814 12.6562 17.684 11.3579C18.6224 9.96092 20.0444 9.42579 21.5004 9.90952C22.0855 10.1114 22.9666 10.8507 23.3443 11.4551ZM14.9116 8.95663C14.8263 9.49052 13.5803 11.4554 12.8705 12.173C12.5429 12.5232 12.2517 12.7796 12.2541 12.7351C12.2497 12.7005 12.7126 11.7646 13.2894 10.6435C14.0851 9.08294 14.3859 8.58674 14.5677 8.48833C14.8722 8.33586 14.9989 8.50189 14.9116 8.95663ZM22.5047 24.0664C22.8798 24.7771 22.978 25.4772 22.8239 26.3571C22.6905 27.1455 22.6266 27.2789 22.1394 27.9006C21.5271 28.6828 21.1134 28.9314 20.1416 29.1241C19.5648 29.2387 18.6594 29.1917 18.46 29.028C18.4328 29.0056 18.7575 28.9472 19.182 28.9088C20.535 28.7815 21.2991 28.1703 20.9602 27.4894C20.7862 27.1452 20.7931 27.1353 21.1816 26.9435C21.3498 26.8649 21.5021 26.7268 21.5228 26.6354C21.6144 26.2771 21.2898 26.2737 20.6763 26.6058L20.049 26.9577L20.2884 26.4885C20.4435 26.1823 20.6893 25.8888 20.9553 25.6892C21.7487 25.1177 21.5569 24.635 20.7544 25.199C20.4794 25.3912 20.2295 25.4646 20.1162 25.4025C20.0029 25.3404 19.7578 25.3249 19.5648 25.3367L19.213 25.3728L19.7341 24.7635C20.1779 24.2454 20.2281 24.1318 20.1422 23.9684C19.9862 23.7009 19.9022 23.7402 19.3718 24.4039L18.8802 24.9911L18.7447 24.694C18.5709 24.288 18.2376 24.1535 17.9058 24.3455C17.6944 24.4661 17.5486 24.7179 17.2542 25.3897C17.0488 25.8713 16.8547 26.3777 16.8158 26.516C16.6831 26.9954 16.6101 26.1767 16.714 25.4104C17.0142 23.2105 19.2598 21.8344 21.128 22.6877C21.5587 22.8868 22.229 23.5612 22.5047 24.0664ZM15.9674 19.4861C16.5274 20.7512 16.4708 21.6339 15.7398 22.6902C15.3504 23.2529 15.1412 23.4526 14.6412 23.7232C13.9981 24.0775 12.9624 24.4036 13.3488 24.1326C13.4512 24.0464 13.7262 23.8542 13.949 23.6966C14.1809 23.5464 14.5312 23.1839 14.7384 22.905C15.0413 22.488 15.0938 22.3299 15.0399 22.0997C14.9228 21.6939 14.8004 21.6243 14.2783 21.66L13.8357 21.6835L14.3414 20.8911C14.74 20.274 14.8199 20.0764 14.7112 19.9871C14.6115 19.9052 14.4637 20.0161 14.1245 20.4652C13.6874 21.0352 13.6647 21.0475 13.5745 20.7876C13.5067 20.639 13.526 20.1594 13.5997 19.7244C13.7863 18.5306 13.3576 18.4107 13.112 19.587C13.0064 20.0887 12.9859 20.1183 12.7158 20.1596C12.5568 20.1839 12.3682 20.2922 12.293 20.4008C12.0813 20.7068 12.0203 20.5484 11.9996 19.6952C11.9857 18.8322 11.9632 18.7827 11.6657 18.8635C11.509 18.9051 11.4812 19.13 11.5178 19.9807L11.5743 21.0491L11.2166 20.6624C10.9155 20.3376 10.8022 20.2755 10.5002 20.3217C10.2459 20.3605 10.1209 20.4591 10.0273 20.6764C9.84925 21.1186 10.0623 22.2072 10.5276 23.1778C10.7467 23.621 10.9047 24.0294 10.8842 24.0591C10.8113 24.185 10.1223 23.7429 9.76461 23.3562C8.94967 22.439 8.6966 20.9769 9.13305 19.7096C9.8962 17.5183 12.4607 16.6056 14.4166 17.8251C15.024 18.2001 15.7122 18.9513 15.9674 19.4861ZM7.27707 13.6017C7.78809 14.4241 7.90539 15.7127 7.56027 16.7453C7.16942 17.9263 6.4341 18.8861 5.7663 19.1118C5.56415 19.178 5.60751 19.0742 6.02425 18.472C6.64595 17.5737 7.13202 16.44 7.08089 15.9799C7.03882 15.5273 6.60165 15.1527 6.27221 15.3002C6.13363 15.3567 5.99965 15.386 5.96341 15.3562C5.93622 15.3339 6.00735 15.0052 6.11946 14.6173C6.33671 13.9131 6.29658 13.6014 6.01051 13.6452C5.89925 13.6622 5.77599 13.9635 5.6226 14.5343C5.49668 15.0038 5.36407 15.4213 5.32991 15.4707C5.20011 15.6582 5.02658 15.1286 4.96487 14.3347C4.90719 13.7608 4.82162 13.4737 4.69461 13.4314C4.42472 13.349 4.39042 13.4602 4.42717 14.2491C4.46672 14.8081 4.41401 15.028 4.18396 15.381L3.89925 15.8129L3.60583 15.1074C3.34169 14.5033 3.2738 14.4165 3.08309 14.4457C2.89237 14.4748 2.87856 14.5564 3.0408 15.0613C3.19858 15.5315 3.19607 15.6379 3.03951 15.6177C2.41105 15.5195 2.15086 16.1419 2.43478 17.0255C2.6511 17.6987 3.39089 18.7244 3.84647 18.9903C4.37008 19.281 4.05682 19.3024 3.43562 19.0089C2.03904 18.3572 1.18052 16.661 1.42934 15.0692C1.53994 14.3549 2.02781 13.424 2.52596 12.9506C3.43582 12.0876 4.46679 11.8506 5.60519 12.2593C6.36037 12.5235 6.85651 12.9156 7.27707 13.6017ZM13.1015 26.0508C12.7504 26.7224 12.4495 27.2805 12.4268 27.2928C12.3723 27.3099 12.6249 25.0554 12.6864 24.9666C12.7547 24.8679 13.5858 24.7144 13.6673 24.7814C13.7036 24.8111 13.4458 25.3891 13.1015 26.0508ZM11.8025 27.3528C11.5693 29.0658 11.2118 30.5683 11.021 30.5974C10.9665 30.6146 11.8842 25.407 12.0146 24.9722C12.1313 24.5571 12.0497 25.4965 11.8025 27.3528ZM17.5783 32.438C17.5435 32.7346 17.1706 33.0476 16.4435 33.3794C15.2803 33.9103 12.7914 34.4672 13.0169 34.1415C13.4063 33.5788 15.7425 32.2771 16.6985 32.0869C17.3706 31.9577 17.6268 32.0598 17.5783 32.438ZM5.41552 27.4638C6.00393 28.1949 6.7819 29.3914 6.72724 29.4704C6.69992 29.5099 6.42765 29.472 6.12374 29.3772C5.68376 29.2326 5.31211 28.9892 4.34256 28.1928C3.04457 27.1111 2.59194 26.5535 2.66335 26.1011C2.70729 25.7501 3.07995 25.5608 3.39278 25.7248C3.52201 25.7845 3.7215 25.8865 3.84167 25.9387C4.10236 26.0754 4.95383 26.8987 5.41552 27.4638ZM10.3456 35.1059C10.0798 36.1882 9.95428 36.4723 10.0511 35.8395C10.0928 35.4712 10.4636 34.1344 10.5456 34.016C10.6344 33.8876 10.5837 34.1867 10.3456 35.1059ZM13.849 39.4083C13.9896 40.4373 12.4002 41.6866 10.6338 41.9389C9.678 42.0674 9.05622 42.0211 9.02947 41.8133C8.99157 41.519 9.94566 40.1814 10.4686 39.7748C12.3216 38.3704 13.7042 38.221 13.849 39.4083ZM7.13466 38.7394C7.85366 39.9184 8.40396 41.4234 8.11788 41.4671C8.05431 41.4768 7.47396 41.1859 6.85067 40.8133C5.90327 40.2518 5.61554 40.031 5.08582 39.441C3.65055 37.8594 3.3321 36.2042 4.50287 36.3608C4.99067 36.4363 6.63953 37.9146 7.13466 38.7394Z" fill="#E65D5D" fill-opacity="0.3"/>
</svg>
