<svg width="47" height="56" viewBox="0 0 47 56" fill="none" xmlns="http://www.w3.org/2000/svg">
<path d="M15.6187 20.6859C14.5624 17.9903 13.1493 16.9961 11.3795 17.7032C8.72484 18.7637 6.37094 24.8774 6.57754 31.0674C6.78416 37.2575 8.07696 46.0413 14.891 48.4284C21.705 50.8154 25.4121 43.7321 29.4587 40.082C33.5054 36.4319 36.1983 32.4861 34.9956 25.9762" stroke="#BF9A9A" stroke-opacity="0.3" stroke-width="4" stroke-linecap="round" stroke-linejoin="round"/>
<path d="M13.1853 17.3142C12.2581 14.0781 11.5268 11.5637 10.9914 9.77084C10.1884 7.08161 14.5589 5.50066 15.7294 8.02778C16.5097 9.71252 17.4953 12.1366 18.6862 15.3" stroke="#BF9A9A" stroke-opacity="0.3" stroke-width="4" stroke-linecap="round"/>
<path d="M14.7097 26.3338C15.9387 19.9658 17.428 16.0608 19.1775 14.6187C21.8017 12.4557 25.5382 12.5959 28.7813 13.732C30.7123 14.4085 32.2383 15.8929 33.3594 18.1851" stroke="#BF9A9A" stroke-opacity="0.3" stroke-width="4" stroke-linecap="round" stroke-linejoin="round"/>
<path d="M43.4099 21.7289C43.4077 24.006 41.9607 25.5803 38.9895 25.011C36.0181 24.4417 33.4646 25.2039 31.5732 25.935C29.6819 26.666 25.8653 29.5573 24.7899 31.3033C23.7143 33.0493 21.0888 30.1776 20.4644 29.1115C19.8401 28.0453 19.482 26.0644 21.6255 24.8745C23.769 23.6846 23.5071 23.2056 23.9991 21.41C24.4912 19.6144 35.1896 16.8516 40.447 18.0976C41.6017 18.4255 43.4121 19.4518 43.4099 21.7289Z" stroke="#BF9A9A" stroke-opacity="0.3" stroke-width="4"/>
<path d="M28.7373 6.66113L27.18 12.138" stroke="#BF9A9A" stroke-opacity="0.3" stroke-width="4" stroke-linecap="round"/>
<path d="M24.2713 12.7813C22.4074 7.88441 20.6412 4.8971 18.9727 3.81934" stroke="#BF9A9A" stroke-opacity="0.3" stroke-width="4" stroke-linecap="round"/>
<path d="M22.1055 7.85607L24.2553 3.98574" stroke="#BF9A9A" stroke-opacity="0.3" stroke-width="4" stroke-linecap="round"/>
<path d="M38.7267 17.7209C38.0947 18.7511 37.8001 19.8207 37.8427 20.9298C37.8853 22.0389 38.2712 23.3457 39.0006 24.8501" stroke="#BF9A9A" stroke-opacity="0.3" stroke-width="4" stroke-linecap="round"/>
</svg>
