<svg width="197" height="34" viewBox="0 0 197 34" fill="none" xmlns="http://www.w3.org/2000/svg">
<path d="M5.31543 7.29395C5.12988 7.09863 4.97852 6.85938 4.86133 6.57617C4.75391 6.2832 4.6709 5.99512 4.6123 5.71191C4.54395 5.38965 4.49512 5.04785 4.46582 4.68652C4.41699 3.9834 4.49512 3.34375 4.7002 2.76758C4.90527 2.19141 5.18359 1.69824 5.53516 1.28809C5.88672 0.87793 6.27734 0.560547 6.70703 0.335938C7.14648 0.111328 7.57129 -0.000976562 7.98145 -0.000976562C8.16699 -0.000976562 8.31348 0.0429688 8.4209 0.130859C8.53809 0.21875 8.62598 0.326172 8.68457 0.453125C8.74316 0.580078 8.77734 0.711914 8.78711 0.848633C8.80664 0.985352 8.81641 1.09766 8.81641 1.18555C8.81641 1.49805 8.80664 1.80566 8.78711 2.1084C8.77734 2.41113 8.75293 2.7334 8.71387 3.0752C8.68457 3.41699 8.63574 3.7832 8.56738 4.17383C8.49902 4.56445 8.41113 4.99902 8.30371 5.47754C8.24512 5.74121 8.16211 6.07812 8.05469 6.48828C7.94727 6.89844 7.82031 7.35254 7.67383 7.85059C8.11328 7.86035 8.46484 7.87988 8.72852 7.90918C9.00195 7.92871 9.17773 7.94336 9.25586 7.95312C9.32422 7.96289 9.37305 7.99707 9.40234 8.05566C9.44141 8.11426 9.42188 8.20703 9.34375 8.33398C9.26562 8.45117 9.15332 8.51953 9.00684 8.53906C8.87012 8.55859 8.7334 8.56836 8.59668 8.56836C8.51855 8.56836 8.37207 8.56836 8.15723 8.56836C7.95215 8.56836 7.70801 8.57812 7.4248 8.59766C7.21973 9.20312 6.98535 9.81348 6.72168 10.4287C6.46777 11.0342 6.18457 11.5811 5.87207 12.0693C5.55957 12.5674 5.21777 12.9678 4.84668 13.2705C4.47559 13.583 4.08008 13.7393 3.66016 13.7393C3.05469 13.7393 2.54199 13.6221 2.12207 13.3877C1.71191 13.1631 1.37988 12.8945 1.12598 12.582C0.862305 12.2793 0.671875 11.9717 0.554688 11.6592C0.4375 11.3564 0.378906 11.1221 0.378906 10.9561C0.378906 10.6631 0.457031 10.3652 0.613281 10.0625C0.769531 9.75977 1.01855 9.47656 1.36035 9.21289C1.69238 8.93945 2.12695 8.7002 2.66406 8.49512C3.20117 8.29004 3.8457 8.13379 4.59766 8.02637C4.91016 7.9873 5.20801 7.95801 5.49121 7.93848C5.77441 7.90918 6.04297 7.88477 6.29688 7.86523C6.49219 7.13281 6.6875 6.38574 6.88281 5.62402C7.08789 4.8623 7.26367 4.15918 7.41016 3.51465C7.46875 3.25098 7.52734 2.96777 7.58594 2.66504C7.64453 2.35254 7.68848 2.05957 7.71777 1.78613C7.75684 1.5127 7.77637 1.2832 7.77637 1.09766C7.78613 0.912109 7.7666 0.80957 7.71777 0.790039C7.68848 0.780273 7.61523 0.819336 7.49805 0.907227C7.38086 0.985352 7.24414 1.10254 7.08789 1.25879C6.93164 1.41504 6.77539 1.60547 6.61914 1.83008C6.47266 2.04492 6.35059 2.2793 6.25293 2.5332C6.07715 3.03125 5.94043 3.51953 5.84277 3.99805C5.76465 4.4082 5.71582 4.84277 5.69629 5.30176C5.67676 5.76074 5.75 6.17578 5.91602 6.54688C5.89648 6.68359 5.86719 6.7959 5.82812 6.88379C5.79883 6.93262 5.77441 6.97656 5.75488 7.01562C5.72559 7.04492 5.69141 7.0791 5.65234 7.11816C5.61328 7.14746 5.56445 7.18164 5.50586 7.2207C5.45703 7.25 5.39355 7.27441 5.31543 7.29395ZM5.13965 11.3809C5.24707 11.1562 5.37891 10.8096 5.53516 10.3408C5.69141 9.87207 5.85742 9.33008 6.0332 8.71484C5.55469 8.77344 5.07129 8.85645 4.58301 8.96387C4.09473 9.06152 3.65039 9.19824 3.25 9.37402C2.85938 9.54004 2.53711 9.74512 2.2832 9.98926C2.03906 10.2334 1.91699 10.5215 1.91699 10.8535C1.91699 11.2051 1.98535 11.5127 2.12207 11.7764C2.26855 12.04 2.43945 12.2598 2.63477 12.4355C2.83984 12.6113 3.04492 12.7432 3.25 12.8311C3.46484 12.9287 3.64551 12.9775 3.79199 12.9775C3.93848 12.9775 4.0752 12.9189 4.20215 12.8018C4.33887 12.6943 4.46094 12.5576 4.56836 12.3916C4.68555 12.2354 4.78809 12.0645 4.87598 11.8789C4.97363 11.6934 5.06152 11.5273 5.13965 11.3809ZM21.7938 10.3262C21.7938 10.1211 21.8133 9.88672 21.8523 9.62305C21.9012 9.35938 21.9598 9.09082 22.0281 8.81738C22.0965 8.53418 22.1648 8.26074 22.2332 7.99707C22.3016 7.7334 22.3602 7.49902 22.409 7.29395C22.4676 7.04004 22.4627 6.84473 22.3943 6.70801C22.326 6.57129 22.2088 6.50293 22.0428 6.50293C21.9646 6.50293 21.8084 6.57129 21.574 6.70801C21.3494 6.84473 21.1004 7.08398 20.827 7.42578C20.5633 7.75781 20.2996 8.21191 20.0359 8.78809C19.782 9.35449 19.5818 10.0771 19.4354 10.9561C19.2498 11.0537 19.074 11.1172 18.908 11.1465C18.8201 11.166 18.742 11.1807 18.6736 11.1904C18.4783 11.2002 18.3514 11.166 18.2928 11.0879C18.2342 11.0195 18.2439 10.8438 18.3221 10.5605C18.3611 10.4238 18.4295 10.2041 18.5271 9.90137C18.6346 9.59863 18.7371 9.27148 18.8348 8.91992C18.9324 8.55859 19.0154 8.20215 19.0838 7.85059C19.1619 7.48926 19.201 7.17676 19.201 6.91309C19.201 6.72754 19.1668 6.60059 19.0984 6.53223C19.0398 6.46387 18.952 6.42969 18.8348 6.42969C18.7469 6.42969 18.6004 6.47852 18.3953 6.57617C18.1902 6.67383 17.9607 6.86426 17.7068 7.14746C17.4529 7.43066 17.199 7.82617 16.9451 8.33398C16.701 8.83203 16.491 9.48145 16.3152 10.2822V10.2529C16.2957 10.3311 16.2762 10.4092 16.2566 10.4873C16.2371 10.5557 16.2225 10.6289 16.2127 10.707C16.2029 10.7852 16.1883 10.8584 16.1688 10.9268L15.4363 11.249C15.3875 11.2686 15.324 11.2832 15.2459 11.293C15.1775 11.3027 15.1092 11.2881 15.0408 11.249C14.9822 11.2197 14.9383 11.1514 14.909 11.0439C14.8797 10.9365 14.8895 10.7754 14.9383 10.5605L15.8611 6.7373C15.8904 6.61035 15.9148 6.48828 15.9344 6.37109C15.9539 6.26367 15.9637 6.16113 15.9637 6.06348C15.9734 5.95605 15.9686 5.86816 15.949 5.7998C16.115 5.72168 16.2615 5.66309 16.3885 5.62402C16.5154 5.58496 16.618 5.55566 16.6961 5.53613C16.7938 5.50684 16.8768 5.49219 16.9451 5.49219C17.2576 5.49219 17.3602 5.76074 17.2527 6.29785C17.2137 6.4541 17.1551 6.68359 17.077 6.98633C17.2625 6.75195 17.4578 6.53223 17.6629 6.32715C17.8777 6.1123 18.0926 5.92188 18.3074 5.75586C18.5223 5.58984 18.7371 5.45801 18.952 5.36035C19.1766 5.2627 19.3963 5.21387 19.6111 5.21387C19.7771 5.21387 19.9139 5.2627 20.0213 5.36035C20.1385 5.45801 20.2264 5.58984 20.285 5.75586C20.3533 5.91211 20.3924 6.10254 20.4021 6.32715C20.4119 6.54199 20.4021 6.7666 20.3729 7.00098C20.5291 6.7959 20.7 6.59082 20.8855 6.38574C21.0809 6.1709 21.2811 5.98047 21.4861 5.81445C21.701 5.64844 21.9207 5.51172 22.1453 5.4043C22.3699 5.29688 22.5945 5.24316 22.8191 5.24316C23.0828 5.24316 23.283 5.32129 23.4197 5.47754C23.5662 5.63379 23.6639 5.83398 23.7127 6.07812C23.7713 6.32227 23.7859 6.58594 23.7566 6.86914C23.7371 7.15234 23.698 7.42578 23.6395 7.68945L23.1414 9.66699C23.034 10.1553 23.1365 10.3994 23.449 10.3994C23.6932 10.3994 23.9617 10.2822 24.2547 10.0479C24.5477 9.81348 24.8309 9.53516 25.1043 9.21289C25.3875 8.89062 25.6512 8.55859 25.8953 8.2168C26.1395 7.875 26.3445 7.60156 26.5105 7.39648C26.5691 7.32812 26.6277 7.28906 26.6863 7.2793C26.7547 7.26953 26.8084 7.28418 26.8475 7.32324C26.8963 7.35254 26.9207 7.40625 26.9207 7.48438C26.9305 7.5625 26.9061 7.66016 26.8475 7.77734C26.6521 8.11914 26.4129 8.5 26.1297 8.91992C25.8465 9.33008 25.534 9.71582 25.1922 10.0771C24.8602 10.4385 24.5037 10.7412 24.1229 10.9854C23.742 11.2295 23.3465 11.3516 22.9363 11.3516C22.7996 11.3516 22.6629 11.3369 22.5262 11.3076C22.3992 11.2783 22.2771 11.2246 22.16 11.1465C22.0525 11.0684 21.9646 10.9658 21.8963 10.8389C21.8279 10.7021 21.7938 10.5312 21.7938 10.3262ZM33.8488 8.08496C33.7121 8.28027 33.5363 8.52441 33.3215 8.81738C33.1066 9.10059 32.882 9.38867 32.6477 9.68164C32.423 9.96484 32.1984 10.2285 31.9738 10.4727C31.759 10.707 31.5783 10.873 31.4318 10.9707C31.3342 11.0293 31.2219 11.0781 31.0949 11.1172C30.968 11.1562 30.8361 11.1807 30.6994 11.1904C30.5725 11.2002 30.4504 11.1904 30.3332 11.1611C30.216 11.1416 30.1135 11.1025 30.0256 11.0439C29.9377 10.9756 29.8645 10.8779 29.8059 10.751C29.757 10.6436 29.7082 10.502 29.6594 10.3262C29.6203 10.1504 29.6057 9.93066 29.6154 9.66699C29.3811 10.0576 29.1223 10.3604 28.8391 10.5752C28.5559 10.7803 28.2873 10.9316 28.0334 11.0293C27.7404 11.1367 27.4475 11.2002 27.1545 11.2197C27.0178 11.2197 26.8713 11.1709 26.715 11.0732C26.5588 10.9854 26.427 10.8438 26.3195 10.6484C26.2121 10.4434 26.1437 10.1846 26.1145 9.87207C26.0852 9.5498 26.1242 9.16895 26.2316 8.72949C26.3684 8.13379 26.5832 7.5918 26.8762 7.10352C27.1789 6.61523 27.5061 6.2002 27.8576 5.8584C28.2092 5.50684 28.5559 5.24316 28.8977 5.06738C29.2395 4.8916 29.5227 4.81348 29.7473 4.83301C30.0109 4.88184 30.2258 4.95996 30.3918 5.06738C30.5285 5.16504 30.6164 5.31152 30.6555 5.50684C30.7043 5.69238 30.6262 5.94141 30.4211 6.25391C30.5578 6.22461 30.6701 6.20508 30.758 6.19531C30.8557 6.18555 30.9289 6.18066 30.9777 6.18066C31.0363 6.18066 31.0754 6.18555 31.0949 6.19531C31.1047 6.21484 31.1096 6.25879 31.1096 6.32715C31.1096 6.38574 31.0949 6.49805 31.0656 6.66406C31.0363 6.83008 30.9924 7.05469 30.9338 7.33789C30.8752 7.62109 30.7971 7.9873 30.6994 8.43652C30.6799 8.52441 30.6604 8.60742 30.6408 8.68555C30.6311 8.75391 30.6164 8.82715 30.5969 8.90527C30.5871 8.97363 30.5725 9.05664 30.5529 9.1543C30.5334 9.25195 30.509 9.37402 30.4797 9.52051C30.4699 9.6084 30.465 9.70605 30.465 9.81348C30.4748 9.91113 30.4943 10.0039 30.5236 10.0918C30.5529 10.1797 30.5969 10.2529 30.6555 10.3115C30.7238 10.3604 30.8166 10.3848 30.9338 10.3848C31.0314 10.3848 31.1584 10.3262 31.3146 10.209C31.4709 10.082 31.6369 9.92578 31.8127 9.74023C31.9885 9.54492 32.1691 9.33496 32.3547 9.11035C32.55 8.87598 32.7307 8.65137 32.8967 8.43652C33.0627 8.22168 33.2092 8.03125 33.3361 7.86523C33.4729 7.69922 33.5705 7.57715 33.6291 7.49902C33.7072 7.41113 33.7854 7.3623 33.8635 7.35254C33.9416 7.33301 34.0002 7.35254 34.0393 7.41113C34.0783 7.46973 34.0832 7.55762 34.0539 7.6748C34.0344 7.79199 33.966 7.92871 33.8488 8.08496ZM29.5568 8.72949C29.6057 8.53418 29.6643 8.30469 29.7326 8.04102C29.801 7.77734 29.8596 7.52344 29.9084 7.2793C29.9572 7.03516 29.9914 6.83496 30.0109 6.67871C30.0402 6.5127 30.0354 6.43457 29.9963 6.44434C29.9475 6.4541 29.8937 6.46875 29.8352 6.48828C29.7863 6.50781 29.7229 6.52246 29.6447 6.53223C29.5666 6.54199 29.4885 6.55664 29.4104 6.57617C29.4885 6.41992 29.5324 6.29297 29.5422 6.19531C29.5617 6.08789 29.5666 6.00488 29.5568 5.94629C29.5471 5.87793 29.5275 5.82422 29.4982 5.78516C29.3908 5.69727 29.2004 5.77051 28.927 6.00488C28.6633 6.22949 28.3557 6.64941 28.0041 7.26465C27.8576 7.51855 27.7404 7.79199 27.6525 8.08496C27.5646 8.36816 27.5012 8.63672 27.4621 8.89062C27.4328 9.14453 27.4279 9.36914 27.4475 9.56445C27.467 9.75 27.5061 9.87207 27.5646 9.93066C27.6721 10.0381 27.7941 10.0918 27.9309 10.0918C28.0676 10.082 28.2043 10.043 28.341 9.97461C28.4875 9.89648 28.6291 9.79883 28.7658 9.68164C28.9123 9.56445 29.0393 9.44238 29.1467 9.31543C29.2639 9.18848 29.3566 9.07129 29.425 8.96387C29.5031 8.85645 29.5471 8.77832 29.5568 8.72949ZM38.1256 8.20215C38.0768 8.50488 38.0279 8.79297 37.9791 9.06641C37.94 9.33984 37.9156 9.55957 37.9059 9.72559C37.8961 9.96973 37.94 10.1455 38.0377 10.2529C38.1354 10.3604 38.2428 10.4141 38.36 10.4141C38.4967 10.4141 38.6627 10.3457 38.858 10.209C39.0631 10.0723 39.2779 9.90137 39.5025 9.69629C39.7271 9.49121 39.9518 9.2666 40.1764 9.02246C40.401 8.77832 40.6061 8.54883 40.7916 8.33398C40.9869 8.10938 41.148 7.91406 41.275 7.74805C41.4117 7.58203 41.5045 7.47461 41.5533 7.42578C41.6119 7.36719 41.6705 7.33301 41.7291 7.32324C41.7975 7.31348 41.8512 7.32324 41.8902 7.35254C41.9293 7.38184 41.9488 7.43555 41.9488 7.51367C41.9488 7.5918 41.9098 7.68945 41.8316 7.80664C41.7145 7.99219 41.5631 8.21191 41.3775 8.46582C41.192 8.70996 40.9869 8.96387 40.7623 9.22754C40.5377 9.49121 40.2984 9.75 40.0445 10.0039C39.8004 10.2578 39.5514 10.4824 39.2975 10.6777C39.0533 10.873 38.8141 11.0293 38.5797 11.1465C38.3551 11.2734 38.15 11.3369 37.9645 11.3369C37.8277 11.3369 37.6959 11.2979 37.5689 11.2197C37.4518 11.1416 37.3443 11.0391 37.2467 10.9121C37.149 10.7852 37.0709 10.6436 37.0123 10.4873C36.9635 10.3311 36.9439 10.1748 36.9537 10.0186C36.9635 9.9502 36.9781 9.83301 36.9977 9.66699C36.5875 10.126 36.1725 10.4922 35.7525 10.7656C35.3424 11.0293 34.9469 11.1611 34.566 11.1611C34.4293 11.1611 34.2828 11.127 34.1266 11.0586C33.9703 10.9902 33.8287 10.8779 33.7018 10.7217C33.5846 10.5654 33.4869 10.3604 33.4088 10.1064C33.3307 9.85254 33.3014 9.54492 33.3209 9.18359C33.3502 8.61719 33.4625 8.08008 33.6578 7.57227C33.8531 7.06445 34.0973 6.625 34.3902 6.25391C34.693 5.87305 35.0299 5.5752 35.401 5.36035C35.7818 5.13574 36.1627 5.02344 36.5436 5.02344C36.7096 5.02344 36.8609 5.06738 36.9977 5.15527C37.1344 5.2334 37.2516 5.34082 37.3492 5.47754C37.4469 5.60449 37.525 5.74609 37.5836 5.90234C37.652 6.05859 37.7008 6.20508 37.7301 6.3418C37.7984 6.05859 37.8619 5.78027 37.9205 5.50684C37.9791 5.2334 38.0377 4.97461 38.0963 4.73047C38.1939 4.36914 38.2965 3.97852 38.4039 3.55859C38.5016 3.19727 38.6139 2.78223 38.7408 2.31348C38.8678 1.84473 39.0094 1.35156 39.1656 0.833984C39.2633 0.755859 39.3561 0.697266 39.4439 0.658203C39.5318 0.619141 39.6148 0.589844 39.693 0.570312C39.7809 0.541016 39.8639 0.526367 39.942 0.526367C40.0396 0.526367 40.1275 0.541016 40.2057 0.570312C40.2838 0.589844 40.3473 0.65332 40.3961 0.760742C40.4547 0.858398 40.4938 1.00977 40.5133 1.21484C40.5328 1.41992 40.5328 1.69824 40.5133 2.0498C40.4938 2.47949 40.4156 2.94824 40.2789 3.45605C40.152 3.96387 39.9811 4.49121 39.7662 5.03809C39.5514 5.5752 39.3023 6.11719 39.0191 6.66406C38.7457 7.20117 38.4479 7.71387 38.1256 8.20215ZM37.2613 8.39258C37.3004 8.20703 37.3346 8.02148 37.3639 7.83594C37.4029 7.65039 37.4469 7.45996 37.4957 7.26465C37.4762 7.27441 37.4566 7.28418 37.4371 7.29395C37.4273 7.30371 37.4127 7.31348 37.3932 7.32324C37.2857 7.37207 37.2125 7.37207 37.1734 7.32324C37.1344 7.26465 37.1148 7.17676 37.1148 7.05957C37.1148 7.00098 37.11 6.89844 37.1002 6.75195C37.0904 6.5957 37.0611 6.43945 37.0123 6.2832C36.9732 6.11719 36.9098 5.97559 36.8219 5.8584C36.734 5.73145 36.6119 5.66797 36.4557 5.66797C36.2311 5.66797 36.0016 5.78516 35.7672 6.01953C35.5328 6.24414 35.3131 6.52246 35.108 6.85449C34.9029 7.17676 34.732 7.52344 34.5953 7.89453C34.4586 8.26562 34.3805 8.59766 34.3609 8.89062C34.3414 9.35938 34.4 9.69629 34.5367 9.90137C34.6734 10.1064 34.859 10.209 35.0934 10.209C35.2691 10.209 35.4596 10.1406 35.6646 10.0039C35.8795 9.86719 36.0846 9.70117 36.2799 9.50586C36.485 9.31055 36.6705 9.11035 36.8365 8.90527C37.0123 8.7002 37.1539 8.5293 37.2613 8.39258ZM47.9541 7.95312C47.6611 8.38281 47.3291 8.80273 46.958 9.21289C46.5869 9.61328 46.1914 9.97461 45.7715 10.2969C45.3613 10.6094 44.9365 10.8633 44.4971 11.0586C44.0674 11.2539 43.6475 11.3516 43.2373 11.3516C43.0225 11.3516 42.7881 11.2979 42.5342 11.1904C42.29 11.0928 42.0654 10.9365 41.8604 10.7217C41.6553 10.5068 41.4893 10.2285 41.3623 9.88672C41.2451 9.54492 41.2109 9.12988 41.2598 8.6416C41.2988 8.24121 41.4209 7.82129 41.626 7.38184C41.8408 6.93262 42.0996 6.52246 42.4023 6.15137C42.7148 5.78027 43.0615 5.47266 43.4424 5.22852C43.833 4.98438 44.2236 4.8623 44.6143 4.8623C44.9854 4.8623 45.2539 4.95508 45.4199 5.14062C45.5859 5.32617 45.6592 5.55566 45.6396 5.8291C45.6104 6.13184 45.5225 6.41016 45.376 6.66406C45.2393 6.91797 45.0732 7.14746 44.8779 7.35254C44.6826 7.55762 44.4727 7.74316 44.248 7.90918C44.0332 8.0752 43.8281 8.22656 43.6328 8.36328C43.418 8.50977 43.2129 8.65137 43.0176 8.78809C42.8223 8.91504 42.6514 9.03223 42.5049 9.13965C42.5146 9.38379 42.5586 9.58887 42.6367 9.75488C42.7148 9.9209 42.8125 10.0576 42.9297 10.165C43.0469 10.2627 43.1787 10.3359 43.3252 10.3848C43.4814 10.4238 43.6377 10.4434 43.7939 10.4434C44.126 10.4434 44.4727 10.3408 44.834 10.1357C45.1953 9.9209 45.5469 9.66699 45.8887 9.37402C46.2402 9.07129 46.5625 8.75879 46.8555 8.43652C47.1582 8.11426 47.4072 7.83594 47.6025 7.60156C47.6709 7.52344 47.7393 7.47949 47.8076 7.46973C47.8857 7.4502 47.9443 7.45996 47.9834 7.49902C48.0322 7.52832 48.0566 7.58691 48.0566 7.6748C48.0566 7.75293 48.0225 7.8457 47.9541 7.95312ZM44.2041 5.69727C44.0869 5.69727 43.9453 5.75586 43.7793 5.87305C43.623 5.99023 43.4668 6.16113 43.3105 6.38574C43.1543 6.60059 43.0078 6.86914 42.8711 7.19141C42.7344 7.50391 42.6318 7.86523 42.5635 8.27539C42.6807 8.1875 42.8076 8.09961 42.9443 8.01172C43.0811 7.91406 43.2178 7.81152 43.3545 7.7041C43.7744 7.38184 44.0674 7.09863 44.2334 6.85449C44.3994 6.61035 44.4922 6.40039 44.5117 6.22461C44.5312 6.03906 44.5117 5.90723 44.4531 5.8291C44.3945 5.74121 44.3115 5.69727 44.2041 5.69727ZM59.8182 8.08496C59.6814 8.28027 59.5057 8.52441 59.2908 8.81738C59.076 9.10059 58.8514 9.38867 58.617 9.68164C58.3924 9.96484 58.1678 10.2285 57.9432 10.4727C57.7283 10.707 57.5477 10.873 57.4012 10.9707C57.3035 11.0293 57.1912 11.0781 57.0643 11.1172C56.9373 11.1562 56.8055 11.1807 56.6687 11.1904C56.5418 11.2002 56.4197 11.1904 56.3025 11.1611C56.1853 11.1416 56.0828 11.1025 55.9949 11.0439C55.907 10.9756 55.8338 10.8779 55.7752 10.751C55.7264 10.6436 55.6775 10.502 55.6287 10.3262C55.5896 10.1504 55.575 9.93066 55.5848 9.66699C55.3504 10.0576 55.0916 10.3604 54.8084 10.5752C54.5252 10.7803 54.2566 10.9316 54.0027 11.0293C53.7098 11.1367 53.4168 11.2002 53.1238 11.2197C52.9871 11.2197 52.8406 11.1709 52.6844 11.0732C52.5281 10.9854 52.3963 10.8438 52.2889 10.6484C52.1814 10.4434 52.1131 10.1846 52.0838 9.87207C52.0545 9.5498 52.0936 9.16895 52.201 8.72949C52.3377 8.13379 52.5525 7.5918 52.8455 7.10352C53.1482 6.61523 53.4754 6.2002 53.827 5.8584C54.1785 5.50684 54.5252 5.24316 54.867 5.06738C55.2088 4.8916 55.492 4.81348 55.7166 4.83301C55.9803 4.88184 56.1951 4.95996 56.3611 5.06738C56.4978 5.16504 56.5857 5.31152 56.6248 5.50684C56.6736 5.69238 56.5955 5.94141 56.3904 6.25391C56.5271 6.22461 56.6395 6.20508 56.7273 6.19531C56.825 6.18555 56.8982 6.18066 56.9471 6.18066C57.0057 6.18066 57.0447 6.18555 57.0643 6.19531C57.074 6.21484 57.0789 6.25879 57.0789 6.32715C57.0789 6.38574 57.0643 6.49805 57.035 6.66406C57.0057 6.83008 56.9617 7.05469 56.9031 7.33789C56.8445 7.62109 56.7664 7.9873 56.6687 8.43652C56.6492 8.52441 56.6297 8.60742 56.6102 8.68555C56.6004 8.75391 56.5857 8.82715 56.5662 8.90527C56.5564 8.97363 56.5418 9.05664 56.5223 9.1543C56.5027 9.25195 56.4783 9.37402 56.449 9.52051C56.4393 9.6084 56.4344 9.70605 56.4344 9.81348C56.4441 9.91113 56.4637 10.0039 56.493 10.0918C56.5223 10.1797 56.5662 10.2529 56.6248 10.3115C56.6932 10.3604 56.7859 10.3848 56.9031 10.3848C57.0008 10.3848 57.1277 10.3262 57.284 10.209C57.4402 10.082 57.6062 9.92578 57.782 9.74023C57.9578 9.54492 58.1385 9.33496 58.324 9.11035C58.5193 8.87598 58.7 8.65137 58.866 8.43652C59.032 8.22168 59.1785 8.03125 59.3055 7.86523C59.4422 7.69922 59.5398 7.57715 59.5984 7.49902C59.6766 7.41113 59.7547 7.3623 59.8328 7.35254C59.9109 7.33301 59.9695 7.35254 60.0086 7.41113C60.0477 7.46973 60.0525 7.55762 60.0232 7.6748C60.0037 7.79199 59.9353 7.92871 59.8182 8.08496ZM55.5262 8.72949C55.575 8.53418 55.6336 8.30469 55.702 8.04102C55.7703 7.77734 55.8289 7.52344 55.8777 7.2793C55.9266 7.03516 55.9607 6.83496 55.9803 6.67871C56.0096 6.5127 56.0047 6.43457 55.9656 6.44434C55.9168 6.4541 55.8631 6.46875 55.8045 6.48828C55.7557 6.50781 55.6922 6.52246 55.6141 6.53223C55.5359 6.54199 55.4578 6.55664 55.3797 6.57617C55.4578 6.41992 55.5018 6.29297 55.5115 6.19531C55.5311 6.08789 55.5359 6.00488 55.5262 5.94629C55.5164 5.87793 55.4969 5.82422 55.4676 5.78516C55.3602 5.69727 55.1697 5.77051 54.8963 6.00488C54.6326 6.22949 54.325 6.64941 53.9734 7.26465C53.827 7.51855 53.7098 7.79199 53.6219 8.08496C53.534 8.36816 53.4705 8.63672 53.4314 8.89062C53.4021 9.14453 53.3973 9.36914 53.4168 9.56445C53.4363 9.75 53.4754 9.87207 53.534 9.93066C53.6414 10.0381 53.7635 10.0918 53.9002 10.0918C54.0369 10.082 54.1736 10.043 54.3103 9.97461C54.4568 9.89648 54.5984 9.79883 54.7352 9.68164C54.8816 9.56445 55.0086 9.44238 55.116 9.31543C55.2332 9.18848 55.326 9.07129 55.3943 8.96387C55.4725 8.85645 55.5164 8.77832 55.5262 8.72949ZM68.108 13.0947C68.0592 13.3291 67.9957 13.6221 67.9176 13.9736C67.8492 14.3252 67.7662 14.6963 67.6686 15.0869C67.5807 15.4775 67.4732 15.8633 67.3463 16.2441C67.2291 16.6348 67.0973 16.9814 66.9508 17.2842C66.8043 17.5967 66.6432 17.8506 66.4674 18.0459C66.2916 18.2412 66.0963 18.3389 65.8814 18.3389C65.5592 18.3389 65.2809 18.2412 65.0465 18.0459C64.8219 17.8604 64.6314 17.6211 64.4752 17.3281C64.3189 17.0449 64.2066 16.7373 64.1383 16.4053C64.0602 16.0732 64.0211 15.7656 64.0211 15.4824C64.0211 15.0918 64.0553 14.7646 64.1236 14.501C64.192 14.2471 64.3092 14.0029 64.4752 13.7686C64.651 13.5342 64.8854 13.2852 65.1783 13.0215C65.4713 12.7578 65.8473 12.4307 66.3063 12.04C66.5309 11.8447 66.7457 11.6592 66.9508 11.4834C67.1559 11.3076 67.3512 11.1465 67.5367 11C67.5855 10.8047 67.6295 10.624 67.6686 10.458C67.7174 10.2822 67.7564 10.126 67.7857 9.98926C67.5318 10.3311 67.2242 10.6191 66.8629 10.8535C66.5113 11.0879 66.1061 11.2051 65.6471 11.2051C65.2271 11.2051 64.8854 11.0195 64.6217 10.6484C64.3678 10.2676 64.2408 9.71094 64.2408 8.97852C64.2408 8.61719 64.3092 8.20215 64.4459 7.7334C64.5826 7.26465 64.7779 6.8252 65.0318 6.41504C65.2857 6.00488 65.5982 5.6582 65.9693 5.375C66.3404 5.0918 66.7555 4.9502 67.2145 4.9502C67.4293 4.9502 67.6148 5.00391 67.7711 5.11133C67.9273 5.21875 68.0592 5.35547 68.1666 5.52148C68.274 5.67773 68.357 5.84863 68.4156 6.03418C68.4742 6.20996 68.5182 6.37598 68.5475 6.53223C68.567 6.47363 68.5816 6.41504 68.5914 6.35645C68.6012 6.28809 68.6158 6.22949 68.6354 6.18066C68.733 5.84863 68.8404 5.62402 68.9576 5.50684C69.0846 5.37988 69.2701 5.31641 69.5143 5.31641C69.651 5.31641 69.7633 5.34082 69.8512 5.38965C69.9488 5.43848 69.9977 5.48242 69.9977 5.52148C69.9488 5.62891 69.9098 5.71191 69.8805 5.77051C69.8512 5.8291 69.8219 5.89258 69.7926 5.96094C69.7633 6.01953 69.734 6.09766 69.7047 6.19531C69.6754 6.29297 69.6363 6.43457 69.5875 6.62012C69.568 6.68848 69.5289 6.84961 69.4703 7.10352C69.4215 7.34766 69.3531 7.64062 69.2652 7.98242C69.1871 8.32422 69.0992 8.7002 69.0016 9.11035C68.9137 9.52051 68.8258 9.9209 68.7379 10.3115C69.0113 10.1553 69.2945 9.96484 69.5875 9.74023C69.8805 9.51562 70.1588 9.28613 70.4225 9.05176C70.6861 8.81738 70.9205 8.59766 71.1256 8.39258C71.3307 8.17773 71.482 8.00195 71.5797 7.86523C71.6578 7.74805 71.7457 7.66504 71.8434 7.61621C71.941 7.56738 72.024 7.55273 72.0924 7.57227C72.1705 7.58203 72.2145 7.62598 72.2242 7.7041C72.2438 7.77246 72.2145 7.87012 72.1363 7.99707C71.9117 8.3584 71.6383 8.70996 71.316 9.05176C70.9938 9.38379 70.6617 9.69629 70.3199 9.98926C69.9879 10.2725 69.6607 10.5264 69.3385 10.751C69.026 10.9658 68.7574 11.1416 68.5328 11.2783C68.4352 11.7178 68.3521 12.0742 68.2838 12.3477C68.2154 12.6211 68.1568 12.8701 68.108 13.0947ZM66.2623 10.209C66.4674 10.209 66.6578 10.1553 66.8336 10.0479C67.0191 9.94043 67.1852 9.81836 67.3316 9.68164C67.4781 9.53516 67.6002 9.38867 67.6979 9.24219C67.7955 9.0957 67.8688 8.97852 67.9176 8.89062C67.9566 8.80273 68.0006 8.68555 68.0494 8.53906C68.108 8.39258 68.152 8.25098 68.1813 8.11426C68.2105 7.97754 68.2203 7.85547 68.2105 7.74805C68.2105 7.64062 68.1764 7.58203 68.108 7.57227C68.0494 7.5625 68.0006 7.52344 67.9615 7.45508C67.9322 7.38672 67.9078 7.30859 67.8883 7.2207C67.8688 7.13281 67.8541 7.04492 67.8443 6.95703C67.8443 6.86914 67.8395 6.79102 67.8297 6.72266C67.7809 6.38086 67.6979 6.13184 67.5807 5.97559C67.4635 5.81934 67.3316 5.74121 67.1852 5.74121C66.941 5.74121 66.7066 5.83887 66.482 6.03418C66.2672 6.22949 66.0719 6.4834 65.8961 6.7959C65.7301 7.09863 65.5982 7.43555 65.5006 7.80664C65.4029 8.16797 65.3541 8.51465 65.3541 8.84668C65.3541 9.25684 65.4127 9.58887 65.5299 9.84277C65.6471 10.0869 65.8912 10.209 66.2623 10.209ZM65.5885 17.0059C65.7838 17.0059 65.94 16.8594 66.0572 16.5664C66.1842 16.2832 66.316 15.8926 66.4527 15.3945C66.482 15.2773 66.5211 15.1064 66.5699 14.8818C66.6285 14.667 66.692 14.418 66.7604 14.1348C66.8385 13.8516 66.9166 13.5439 66.9947 13.2119C67.0729 12.8896 67.1559 12.5625 67.2438 12.2305C67.1656 12.2988 67.0826 12.3672 66.9947 12.4355C66.9166 12.5137 66.8336 12.6016 66.7457 12.6992C66.5309 12.9043 66.3209 13.0996 66.1158 13.2852C65.9205 13.4805 65.7447 13.6807 65.5885 13.8857C65.4322 14.1006 65.3053 14.3301 65.2076 14.5742C65.1197 14.8184 65.0758 15.1016 65.0758 15.4238C65.0758 15.7461 65.0855 16.0098 65.1051 16.2148C65.1344 16.4199 65.1686 16.5811 65.2076 16.6982C65.2564 16.8154 65.3102 16.8936 65.3688 16.9326C65.4371 16.9814 65.5104 17.0059 65.5885 17.0059ZM79.2549 8.08496C79.1182 8.28027 78.9424 8.52441 78.7275 8.81738C78.5127 9.10059 78.2881 9.38867 78.0537 9.68164C77.8291 9.96484 77.6045 10.2285 77.3799 10.4727C77.165 10.707 76.9844 10.873 76.8379 10.9707C76.7402 11.0293 76.6279 11.0781 76.501 11.1172C76.374 11.1562 76.2422 11.1807 76.1055 11.1904C75.9785 11.2002 75.8564 11.1904 75.7393 11.1611C75.6221 11.1416 75.5195 11.1025 75.4316 11.0439C75.3438 10.9756 75.2705 10.8779 75.2119 10.751C75.1631 10.6436 75.1143 10.502 75.0654 10.3262C75.0264 10.1504 75.0117 9.93066 75.0215 9.66699C74.7871 10.0576 74.5283 10.3604 74.2451 10.5752C73.9619 10.7803 73.6934 10.9316 73.4395 11.0293C73.1465 11.1367 72.8535 11.2002 72.5605 11.2197C72.4238 11.2197 72.2773 11.1709 72.1211 11.0732C71.9648 10.9854 71.833 10.8438 71.7256 10.6484C71.6182 10.4434 71.5498 10.1846 71.5205 9.87207C71.4912 9.5498 71.5303 9.16895 71.6377 8.72949C71.7744 8.13379 71.9893 7.5918 72.2822 7.10352C72.585 6.61523 72.9121 6.2002 73.2637 5.8584C73.6152 5.50684 73.9619 5.24316 74.3037 5.06738C74.6455 4.8916 74.9287 4.81348 75.1533 4.83301C75.417 4.88184 75.6318 4.95996 75.7979 5.06738C75.9346 5.16504 76.0225 5.31152 76.0615 5.50684C76.1104 5.69238 76.0322 5.94141 75.8271 6.25391C75.9639 6.22461 76.0762 6.20508 76.1641 6.19531C76.2617 6.18555 76.335 6.18066 76.3838 6.18066C76.4424 6.18066 76.4814 6.18555 76.501 6.19531C76.5107 6.21484 76.5156 6.25879 76.5156 6.32715C76.5156 6.38574 76.501 6.49805 76.4717 6.66406C76.4424 6.83008 76.3984 7.05469 76.3398 7.33789C76.2812 7.62109 76.2031 7.9873 76.1055 8.43652C76.0859 8.52441 76.0664 8.60742 76.0469 8.68555C76.0371 8.75391 76.0225 8.82715 76.0029 8.90527C75.9932 8.97363 75.9785 9.05664 75.959 9.1543C75.9395 9.25195 75.915 9.37402 75.8857 9.52051C75.876 9.6084 75.8711 9.70605 75.8711 9.81348C75.8809 9.91113 75.9004 10.0039 75.9297 10.0918C75.959 10.1797 76.0029 10.2529 76.0615 10.3115C76.1299 10.3604 76.2227 10.3848 76.3398 10.3848C76.4375 10.3848 76.5645 10.3262 76.7207 10.209C76.877 10.082 77.043 9.92578 77.2188 9.74023C77.3945 9.54492 77.5752 9.33496 77.7607 9.11035C77.9561 8.87598 78.1367 8.65137 78.3027 8.43652C78.4688 8.22168 78.6152 8.03125 78.7422 7.86523C78.8789 7.69922 78.9766 7.57715 79.0352 7.49902C79.1133 7.41113 79.1914 7.3623 79.2695 7.35254C79.3477 7.33301 79.4062 7.35254 79.4453 7.41113C79.4844 7.46973 79.4893 7.55762 79.46 7.6748C79.4404 7.79199 79.3721 7.92871 79.2549 8.08496ZM74.9629 8.72949C75.0117 8.53418 75.0703 8.30469 75.1387 8.04102C75.207 7.77734 75.2656 7.52344 75.3145 7.2793C75.3633 7.03516 75.3975 6.83496 75.417 6.67871C75.4463 6.5127 75.4414 6.43457 75.4023 6.44434C75.3535 6.4541 75.2998 6.46875 75.2412 6.48828C75.1924 6.50781 75.1289 6.52246 75.0508 6.53223C74.9727 6.54199 74.8945 6.55664 74.8164 6.57617C74.8945 6.41992 74.9385 6.29297 74.9482 6.19531C74.9678 6.08789 74.9727 6.00488 74.9629 5.94629C74.9531 5.87793 74.9336 5.82422 74.9043 5.78516C74.7969 5.69727 74.6064 5.77051 74.333 6.00488C74.0693 6.22949 73.7617 6.64941 73.4102 7.26465C73.2637 7.51855 73.1465 7.79199 73.0586 8.08496C72.9707 8.36816 72.9072 8.63672 72.8682 8.89062C72.8389 9.14453 72.834 9.36914 72.8535 9.56445C72.873 9.75 72.9121 9.87207 72.9707 9.93066C73.0781 10.0381 73.2002 10.0918 73.3369 10.0918C73.4736 10.082 73.6104 10.043 73.7471 9.97461C73.8936 9.89648 74.0352 9.79883 74.1719 9.68164C74.3184 9.56445 74.4453 9.44238 74.5527 9.31543C74.6699 9.18848 74.7627 9.07129 74.8311 8.96387C74.9092 8.85645 74.9531 8.77832 74.9629 8.72949ZM78.6537 10.7656C79.0834 8.95898 79.4252 7.50879 79.6791 6.41504C79.9428 5.32129 80.143 4.48633 80.2797 3.91016C80.4359 3.22656 80.5434 2.75293 80.602 2.48926C80.6312 2.30371 80.6557 2.12305 80.6752 1.94727C80.6947 1.79102 80.7045 1.62988 80.7045 1.46387C80.7045 1.29785 80.6898 1.14648 80.6605 1.00977C80.7387 0.960937 80.8217 0.921875 80.9096 0.892578C81.0072 0.863281 81.1 0.838867 81.1879 0.819336C81.2953 0.790039 81.4027 0.765625 81.5102 0.746094C81.6176 0.726562 81.7152 0.716797 81.8031 0.716797C81.8812 0.716797 81.9545 0.726562 82.0229 0.746094C82.0912 0.755859 82.1352 0.785156 82.1547 0.833984C82.2133 0.882813 82.2377 0.980469 82.2279 1.12695C82.2279 1.27344 82.2182 1.4248 82.1986 1.58105C82.1596 1.7666 82.1156 1.9668 82.0668 2.18164C81.9496 2.60156 81.7885 3.20703 81.5834 3.99805C81.4076 4.67188 81.1684 5.58984 80.8656 6.75195C80.5727 7.91406 80.2016 9.37891 79.7523 11.1465C79.7035 11.1953 79.6449 11.2295 79.5766 11.249C79.5082 11.2686 79.4447 11.2783 79.3861 11.2783C79.3178 11.2783 79.2445 11.2734 79.1664 11.2637C79.098 11.2441 79.0297 11.2148 78.9613 11.1758C78.9027 11.1367 78.8441 11.083 78.7855 11.0146C78.727 10.9561 78.683 10.873 78.6537 10.7656ZM82.535 10.7656C82.9646 8.95898 83.3064 7.50879 83.5603 6.41504C83.824 5.32129 84.0242 4.48633 84.1609 3.91016C84.3172 3.22656 84.4246 2.75293 84.4832 2.48926C84.5125 2.30371 84.5369 2.12305 84.5564 1.94727C84.576 1.79102 84.5857 1.62988 84.5857 1.46387C84.5857 1.29785 84.5711 1.14648 84.5418 1.00977C84.6199 0.960937 84.7029 0.921875 84.7908 0.892578C84.8885 0.863281 84.9812 0.838867 85.0691 0.819336C85.1766 0.790039 85.284 0.765625 85.3914 0.746094C85.4988 0.726562 85.5965 0.716797 85.6844 0.716797C85.7625 0.716797 85.8357 0.726562 85.9041 0.746094C85.9725 0.755859 86.0164 0.785156 86.0359 0.833984C86.0945 0.882813 86.1189 0.980469 86.1092 1.12695C86.1092 1.27344 86.0994 1.4248 86.0799 1.58105C86.0408 1.7666 85.9969 1.9668 85.948 2.18164C85.8309 2.60156 85.6697 3.20703 85.4646 3.99805C85.2889 4.67188 85.0496 5.58984 84.7469 6.75195C84.4539 7.91406 84.0828 9.37891 83.6336 11.1465C83.5848 11.1953 83.5262 11.2295 83.4578 11.249C83.3895 11.2686 83.326 11.2783 83.2674 11.2783C83.199 11.2783 83.1258 11.2734 83.0477 11.2637C82.9793 11.2441 82.9109 11.2148 82.8426 11.1758C82.784 11.1367 82.7254 11.083 82.6668 11.0146C82.6082 10.9561 82.5643 10.873 82.535 10.7656ZM93.2717 7.95312C92.9787 8.38281 92.6467 8.80273 92.2756 9.21289C91.9045 9.61328 91.509 9.97461 91.0891 10.2969C90.6789 10.6094 90.2541 10.8633 89.8147 11.0586C89.385 11.2539 88.965 11.3516 88.5549 11.3516C88.34 11.3516 88.1057 11.2979 87.8518 11.1904C87.6076 11.0928 87.383 10.9365 87.1779 10.7217C86.9729 10.5068 86.8068 10.2285 86.6799 9.88672C86.5627 9.54492 86.5285 9.12988 86.5773 8.6416C86.6164 8.24121 86.7385 7.82129 86.9436 7.38184C87.1584 6.93262 87.4172 6.52246 87.7199 6.15137C88.0324 5.78027 88.3791 5.47266 88.76 5.22852C89.1506 4.98438 89.5412 4.8623 89.9318 4.8623C90.3029 4.8623 90.5715 4.95508 90.7375 5.14062C90.9035 5.32617 90.9768 5.55566 90.9572 5.8291C90.9279 6.13184 90.84 6.41016 90.6936 6.66406C90.5568 6.91797 90.3908 7.14746 90.1955 7.35254C90.0002 7.55762 89.7902 7.74316 89.5656 7.90918C89.3508 8.0752 89.1457 8.22656 88.9504 8.36328C88.7355 8.50977 88.5305 8.65137 88.3352 8.78809C88.1398 8.91504 87.9689 9.03223 87.8225 9.13965C87.8322 9.38379 87.8762 9.58887 87.9543 9.75488C88.0324 9.9209 88.1301 10.0576 88.2473 10.165C88.3645 10.2627 88.4963 10.3359 88.6428 10.3848C88.799 10.4238 88.9553 10.4434 89.1115 10.4434C89.4436 10.4434 89.7902 10.3408 90.1516 10.1357C90.5129 9.9209 90.8645 9.66699 91.2063 9.37402C91.5578 9.07129 91.8801 8.75879 92.173 8.43652C92.4758 8.11426 92.7248 7.83594 92.9201 7.60156C92.9885 7.52344 93.0568 7.47949 93.1252 7.46973C93.2033 7.4502 93.2619 7.45996 93.301 7.49902C93.3498 7.52832 93.3742 7.58691 93.3742 7.6748C93.3742 7.75293 93.34 7.8457 93.2717 7.95312ZM89.5217 5.69727C89.4045 5.69727 89.2629 5.75586 89.0969 5.87305C88.9406 5.99023 88.7844 6.16113 88.6281 6.38574C88.4719 6.60059 88.3254 6.86914 88.1887 7.19141C88.052 7.50391 87.9494 7.86523 87.8811 8.27539C87.9982 8.1875 88.1252 8.09961 88.2619 8.01172C88.3986 7.91406 88.5354 7.81152 88.6721 7.7041C89.092 7.38184 89.385 7.09863 89.551 6.85449C89.717 6.61035 89.8098 6.40039 89.8293 6.22461C89.8488 6.03906 89.8293 5.90723 89.7707 5.8291C89.7121 5.74121 89.6291 5.69727 89.5217 5.69727ZM92.2604 10.9268C92.192 11.0342 92.1188 11.1025 92.0406 11.1318C91.9527 11.1709 91.8795 11.1758 91.8209 11.1465C91.7525 11.127 91.7086 11.0781 91.6891 11C91.6695 10.9219 91.6891 10.8242 91.7477 10.707C91.777 10.6484 91.8453 10.5166 91.9527 10.3115C92.0504 10.1064 92.1725 9.8623 92.3189 9.5791C92.4557 9.28613 92.607 8.97363 92.773 8.6416C92.9391 8.2998 93.0953 7.97754 93.2418 7.6748C93.398 7.37207 93.5396 7.10352 93.6666 6.86914C93.7936 6.625 93.8863 6.44922 93.9449 6.3418C93.8375 6.24414 93.7643 6.17578 93.7252 6.13672C93.6861 6.08789 93.6568 5.99023 93.6373 5.84375C93.6178 5.7168 93.6471 5.55078 93.7252 5.3457C93.8033 5.14062 93.9059 4.94531 94.0328 4.75977C94.1598 4.56445 94.3014 4.39844 94.4576 4.26172C94.6139 4.125 94.7652 4.05664 94.9117 4.05664C95.1852 4.05664 95.3756 4.14453 95.483 4.32031C95.6002 4.49609 95.6686 4.67676 95.6881 4.8623C95.7076 4.98926 95.6979 5.15039 95.6588 5.3457C95.6197 5.54102 95.5465 5.7168 95.4391 5.87305C95.4684 5.89258 95.5074 5.91699 95.5563 5.94629C95.6051 5.96582 95.6832 5.97559 95.7906 5.97559C95.9469 5.97559 96.0543 5.96582 96.1129 5.94629C96.1813 5.92676 96.2838 5.91699 96.4205 5.91699C96.5865 5.91699 96.7232 5.96094 96.8307 6.04883C96.9381 6.12695 97.026 6.22949 97.0943 6.35645C97.1627 6.47363 97.2115 6.60547 97.2408 6.75195C97.2799 6.88867 97.3043 7.01562 97.3141 7.13281C97.3434 7.37695 97.2799 7.63086 97.1236 7.89453C96.9674 8.1582 96.777 8.44629 96.5523 8.75879C96.4156 8.9541 96.2789 9.17383 96.1422 9.41797C96.0055 9.66211 95.9469 9.88184 95.9664 10.0771C95.9859 10.2041 96.0201 10.3066 96.0689 10.3848C96.1178 10.4629 96.2545 10.502 96.4791 10.502C96.6451 10.502 96.8258 10.4434 97.0211 10.3262C97.2262 10.1992 97.4313 10.043 97.6363 9.85742C97.8512 9.66211 98.0611 9.45215 98.2662 9.22754C98.4713 8.99316 98.6617 8.76855 98.8375 8.55371C99.0133 8.3291 99.1598 8.12891 99.277 7.95312C99.4039 7.77734 99.4967 7.65039 99.5553 7.57227C99.6041 7.49414 99.6676 7.44043 99.7457 7.41113C99.8238 7.38184 99.8922 7.38184 99.9508 7.41113C100.009 7.44043 100.044 7.49902 100.053 7.58691C100.073 7.6748 100.039 7.79199 99.9508 7.93848C99.8922 8.03613 99.7896 8.19238 99.6432 8.40723C99.5064 8.62207 99.3355 8.86133 99.1305 9.125C98.9352 9.38867 98.7154 9.66211 98.4713 9.94531C98.2271 10.2188 97.9684 10.4727 97.6949 10.707C97.4313 10.9316 97.1627 11.1172 96.8893 11.2637C96.6256 11.4102 96.3717 11.4834 96.1275 11.4834C95.8736 11.4834 95.6637 11.4346 95.4977 11.3369C95.3316 11.2393 95.1949 11.1221 95.0875 10.9854C94.9898 10.8389 94.9166 10.6826 94.8678 10.5166C94.8287 10.3408 94.8141 10.1797 94.8238 10.0332C94.8336 9.91602 94.8629 9.79395 94.9117 9.66699C94.9703 9.53027 95.0338 9.39355 95.1021 9.25684C95.1803 9.11035 95.2584 8.96875 95.3365 8.83203C95.4244 8.68555 95.5025 8.54395 95.5709 8.40723C95.7369 8.12402 95.8688 7.88477 95.9664 7.68945C96.0738 7.48438 96.1275 7.31348 96.1275 7.17676C96.1275 7.08887 96.108 7.01074 96.0689 6.94238C96.0299 6.87402 95.9664 6.83984 95.8785 6.83984C95.8199 6.83984 95.776 6.84473 95.7467 6.85449C95.7271 6.85449 95.7027 6.85449 95.6734 6.85449C95.6539 6.85449 95.6197 6.85938 95.5709 6.86914C95.5318 6.86914 95.4684 6.86914 95.3805 6.86914C95.2535 6.86914 95.1461 6.84961 95.0582 6.81055C94.9703 6.77148 94.8873 6.74219 94.8092 6.72266C94.7701 6.79102 94.6822 6.9375 94.5455 7.16211C94.4088 7.38672 94.2477 7.65039 94.0621 7.95312C93.8863 8.25586 93.6959 8.57324 93.4908 8.90527C93.2955 9.2373 93.11 9.5498 92.9342 9.84277C92.7584 10.126 92.6119 10.3701 92.4947 10.5752C92.3678 10.7705 92.2896 10.8877 92.2604 10.9268ZM103.363 5.60938C103.49 5.51172 103.612 5.43848 103.729 5.38965C103.856 5.33105 103.969 5.29199 104.066 5.27246C104.174 5.24316 104.281 5.2334 104.389 5.24316C104.652 5.2627 104.813 5.3457 104.872 5.49219C104.94 5.63867 104.95 5.87305 104.901 6.19531C104.872 6.36133 104.813 6.57129 104.726 6.8252C104.638 7.0791 104.535 7.3916 104.418 7.7627C104.301 8.12402 104.174 8.53906 104.037 9.00781C103.91 9.47656 103.788 10.0039 103.671 10.5898C103.554 11.0684 103.427 11.6201 103.29 12.2451C103.173 12.792 103.031 13.4512 102.865 14.2227C102.709 14.9941 102.538 15.8779 102.353 16.874C102.304 17.1182 102.196 17.2598 102.03 17.2988C101.874 17.3379 101.708 17.3184 101.532 17.2402C101.464 17.2012 101.4 17.1572 101.342 17.1084C101.293 17.0596 101.239 17.001 101.181 16.9326C101.122 16.874 101.073 16.791 101.034 16.6836C101.259 15.8633 101.454 15.1162 101.62 14.4424C101.796 13.7686 101.952 13.1826 102.089 12.6846C102.235 12.1084 102.372 11.5908 102.499 11.1318C102.548 10.9268 102.592 10.7266 102.631 10.5312C102.68 10.3262 102.729 10.126 102.777 9.93066C102.65 10.1357 102.514 10.3311 102.367 10.5166C102.221 10.7021 102.06 10.8633 101.884 11C101.708 11.1367 101.518 11.2393 101.312 11.3076C101.117 11.3857 100.912 11.4102 100.697 11.3809C100.17 11.3125 99.7939 11.1172 99.5693 10.7949C99.3545 10.4727 99.2617 10.0527 99.291 9.53516C99.3008 9.33008 99.3301 9.10547 99.3789 8.86133C99.4277 8.61719 99.4814 8.38281 99.54 8.1582C99.5986 7.93359 99.6523 7.7334 99.7012 7.55762C99.7598 7.37207 99.8037 7.24023 99.833 7.16211C99.9502 6.79102 100.033 6.47363 100.082 6.20996C100.141 5.94629 100.102 5.72656 99.9648 5.55078C100.102 5.46289 100.229 5.4043 100.346 5.375C100.473 5.33594 100.585 5.30664 100.683 5.28711C100.79 5.27734 100.897 5.27734 101.005 5.28711C101.269 5.32617 101.42 5.42383 101.459 5.58008C101.508 5.73633 101.493 5.9707 101.415 6.2832C101.376 6.44922 101.312 6.66406 101.225 6.92773C101.137 7.18164 101.044 7.44531 100.946 7.71875C100.849 7.99219 100.761 8.24609 100.683 8.48047C100.604 8.70508 100.561 8.86621 100.551 8.96387C100.463 9.40332 100.458 9.74512 100.536 9.98926C100.614 10.2236 100.785 10.3408 101.049 10.3408C101.176 10.3408 101.317 10.2871 101.474 10.1797C101.63 10.0625 101.786 9.91113 101.942 9.72559C102.108 9.54004 102.27 9.33008 102.426 9.0957C102.582 8.85156 102.724 8.60742 102.851 8.36328C102.987 8.11914 103.104 7.87988 103.202 7.64551C103.31 7.41113 103.388 7.20117 103.437 7.01562C103.505 6.6543 103.549 6.37109 103.568 6.16602C103.588 5.96094 103.52 5.77539 103.363 5.60938ZM111.302 9.47656C111.194 9.36914 111.116 9.2666 111.067 9.16895C111.028 9.06152 110.999 8.95898 110.979 8.86133C110.96 8.75391 110.96 8.64648 110.979 8.53906C111.018 8.40234 111.077 8.27539 111.155 8.1582C111.223 8.05078 111.316 7.94336 111.433 7.83594C111.551 7.71875 111.707 7.61133 111.902 7.51367C112.029 7.20117 112.141 6.87402 112.239 6.53223C112.346 6.18066 112.439 5.86328 112.517 5.58008C112.605 5.24805 112.683 4.91602 112.752 4.58398C112.996 3.75391 113.123 3.08008 113.133 2.5625C113.142 2.03516 113.133 1.68848 113.103 1.52246C113.094 1.4541 113.084 1.38574 113.074 1.31738C113.054 1.25879 113.035 1.19531 113.015 1.12695C113.006 1.04883 112.991 0.975586 112.971 0.907227C113.079 0.848633 113.172 0.799805 113.25 0.760742C113.338 0.72168 113.411 0.692383 113.47 0.672852C113.538 0.643555 113.601 0.624023 113.66 0.614258C113.885 0.56543 114.095 0.541016 114.29 0.541016C114.495 0.53125 114.607 0.56543 114.627 0.643555C114.637 0.692383 114.646 0.780273 114.656 0.907227C114.676 1.03418 114.685 1.19043 114.685 1.37598C114.685 1.56152 114.671 1.77148 114.641 2.00586C114.612 2.23047 114.558 2.46973 114.48 2.72363C114.412 2.94824 114.319 3.26074 114.202 3.66113C114.095 4.00293 113.953 4.46191 113.777 5.03809C113.601 5.60449 113.372 6.33203 113.089 7.2207C113.382 7.12305 113.704 7.03027 114.055 6.94238C114.407 6.85449 114.763 6.78125 115.125 6.72266C115.496 6.66406 115.862 6.62012 116.223 6.59082C116.595 6.56152 116.936 6.55664 117.249 6.57617C117.307 6.57617 117.346 6.60547 117.366 6.66406C117.395 6.71289 117.395 6.7666 117.366 6.8252C117.346 6.88379 117.293 6.94238 117.205 7.00098C117.127 7.0498 117.01 7.0791 116.853 7.08887C116.658 7.1084 116.443 7.13281 116.209 7.16211C115.974 7.18164 115.73 7.21582 115.476 7.26465C115.232 7.30371 114.988 7.35742 114.744 7.42578C114.5 7.48438 114.27 7.55762 114.055 7.64551C113.889 7.7041 113.723 7.7627 113.557 7.82129C113.421 7.87012 113.274 7.92871 113.118 7.99707C112.971 8.05566 112.849 8.10938 112.752 8.1582L112.415 9.22754C112.981 9.62793 113.416 10.0381 113.719 10.458C114.031 10.8779 114.256 11.2637 114.392 11.6152C114.558 12.0254 114.651 12.4258 114.671 12.8164C114.671 13.2461 114.607 13.6758 114.48 14.1055C114.353 14.5449 114.182 14.96 113.968 15.3506C113.762 15.751 113.518 16.1221 113.235 16.4639C112.962 16.8057 112.669 17.0986 112.356 17.3428C112.054 17.5869 111.741 17.7725 111.419 17.8994C111.106 18.0264 110.808 18.0752 110.525 18.0459C110.32 18.0264 110.149 17.958 110.012 17.8408C109.876 17.7334 109.773 17.5918 109.705 17.416C109.637 17.25 109.597 17.0596 109.588 16.8447C109.578 16.6396 109.597 16.4346 109.646 16.2295C109.685 16.0244 109.768 15.6436 109.895 15.0869C110.003 14.6182 110.169 13.9346 110.393 13.0361C110.618 12.1475 110.921 10.9609 111.302 9.47656ZM112.166 10.165C112.029 10.6533 111.907 11.1025 111.8 11.5127C111.702 11.9229 111.619 12.2842 111.551 12.5967C111.463 12.958 111.394 13.2852 111.346 13.5781C111.258 13.9492 111.165 14.3154 111.067 14.6768C110.979 15.0381 110.911 15.3604 110.862 15.6436C110.804 15.9365 110.779 16.1709 110.789 16.3467C110.799 16.5225 110.862 16.6104 110.979 16.6104C111.262 16.6299 111.555 16.5176 111.858 16.2734C112.171 16.0391 112.454 15.7363 112.708 15.3652C112.962 15.0039 113.172 14.6084 113.338 14.1787C113.504 13.7588 113.587 13.3682 113.587 13.0068C113.587 12.6064 113.523 12.2109 113.396 11.8203C113.308 11.6152 113.206 11.415 113.089 11.2197C112.981 11.0537 112.849 10.8779 112.693 10.6924C112.547 10.4971 112.371 10.3213 112.166 10.165ZM115.93 10.9268C115.862 11.0342 115.788 11.1025 115.71 11.1318C115.622 11.1709 115.549 11.1758 115.49 11.1465C115.422 11.127 115.378 11.0781 115.359 11C115.339 10.9219 115.359 10.8242 115.417 10.707C115.446 10.6484 115.515 10.5166 115.622 10.3115C115.72 10.1064 115.842 9.8623 115.988 9.5791C116.125 9.28613 116.277 8.97363 116.443 8.6416C116.609 8.2998 116.765 7.97754 116.911 7.6748C117.068 7.37207 117.209 7.10352 117.336 6.86914C117.463 6.625 117.556 6.44922 117.614 6.3418C117.507 6.24414 117.434 6.17578 117.395 6.13672C117.356 6.08789 117.326 5.99023 117.307 5.84375C117.287 5.7168 117.317 5.55078 117.395 5.3457C117.473 5.14062 117.575 4.94531 117.702 4.75977C117.829 4.56445 117.971 4.39844 118.127 4.26172C118.283 4.125 118.435 4.05664 118.581 4.05664C118.855 4.05664 119.045 4.14453 119.153 4.32031C119.27 4.49609 119.338 4.67676 119.358 4.8623C119.377 4.98926 119.367 5.15039 119.328 5.3457C119.289 5.54102 119.216 5.7168 119.109 5.87305C119.138 5.89258 119.177 5.91699 119.226 5.94629C119.275 5.96582 119.353 5.97559 119.46 5.97559C119.616 5.97559 119.724 5.96582 119.782 5.94629C119.851 5.92676 119.953 5.91699 120.09 5.91699C120.256 5.91699 120.393 5.96094 120.5 6.04883C120.608 6.12695 120.696 6.22949 120.764 6.35645C120.832 6.47363 120.881 6.60547 120.91 6.75195C120.949 6.88867 120.974 7.01562 120.984 7.13281C121.013 7.37695 120.949 7.63086 120.793 7.89453C120.637 8.1582 120.446 8.44629 120.222 8.75879C120.085 8.9541 119.948 9.17383 119.812 9.41797C119.675 9.66211 119.616 9.88184 119.636 10.0771C119.655 10.2041 119.69 10.3066 119.738 10.3848C119.787 10.4629 119.924 10.502 120.149 10.502C120.315 10.502 120.495 10.4434 120.691 10.3262C120.896 10.1992 121.101 10.043 121.306 9.85742C121.521 9.66211 121.731 9.45215 121.936 9.22754C122.141 8.99316 122.331 8.76855 122.507 8.55371C122.683 8.3291 122.829 8.12891 122.946 7.95312C123.073 7.77734 123.166 7.65039 123.225 7.57227C123.274 7.49414 123.337 7.44043 123.415 7.41113C123.493 7.38184 123.562 7.38184 123.62 7.41113C123.679 7.44043 123.713 7.49902 123.723 7.58691C123.742 7.6748 123.708 7.79199 123.62 7.93848C123.562 8.03613 123.459 8.19238 123.313 8.40723C123.176 8.62207 123.005 8.86133 122.8 9.125C122.605 9.38867 122.385 9.66211 122.141 9.94531C121.897 10.2188 121.638 10.4727 121.364 10.707C121.101 10.9316 120.832 11.1172 120.559 11.2637C120.295 11.4102 120.041 11.4834 119.797 11.4834C119.543 11.4834 119.333 11.4346 119.167 11.3369C119.001 11.2393 118.864 11.1221 118.757 10.9854C118.659 10.8389 118.586 10.6826 118.537 10.5166C118.498 10.3408 118.484 10.1797 118.493 10.0332C118.503 9.91602 118.532 9.79395 118.581 9.66699C118.64 9.53027 118.703 9.39355 118.772 9.25684C118.85 9.11035 118.928 8.96875 119.006 8.83203C119.094 8.68555 119.172 8.54395 119.24 8.40723C119.406 8.12402 119.538 7.88477 119.636 7.68945C119.743 7.48438 119.797 7.31348 119.797 7.17676C119.797 7.08887 119.778 7.01074 119.738 6.94238C119.699 6.87402 119.636 6.83984 119.548 6.83984C119.489 6.83984 119.446 6.84473 119.416 6.85449C119.397 6.85449 119.372 6.85449 119.343 6.85449C119.323 6.85449 119.289 6.85938 119.24 6.86914C119.201 6.86914 119.138 6.86914 119.05 6.86914C118.923 6.86914 118.816 6.84961 118.728 6.81055C118.64 6.77148 118.557 6.74219 118.479 6.72266C118.44 6.79102 118.352 6.9375 118.215 7.16211C118.078 7.38672 117.917 7.65039 117.732 7.95312C117.556 8.25586 117.365 8.57324 117.16 8.90527C116.965 9.2373 116.779 9.5498 116.604 9.84277C116.428 10.126 116.281 10.3701 116.164 10.5752C116.037 10.7705 115.959 10.8877 115.93 10.9268ZM127.516 8.6709C127.419 9.04199 127.287 9.38867 127.121 9.71094C126.955 10.0332 126.754 10.3115 126.52 10.5459C126.296 10.7803 126.037 10.9609 125.744 11.0879C125.461 11.2246 125.148 11.293 124.806 11.293C124.406 11.293 124.088 11.2051 123.854 11.0293C123.629 10.8633 123.459 10.6533 123.341 10.3994C123.234 10.1455 123.171 9.86719 123.151 9.56445C123.122 9.26172 123.107 8.97852 123.107 8.71484C123.107 8.5293 123.131 8.32422 123.18 8.09961C123.219 7.875 123.278 7.64551 123.356 7.41113C123.434 7.17676 123.532 6.94238 123.649 6.70801C123.776 6.47363 123.922 6.25879 124.088 6.06348C124.147 5.89746 124.235 5.75098 124.352 5.62402C124.479 5.49707 124.621 5.39453 124.777 5.31641C124.943 5.22852 125.119 5.16504 125.304 5.12598C125.49 5.07715 125.671 5.05273 125.846 5.05273C125.876 5.05273 125.9 5.05762 125.92 5.06738C125.949 5.07715 125.978 5.08691 126.007 5.09668C126.134 5.10645 126.291 5.15527 126.476 5.24316C126.671 5.33105 126.857 5.46289 127.033 5.63867C127.218 5.81445 127.375 6.03906 127.502 6.3125C127.629 6.57617 127.692 6.89844 127.692 7.2793C127.692 7.35742 127.687 7.45508 127.677 7.57227C127.668 7.67969 127.658 7.77246 127.648 7.85059C127.873 7.7627 128.107 7.65527 128.351 7.52832C128.595 7.40137 128.83 7.26953 129.054 7.13281C129.289 6.98633 129.504 6.83984 129.699 6.69336C129.894 6.54688 130.05 6.41504 130.168 6.29785C130.265 6.20996 130.348 6.16113 130.417 6.15137C130.485 6.1416 130.534 6.16113 130.563 6.20996C130.592 6.25879 130.597 6.32715 130.578 6.41504C130.558 6.50293 130.504 6.60059 130.417 6.70801C130.368 6.7666 130.241 6.88379 130.036 7.05957C129.84 7.23535 129.606 7.42578 129.333 7.63086C129.059 7.83594 128.761 8.03613 128.439 8.23145C128.117 8.42676 127.809 8.57324 127.516 8.6709ZM125.041 6.44434C125.011 6.53223 124.997 6.625 124.997 6.72266C124.997 6.87891 125.006 7.04492 125.026 7.2207C125.046 7.38672 125.094 7.53809 125.172 7.6748C125.251 7.81152 125.373 7.92871 125.539 8.02637C125.714 8.11426 125.954 8.1582 126.256 8.1582C126.305 8.1582 126.354 8.1582 126.403 8.1582C126.452 8.14844 126.501 8.13867 126.549 8.12891C126.579 8.00195 126.603 7.88965 126.623 7.79199C126.652 7.68457 126.667 7.5918 126.667 7.51367C126.686 7.32812 126.686 7.1377 126.667 6.94238C126.647 6.74707 126.608 6.57129 126.549 6.41504C126.501 6.24902 126.432 6.11719 126.344 6.01953C126.266 5.91211 126.169 5.8584 126.051 5.8584C125.866 5.8584 125.685 5.91211 125.509 6.01953C125.343 6.11719 125.187 6.25879 125.041 6.44434ZM124.103 9.02246C124.103 9.19824 124.113 9.37402 124.132 9.5498C124.152 9.71582 124.191 9.86719 124.25 10.0039C124.308 10.1309 124.386 10.2383 124.484 10.3262C124.582 10.4043 124.709 10.4434 124.865 10.4434C125.041 10.4434 125.202 10.4043 125.348 10.3262C125.495 10.2383 125.627 10.1309 125.744 10.0039C125.861 9.86719 125.963 9.71582 126.051 9.5498C126.149 9.37402 126.232 9.19336 126.3 9.00781C126.232 9.01758 126.164 9.02734 126.095 9.03711C126.037 9.03711 125.968 9.03711 125.89 9.03711C125.519 9.03711 125.197 8.92969 124.923 8.71484C124.66 8.49023 124.455 8.20703 124.308 7.86523C124.25 8.07031 124.201 8.27051 124.162 8.46582C124.123 8.66113 124.103 8.84668 124.103 9.02246ZM136.51 10.3262C136.51 10.1211 136.529 9.88672 136.568 9.62305C136.617 9.35938 136.676 9.09082 136.744 8.81738C136.812 8.53418 136.881 8.26074 136.949 7.99707C137.018 7.7334 137.076 7.49902 137.125 7.29395C137.184 7.04004 137.179 6.84473 137.11 6.70801C137.042 6.57129 136.925 6.50293 136.759 6.50293C136.681 6.50293 136.524 6.57129 136.29 6.70801C136.065 6.84473 135.816 7.08398 135.543 7.42578C135.279 7.75781 135.016 8.21191 134.752 8.78809C134.498 9.35449 134.298 10.0771 134.151 10.9561C133.966 11.0537 133.79 11.1172 133.624 11.1465C133.536 11.166 133.458 11.1807 133.39 11.1904C133.194 11.2002 133.067 11.166 133.009 11.0879C132.95 11.0195 132.96 10.8438 133.038 10.5605C133.077 10.4238 133.146 10.2041 133.243 9.90137C133.351 9.59863 133.453 9.27148 133.551 8.91992C133.648 8.55859 133.731 8.20215 133.8 7.85059C133.878 7.48926 133.917 7.17676 133.917 6.91309C133.917 6.72754 133.883 6.60059 133.814 6.53223C133.756 6.46387 133.668 6.42969 133.551 6.42969C133.463 6.42969 133.316 6.47852 133.111 6.57617C132.906 6.67383 132.677 6.86426 132.423 7.14746C132.169 7.43066 131.915 7.82617 131.661 8.33398C131.417 8.83203 131.207 9.48145 131.031 10.2822V10.2529C131.012 10.3311 130.992 10.4092 130.973 10.4873C130.953 10.5557 130.938 10.6289 130.929 10.707C130.919 10.7852 130.904 10.8584 130.885 10.9268L130.152 11.249C130.104 11.2686 130.04 11.2832 129.962 11.293C129.894 11.3027 129.825 11.2881 129.757 11.249C129.698 11.2197 129.654 11.1514 129.625 11.0439C129.596 10.9365 129.605 10.7754 129.654 10.5605L130.577 6.7373C130.606 6.61035 130.631 6.48828 130.65 6.37109C130.67 6.26367 130.68 6.16113 130.68 6.06348C130.689 5.95605 130.685 5.86816 130.665 5.7998C130.831 5.72168 130.978 5.66309 131.104 5.62402C131.231 5.58496 131.334 5.55566 131.412 5.53613C131.51 5.50684 131.593 5.49219 131.661 5.49219C131.974 5.49219 132.076 5.76074 131.969 6.29785C131.93 6.4541 131.871 6.68359 131.793 6.98633C131.979 6.75195 132.174 6.53223 132.379 6.32715C132.594 6.1123 132.809 5.92188 133.023 5.75586C133.238 5.58984 133.453 5.45801 133.668 5.36035C133.893 5.2627 134.112 5.21387 134.327 5.21387C134.493 5.21387 134.63 5.2627 134.737 5.36035C134.854 5.45801 134.942 5.58984 135.001 5.75586C135.069 5.91211 135.108 6.10254 135.118 6.32715C135.128 6.54199 135.118 6.7666 135.089 7.00098C135.245 6.7959 135.416 6.59082 135.602 6.38574C135.797 6.1709 135.997 5.98047 136.202 5.81445C136.417 5.64844 136.637 5.51172 136.861 5.4043C137.086 5.29688 137.311 5.24316 137.535 5.24316C137.799 5.24316 137.999 5.32129 138.136 5.47754C138.282 5.63379 138.38 5.83398 138.429 6.07812C138.487 6.32227 138.502 6.58594 138.473 6.86914C138.453 7.15234 138.414 7.42578 138.355 7.68945L137.857 9.66699C137.75 10.1553 137.853 10.3994 138.165 10.3994C138.409 10.3994 138.678 10.2822 138.971 10.0479C139.264 9.81348 139.547 9.53516 139.82 9.21289C140.104 8.89062 140.367 8.55859 140.611 8.2168C140.855 7.875 141.061 7.60156 141.227 7.39648C141.285 7.32812 141.344 7.28906 141.402 7.2793C141.471 7.26953 141.524 7.28418 141.563 7.32324C141.612 7.35254 141.637 7.40625 141.637 7.48438C141.646 7.5625 141.622 7.66016 141.563 7.77734C141.368 8.11914 141.129 8.5 140.846 8.91992C140.562 9.33008 140.25 9.71582 139.908 10.0771C139.576 10.4385 139.22 10.7412 138.839 10.9854C138.458 11.2295 138.062 11.3516 137.652 11.3516C137.516 11.3516 137.379 11.3369 137.242 11.3076C137.115 11.2783 136.993 11.2246 136.876 11.1465C136.769 11.0684 136.681 10.9658 136.612 10.8389C136.544 10.7021 136.51 10.5312 136.51 10.3262ZM150.19 8.6709C150.093 9.04199 149.961 9.38867 149.795 9.71094C149.629 10.0332 149.429 10.3115 149.194 10.5459C148.97 10.7803 148.711 10.9609 148.418 11.0879C148.135 11.2246 147.822 11.293 147.48 11.293C147.08 11.293 146.762 11.2051 146.528 11.0293C146.304 10.8633 146.133 10.6533 146.015 10.3994C145.908 10.1455 145.845 9.86719 145.825 9.56445C145.796 9.26172 145.781 8.97852 145.781 8.71484C145.781 8.5293 145.805 8.32422 145.854 8.09961C145.893 7.875 145.952 7.64551 146.03 7.41113C146.108 7.17676 146.206 6.94238 146.323 6.70801C146.45 6.47363 146.596 6.25879 146.762 6.06348C146.821 5.89746 146.909 5.75098 147.026 5.62402C147.153 5.49707 147.295 5.39453 147.451 5.31641C147.617 5.22852 147.793 5.16504 147.978 5.12598C148.164 5.07715 148.345 5.05273 148.52 5.05273C148.55 5.05273 148.574 5.05762 148.594 5.06738C148.623 5.07715 148.652 5.08691 148.681 5.09668C148.808 5.10645 148.965 5.15527 149.15 5.24316C149.346 5.33105 149.531 5.46289 149.707 5.63867C149.892 5.81445 150.049 6.03906 150.176 6.3125C150.303 6.57617 150.366 6.89844 150.366 7.2793C150.366 7.35742 150.361 7.45508 150.351 7.57227C150.342 7.67969 150.332 7.77246 150.322 7.85059C150.547 7.7627 150.781 7.65527 151.025 7.52832C151.269 7.40137 151.504 7.26953 151.728 7.13281C151.963 6.98633 152.178 6.83984 152.373 6.69336C152.568 6.54688 152.724 6.41504 152.842 6.29785C152.939 6.20996 153.022 6.16113 153.091 6.15137C153.159 6.1416 153.208 6.16113 153.237 6.20996C153.266 6.25879 153.271 6.32715 153.252 6.41504C153.232 6.50293 153.179 6.60059 153.091 6.70801C153.042 6.7666 152.915 6.88379 152.71 7.05957C152.514 7.23535 152.28 7.42578 152.007 7.63086C151.733 7.83594 151.435 8.03613 151.113 8.23145C150.791 8.42676 150.483 8.57324 150.19 8.6709ZM147.715 6.44434C147.685 6.53223 147.671 6.625 147.671 6.72266C147.671 6.87891 147.68 7.04492 147.7 7.2207C147.72 7.38672 147.768 7.53809 147.846 7.6748C147.925 7.81152 148.047 7.92871 148.213 8.02637C148.388 8.11426 148.628 8.1582 148.93 8.1582C148.979 8.1582 149.028 8.1582 149.077 8.1582C149.126 8.14844 149.175 8.13867 149.223 8.12891C149.253 8.00195 149.277 7.88965 149.297 7.79199C149.326 7.68457 149.341 7.5918 149.341 7.51367C149.36 7.32812 149.36 7.1377 149.341 6.94238C149.321 6.74707 149.282 6.57129 149.223 6.41504C149.175 6.24902 149.106 6.11719 149.018 6.01953C148.94 5.91211 148.843 5.8584 148.725 5.8584C148.54 5.8584 148.359 5.91211 148.183 6.01953C148.017 6.11719 147.861 6.25879 147.715 6.44434ZM146.777 9.02246C146.777 9.19824 146.787 9.37402 146.806 9.5498C146.826 9.71582 146.865 9.86719 146.924 10.0039C146.982 10.1309 147.06 10.2383 147.158 10.3262C147.256 10.4043 147.383 10.4434 147.539 10.4434C147.715 10.4434 147.876 10.4043 148.022 10.3262C148.169 10.2383 148.301 10.1309 148.418 10.0039C148.535 9.86719 148.637 9.71582 148.725 9.5498C148.823 9.37402 148.906 9.19336 148.974 9.00781C148.906 9.01758 148.838 9.02734 148.769 9.03711C148.711 9.03711 148.642 9.03711 148.564 9.03711C148.193 9.03711 147.871 8.92969 147.597 8.71484C147.334 8.49023 147.129 8.20703 146.982 7.86523C146.924 8.07031 146.875 8.27051 146.836 8.46582C146.797 8.66113 146.777 8.84668 146.777 9.02246ZM154.174 11.2344C153.803 11.2344 153.5 11.1758 153.266 11.0586C153.031 10.9414 152.846 10.7998 152.709 10.6338C152.582 10.458 152.489 10.2725 152.431 10.0771C152.382 9.87207 152.358 9.68652 152.358 9.52051C152.358 9.22754 152.382 8.91992 152.431 8.59766C152.48 8.26562 152.538 7.96289 152.607 7.68945C152.675 7.40625 152.734 7.16699 152.782 6.97168C152.841 6.77637 152.88 6.6543 152.9 6.60547C152.988 6.32227 153.1 6.07812 153.237 5.87305C153.383 5.6582 153.583 5.51172 153.837 5.43359C153.935 5.41406 154.037 5.39453 154.145 5.375C154.233 5.36523 154.321 5.36035 154.408 5.36035C154.506 5.36035 154.594 5.375 154.672 5.4043C154.408 6.07812 154.198 6.63965 154.042 7.08887C153.896 7.53809 153.783 7.9043 153.705 8.1875C153.617 8.50977 153.564 8.76855 153.544 8.96387C153.495 9.40332 153.534 9.73535 153.661 9.95996C153.788 10.1846 154.047 10.2969 154.438 10.2969C154.692 10.2969 154.936 10.2041 155.17 10.0186C155.404 9.82324 155.619 9.57422 155.815 9.27148C155.785 9.11523 155.771 8.9541 155.771 8.78809C155.771 8.47559 155.795 8.17285 155.844 7.87988C155.903 7.57715 155.966 7.29883 156.034 7.04492C156.113 6.78125 156.191 6.54688 156.269 6.3418C156.357 6.13672 156.43 5.97559 156.488 5.8584C156.596 5.62402 156.694 5.48242 156.781 5.43359C156.869 5.375 157.011 5.34082 157.206 5.33105C157.284 5.32129 157.348 5.32129 157.397 5.33105C157.455 5.33105 157.504 5.33594 157.543 5.3457C157.66 5.375 157.719 5.43359 157.719 5.52148C157.719 5.67773 157.709 5.91211 157.69 6.22461C157.67 6.53711 157.612 6.85938 157.514 7.19141C157.446 7.46484 157.377 7.69922 157.309 7.89453C157.25 8.08008 157.192 8.24121 157.133 8.37793C157.074 8.50488 157.016 8.6123 156.957 8.7002C156.899 8.77832 156.845 8.85156 156.796 8.91992C156.816 9.21289 156.84 9.44727 156.869 9.62305C156.899 9.79883 156.933 9.93555 156.972 10.0332C157.021 10.1211 157.074 10.1846 157.133 10.2236C157.201 10.2529 157.275 10.2676 157.353 10.2676C157.489 10.2676 157.651 10.2041 157.836 10.0771C158.022 9.94043 158.212 9.77441 158.407 9.5791C158.613 9.37402 158.813 9.1543 159.008 8.91992C159.213 8.67578 159.399 8.44629 159.565 8.23145C159.731 8.0166 159.872 7.83105 159.989 7.6748C160.107 7.50879 160.18 7.40625 160.209 7.36719C160.278 7.2793 160.341 7.22559 160.4 7.20605C160.468 7.18652 160.522 7.19629 160.561 7.23535C160.6 7.26465 160.619 7.31836 160.619 7.39648C160.629 7.46484 160.61 7.54297 160.561 7.63086C160.365 8.00195 160.121 8.39746 159.828 8.81738C159.545 9.22754 159.238 9.6084 158.905 9.95996C158.583 10.3115 158.256 10.6045 157.924 10.8389C157.592 11.0732 157.279 11.1904 156.987 11.1904C156.723 11.1904 156.513 11.1025 156.357 10.9268C156.21 10.7412 156.083 10.4775 155.976 10.1357C155.751 10.4873 155.488 10.7607 155.185 10.9561C154.882 11.1416 154.545 11.2344 154.174 11.2344ZM159.432 10.9268C159.364 11.0342 159.291 11.1025 159.212 11.1318C159.125 11.1709 159.051 11.1758 158.993 11.1465C158.924 11.127 158.88 11.0781 158.861 11C158.841 10.9219 158.861 10.8242 158.92 10.707C158.949 10.6484 159.017 10.5166 159.125 10.3115C159.222 10.1064 159.344 9.8623 159.491 9.5791C159.628 9.28613 159.779 8.97363 159.945 8.6416C160.111 8.2998 160.267 7.97754 160.414 7.6748C160.57 7.37207 160.712 7.10352 160.838 6.86914C160.965 6.625 161.058 6.44922 161.117 6.3418C161.009 6.24414 160.936 6.17578 160.897 6.13672C160.858 6.08789 160.829 5.99023 160.809 5.84375C160.79 5.7168 160.819 5.55078 160.897 5.3457C160.975 5.14062 161.078 4.94531 161.205 4.75977C161.332 4.56445 161.473 4.39844 161.629 4.26172C161.786 4.125 161.937 4.05664 162.084 4.05664C162.357 4.05664 162.547 4.14453 162.655 4.32031C162.772 4.49609 162.84 4.67676 162.86 4.8623C162.879 4.98926 162.87 5.15039 162.831 5.3457C162.792 5.54102 162.718 5.7168 162.611 5.87305C162.64 5.89258 162.679 5.91699 162.728 5.94629C162.777 5.96582 162.855 5.97559 162.962 5.97559C163.119 5.97559 163.226 5.96582 163.285 5.94629C163.353 5.92676 163.456 5.91699 163.592 5.91699C163.758 5.91699 163.895 5.96094 164.003 6.04883C164.11 6.12695 164.198 6.22949 164.266 6.35645C164.335 6.47363 164.383 6.60547 164.413 6.75195C164.452 6.88867 164.476 7.01562 164.486 7.13281C164.515 7.37695 164.452 7.63086 164.296 7.89453C164.139 8.1582 163.949 8.44629 163.724 8.75879C163.587 8.9541 163.451 9.17383 163.314 9.41797C163.177 9.66211 163.119 9.88184 163.138 10.0771C163.158 10.2041 163.192 10.3066 163.241 10.3848C163.29 10.4629 163.426 10.502 163.651 10.502C163.817 10.502 163.998 10.4434 164.193 10.3262C164.398 10.1992 164.603 10.043 164.808 9.85742C165.023 9.66211 165.233 9.45215 165.438 9.22754C165.643 8.99316 165.834 8.76855 166.009 8.55371C166.185 8.3291 166.332 8.12891 166.449 7.95312C166.576 7.77734 166.669 7.65039 166.727 7.57227C166.776 7.49414 166.839 7.44043 166.918 7.41113C166.996 7.38184 167.064 7.38184 167.123 7.41113C167.181 7.44043 167.215 7.49902 167.225 7.58691C167.245 7.6748 167.211 7.79199 167.123 7.93848C167.064 8.03613 166.962 8.19238 166.815 8.40723C166.678 8.62207 166.507 8.86133 166.302 9.125C166.107 9.38867 165.887 9.66211 165.643 9.94531C165.399 10.2188 165.14 10.4727 164.867 10.707C164.603 10.9316 164.335 11.1172 164.061 11.2637C163.797 11.4102 163.544 11.4834 163.299 11.4834C163.046 11.4834 162.836 11.4346 162.67 11.3369C162.504 11.2393 162.367 11.1221 162.259 10.9854C162.162 10.8389 162.088 10.6826 162.04 10.5166C162.001 10.3408 161.986 10.1797 161.996 10.0332C162.005 9.91602 162.035 9.79395 162.084 9.66699C162.142 9.53027 162.206 9.39355 162.274 9.25684C162.352 9.11035 162.43 8.96875 162.508 8.83203C162.596 8.68555 162.674 8.54395 162.743 8.40723C162.909 8.12402 163.041 7.88477 163.138 7.68945C163.246 7.48438 163.299 7.31348 163.299 7.17676C163.299 7.08887 163.28 7.01074 163.241 6.94238C163.202 6.87402 163.138 6.83984 163.05 6.83984C162.992 6.83984 162.948 6.84473 162.919 6.85449C162.899 6.85449 162.875 6.85449 162.845 6.85449C162.826 6.85449 162.792 6.85938 162.743 6.86914C162.704 6.86914 162.64 6.86914 162.552 6.86914C162.425 6.86914 162.318 6.84961 162.23 6.81055C162.142 6.77148 162.059 6.74219 161.981 6.72266C161.942 6.79102 161.854 6.9375 161.717 7.16211C161.581 7.38672 161.42 7.65039 161.234 7.95312C161.058 8.25586 160.868 8.57324 160.663 8.90527C160.467 9.2373 160.282 9.5498 160.106 9.84277C159.93 10.126 159.784 10.3701 159.667 10.5752C159.54 10.7705 159.462 10.8877 159.432 10.9268ZM174.841 2.60645C174.695 3.19238 174.529 3.75391 174.343 4.29102C174.167 4.81836 173.982 5.31641 173.787 5.78516C173.601 6.24414 173.411 6.66406 173.215 7.04492C173.03 7.42578 172.864 7.75781 172.717 8.04102C172.62 8.74414 172.62 9.31055 172.717 9.74023C172.815 10.1699 173.005 10.3848 173.288 10.3848C173.523 10.3848 173.752 10.2773 173.977 10.0625C174.202 9.84766 174.402 9.58398 174.578 9.27148C174.753 8.95898 174.9 8.62695 175.017 8.27539C175.144 7.91406 175.222 7.5918 175.251 7.30859C175.066 7.25977 174.91 7.17676 174.783 7.05957C174.656 6.93262 174.592 6.7666 174.592 6.56152C174.592 6.4248 174.631 6.29785 174.709 6.18066C174.788 6.05371 174.88 5.94629 174.988 5.8584C175.095 5.77051 175.212 5.70215 175.339 5.65332C175.466 5.60449 175.583 5.58008 175.691 5.58008C175.857 5.58008 175.998 5.6875 176.116 5.90234C176.233 6.10742 176.311 6.37109 176.35 6.69336C176.741 6.68359 177.151 6.625 177.58 6.51758C178.01 6.41016 178.415 6.27344 178.796 6.10742C178.904 6.05859 178.992 6.04395 179.06 6.06348C179.128 6.08301 179.172 6.12207 179.192 6.18066C179.221 6.23926 179.221 6.30762 179.192 6.38574C179.163 6.4541 179.104 6.50781 179.016 6.54688C178.791 6.67383 178.557 6.79102 178.313 6.89844C178.079 6.99609 177.844 7.0791 177.61 7.14746C177.375 7.21582 177.151 7.26953 176.936 7.30859C176.721 7.34766 176.526 7.36719 176.35 7.36719C176.311 7.75781 176.189 8.18262 175.984 8.6416C175.779 9.09082 175.53 9.51074 175.237 9.90137C174.944 10.2822 174.617 10.5996 174.255 10.8535C173.904 11.1074 173.557 11.2344 173.215 11.2344C173.108 11.2344 172.966 11.2197 172.79 11.1904C172.615 11.1611 172.444 11.0586 172.278 10.8828C172.112 10.707 171.97 10.4287 171.853 10.0479C171.736 9.65723 171.687 9.10547 171.706 8.39258C171.716 7.91406 171.77 7.40625 171.868 6.86914C171.965 6.33203 172.082 5.79492 172.219 5.25781C172.356 4.7207 172.507 4.20312 172.673 3.70508C172.849 3.19727 173.015 2.74316 173.171 2.34277C173.328 1.93262 173.469 1.59082 173.596 1.31738C173.733 1.04395 173.835 0.868164 173.904 0.790039C173.992 0.682617 174.094 0.604492 174.211 0.555664C174.329 0.49707 174.441 0.458008 174.548 0.438477C174.665 0.40918 174.773 0.399414 174.871 0.40918C174.968 0.418945 175.037 0.433594 175.076 0.453125C175.134 0.492187 175.149 0.707031 175.12 1.09766C175.1 1.48828 175.007 1.99121 174.841 2.60645ZM184.948 7.95312C184.655 8.38281 184.323 8.80273 183.952 9.21289C183.581 9.61328 183.185 9.97461 182.765 10.2969C182.355 10.6094 181.93 10.8633 181.491 11.0586C181.061 11.2539 180.641 11.3516 180.231 11.3516C180.016 11.3516 179.782 11.2979 179.528 11.1904C179.284 11.0928 179.059 10.9365 178.854 10.7217C178.649 10.5068 178.483 10.2285 178.356 9.88672C178.239 9.54492 178.205 9.12988 178.254 8.6416C178.293 8.24121 178.415 7.82129 178.62 7.38184C178.835 6.93262 179.094 6.52246 179.396 6.15137C179.709 5.78027 180.055 5.47266 180.436 5.22852C180.827 4.98438 181.218 4.8623 181.608 4.8623C181.979 4.8623 182.248 4.95508 182.414 5.14062C182.58 5.32617 182.653 5.55566 182.634 5.8291C182.604 6.13184 182.516 6.41016 182.37 6.66406C182.233 6.91797 182.067 7.14746 181.872 7.35254C181.677 7.55762 181.467 7.74316 181.242 7.90918C181.027 8.0752 180.822 8.22656 180.627 8.36328C180.412 8.50977 180.207 8.65137 180.012 8.78809C179.816 8.91504 179.645 9.03223 179.499 9.13965C179.509 9.38379 179.553 9.58887 179.631 9.75488C179.709 9.9209 179.806 10.0576 179.924 10.165C180.041 10.2627 180.173 10.3359 180.319 10.3848C180.475 10.4238 180.632 10.4434 180.788 10.4434C181.12 10.4434 181.467 10.3408 181.828 10.1357C182.189 9.9209 182.541 9.66699 182.883 9.37402C183.234 9.07129 183.556 8.75879 183.849 8.43652C184.152 8.11426 184.401 7.83594 184.596 7.60156C184.665 7.52344 184.733 7.47949 184.802 7.46973C184.88 7.4502 184.938 7.45996 184.977 7.49902C185.026 7.52832 185.051 7.58691 185.051 7.6748C185.051 7.75293 185.016 7.8457 184.948 7.95312ZM181.198 5.69727C181.081 5.69727 180.939 5.75586 180.773 5.87305C180.617 5.99023 180.461 6.16113 180.304 6.38574C180.148 6.60059 180.002 6.86914 179.865 7.19141C179.728 7.50391 179.626 7.86523 179.557 8.27539C179.675 8.1875 179.802 8.09961 179.938 8.01172C180.075 7.91406 180.212 7.81152 180.348 7.7041C180.768 7.38184 181.061 7.09863 181.227 6.85449C181.393 6.61035 181.486 6.40039 181.506 6.22461C181.525 6.03906 181.506 5.90723 181.447 5.8291C181.388 5.74121 181.305 5.69727 181.198 5.69727ZM186.559 10.502C186.617 10.541 186.691 10.5605 186.779 10.5605C186.876 10.5605 186.969 10.541 187.057 10.502C187.154 10.4629 187.242 10.4092 187.321 10.3408C187.408 10.2725 187.472 10.1846 187.511 10.0771C187.55 9.96973 187.55 9.81836 187.511 9.62305C187.472 9.41797 187.408 9.20312 187.321 8.97852C187.242 8.74414 187.154 8.50977 187.057 8.27539C186.959 8.04102 186.876 7.82617 186.808 7.63086C186.749 7.48438 186.7 7.34766 186.661 7.2207C186.622 7.11328 186.583 7.01074 186.544 6.91309C186.515 6.80566 186.49 6.73242 186.471 6.69336C186.422 6.77148 186.334 6.89844 186.207 7.07422C186.09 7.25 185.958 7.43555 185.812 7.63086C185.675 7.81641 185.543 7.99219 185.416 8.1582C185.289 8.31445 185.201 8.42188 185.153 8.48047C185.074 8.56836 184.996 8.62207 184.918 8.6416C184.85 8.65137 184.791 8.63672 184.742 8.59766C184.694 8.54883 184.664 8.48535 184.654 8.40723C184.654 8.31934 184.694 8.2168 184.772 8.09961C184.83 8.02148 184.918 7.89941 185.035 7.7334C185.153 7.55762 185.27 7.38184 185.387 7.20605C185.504 7.02051 185.612 6.85938 185.709 6.72266C185.807 6.57617 185.861 6.48828 185.87 6.45898C185.89 6.38086 185.861 6.27832 185.782 6.15137C185.714 6.02441 185.704 5.87793 185.753 5.71191C185.792 5.5752 185.88 5.41895 186.017 5.24316C186.154 5.05762 186.315 4.8916 186.5 4.74512C186.686 4.59863 186.876 4.49121 187.071 4.42285C187.267 4.34473 187.443 4.34473 187.599 4.42285C187.726 4.50098 187.828 4.58887 187.906 4.68652C187.985 4.77441 188.014 4.86719 187.994 4.96484C187.975 5.01367 187.946 5.07715 187.906 5.15527C187.867 5.2334 187.809 5.33105 187.731 5.44824C187.653 5.55566 187.54 5.69727 187.394 5.87305C187.423 6.09766 187.462 6.30273 187.511 6.48828C187.57 6.67383 187.623 6.83496 187.672 6.97168C187.731 7.1377 187.794 7.28906 187.863 7.42578C187.95 7.60156 188.043 7.78223 188.141 7.96777C188.238 8.15332 188.326 8.33887 188.404 8.52441C188.483 8.7002 188.546 8.86621 188.595 9.02246C188.644 9.17871 188.658 9.31055 188.639 9.41797C188.61 9.58398 188.522 9.78418 188.375 10.0186C188.238 10.2529 188.063 10.4824 187.848 10.707C187.643 10.9219 187.404 11.1074 187.13 11.2637C186.866 11.4199 186.588 11.498 186.295 11.498C186.09 11.498 185.89 11.4346 185.695 11.3076C185.509 11.1807 185.348 11.0342 185.211 10.8682C185.084 10.6924 184.987 10.5215 184.918 10.3555C184.86 10.1895 184.855 10.0625 184.904 9.97461C184.962 9.85742 185.016 9.76465 185.065 9.69629C185.113 9.62793 185.187 9.5498 185.284 9.46191C185.323 9.43262 185.372 9.39844 185.431 9.35938C185.48 9.33008 185.548 9.30078 185.636 9.27148C185.724 9.24219 185.826 9.20801 185.944 9.16895C186.041 9.47168 186.129 9.71094 186.207 9.88672C186.285 10.0527 186.349 10.1846 186.398 10.2822C186.456 10.3896 186.51 10.4629 186.559 10.502ZM195.772 7.29395C195.811 7.23535 195.86 7.20117 195.919 7.19141C195.987 7.17188 196.041 7.17676 196.08 7.20605C196.119 7.23535 196.138 7.28418 196.138 7.35254C196.148 7.4209 196.124 7.51367 196.065 7.63086C195.87 8.00195 195.611 8.40234 195.289 8.83203C194.976 9.26172 194.644 9.66699 194.293 10.0479C193.941 10.4189 193.599 10.7266 193.267 10.9707C192.935 11.2148 192.657 11.3369 192.432 11.3369C192.11 11.3369 191.841 11.2734 191.627 11.1465C191.412 11.0195 191.241 10.8633 191.114 10.6777C190.997 10.4922 190.914 10.292 190.865 10.0771C190.816 9.85254 190.801 9.64746 190.821 9.46191C190.831 9.30566 190.865 9.02734 190.923 8.62695C190.982 8.2168 191.06 7.74805 191.158 7.2207C191.255 6.68359 191.363 6.1123 191.48 5.50684C191.607 4.8916 191.739 4.30078 191.876 3.73438C191.71 3.75391 191.544 3.77344 191.378 3.79297C191.212 3.8125 191.06 3.82227 190.923 3.82227C190.611 3.82227 190.318 3.78809 190.045 3.71973C189.761 3.6416 189.551 3.56836 189.415 3.5C189.337 3.46094 189.302 3.40723 189.312 3.33887C189.322 3.26074 189.351 3.1875 189.4 3.11914C189.449 3.04102 189.512 2.97754 189.59 2.92871C189.659 2.87012 189.722 2.84082 189.781 2.84082C189.966 2.86035 190.167 2.87988 190.381 2.89941C190.596 2.90918 190.831 2.90918 191.085 2.89941C191.27 2.88965 191.446 2.875 191.612 2.85547C191.788 2.83594 191.959 2.81152 192.125 2.78223C192.252 2.31348 192.374 1.9082 192.491 1.56641C192.618 1.21484 192.73 0.970703 192.828 0.833984C192.857 0.785156 192.921 0.746094 193.018 0.716797C193.126 0.677734 193.238 0.65332 193.355 0.643555C193.472 0.624023 193.585 0.624023 193.692 0.643555C193.799 0.65332 193.878 0.6875 193.926 0.746094C193.975 0.824219 193.995 1.02441 193.985 1.34668C193.975 1.66895 193.921 2.0791 193.824 2.57715C194.234 2.57715 194.595 2.60156 194.908 2.65039C195.23 2.68945 195.504 2.73828 195.728 2.79688C195.953 2.8457 196.133 2.89941 196.27 2.95801C196.407 3.00684 196.509 3.04102 196.578 3.06055C196.646 3.08008 196.68 3.12891 196.68 3.20703C196.69 3.28516 196.675 3.36816 196.636 3.45605C196.607 3.53418 196.553 3.60254 196.475 3.66113C196.397 3.71973 196.309 3.73926 196.212 3.71973C196.114 3.70996 196.002 3.69043 195.875 3.66113C195.757 3.63184 195.611 3.60742 195.435 3.58789C195.269 3.56836 195.069 3.54883 194.835 3.5293C194.6 3.50977 194.327 3.5 194.014 3.5C193.956 3.5 193.887 3.50488 193.809 3.51465C193.741 3.51465 193.668 3.51465 193.589 3.51465C193.55 3.6709 193.511 3.82715 193.472 3.9834C193.443 4.12988 193.399 4.28613 193.34 4.45215C193.213 4.84277 193.067 5.26758 192.901 5.72656C192.754 6.12695 192.579 6.58594 192.374 7.10352C192.169 7.62109 191.939 8.17285 191.685 8.75879C191.627 9.17871 191.631 9.50098 191.7 9.72559C191.778 9.94043 191.871 10.0967 191.978 10.1943C192.105 10.3018 192.261 10.3604 192.447 10.3701C192.593 10.3896 192.769 10.3408 192.974 10.2236C193.189 10.0967 193.409 9.93066 193.633 9.72559C193.858 9.52051 194.083 9.2959 194.307 9.05176C194.542 8.80762 194.756 8.56836 194.952 8.33398C195.147 8.09961 195.318 7.88965 195.464 7.7041C195.611 7.50879 195.713 7.37207 195.772 7.29395ZM76.1852 32.3262C76.1852 32.1211 76.2047 31.8867 76.2438 31.623C76.2926 31.3594 76.3512 31.0908 76.4195 30.8174C76.4879 30.5342 76.5563 30.2607 76.6246 29.9971C76.693 29.7334 76.7516 29.499 76.8004 29.2939C76.859 29.04 76.8541 28.8447 76.7857 28.708C76.7174 28.5713 76.6002 28.5029 76.4342 28.5029C76.3561 28.5029 76.1998 28.5713 75.9654 28.708C75.7408 28.8447 75.4918 29.084 75.2184 29.4258C74.9547 29.7578 74.691 30.2119 74.4273 30.7881C74.1734 31.3545 73.9732 32.0771 73.8268 32.9561C73.6412 33.0537 73.4654 33.1172 73.2994 33.1465C73.2115 33.166 73.1334 33.1807 73.065 33.1904C72.8697 33.2002 72.7428 33.166 72.6842 33.0879C72.6256 33.0195 72.6354 32.8438 72.7135 32.5605C72.7525 32.4238 72.8209 32.2041 72.9186 31.9014C73.026 31.5986 73.1285 31.2715 73.2262 30.9199C73.3238 30.5586 73.4068 30.2021 73.4752 29.8506C73.5533 29.4893 73.5924 29.1768 73.5924 28.9131C73.5924 28.7275 73.5582 28.6006 73.4898 28.5322C73.4313 28.4639 73.3434 28.4297 73.2262 28.4297C73.1383 28.4297 72.9918 28.4785 72.7867 28.5762C72.5816 28.6738 72.3521 28.8643 72.0982 29.1475C71.8443 29.4307 71.5904 29.8262 71.3365 30.334C71.0924 30.832 70.8824 31.4814 70.7066 32.2822V32.2529C70.6871 32.3311 70.6676 32.4092 70.648 32.4873C70.6285 32.5557 70.6139 32.6289 70.6041 32.707C70.5943 32.7852 70.5797 32.8584 70.5602 32.9268L69.8277 33.249C69.7789 33.2686 69.7154 33.2832 69.6373 33.293C69.5689 33.3027 69.5006 33.2881 69.4322 33.249C69.3736 33.2197 69.3297 33.1514 69.3004 33.0439C69.2711 32.9365 69.2809 32.7754 69.3297 32.5605L70.2525 28.7373C70.2818 28.6104 70.3063 28.4883 70.3258 28.3711C70.3453 28.2637 70.3551 28.1611 70.3551 28.0635C70.3648 27.9561 70.36 27.8682 70.3404 27.7998C70.5064 27.7217 70.6529 27.6631 70.7799 27.624C70.9068 27.585 71.0094 27.5557 71.0875 27.5361C71.1852 27.5068 71.2682 27.4922 71.3365 27.4922C71.649 27.4922 71.7516 27.7607 71.6441 28.2979C71.6051 28.4541 71.5465 28.6836 71.4684 28.9863C71.6539 28.752 71.8492 28.5322 72.0543 28.3271C72.2691 28.1123 72.484 27.9219 72.6988 27.7559C72.9137 27.5898 73.1285 27.458 73.3434 27.3604C73.568 27.2627 73.7877 27.2139 74.0025 27.2139C74.1686 27.2139 74.3053 27.2627 74.4127 27.3604C74.5299 27.458 74.6178 27.5898 74.6764 27.7559C74.7447 27.9121 74.7838 28.1025 74.7936 28.3271C74.8033 28.542 74.7936 28.7666 74.7643 29.001C74.9205 28.7959 75.0914 28.5908 75.277 28.3857C75.4723 28.1709 75.6725 27.9805 75.8775 27.8145C76.0924 27.6484 76.3121 27.5117 76.5367 27.4043C76.7613 27.2969 76.9859 27.2432 77.2105 27.2432C77.4742 27.2432 77.6744 27.3213 77.8111 27.4775C77.9576 27.6338 78.0553 27.834 78.1041 28.0781C78.1627 28.3223 78.1773 28.5859 78.148 28.8691C78.1285 29.1523 78.0895 29.4258 78.0309 29.6895L77.5328 31.667C77.4254 32.1553 77.5279 32.3994 77.8404 32.3994C78.0846 32.3994 78.3531 32.2822 78.6461 32.0479C78.9391 31.8135 79.2223 31.5352 79.4957 31.2129C79.7789 30.8906 80.0426 30.5586 80.2867 30.2168C80.5309 29.875 80.7359 29.6016 80.902 29.3965C80.9605 29.3281 81.0191 29.2891 81.0777 29.2793C81.1461 29.2695 81.1998 29.2842 81.2389 29.3232C81.2877 29.3525 81.3121 29.4062 81.3121 29.4844C81.3219 29.5625 81.2975 29.6602 81.2389 29.7773C81.0436 30.1191 80.8043 30.5 80.5211 30.9199C80.2379 31.3301 79.9254 31.7158 79.5836 32.0771C79.2516 32.4385 78.8951 32.7412 78.5143 32.9854C78.1334 33.2295 77.7379 33.3516 77.3277 33.3516C77.191 33.3516 77.0543 33.3369 76.9176 33.3076C76.7906 33.2783 76.6686 33.2246 76.5514 33.1465C76.4439 33.0684 76.3561 32.9658 76.2877 32.8389C76.2193 32.7021 76.1852 32.5312 76.1852 32.3262ZM87.3613 29.9531C87.0684 30.3828 86.7363 30.8027 86.3652 31.2129C85.9941 31.6133 85.5986 31.9746 85.1787 32.2969C84.7686 32.6094 84.3438 32.8633 83.9043 33.0586C83.4746 33.2539 83.0547 33.3516 82.6445 33.3516C82.4297 33.3516 82.1953 33.2979 81.9414 33.1904C81.6973 33.0928 81.4727 32.9365 81.2676 32.7217C81.0625 32.5068 80.8965 32.2285 80.7695 31.8867C80.6523 31.5449 80.6182 31.1299 80.667 30.6416C80.7061 30.2412 80.8281 29.8213 81.0332 29.3818C81.248 28.9326 81.5068 28.5225 81.8096 28.1514C82.1221 27.7803 82.4688 27.4727 82.8496 27.2285C83.2402 26.9844 83.6309 26.8623 84.0215 26.8623C84.3926 26.8623 84.6611 26.9551 84.8271 27.1406C84.9932 27.3262 85.0664 27.5557 85.0469 27.8291C85.0176 28.1318 84.9297 28.4102 84.7832 28.6641C84.6465 28.918 84.4805 29.1475 84.2852 29.3525C84.0898 29.5576 83.8799 29.7432 83.6553 29.9092C83.4404 30.0752 83.2354 30.2266 83.04 30.3633C82.8252 30.5098 82.6201 30.6514 82.4248 30.7881C82.2295 30.915 82.0586 31.0322 81.9121 31.1396C81.9219 31.3838 81.9658 31.5889 82.0439 31.7549C82.1221 31.9209 82.2197 32.0576 82.3369 32.165C82.4541 32.2627 82.5859 32.3359 82.7324 32.3848C82.8887 32.4238 83.0449 32.4434 83.2012 32.4434C83.5332 32.4434 83.8799 32.3408 84.2412 32.1357C84.6025 31.9209 84.9541 31.667 85.2959 31.374C85.6475 31.0713 85.9697 30.7588 86.2627 30.4365C86.5654 30.1143 86.8145 29.8359 87.0098 29.6016C87.0781 29.5234 87.1465 29.4795 87.2148 29.4697C87.293 29.4502 87.3516 29.46 87.3906 29.499C87.4395 29.5283 87.4639 29.5869 87.4639 29.6748C87.4639 29.7529 87.4297 29.8457 87.3613 29.9531ZM83.6113 27.6973C83.4941 27.6973 83.3525 27.7559 83.1865 27.873C83.0303 27.9902 82.874 28.1611 82.7178 28.3857C82.5615 28.6006 82.415 28.8691 82.2783 29.1914C82.1416 29.5039 82.0391 29.8652 81.9707 30.2754C82.0879 30.1875 82.2148 30.0996 82.3516 30.0117C82.4883 29.9141 82.625 29.8115 82.7617 29.7041C83.1816 29.3818 83.4746 29.0986 83.6406 28.8545C83.8066 28.6104 83.8994 28.4004 83.9189 28.2246C83.9385 28.0391 83.9189 27.9072 83.8604 27.8291C83.8018 27.7412 83.7188 27.6973 83.6113 27.6973ZM93.7328 32.3262C93.7328 32.1211 93.7523 31.8867 93.7914 31.623C93.8402 31.3594 93.8988 31.0908 93.9672 30.8174C94.0356 30.5342 94.1039 30.2607 94.1723 29.9971C94.2406 29.7334 94.2992 29.499 94.3481 29.2939C94.4066 29.04 94.4018 28.8447 94.3334 28.708C94.265 28.5713 94.1479 28.5029 93.9818 28.5029C93.9037 28.5029 93.7475 28.5713 93.5131 28.708C93.2885 28.8447 93.0395 29.084 92.766 29.4258C92.5023 29.7578 92.2387 30.2119 91.975 30.7881C91.7211 31.3545 91.5209 32.0771 91.3744 32.9561C91.1889 33.0537 91.0131 33.1172 90.8471 33.1465C90.7592 33.166 90.6811 33.1807 90.6127 33.1904C90.4174 33.2002 90.2904 33.166 90.2318 33.0879C90.1732 33.0195 90.183 32.8438 90.2611 32.5605C90.3002 32.4238 90.3686 32.2041 90.4662 31.9014C90.5736 31.5986 90.6762 31.2715 90.7738 30.9199C90.8715 30.5586 90.9545 30.2021 91.0229 29.8506C91.101 29.4893 91.14 29.1768 91.14 28.9131C91.14 28.7275 91.1059 28.6006 91.0375 28.5322C90.9789 28.4639 90.891 28.4297 90.7738 28.4297C90.6859 28.4297 90.5395 28.4785 90.3344 28.5762C90.1293 28.6738 89.8998 28.8643 89.6459 29.1475C89.392 29.4307 89.1381 29.8262 88.8842 30.334C88.64 30.832 88.4301 31.4814 88.2543 32.2822V32.2529C88.2348 32.3311 88.2152 32.4092 88.1957 32.4873C88.1762 32.5557 88.1615 32.6289 88.1518 32.707C88.142 32.7852 88.1273 32.8584 88.1078 32.9268L87.3754 33.249C87.3266 33.2686 87.2631 33.2832 87.185 33.293C87.1166 33.3027 87.0482 33.2881 86.9799 33.249C86.9213 33.2197 86.8773 33.1514 86.8481 33.0439C86.8188 32.9365 86.8285 32.7754 86.8773 32.5605L87.8002 28.7373C87.8295 28.6104 87.8539 28.4883 87.8734 28.3711C87.893 28.2637 87.9027 28.1611 87.9027 28.0635C87.9125 27.9561 87.9076 27.8682 87.8881 27.7998C88.0541 27.7217 88.2006 27.6631 88.3275 27.624C88.4545 27.585 88.557 27.5557 88.6352 27.5361C88.7328 27.5068 88.8158 27.4922 88.8842 27.4922C89.1967 27.4922 89.2992 27.7607 89.1918 28.2979C89.1527 28.4541 89.0941 28.6836 89.016 28.9863C89.2016 28.752 89.3969 28.5322 89.602 28.3271C89.8168 28.1123 90.0316 27.9219 90.2465 27.7559C90.4613 27.5898 90.6762 27.458 90.891 27.3604C91.1156 27.2627 91.3354 27.2139 91.5502 27.2139C91.7162 27.2139 91.8529 27.2627 91.9604 27.3604C92.0775 27.458 92.1654 27.5898 92.224 27.7559C92.2924 27.9121 92.3315 28.1025 92.3412 28.3271C92.351 28.542 92.3412 28.7666 92.3119 29.001C92.4682 28.7959 92.6391 28.5908 92.8246 28.3857C93.0199 28.1709 93.2201 27.9805 93.4252 27.8145C93.64 27.6484 93.8598 27.5117 94.0844 27.4043C94.309 27.2969 94.5336 27.2432 94.7582 27.2432C95.0219 27.2432 95.2221 27.3213 95.3588 27.4775C95.5053 27.6338 95.6029 27.834 95.6518 28.0781C95.7104 28.3223 95.725 28.5859 95.6957 28.8691C95.6762 29.1523 95.6371 29.4258 95.5785 29.6895L95.0805 31.667C94.9731 32.1553 95.0756 32.3994 95.3881 32.3994C95.6322 32.3994 95.9008 32.2822 96.1938 32.0479C96.4867 31.8135 96.7699 31.5352 97.0434 31.2129C97.3266 30.8906 97.5902 30.5586 97.8344 30.2168C98.0785 29.875 98.2836 29.6016 98.4496 29.3965C98.5082 29.3281 98.5668 29.2891 98.6254 29.2793C98.6938 29.2695 98.7475 29.2842 98.7865 29.3232C98.8354 29.3525 98.8598 29.4062 98.8598 29.4844C98.8695 29.5625 98.8451 29.6602 98.7865 29.7773C98.5912 30.1191 98.352 30.5 98.0688 30.9199C97.7856 31.3301 97.4731 31.7158 97.1313 32.0771C96.7992 32.4385 96.4428 32.7412 96.0619 32.9854C95.6811 33.2295 95.2856 33.3516 94.8754 33.3516C94.7387 33.3516 94.602 33.3369 94.4652 33.3076C94.3383 33.2783 94.2162 33.2246 94.099 33.1465C93.9916 33.0684 93.9037 32.9658 93.8354 32.8389C93.767 32.7021 93.7328 32.5312 93.7328 32.3262ZM102.609 30.6709C102.512 31.042 102.38 31.3887 102.214 31.7109C102.048 32.0332 101.847 32.3115 101.613 32.5459C101.388 32.7803 101.13 32.9609 100.837 33.0879C100.554 33.2246 100.241 33.293 99.8992 33.293C99.4988 33.293 99.1814 33.2051 98.9471 33.0293C98.7225 32.8633 98.5516 32.6533 98.4344 32.3994C98.327 32.1455 98.2635 31.8672 98.2439 31.5645C98.2146 31.2617 98.2 30.9785 98.2 30.7148C98.2 30.5293 98.2244 30.3242 98.2732 30.0996C98.3123 29.875 98.3709 29.6455 98.449 29.4111C98.5271 29.1768 98.6248 28.9424 98.742 28.708C98.8689 28.4736 99.0154 28.2588 99.1814 28.0635C99.24 27.8975 99.3279 27.751 99.4451 27.624C99.5721 27.4971 99.7137 27.3945 99.8699 27.3164C100.036 27.2285 100.212 27.165 100.397 27.126C100.583 27.0771 100.763 27.0527 100.939 27.0527C100.969 27.0527 100.993 27.0576 101.012 27.0674C101.042 27.0771 101.071 27.0869 101.1 27.0967C101.227 27.1064 101.384 27.1553 101.569 27.2432C101.764 27.3311 101.95 27.4629 102.126 27.6387C102.311 27.8145 102.468 28.0391 102.595 28.3125C102.721 28.5762 102.785 28.8984 102.785 29.2793C102.785 29.3574 102.78 29.4551 102.77 29.5723C102.761 29.6797 102.751 29.7725 102.741 29.8506C102.966 29.7627 103.2 29.6553 103.444 29.5283C103.688 29.4014 103.923 29.2695 104.147 29.1328C104.382 28.9863 104.596 28.8398 104.792 28.6934C104.987 28.5469 105.143 28.415 105.261 28.2979C105.358 28.21 105.441 28.1611 105.51 28.1514C105.578 28.1416 105.627 28.1611 105.656 28.21C105.685 28.2588 105.69 28.3271 105.671 28.415C105.651 28.5029 105.597 28.6006 105.51 28.708C105.461 28.7666 105.334 28.8838 105.129 29.0596C104.933 29.2354 104.699 29.4258 104.426 29.6309C104.152 29.8359 103.854 30.0361 103.532 30.2314C103.21 30.4268 102.902 30.5732 102.609 30.6709ZM100.134 28.4443C100.104 28.5322 100.09 28.625 100.09 28.7227C100.09 28.8789 100.099 29.0449 100.119 29.2207C100.138 29.3867 100.187 29.5381 100.265 29.6748C100.344 29.8115 100.466 29.9287 100.632 30.0264C100.807 30.1143 101.047 30.1582 101.349 30.1582C101.398 30.1582 101.447 30.1582 101.496 30.1582C101.545 30.1484 101.594 30.1387 101.642 30.1289C101.672 30.002 101.696 29.8896 101.716 29.792C101.745 29.6846 101.76 29.5918 101.76 29.5137C101.779 29.3281 101.779 29.1377 101.76 28.9424C101.74 28.7471 101.701 28.5713 101.642 28.415C101.594 28.249 101.525 28.1172 101.437 28.0195C101.359 27.9121 101.262 27.8584 101.144 27.8584C100.959 27.8584 100.778 27.9121 100.602 28.0195C100.436 28.1172 100.28 28.2588 100.134 28.4443ZM99.1961 31.0225C99.1961 31.1982 99.2059 31.374 99.2254 31.5498C99.2449 31.7158 99.284 31.8672 99.3426 32.0039C99.4012 32.1309 99.4793 32.2383 99.577 32.3262C99.6746 32.4043 99.8016 32.4434 99.9578 32.4434C100.134 32.4434 100.295 32.4043 100.441 32.3262C100.588 32.2383 100.72 32.1309 100.837 32.0039C100.954 31.8672 101.056 31.7158 101.144 31.5498C101.242 31.374 101.325 31.1934 101.393 31.0078C101.325 31.0176 101.257 31.0273 101.188 31.0371C101.13 31.0371 101.061 31.0371 100.983 31.0371C100.612 31.0371 100.29 30.9297 100.016 30.7148C99.7527 30.4902 99.5477 30.207 99.4012 29.8652C99.3426 30.0703 99.2937 30.2705 99.2547 30.4658C99.2156 30.6611 99.1961 30.8467 99.1961 31.0225ZM104.22 32.9268C104.152 33.0342 104.078 33.1025 104 33.1318C103.912 33.1709 103.839 33.1758 103.78 33.1465C103.712 33.127 103.668 33.0781 103.649 33C103.629 32.9219 103.649 32.8242 103.707 32.707C103.737 32.6484 103.805 32.5166 103.912 32.3115C104.01 32.1064 104.132 31.8623 104.279 31.5791C104.415 31.2861 104.567 30.9736 104.733 30.6416C104.899 30.2998 105.055 29.9775 105.201 29.6748C105.358 29.3721 105.499 29.1035 105.626 28.8691C105.753 28.625 105.846 28.4492 105.904 28.3418C105.797 28.2441 105.724 28.1758 105.685 28.1367C105.646 28.0879 105.616 27.9902 105.597 27.8438C105.577 27.7168 105.607 27.5508 105.685 27.3457C105.763 27.1406 105.865 26.9453 105.992 26.7598C106.119 26.5645 106.261 26.3984 106.417 26.2617C106.573 26.125 106.725 26.0566 106.871 26.0566C107.145 26.0566 107.335 26.1445 107.443 26.3203C107.56 26.4961 107.628 26.6768 107.648 26.8623C107.667 26.9893 107.657 27.1504 107.618 27.3457C107.579 27.541 107.506 27.7168 107.399 27.873C107.428 27.8926 107.467 27.917 107.516 27.9463C107.565 27.9658 107.643 27.9756 107.75 27.9756C107.906 27.9756 108.014 27.9658 108.072 27.9463C108.141 27.9268 108.243 27.917 108.38 27.917C108.546 27.917 108.683 27.9609 108.79 28.0488C108.898 28.127 108.986 28.2295 109.054 28.3564C109.122 28.4736 109.171 28.6055 109.2 28.752C109.239 28.8887 109.264 29.0156 109.274 29.1328C109.303 29.377 109.239 29.6309 109.083 29.8945C108.927 30.1582 108.737 30.4463 108.512 30.7588C108.375 30.9541 108.238 31.1738 108.102 31.418C107.965 31.6621 107.906 31.8818 107.926 32.0771C107.946 32.2041 107.98 32.3066 108.029 32.3848C108.077 32.4629 108.214 32.502 108.439 32.502C108.605 32.502 108.785 32.4434 108.981 32.3262C109.186 32.1992 109.391 32.043 109.596 31.8574C109.811 31.6621 110.021 31.4521 110.226 31.2275C110.431 30.9932 110.621 30.7686 110.797 30.5537C110.973 30.3291 111.119 30.1289 111.237 29.9531C111.363 29.7773 111.456 29.6504 111.515 29.5723C111.564 29.4941 111.627 29.4404 111.705 29.4111C111.783 29.3818 111.852 29.3818 111.91 29.4111C111.969 29.4404 112.003 29.499 112.013 29.5869C112.032 29.6748 111.998 29.792 111.91 29.9385C111.852 30.0361 111.749 30.1924 111.603 30.4072C111.466 30.6221 111.295 30.8613 111.09 31.125C110.895 31.3887 110.675 31.6621 110.431 31.9453C110.187 32.2188 109.928 32.4727 109.654 32.707C109.391 32.9316 109.122 33.1172 108.849 33.2637C108.585 33.4102 108.331 33.4834 108.087 33.4834C107.833 33.4834 107.623 33.4346 107.457 33.3369C107.291 33.2393 107.154 33.1221 107.047 32.9854C106.949 32.8389 106.876 32.6826 106.827 32.5166C106.788 32.3408 106.774 32.1797 106.783 32.0332C106.793 31.916 106.822 31.7939 106.871 31.667C106.93 31.5303 106.993 31.3936 107.062 31.2568C107.14 31.1104 107.218 30.9688 107.296 30.832C107.384 30.6855 107.462 30.5439 107.53 30.4072C107.696 30.124 107.828 29.8848 107.926 29.6895C108.033 29.4844 108.087 29.3135 108.087 29.1768C108.087 29.0889 108.068 29.0107 108.029 28.9424C107.989 28.874 107.926 28.8398 107.838 28.8398C107.779 28.8398 107.736 28.8447 107.706 28.8545C107.687 28.8545 107.662 28.8545 107.633 28.8545C107.613 28.8545 107.579 28.8594 107.53 28.8691C107.491 28.8691 107.428 28.8691 107.34 28.8691C107.213 28.8691 107.106 28.8496 107.018 28.8105C106.93 28.7715 106.847 28.7422 106.769 28.7227C106.73 28.791 106.642 28.9375 106.505 29.1621C106.368 29.3867 106.207 29.6504 106.022 29.9531C105.846 30.2559 105.655 30.5732 105.45 30.9053C105.255 31.2373 105.07 31.5498 104.894 31.8428C104.718 32.126 104.571 32.3701 104.454 32.5752C104.327 32.7705 104.249 32.8877 104.22 32.9268ZM114.693 24.3721C114.664 24.4795 114.605 24.5869 114.517 24.6943C114.439 24.792 114.346 24.875 114.239 24.9434C114.141 25.002 114.039 25.041 113.931 25.0605C113.824 25.0801 113.736 25.0605 113.668 25.002C113.462 24.8457 113.355 24.6797 113.345 24.5039C113.336 24.3184 113.379 24.1475 113.477 23.9912C113.575 23.8252 113.697 23.6885 113.843 23.5811C113.99 23.4639 114.117 23.3955 114.224 23.376C114.332 23.3564 114.42 23.3809 114.488 23.4492C114.566 23.5078 114.625 23.5908 114.664 23.6982C114.703 23.7959 114.722 23.9082 114.722 24.0352C114.732 24.1621 114.722 24.2744 114.693 24.3721ZM112.671 27.4922C112.72 27.4336 112.813 27.3848 112.95 27.3457C113.087 27.3066 113.228 27.2773 113.375 27.2578C113.521 27.2285 113.653 27.2139 113.77 27.2139C113.897 27.2041 113.97 27.2041 113.99 27.2139C114 27.2236 113.975 27.3262 113.917 27.5215C113.858 27.7168 113.785 27.9463 113.697 28.21C113.609 28.4736 113.516 28.7471 113.419 29.0303C113.321 29.3037 113.248 29.5283 113.199 29.7041C113.15 29.8799 113.091 30.0801 113.023 30.3047C112.955 30.5195 112.891 30.7344 112.833 30.9492C112.784 31.1543 112.75 31.3496 112.73 31.5352C112.711 31.7207 112.725 31.8623 112.774 31.96C112.823 32.0771 112.877 32.1602 112.935 32.209C112.994 32.248 113.057 32.2676 113.126 32.2676C113.321 32.2676 113.565 32.1602 113.858 31.9453C114.161 31.7305 114.463 31.4766 114.766 31.1836C115.079 30.8809 115.367 30.5781 115.63 30.2754C115.894 29.9629 116.089 29.7139 116.216 29.5283C116.295 29.4307 116.373 29.3672 116.451 29.3379C116.539 29.3086 116.607 29.3135 116.656 29.3525C116.714 29.3916 116.744 29.4551 116.744 29.543C116.754 29.6309 116.724 29.7334 116.656 29.8506C116.5 30.124 116.27 30.4512 115.967 30.832C115.665 31.2031 115.342 31.5645 115.001 31.916C114.659 32.2578 114.322 32.5508 113.99 32.7949C113.668 33.0391 113.404 33.166 113.199 33.1758C113.033 33.1855 112.867 33.1562 112.701 33.0879C112.545 33.0293 112.398 32.9463 112.261 32.8389C112.134 32.7217 112.027 32.5898 111.939 32.4434C111.851 32.2871 111.802 32.126 111.793 31.96C111.763 31.7158 111.763 31.3838 111.793 30.9639C111.822 30.5342 111.876 30.0996 111.954 29.6602C112.032 29.2109 112.129 28.7861 112.247 28.3857C112.374 27.9854 112.515 27.6875 112.671 27.4922ZM122.822 29.9531C122.529 30.3828 122.197 30.8027 121.826 31.2129C121.455 31.6133 121.06 31.9746 120.64 32.2969C120.229 32.6094 119.805 32.8633 119.365 33.0586C118.936 33.2539 118.516 33.3516 118.105 33.3516C117.891 33.3516 117.656 33.2979 117.402 33.1904C117.158 33.0928 116.934 32.9365 116.729 32.7217C116.523 32.5068 116.357 32.2285 116.23 31.8867C116.113 31.5449 116.079 31.1299 116.128 30.6416C116.167 30.2412 116.289 29.8213 116.494 29.3818C116.709 28.9326 116.968 28.5225 117.271 28.1514C117.583 27.7803 117.93 27.4727 118.311 27.2285C118.701 26.9844 119.092 26.8623 119.482 26.8623C119.854 26.8623 120.122 26.9551 120.288 27.1406C120.454 27.3262 120.527 27.5557 120.508 27.8291C120.479 28.1318 120.391 28.4102 120.244 28.6641C120.107 28.918 119.941 29.1475 119.746 29.3525C119.551 29.5576 119.341 29.7432 119.116 29.9092C118.901 30.0752 118.696 30.2266 118.501 30.3633C118.286 30.5098 118.081 30.6514 117.886 30.7881C117.69 30.915 117.52 31.0322 117.373 31.1396C117.383 31.3838 117.427 31.5889 117.505 31.7549C117.583 31.9209 117.681 32.0576 117.798 32.165C117.915 32.2627 118.047 32.3359 118.193 32.3848C118.35 32.4238 118.506 32.4434 118.662 32.4434C118.994 32.4434 119.341 32.3408 119.702 32.1357C120.063 31.9209 120.415 31.667 120.757 31.374C121.108 31.0713 121.431 30.7588 121.724 30.4365C122.026 30.1143 122.275 29.8359 122.471 29.6016C122.539 29.5234 122.607 29.4795 122.676 29.4697C122.754 29.4502 122.812 29.46 122.852 29.499C122.9 29.5283 122.925 29.5869 122.925 29.6748C122.925 29.7529 122.891 29.8457 122.822 29.9531ZM119.072 27.6973C118.955 27.6973 118.813 27.7559 118.647 27.873C118.491 27.9902 118.335 28.1611 118.179 28.3857C118.022 28.6006 117.876 28.8691 117.739 29.1914C117.603 29.5039 117.5 29.8652 117.432 30.2754C117.549 30.1875 117.676 30.0996 117.812 30.0117C117.949 29.9141 118.086 29.8115 118.223 29.7041C118.643 29.3818 118.936 29.0986 119.102 28.8545C119.268 28.6104 119.36 28.4004 119.38 28.2246C119.399 28.0391 119.38 27.9072 119.321 27.8291C119.263 27.7412 119.18 27.6973 119.072 27.6973ZM124.433 32.502C124.492 32.541 124.565 32.5605 124.653 32.5605C124.75 32.5605 124.843 32.541 124.931 32.502C125.029 32.4629 125.117 32.4092 125.195 32.3408C125.283 32.2725 125.346 32.1846 125.385 32.0771C125.424 31.9697 125.424 31.8184 125.385 31.623C125.346 31.418 125.283 31.2031 125.195 30.9785C125.117 30.7441 125.029 30.5098 124.931 30.2754C124.833 30.041 124.75 29.8262 124.682 29.6309C124.623 29.4844 124.575 29.3477 124.536 29.2207C124.496 29.1133 124.457 29.0107 124.418 28.9131C124.389 28.8057 124.365 28.7324 124.345 28.6934C124.296 28.7715 124.208 28.8984 124.081 29.0742C123.964 29.25 123.832 29.4355 123.686 29.6309C123.549 29.8164 123.417 29.9922 123.29 30.1582C123.163 30.3145 123.076 30.4219 123.027 30.4805C122.949 30.5684 122.871 30.6221 122.792 30.6416C122.724 30.6514 122.665 30.6367 122.617 30.5977C122.568 30.5488 122.538 30.4854 122.529 30.4072C122.529 30.3193 122.568 30.2168 122.646 30.0996C122.704 30.0215 122.792 29.8994 122.91 29.7334C123.027 29.5576 123.144 29.3818 123.261 29.2061C123.378 29.0205 123.486 28.8594 123.583 28.7227C123.681 28.5762 123.735 28.4883 123.745 28.459C123.764 28.3809 123.735 28.2783 123.657 28.1514C123.588 28.0244 123.579 27.8779 123.627 27.7119C123.666 27.5752 123.754 27.4189 123.891 27.2432C124.028 27.0576 124.189 26.8916 124.374 26.7451C124.56 26.5986 124.75 26.4912 124.946 26.4229C125.141 26.3447 125.317 26.3447 125.473 26.4229C125.6 26.501 125.703 26.5889 125.781 26.6865C125.859 26.7744 125.888 26.8672 125.869 26.9648C125.849 27.0137 125.82 27.0771 125.781 27.1553C125.742 27.2334 125.683 27.3311 125.605 27.4482C125.527 27.5557 125.414 27.6973 125.268 27.873C125.297 28.0977 125.336 28.3027 125.385 28.4883C125.444 28.6738 125.497 28.835 125.546 28.9717C125.605 29.1377 125.668 29.2891 125.737 29.4258C125.825 29.6016 125.917 29.7822 126.015 29.9678C126.113 30.1533 126.201 30.3389 126.279 30.5244C126.357 30.7002 126.42 30.8662 126.469 31.0225C126.518 31.1787 126.533 31.3105 126.513 31.418C126.484 31.584 126.396 31.7842 126.249 32.0186C126.113 32.2529 125.937 32.4824 125.722 32.707C125.517 32.9219 125.278 33.1074 125.004 33.2637C124.741 33.4199 124.462 33.498 124.169 33.498C123.964 33.498 123.764 33.4346 123.569 33.3076C123.383 33.1807 123.222 33.0342 123.085 32.8682C122.958 32.6924 122.861 32.5215 122.792 32.3555C122.734 32.1895 122.729 32.0625 122.778 31.9746C122.836 31.8574 122.89 31.7646 122.939 31.6963C122.988 31.6279 123.061 31.5498 123.159 31.4619C123.198 31.4326 123.246 31.3984 123.305 31.3594C123.354 31.3301 123.422 31.3008 123.51 31.2715C123.598 31.2422 123.701 31.208 123.818 31.1689C123.915 31.4717 124.003 31.7109 124.081 31.8867C124.16 32.0527 124.223 32.1846 124.272 32.2822C124.33 32.3896 124.384 32.4629 124.433 32.502Z" fill="#A83939"/>
</svg>
