<svg width="143" height="212" viewBox="0 0 143 212" fill="none" xmlns="http://www.w3.org/2000/svg">
<path d="M104.458 39.8425C103.044 40.5203 102.478 41.5987 102.676 43.2009L102.846 44.3718L100.81 43.9404C98.0949 43.355 92.7499 43.6323 89.7522 44.495C84.7183 45.9123 80.1369 49.1783 78.44 52.5368C77.6765 54.0157 77.5916 54.4779 77.5916 56.8504C77.5916 59.2229 77.6765 59.6234 78.3835 60.7943C78.8077 61.5029 79.4864 62.2424 79.8541 62.4273C80.7873 62.8895 80.759 63.0435 79.543 63.7522C76.9695 65.2619 76.0928 67.9117 77.6199 69.5755C78.3269 70.3458 79.8541 70.9929 80.957 70.9929C81.3812 70.9929 81.3246 71.1469 80.5893 72.0713C78.7794 74.3205 78.44 75.4605 78.44 79.0038C78.44 82.7012 78.8925 84.1494 81.0701 87.6002L82.3144 89.603L81.3812 92.8382C80.2217 96.9361 79.9672 100.911 80.7025 103.314C81.6357 106.364 84.1527 108.614 88.9321 110.555C92.863 112.157 95.182 114.252 95.7194 116.655C95.8608 117.364 95.8042 117.518 95.3517 117.518C94.0508 117.518 89.8088 121.554 88.9603 123.588C88.7907 123.989 88.5361 124.297 88.3382 124.297C87.716 124.297 82.9366 127.501 80.6742 129.411C77.8744 131.784 75.3857 134.711 73.4344 137.915C72.6426 139.24 71.9073 140.319 71.8224 140.288C71.7376 140.288 71.2568 139.702 70.8043 138.994C68.655 135.759 65.3179 134.957 61.9808 136.837C61.0193 137.392 59.9447 137.854 59.6336 137.854C58.163 137.854 54.9107 135.296 53.2422 132.831C52.5635 131.815 51.9979 130.89 51.9979 130.767C51.9979 130.613 52.5918 130.397 53.3553 130.305C60.3971 129.288 66.3077 126.7 69.3903 123.249C72.0769 120.26 73.5758 116.409 73.5475 112.496C73.5192 109.784 72.8688 108.306 70.7478 106.118C67.7218 102.914 66.9865 101.065 65.5725 92.7149C64.4412 85.998 63.5928 82.8553 61.896 79.0963C58.5024 71.5783 54.3169 67.3263 48.8587 65.909C44.8429 64.8922 37.2355 65.0154 32.0602 66.2479C21.2288 68.8053 13.48 75.0908 9.26619 84.6423C7.31484 89.1408 6.97548 91.1436 7.00376 98.5383C7.03204 107.504 6.86236 108.182 3.10106 114.745C-0.179462 120.414 -0.773351 124.05 0.923473 127.809C2.39405 131.106 6.21191 134.033 10.256 134.957C12.6033 135.512 17.7786 135.481 21.3985 134.896C23.8872 134.495 27.2808 133.478 29.4584 132.462C29.9109 132.246 29.9392 132.338 29.7695 133.109C29.2321 135.512 27.4788 137.977 25.386 139.24C23.9437 140.103 23.6892 140.165 20.4652 140.165C17.3827 140.165 16.9302 140.226 15.4879 140.966C11.5003 142.999 8.61574 147.744 6.07051 156.279C4.65649 160.993 4.204 163.612 4.204 166.662C4.204 169.805 4.88273 172.085 6.35331 173.718L7.34312 174.827L6.77751 177.231C6.26847 179.388 6.26847 179.634 6.69267 179.973C7.0886 180.343 7.0886 180.651 6.63611 183.794C6.12707 187.275 6.21191 188.046 7.11688 187.676C7.51281 187.522 7.88045 185.766 8.33294 181.976C8.5309 180.189 8.64402 180.158 10.4257 180.836C11.67 181.329 12.1225 181.236 12.1225 180.528C12.1225 180.096 10.5671 179.326 8.95511 179.018C8.36122 178.895 7.88045 178.771 7.88045 178.741C7.90873 178.71 8.07841 177.97 8.27638 177.138C8.61574 175.783 8.72886 175.598 9.32275 175.721C10.7933 175.998 11.1327 175.906 11.1327 175.29C11.1327 174.92 10.9065 174.643 10.5671 174.581C9.15307 174.365 8.72886 174.15 7.88045 173.41C6.66439 172.27 5.84426 170.391 5.61802 168.111C5.53318 167.063 5.53318 166.2 5.61802 166.2C5.70286 166.2 6.35331 167.032 7.03204 168.049C8.21982 169.774 9.01167 170.36 9.01167 169.528C9.01167 169.312 8.2481 168.08 7.31484 166.755C5.75942 164.567 5.61802 164.259 5.7877 163.273C5.87254 162.688 6.04222 162.195 6.15535 162.195C6.24019 162.195 6.89064 163.119 7.56937 164.198C8.2481 165.307 8.92683 166.2 9.03995 166.2C9.71868 166.2 9.43587 165.338 8.02185 163.15C6.40987 160.623 6.26847 160.13 6.83408 158.682L7.17344 157.82L8.44606 159.853C9.60555 161.733 10.4257 162.41 10.4257 161.517C10.4257 161.332 9.80352 160.161 9.01167 158.929C8.2481 157.696 7.59765 156.433 7.59765 156.125C7.59765 155.817 7.82389 155.047 8.10669 154.369L8.58746 153.167L9.94492 155.385C10.6802 156.587 11.3872 157.573 11.5286 157.573C12.2074 157.573 11.9811 156.864 10.5105 154.492L8.95511 151.935L9.60555 150.456C9.94492 149.624 10.3408 148.946 10.454 148.946C10.5671 148.946 11.1893 149.963 11.8114 151.226C13.0558 153.691 13.4517 154.184 13.7062 153.475C13.7628 153.229 13.1972 151.842 12.4053 150.332L10.963 147.621L11.7266 146.388L12.4902 145.125L13.7345 147.806C14.4132 149.285 15.0637 150.486 15.2334 150.486C15.8838 150.486 15.7141 149.685 14.5546 147.159L13.282 144.417L14.0739 143.585C14.4981 143.153 14.9788 142.784 15.1202 142.784C15.2899 142.784 15.7141 143.585 16.0818 144.54C16.8453 146.635 17.0999 147.036 17.4675 146.635C17.6372 146.45 17.4675 145.618 17.0433 144.509C16.2232 142.321 16.1949 141.952 16.8736 141.736C20.0127 140.781 22.7842 141.921 23.8872 144.632C24.3962 145.896 25.0184 146.234 25.3012 145.403C25.5274 144.786 24.9618 143.307 24.1134 142.321C23.5195 141.613 23.4912 141.52 23.9437 141.335C24.1982 141.243 24.8487 140.966 25.3577 140.75C26.291 140.349 26.291 140.349 28.9211 142.753C33.9833 147.405 38.4233 149.562 43.3723 149.809C47.7841 149.993 51.2343 148.884 54.1755 146.234C55.6178 144.971 57.5125 141.982 57.965 140.288C58.2761 139.148 58.3892 139.086 59.4073 139.086C60.0861 139.086 61.2738 138.686 62.5465 138.008C64.8372 136.806 65.4028 136.714 66.9299 137.392C71.0589 139.271 73.7738 146.851 73.7738 156.341C73.7455 158.467 73.5758 161.147 73.3778 162.318C73.1233 163.705 73.095 164.783 73.2364 165.399C73.7455 167.309 73.5475 167.648 71.3699 168.234L70.6629 168.419V165.492C70.6629 160.593 69.6166 156.125 67.4955 151.996C66.2512 149.593 65.4311 148.607 64.8654 148.823C64.2716 149.1 64.3281 149.439 65.3179 150.979C66.5057 152.89 68.0046 156.433 68.5985 158.806C69.3055 161.64 69.3055 169.004 68.5702 171.531C68.2308 172.794 68.146 173.441 68.3439 173.657C68.8813 174.242 69.5034 173.657 69.8145 172.301C70.3518 170.021 70.5498 169.682 71.5679 169.528C72.0769 169.435 72.586 169.497 72.6708 169.651C72.7557 169.805 73.0668 171.315 73.3213 173.01C73.6606 175.074 73.9717 176.152 74.2545 176.276C75.1595 176.645 75.2161 175.875 74.6222 172.332L74.0283 168.85L74.5939 168.388C75.1312 167.957 75.1595 167.772 74.8767 166.662C74.707 165.985 74.6505 164.598 74.7353 163.427C75.4989 154.862 75.1312 149.624 73.4627 144.447L72.6426 141.89L74.3677 139.025C76.7149 135.112 81.2964 130.274 84.8031 127.932C86.2454 126.946 87.4898 126.207 87.5463 126.269C87.6029 126.33 87.4049 127.409 87.0656 128.641C86.4717 131.014 85.7364 138.963 86.0192 139.826C86.4151 140.935 87.2918 140.226 90.035 136.56C93.768 131.568 94.5599 130.767 95.5497 130.767C96.2284 130.767 96.596 131.075 97.5293 132.493C98.1797 133.417 99.0564 134.957 99.4807 135.882L100.244 137.546L99.5938 141.613C98.7171 147.529 98.1232 153.568 97.9252 159.699L97.7273 165.029L98.406 164.906C99.0847 164.814 99.0847 164.783 99.2827 159.73C99.5089 153.783 100.159 146.974 101.008 141.551L101.63 137.73L104.317 135.635C105.787 134.464 107.173 133.448 107.343 133.355C107.541 133.263 108.304 133.478 109.039 133.879C110.793 134.834 111.783 136.56 112.574 140.165C112.914 141.705 113.31 143.03 113.479 143.153C113.988 143.523 114.413 142.814 114.611 141.335C114.696 140.565 115.487 137.669 116.336 134.927C117.184 132.184 118.033 128.888 118.202 127.594L118.513 125.252L120.267 126.638C130.023 134.372 137.546 145.988 140.798 158.343C141.336 160.284 141.675 161.147 142.014 161.209C142.948 161.394 142.863 160.254 141.675 156.371C138.932 147.282 134.633 139.61 128.355 132.493C125.697 129.504 119.164 123.68 118.457 123.68C118.287 123.68 118.174 123.372 118.174 122.972C118.174 121.123 116.081 117.919 114.469 117.241C113.762 116.964 113.734 116.871 113.96 115.608C114.073 114.868 114.186 114.191 114.215 114.098C114.215 114.006 115.035 113.821 116.081 113.698C118.57 113.42 121.879 112.219 124.113 110.832C126.262 109.446 129.288 106.303 130.617 104.054C131.381 102.729 131.89 102.266 133.304 101.527C135.595 100.387 137.207 98.754 138.112 96.7821C139.158 94.3788 139.271 92.7149 138.479 91.0203L137.829 89.6338L138.479 87.8467C141.505 79.5584 141.534 68.2198 138.508 62.0575C137.235 59.4078 135.991 57.9904 133.983 56.8196C131.664 55.4947 128.949 55.2174 126.771 56.1109L125.357 56.7272L124.876 54.6936C123.321 48.2848 119.164 43.2317 113.366 40.7052C109.888 39.2263 106.409 38.8565 104.458 39.8425ZM91.7035 50.5341C91.9581 50.6265 92.156 50.9654 92.156 51.2735C92.156 51.7049 91.8167 51.8589 90.544 52.013C88.5079 52.2595 86.8676 53.0606 85.4536 54.4779C84.8314 55.0941 84.0961 55.5871 83.8416 55.5871C82.9932 55.5871 83.3608 54.4163 84.5769 53.3071C86.104 51.8589 87.8857 50.9346 89.6956 50.6573C90.5158 50.5341 91.1945 50.4108 91.2228 50.38C91.2511 50.38 91.449 50.4416 91.7035 50.5341ZM97.8687 51.366C98.208 51.9514 97.5293 52.506 96.7092 52.3211C95.6911 52.0438 95.2669 51.6125 95.4648 51.0578C95.578 50.7189 95.8608 50.6573 96.6526 50.8114C97.2182 50.9346 97.7555 51.1811 97.8687 51.366ZM48.6608 67.2647C51.5454 68.0658 52.9311 68.8977 54.9107 70.9312C57.258 73.3962 59.1528 76.2924 60.7648 79.959C62.3202 83.5331 63.1969 86.8916 64.2998 93.4852C65.6573 101.404 66.7319 104.177 69.5034 106.703C70.2953 107.443 71.1437 108.429 71.3699 108.891C72.6143 111.541 72.4163 115.053 70.8043 118.597C69.9276 120.507 68.2308 123.003 68.0046 122.694C67.948 122.664 68.0046 121.77 68.1177 120.753C68.6267 116.07 66.7319 108.49 65.2896 109.507C64.922 109.754 64.922 109.939 65.2614 110.801C66.8168 115.022 67.2127 118.874 66.4492 122.633L66.0815 124.543L63.6211 125.806C62.2919 126.484 61.0759 127.07 60.991 127.07C60.8779 127.07 60.9062 126.7 61.0759 126.207C61.4718 125.067 61.5001 120.661 61.1042 120.23C60.9345 120.045 60.5951 119.983 60.3406 120.106C59.9447 120.26 59.8881 120.538 60.0295 121.678C60.2557 123.311 59.7184 126.577 59.0962 127.378C58.672 127.902 54.3734 129.134 54.0623 128.826C54.0058 128.764 54.0906 127.686 54.2886 126.453C54.4865 124.944 54.5148 124.143 54.3169 123.927C53.7513 123.311 53.2139 123.927 53.016 125.437C52.5352 129.257 52.5635 129.227 51.8565 129.227C51.3191 129.227 51.1495 128.949 50.7535 127.439C50.499 126.453 50.301 125.221 50.301 124.728C50.301 123.835 50.3859 123.773 52.0827 123.403C54.3734 122.91 58.0216 120.969 59.6901 119.398C64.2716 114.992 65.12 108.09 62.2071 98.908C61.7263 97.3983 61.3304 96.135 61.3304 96.1042C61.3304 96.0426 61.5566 96.0426 61.8394 96.0734C63.0555 96.1658 62.2071 89.9727 60.3689 85.6591C59.0397 82.5163 57.2015 79.6201 56.5227 79.6201C55.6178 79.6201 55.6743 80.0514 56.6924 81.6536C58.7286 84.7348 60.4254 89.1716 60.9062 92.6533L61.1042 94.1015L60.0295 93.6085C59.4073 93.3312 58.361 92.9306 57.6822 92.7458L56.4379 92.376L55.8157 89.7878C55.0804 86.5527 54.0623 84.1185 52.4221 81.6228C51.1495 79.6509 50.7253 79.2811 50.1031 79.5584C49.5375 79.7741 49.6506 80.1747 50.697 81.5612C52.0544 83.3791 53.5533 86.5218 54.232 88.9868C55.1653 92.2528 55.2218 92.1295 52.2524 92.0987H49.6789L49.1698 89.9111C48.887 88.7094 48.2649 86.8608 47.7841 85.844C46.9074 83.9337 45.352 81.7769 44.8995 81.7769C44.2208 81.7769 44.447 82.7628 45.6065 84.6423C46.6812 86.4602 47.671 89.1716 48.1517 91.6674C48.2931 92.4376 48.2366 92.4684 46.1155 92.9614C44.8995 93.2695 43.7966 93.4852 43.6269 93.4852C43.4572 93.4852 43.2309 92.8998 43.1178 92.1911C42.6653 89.0792 39.3565 83.7796 38.0274 83.9953C37.2355 84.1185 37.0375 85.5975 37.0375 91.6057L37.0658 96.3199L35.4821 97.0285C34.6054 97.4291 33.5873 97.9529 33.1914 98.2302C32.6824 98.5999 32.4561 98.6307 32.3147 98.3534C31.9188 97.6756 32.1167 91.5441 32.5975 89.5106C33.0783 87.477 32.9369 86.7683 32.0885 87.1073C31.1552 87.5078 30.5048 92.6533 30.8159 97.1826L31.0138 99.8016L29.9392 101.096C28.3272 102.975 27.6202 104.731 27.4505 107.073C27.2808 109.63 27.9313 111.263 30.4765 115.022C31.438 116.44 32.4278 118.104 32.6541 118.72C34.2943 122.972 33.3328 127.717 30.3351 130.212C29.119 131.26 26.6021 132.493 26.3475 132.215C26.291 132.154 26.4607 131.507 26.6869 130.767C27.4788 128.302 27.2525 125.036 25.8385 118.966C25.1315 115.916 24.5659 112.927 24.5659 112.28C24.5659 111.079 24.1134 110.586 23.4347 111.048C22.8691 111.417 23.265 114.529 24.5659 119.675C26.1779 126.115 26.1213 129.997 24.3114 132.308C23.6326 133.17 23.3215 133.294 20.6066 133.725L17.6372 134.187L16.7322 133.047C15.1202 131.044 14.3849 127.255 14.9223 123.68C15.092 122.571 15.8838 119.49 16.6757 116.84C18.0897 112.157 18.2311 111.048 17.3827 111.048C16.8453 111.048 13.989 120.445 13.5082 123.773C13.084 126.762 13.48 129.781 14.6112 132.092C15.0354 132.986 15.4313 133.817 15.4879 133.971C15.5444 134.126 14.6112 134.156 13.2254 134.033C8.58746 133.633 6.26847 131.291 5.95738 126.731C5.7877 123.896 6.35331 121.955 9.15307 116.132C11.7831 110.647 12.4336 108.583 12.4336 105.779C12.4619 103.807 12.1791 103.129 11.4438 103.437C11.1327 103.561 11.0196 104.115 11.0196 105.656C11.0196 108.275 10.4822 110.247 8.72886 113.821C4.43024 122.602 3.75151 125.468 5.05241 129.535C5.33521 130.459 5.53318 131.26 5.5049 131.322C5.25037 131.568 2.98794 128.703 2.30921 127.316C1.68704 125.991 1.54564 125.252 1.54564 123.372C1.51736 120.63 2.02641 119.213 5.05241 113.975C8.13497 108.583 8.27638 107.936 8.30466 99.4935C8.33294 93.6701 8.41778 92.0371 8.84198 90.2808C11.9811 77.3092 22.4731 68.4355 36.7265 66.7101C40.2898 66.2787 46.059 66.5252 48.6608 67.2647ZM117.75 68.1274C116.534 71.6091 115.827 77.34 116.449 78.9422C116.901 80.1131 117.891 80.6985 118.938 80.4212C119.362 80.2979 120.352 79.466 121.115 78.6033C121.907 77.6481 122.416 77.2476 122.303 77.6173C121.907 79.0963 121.568 82.7936 121.568 85.8132C121.568 88.6786 121.652 89.2024 122.162 89.9111C122.953 90.9895 124.311 90.9895 125.499 89.9111L126.375 89.11L126.177 90.8971C126.036 91.9138 125.951 93.4852 125.951 94.4096C125.951 96.9361 126.545 96.8129 128.468 93.8242C130.646 90.4041 133.049 88.9868 135.227 89.7878C139.441 91.2668 137.801 97.6756 132.512 100.418C130.674 101.404 129.062 101.774 124.311 102.297C122.784 102.451 122.642 102.544 122.162 103.591C121.172 105.717 119.333 107.597 116.845 109.137C113.197 111.325 112.405 113.05 112.405 118.751C112.405 121.154 112.518 122.263 112.857 123.003L113.338 123.989L111.698 126.238C109.605 129.103 106.127 132.647 103.383 134.711L101.234 136.344L100.612 135.019C100.272 134.28 99.1413 132.431 98.0949 130.921C97.0485 129.381 95.9173 127.532 95.578 126.792L94.9275 125.437L95.6345 124.019C98.5191 118.196 97.3596 113.389 92.4106 110.801C91.4207 110.277 89.6108 109.415 88.423 108.891C84.181 107.011 82.3427 105.009 81.6923 101.619C81.2398 99.2778 81.7206 96.2891 83.3891 90.9587C85.0859 85.5359 85.4819 83.225 85.2556 80.3595L85.0576 78.1719L89.3846 77.9871C94.3053 77.7714 98.4626 76.9395 103.383 75.1524C106.975 73.8583 112.914 70.7464 115.912 68.5588C117.071 67.7268 118.061 67.0182 118.089 67.0182C118.146 66.9874 117.976 67.5112 117.75 68.1274ZM136.867 74.721C137.659 77.7714 136.273 84.365 135.114 83.1018C134.859 82.8245 134.888 82.2699 135.255 80.8217C135.566 79.6201 135.736 78.1411 135.68 76.7238C135.623 75.5221 135.68 74.3513 135.821 74.1356C136.132 73.5502 136.641 73.8275 136.867 74.721ZM40.714 89.3257C41.1665 90.3425 41.6755 92.0679 41.8452 93.1463L42.1846 95.0874L43.3441 94.9334C43.9662 94.8409 45.7196 94.4712 47.1902 94.1323C50.8101 93.2695 55.2218 93.2695 57.6822 94.1015L59.4922 94.7177L60.8496 99.247C62.3485 104.3 62.6879 106.642 62.4333 110.216C62.0657 114.807 59.5487 118.566 55.3067 120.784C52.62 122.171 49.9051 122.756 45.2106 123.003C41.6472 123.218 41.3927 123.249 41.3927 123.835C41.3927 124.42 41.5624 124.451 44.645 124.358C46.4266 124.297 48.0952 124.204 48.3497 124.112C48.6891 124.019 48.8587 124.42 49.085 126.145C49.7072 130.428 52.7049 135.42 55.844 137.422C56.9469 138.131 57.0601 138.316 56.9187 139.025C56.551 140.842 55.3067 143.092 53.8361 144.601C47.7275 150.887 37.7728 149.562 29.4584 141.366L27.5353 139.487L28.7514 138.039C30.1371 136.406 30.9573 134.619 31.2401 132.616C31.3815 131.691 31.7491 130.86 32.3713 130.089C34.3226 127.717 35.171 124.512 34.7468 121.185C34.464 119.09 33.757 117.487 31.6077 114.221C28.5251 109.569 28.1009 107.412 29.6846 104.023C30.9573 101.25 33.4176 99.1853 37.1507 97.7988L38.5647 97.275L38.4233 94.8409C38.2819 91.9755 38.2819 90.9895 38.3667 88.124L38.4233 85.998L39.1303 86.7067C39.5262 87.1381 40.2332 88.2781 40.714 89.3257ZM114.639 120.907C114.3 122.879 114.017 122.633 113.791 120.106L113.621 118.288L114.215 119.059C114.696 119.644 114.78 120.014 114.639 120.907ZM95.4366 120.661C95.182 121.554 94.8427 122.51 94.673 122.756C94.1639 123.557 94.5599 120.414 95.1255 119.49C95.8042 118.319 95.9456 118.781 95.4366 120.661ZM93.1458 122.725C93.1741 124.574 93.3155 125.159 94.2205 127.101C94.7861 128.333 95.2386 129.35 95.182 129.35C93.9094 129.812 92.4954 131.168 90.233 134.064C88.7624 135.974 87.518 137.546 87.4898 137.546C87.2635 137.546 87.716 133.232 88.1968 130.49C88.8189 127.131 90.233 123.68 91.7318 121.863C92.3257 121.185 92.863 120.599 92.9762 120.599C93.061 120.599 93.1458 121.554 93.1458 122.725ZM116.732 122.756C117.099 124.636 117.128 126.084 116.817 125.652C116.279 125.005 115.629 122.694 115.798 121.986C116.081 120.784 116.392 121.061 116.732 122.756ZM115.996 126.484C116.619 128.21 116.675 128.734 116.449 129.658C116.307 130.274 116.138 130.767 116.081 130.767C116.025 130.767 115.516 129.689 114.922 128.364C113.904 125.991 113.875 125.991 114.384 124.975C114.667 124.42 114.978 124.081 115.063 124.204C115.176 124.358 115.6 125.375 115.996 126.484ZM115.176 133.91C114.95 134.711 114.696 135.389 114.639 135.389C114.469 135.389 111.387 129.381 111.387 129.072C111.387 128.918 111.811 128.333 112.292 127.748L113.225 126.731L114.441 129.565L115.629 132.431L115.176 133.91ZM112.263 133.109C113.055 134.742 113.875 136.128 114.073 136.19C114.356 136.313 114.356 136.59 114.13 137.422L113.819 138.501L113.084 136.714C112.292 134.834 110.708 133.078 109.351 132.554L108.502 132.246L109.435 131.198C109.944 130.613 110.453 130.151 110.595 130.151C110.708 130.151 111.472 131.476 112.263 133.109Z" fill="#A83939"/>
<path d="M23.4065 74.1051C20.9743 75.9846 18.6271 78.9117 18.6271 80.0518C18.6271 81.0685 19.6452 80.4523 20.6633 78.8809C21.5965 77.4328 24.4811 74.6598 25.4709 74.3208C25.8951 74.1668 25.5558 73.15 25.0467 73.15C24.8205 73.15 24.0852 73.5814 23.4065 74.1051Z" fill="#A83939"/>
<path d="M14.2723 91.4214C13.6501 91.9144 13.339 93.4242 13.1128 97.1832C12.9148 100.018 12.9431 100.172 13.5936 101.035C14.4702 102.144 15.3469 101.959 17.0155 100.326C19.6173 97.7994 19.3628 97.8918 19.8718 99.5557C20.5223 101.62 21.5686 102.729 22.9261 102.729C24.3118 102.729 24.6795 102.082 25.4148 98.5389C26.3763 93.7631 26.0652 92.5615 23.8876 92.5615C23.0392 92.5615 22.5867 92.808 21.4272 94.0096C20.6354 94.8107 19.9284 95.3037 19.8152 95.1496C19.6738 94.9956 19.1082 94.2253 18.5143 93.3934C16.9589 91.2366 15.4035 90.5279 14.2723 91.4214Z" fill="#A83939"/>
<path d="M87.0086 81.0068C86.5562 81.2841 86.2168 81.7154 86.2168 81.9619C86.2168 82.3625 86.4148 82.4241 87.15 82.27C90.5154 81.4997 91.3638 81.6538 93.1172 83.3792C94.107 84.3036 94.5312 84.5501 94.7575 84.3036C95.2665 83.749 94.5878 82.5165 93.2303 81.5614C92.2405 80.8527 91.6466 80.6986 89.8932 80.637C88.3661 80.5754 87.546 80.6678 87.0086 81.0068Z" fill="#A83939"/>
<path d="M108.361 83.3486C107.173 83.9648 106.834 84.6118 107.428 85.0124C107.597 85.1356 108.304 84.9199 109.011 84.5502C111.217 83.3794 113.989 84.2421 115.205 86.4605C115.714 87.4157 116.76 87.6314 116.76 86.7686C116.76 85.9059 115.176 84.0572 113.847 83.3486C112.207 82.4858 109.945 82.4858 108.361 83.3486Z" fill="#A83939"/>
<path d="M87.8004 86.4295C86.3581 87.662 87.0934 88.4323 88.7336 87.3847C89.7517 86.7685 90.3739 87.0458 90.9678 88.3398C91.6465 89.8804 92.7495 89.1718 92.1556 87.6004C91.4768 85.8441 89.1861 85.2279 87.8004 86.4295Z" fill="#A83939"/>
<path d="M109.549 87.8471C108.672 88.0936 107.427 89.172 107.427 89.665C107.427 90.4353 108.276 90.5277 108.955 89.819C110.142 88.5866 112.009 89.2336 112.603 91.0823C112.829 91.7293 113.593 91.8218 113.819 91.2056C114.017 90.6201 113.225 88.9563 112.433 88.4017C111.67 87.8779 110.34 87.6006 109.549 87.8471Z" fill="#A83939"/>
<path d="M96.0871 90.4352C94.7014 92.0682 94.7297 94.718 96.1437 94.718C96.681 94.718 96.7093 94.5948 96.5396 93.5472C96.3982 92.5304 96.483 92.1915 97.0769 91.4212C97.9253 90.312 97.9819 89.9422 97.3597 89.6649C97.0769 89.5417 96.6244 89.819 96.0871 90.4352Z" fill="#A83939"/>
<path d="M90.7986 96.7208C90.9965 98.5695 92.1278 99.8944 94.5316 101.065C96.0304 101.836 96.5961 101.928 98.9433 101.928C101.064 101.928 101.969 101.805 103.214 101.25C104.769 100.572 107.427 98.3538 107.427 97.7684C107.427 96.9981 106.494 97.2138 105.363 98.2306C102.62 100.665 99.4807 101.404 96.2284 100.326C93.7115 99.4939 92.4388 98.323 92.1843 96.7208C92.0429 95.7349 91.8732 95.4576 91.3359 95.3959C90.6855 95.2727 90.6572 95.3343 90.7986 96.7208Z" fill="#A83939"/>
<path d="M94.8991 104.146C94.4183 104.67 94.7859 105.194 95.8606 105.502C97.0484 105.872 97.8119 105.748 97.8119 105.225C97.8119 104.608 95.3233 103.715 94.8991 104.146Z" fill="#A83939"/>
<path d="M53.7231 95.8274C53.1858 96.0739 52.3374 96.7825 51.8001 97.3988C50.9234 98.4155 50.8668 98.5388 51.2627 99.001C51.6586 99.4323 51.8001 99.3707 52.7616 98.3539C54.6847 96.3512 55.9855 96.0739 58.1631 97.2139C59.0398 97.7069 59.4923 97.7685 59.6903 97.5528C59.9165 97.3063 59.8882 97.0598 59.6054 96.6901C58.6156 95.3652 55.5896 94.9339 53.7231 95.8274Z" fill="#A83939"/>
<path d="M55.8159 99.3086C54.3453 99.9865 53.5252 102.482 54.6847 102.667C55.1372 102.729 55.3351 102.513 55.5331 101.743C55.7593 100.942 55.9856 100.695 56.636 100.634C57.0885 100.572 57.5693 100.664 57.739 100.849C58.1632 101.311 59.0681 101.281 59.0681 100.788C59.0681 99.7092 56.9754 98.754 55.8159 99.3086Z" fill="#A83939"/>
<path d="M37.7734 99.7402C35.709 100.48 33.6162 103.037 33.6162 104.886C33.6162 105.841 34.6909 105.687 35.0302 104.639C35.5958 102.975 36.0483 102.328 37.0664 101.589C38.1128 100.819 38.8198 100.757 42.1003 101.25C42.5811 101.312 42.8073 101.188 42.8073 100.88C42.8073 99.8018 39.6117 99.0932 37.7734 99.7402Z" fill="#A83939"/>
<path d="M39.0739 104.424C37.9426 104.947 37.2356 106.118 37.3487 107.258C37.4619 108.521 38.48 108.46 38.7062 107.166C38.8193 106.642 38.989 106.057 39.1021 105.872C39.4132 105.317 40.9969 105.44 41.5908 105.995C41.9867 106.426 42.1564 106.426 42.5241 106.118C43.0897 105.625 42.6372 104.978 41.3363 104.362C40.2333 103.869 40.2051 103.869 39.0739 104.424Z" fill="#A83939"/>
<path d="M50.8953 104.67C50.6691 104.978 50.7822 105.348 51.3195 106.149C51.9983 107.166 52.1114 108.214 51.6872 109.785C51.5175 110.463 52.6204 110.586 53.0446 109.939C53.7234 108.953 53.4971 106.95 52.5639 105.564C51.6589 104.177 51.4044 104.054 50.8953 104.67Z" fill="#A83939"/>
<path d="M54.4867 111.356C53.2424 112.774 51.6587 113.729 50.1033 114.006C49.17 114.16 48.8589 114.068 48.1236 113.39C47.6429 112.959 47.049 112.589 46.7662 112.589C45.9743 112.589 46.3985 113.883 47.4732 114.684C48.3216 115.3 48.7175 115.393 50.0467 115.269C50.9234 115.177 52.2243 114.776 53.0161 114.345C54.5433 113.513 56.636 111.233 56.4381 110.648C56.2118 109.908 55.5048 110.155 54.4867 111.356Z" fill="#A83939"/>
<path d="M51.6589 117.58C50.8104 117.888 50.6125 118.659 51.2629 118.936C51.8568 119.182 53.695 118.227 53.695 117.703C53.695 117.149 52.8466 117.087 51.6589 117.58Z" fill="#A83939"/>
<path d="M76.4164 1.2017C75.853 1.81548 75.4083 2.55848 75.4083 2.81691C75.4083 3.4953 74.8746 3.36609 74.5187 2.59078C74.074 1.71857 72.4729 0.684831 71.4944 0.684831C70.9903 0.684831 70.4863 1.00787 70.0712 1.55705C69.5078 2.33235 69.4485 2.72 69.5967 4.27061C69.8933 7.56565 71.8205 11.959 73.4513 13.122C74.4001 13.8004 76.0013 13.8327 76.9501 13.1543C78.5512 12.0236 79.8855 7.88869 79.9745 3.91526C80.0041 1.84778 79.9152 1.26631 79.4407 0.717135C78.5809 -0.284298 77.5728 -0.122777 76.4164 1.2017Z" fill="#FF0000" fill-opacity="0.2"/>
<path d="M49.5535 1.97685C49.2867 2.17067 48.753 2.84906 48.3972 3.52745C48.0413 4.17354 47.7152 4.75502 47.6855 4.81962C47.6559 4.85193 47.0925 4.30276 46.4402 3.59206C45.0763 2.10606 43.5641 1.84763 42.7042 2.88137C41.5479 4.27045 42.4077 9.47144 44.335 12.6373C46.5588 16.32 49.7611 16.0615 51.3326 12.0558C52.6965 8.66384 52.9633 3.01058 51.8366 2.10606C51.1843 1.58919 50.2651 1.55689 49.5535 1.97685Z" fill="#FF0000" fill-opacity="0.2"/>
<path d="M99.0103 5.56231C98.5952 5.91765 97.9726 6.75756 97.6761 7.37135L97.1423 8.5343L96.5197 7.56517C96.1639 7.016 95.393 6.33761 94.7999 6.01457C91.5087 4.33474 90.5599 8.88965 93.0209 14.4137C94.2959 17.2242 95.4226 18.4517 96.9644 18.6778C97.9133 18.8071 98.2987 18.6778 99.0696 17.9672C100.849 16.3196 102.064 12.4431 102.094 8.34048C102.094 6.78987 101.975 6.33761 101.353 5.69152C100.463 4.72239 100.018 4.69009 99.0103 5.56231Z" fill="#FF0000" fill-opacity="0.2"/>
<path d="M63.4893 16.6755C63.0446 16.9339 62.3922 17.7092 62.0364 18.4199L61.4138 19.6798L60.2574 18.4199C59.3086 17.3862 58.8935 17.1601 57.915 17.1601C56.2249 17.1601 55.6912 18.1292 55.9284 20.8428C56.3435 25.753 59.0121 30.0818 61.651 30.0818C64.1713 30.0818 66.2172 25.5592 66.2172 19.9705C66.2172 17.7092 66.1579 17.4831 65.4463 16.8693C64.5271 16.0617 64.5271 16.0617 63.4893 16.6755Z" fill="#FF0000" fill-opacity="0.2"/>
<path d="M85.4006 26.8511C84.9855 27.368 84.5407 28.111 84.4517 28.4664C84.2738 29.0801 84.1552 29.0478 83.0878 27.8203C81.6942 26.2374 80.3007 26.0112 79.1443 27.1096C78.6699 27.5941 78.6106 28.0141 78.7292 30.1462C78.8478 32.2137 79.0553 33.0859 79.9449 35.0564C81.7239 38.9653 83.5919 40.1928 85.786 38.9653C86.9424 38.3192 87.7726 36.7363 88.4546 33.7966C89.1662 30.7277 89.2255 27.5941 88.5732 26.5927C87.8912 25.4944 86.3494 25.6236 85.4006 26.8511Z" fill="#FF0000" fill-opacity="0.2"/>
<path d="M47.1813 44.5862C46.7958 44.9416 46.2324 45.7169 45.9063 46.3306L45.3726 47.429L44.3051 46.2337C42.9116 44.6508 41.8145 44.3278 40.7767 45.1677C40.0355 45.7815 39.9762 46.0076 40.0058 48.0751C40.0355 52.7915 42.8819 57.8633 45.5208 57.8633C48.1004 57.8633 50.2056 53.2438 50.2056 47.5259C50.2056 45.523 50.1463 45.2646 49.4347 44.6508C48.4562 43.8109 48.1004 43.8109 47.1813 44.5862Z" fill="#FF0000" fill-opacity="0.2"/>
<path d="M69.122 46.2015C68.7366 46.5568 68.1732 47.2998 67.8767 47.9136L67.343 49.012L66.2459 47.7844C64.8227 46.2338 63.7553 45.9431 62.7175 46.783C62.0652 47.2998 61.8873 47.7521 61.828 48.9797C61.7094 50.8533 62.5989 54.1483 63.8442 56.5066C67.2244 62.8382 72.1464 58.4125 72.1464 49.1089C72.1464 47.2998 72.0278 46.7507 71.5534 46.2338C70.8121 45.4262 70.0709 45.4262 69.122 46.2015Z" fill="#FF0000" fill-opacity="0.2"/>
<path d="M80.0637 65.9393C79.6486 66.4561 79.2039 67.1991 79.1149 67.5545C78.937 68.2006 78.8184 68.136 77.6027 66.9407C76.8911 66.1977 76.0609 65.5839 75.794 65.5839C73.5109 65.4224 72.7993 66.9407 73.4813 70.5588C74.9935 78.3764 79.8265 81.1546 82.2282 75.5659C83.6515 72.2709 84.1555 66.8115 83.1177 65.4547C82.4654 64.6148 80.8939 64.8409 80.0637 65.9393Z" fill="#FF0000" fill-opacity="0.2"/>
<path d="M57.4107 69.8802C57.0845 70.3002 56.6101 71.0431 56.3729 71.56L55.9282 72.4645L55.3055 71.4954C54.5642 70.3648 52.7852 69.3633 52.0143 69.6541C50.9172 70.0094 50.4131 71.0108 50.4725 72.723C50.5614 77.3102 53.4968 82.7373 55.8689 82.7373C57.3217 82.7373 58.4485 81.8974 59.249 80.153C60.7612 76.8902 61.3839 71.3985 60.4054 69.8802C59.7827 68.9111 58.2409 68.9111 57.4107 69.8802Z" fill="#FF0000" fill-opacity="0.2"/>
<path d="M48.7228 95.0455C48.2484 95.7885 47.8333 96.5315 47.8333 96.693C47.8333 97.2422 47.3293 96.9191 47.0031 96.1761C46.8252 95.7562 46.0839 95.0778 45.313 94.6901C43.9194 93.9471 43.9194 93.9471 43.1485 94.5932C42.1108 95.4331 41.9032 96.6607 42.4073 99.2127C43.2078 103.542 45.6095 107.289 47.5665 107.289C48.8414 107.289 50.0571 106.514 50.7687 105.221C51.6286 103.735 52.5774 99.5035 52.5774 97.3068C52.5774 94.7871 52.103 93.9148 50.7391 93.7856C49.7606 93.6887 49.5531 93.8179 48.7228 95.0455Z" fill="#FF0000" fill-opacity="0.2"/>
<path d="M23.78 186.667H24.023C24.725 186.667 25.076 187.018 25.076 187.72V194.497H35.39V187.72C35.39 187.018 35.741 186.667 36.443 186.667H36.686C37.37 186.667 37.712 187.018 37.712 187.72V203.974C37.712 204.658 37.37 205 36.686 205H36.443C35.741 205 35.39 204.658 35.39 203.974V196.522H25.076V203.974C25.076 204.658 24.725 205 24.023 205H23.78C23.078 205 22.727 204.658 22.727 203.974V187.72C22.727 187.018 23.078 186.667 23.78 186.667ZM43.8906 191.689H44.0526C44.7366 191.689 45.0786 192.022 45.0786 192.688V203.974C45.0786 204.658 44.7366 205 44.0526 205H43.8906C43.2066 205 42.8646 204.658 42.8646 203.974V192.688C42.8646 192.022 43.2066 191.689 43.8906 191.689ZM42.4866 187.882C42.4866 187.468 42.6306 187.117 42.9186 186.829C43.2066 186.523 43.5486 186.37 43.9446 186.37C44.3586 186.37 44.7096 186.523 44.9976 186.829C45.3036 187.117 45.4566 187.468 45.4566 187.882C45.4566 188.278 45.3126 188.629 45.0246 188.935C44.7366 189.223 44.3856 189.367 43.9716 189.367C43.5576 189.367 43.2066 189.223 42.9186 188.935C42.6306 188.647 42.4866 188.296 42.4866 187.882ZM50.417 204.865C50.111 204.865 49.841 204.721 49.607 204.433C49.373 204.145 49.256 203.785 49.256 203.353C49.256 202.903 49.427 202.516 49.769 202.192C50.111 201.868 50.534 201.706 51.038 201.706C51.56 201.706 52.01 201.913 52.388 202.327C52.784 202.723 52.982 203.272 52.982 203.974C52.982 205.126 52.685 206.107 52.091 206.917C51.497 207.745 50.786 208.159 49.958 208.159C49.364 208.159 49.067 207.943 49.067 207.511C49.661 207.367 50.147 207.043 50.525 206.539C50.921 206.053 51.119 205.459 51.119 204.757C50.975 204.829 50.741 204.865 50.417 204.865ZM64.5247 186.073H64.7407C65.4247 186.073 65.7667 186.406 65.7667 187.072V193.525C66.1267 192.913 66.6847 192.409 67.4407 192.013C68.1967 191.617 69.0247 191.419 69.9247 191.419C71.5987 191.419 72.9487 191.986 73.9747 193.12C75.0187 194.236 75.5407 195.946 75.5407 198.25C75.5407 200.536 74.9287 202.273 73.7047 203.461C72.4807 204.631 71.0227 205.216 69.3307 205.216C67.6567 205.216 65.9827 204.901 64.3087 204.271C64.0387 204.163 63.8407 204.028 63.7147 203.866C63.5887 203.704 63.5257 203.461 63.5257 203.137V187.072C63.5257 186.406 63.8587 186.073 64.5247 186.073ZM69.6817 193.336C68.5477 193.336 67.6117 193.786 66.8737 194.686C66.1357 195.568 65.7667 196.738 65.7667 198.196V202.516C66.7747 203.056 67.9087 203.326 69.1687 203.326C70.4287 203.326 71.4277 202.903 72.1657 202.057C72.9217 201.211 73.2997 199.942 73.2997 198.25C73.2997 194.974 72.0937 193.336 69.6817 193.336ZM83.6491 191.473C87.4651 191.473 89.3731 193.246 89.3731 196.792V202.138C89.3731 203.128 89.7511 203.758 90.5071 204.028C90.2371 204.712 89.7331 205.054 88.9951 205.054C88.4551 205.054 88.0231 204.865 87.6991 204.487C87.3931 204.091 87.2401 203.578 87.2401 202.948C86.1061 204.46 84.6391 205.216 82.8391 205.216C81.3811 205.216 80.2291 204.847 79.3831 204.109C78.5551 203.353 78.1411 202.345 78.1411 201.085C78.1411 199.807 78.6271 198.772 79.5991 197.98C80.5891 197.188 81.9211 196.792 83.5951 196.792C84.6031 196.792 85.4491 196.9 86.1331 197.116C86.6911 197.314 87.0241 197.44 87.1321 197.494V196.306C87.1321 195.208 86.8531 194.434 86.2951 193.984C85.7371 193.516 84.8911 193.282 83.7571 193.282C82.1551 193.282 80.9131 193.894 80.0311 195.118C79.2751 195.01 78.8971 194.659 78.8971 194.065C78.8971 193.381 79.3651 192.778 80.3011 192.256C81.2371 191.734 82.3531 191.473 83.6491 191.473ZM87.1321 199.222C85.9981 198.718 84.8821 198.466 83.7841 198.466C82.6861 198.466 81.8401 198.7 81.2461 199.168C80.6521 199.636 80.3551 200.248 80.3551 201.004C80.3551 201.742 80.6071 202.336 81.1111 202.786C81.6331 203.218 82.3891 203.434 83.3791 203.434C84.3871 203.434 85.2601 203.074 85.9981 202.354C86.7541 201.634 87.1321 200.761 87.1321 199.735V199.222ZM94.346 186.073H94.562C95.246 186.073 95.588 186.406 95.588 187.072V193.525C95.948 192.913 96.506 192.409 97.262 192.013C98.018 191.617 98.846 191.419 99.746 191.419C101.42 191.419 102.77 191.986 103.796 193.12C104.84 194.236 105.362 195.946 105.362 198.25C105.362 200.536 104.75 202.273 103.526 203.461C102.302 204.631 100.844 205.216 99.152 205.216C97.478 205.216 95.804 204.901 94.13 204.271C93.86 204.163 93.662 204.028 93.536 203.866C93.41 203.704 93.347 203.461 93.347 203.137V187.072C93.347 186.406 93.68 186.073 94.346 186.073ZM99.503 193.336C98.369 193.336 97.433 193.786 96.695 194.686C95.957 195.568 95.588 196.738 95.588 198.196V202.516C96.596 203.056 97.73 203.326 98.99 203.326C100.25 203.326 101.249 202.903 101.987 202.057C102.743 201.211 103.121 199.942 103.121 198.25C103.121 194.974 101.915 193.336 99.503 193.336ZM108.34 191.716H108.853C109.429 191.716 109.78 191.995 109.906 192.553C111.004 196.873 112.219 200.365 113.551 203.029H113.794C115.306 199.303 116.521 195.811 117.439 192.553C117.601 191.995 117.952 191.716 118.492 191.716H118.924C119.482 191.716 119.761 191.914 119.761 192.31C119.761 192.418 119.734 192.544 119.68 192.688C117.592 199.204 115.324 205.054 112.876 210.238C112.732 210.544 112.579 210.76 112.417 210.886C112.273 211.03 112.039 211.102 111.715 211.102H111.04C110.608 211.102 110.392 210.895 110.392 210.481C110.392 210.355 110.491 210.094 110.689 209.698C112.021 207.124 112.804 205.549 113.038 204.973H112.984C112.66 204.919 112.453 204.847 112.363 204.757C112.273 204.649 112.21 204.586 112.174 204.568C112.138 204.532 112.093 204.469 112.039 204.379C111.985 204.271 111.949 204.208 111.931 204.19C111.913 204.154 111.868 204.073 111.796 203.947C111.742 203.803 111.706 203.713 111.688 203.677C110.302 200.905 108.934 197.242 107.584 192.688C107.53 192.544 107.503 192.418 107.503 192.31C107.503 191.914 107.782 191.716 108.34 191.716Z" fill="#BF9A9A"/>
</svg>
