<svg width="248" height="267" viewBox="0 0 248 267" fill="none" xmlns="http://www.w3.org/2000/svg">
<path d="M161.416 1.13139C160.853 1.74517 160.408 2.48817 160.408 2.7466C160.408 3.42499 159.875 3.29577 159.519 2.52047C159.074 1.64826 157.473 0.614518 156.494 0.614518C155.99 0.614518 155.486 0.937561 155.071 1.48673C154.508 2.26204 154.448 2.64969 154.597 4.20029C154.893 7.49533 156.821 11.8887 158.451 13.0517C159.4 13.7301 161.001 13.7624 161.95 13.084C163.551 11.9533 164.886 7.81838 164.974 3.84495C165.004 1.77747 164.915 1.196 164.441 0.646823C163.581 -0.354611 162.573 -0.193089 161.416 1.13139Z" fill="#FF0000" fill-opacity="0.2"/>
<path d="M134.554 1.90653C134.287 2.10036 133.753 2.77875 133.397 3.45714C133.041 4.10323 132.715 4.6847 132.686 4.74931C132.656 4.78162 132.093 4.23244 131.44 3.52175C130.076 2.03575 128.564 1.77732 127.704 2.81105C126.548 4.20014 127.408 9.40113 129.335 12.567C131.559 16.2496 134.761 15.9912 136.333 11.9855C137.696 8.59352 137.963 2.94027 136.837 2.03575C136.184 1.51888 135.265 1.48658 134.554 1.90653Z" fill="#FF0000" fill-opacity="0.2"/>
<path d="M184.01 5.49199C183.595 5.84734 182.973 6.68725 182.676 7.30103L182.142 8.46399L181.52 7.49486C181.164 6.94569 180.393 6.2673 179.8 5.94425C176.509 4.26443 175.56 8.81934 178.021 14.3434C179.296 17.1538 180.423 18.3814 181.964 18.6075C182.913 18.7368 183.299 18.6075 184.07 17.8968C185.849 16.2493 187.064 12.3728 187.094 8.27016C187.094 6.71956 186.975 6.2673 186.353 5.62121C185.463 4.65208 185.018 4.61978 184.01 5.49199Z" fill="#FF0000" fill-opacity="0.2"/>
<path d="M148.489 16.6052C148.045 16.8636 147.392 17.6389 147.036 18.3496L146.414 19.6095L145.257 18.3496C144.309 17.3159 143.893 17.0898 142.915 17.0898C141.225 17.0898 140.691 18.0589 140.928 20.7724C141.344 25.6827 144.012 30.0115 146.651 30.0115C149.171 30.0115 151.217 25.4889 151.217 19.9002C151.217 17.6389 151.158 17.4128 150.446 16.799C149.527 15.9914 149.527 15.9914 148.489 16.6052Z" fill="#FF0000" fill-opacity="0.2"/>
<path d="M170.401 26.7808C169.985 27.2977 169.541 28.0407 169.452 28.396C169.274 29.0098 169.155 28.9775 168.088 27.75C166.694 26.1671 165.301 25.9409 164.144 27.0393C163.67 27.5238 163.611 27.9438 163.729 30.0759C163.848 32.1433 164.055 33.0156 164.945 34.9861C166.724 38.8949 168.592 40.1225 170.786 38.8949C171.942 38.2489 172.773 36.6659 173.455 33.7263C174.166 30.6573 174.225 27.5238 173.573 26.5224C172.891 25.4241 171.349 25.5533 170.401 26.7808Z" fill="#FF0000" fill-opacity="0.2"/>
<path d="M132.181 44.5159C131.796 44.8713 131.232 45.6466 130.906 46.2603L130.373 47.3587L129.305 46.1634C127.912 44.5805 126.814 44.2575 125.777 45.0974C125.035 45.7112 124.976 45.9373 125.006 48.0048C125.035 52.7212 127.882 57.793 130.521 57.793C133.1 57.793 135.206 53.1735 135.206 47.4556C135.206 45.4527 135.146 45.1943 134.435 44.5805C133.456 43.7406 133.1 43.7406 132.181 44.5159Z" fill="#FF0000" fill-opacity="0.2"/>
<path d="M154.122 46.1312C153.737 46.4865 153.173 47.2295 152.877 47.8433L152.343 48.9417L151.246 47.7141C149.823 46.1635 148.755 45.8727 147.718 46.7127C147.065 47.2295 146.887 47.6818 146.828 48.9093C146.709 50.783 147.599 54.078 148.844 56.4362C152.224 62.7679 157.146 58.3422 157.146 49.0386C157.146 47.2295 157.028 46.6804 156.553 46.1635C155.812 45.3559 155.071 45.3559 154.122 46.1312Z" fill="#FF0000" fill-opacity="0.2"/>
<path d="M165.064 65.869C164.649 66.3858 164.204 67.1288 164.115 67.4842C163.937 68.1303 163.818 68.0656 162.603 66.8704C161.891 66.1274 161.061 65.5136 160.794 65.5136C158.511 65.3521 157.799 66.8704 158.481 70.4885C159.993 78.3061 164.826 81.0843 167.228 75.4956C168.651 72.2006 169.155 66.7412 168.118 65.3844C167.465 64.5445 165.894 64.7706 165.064 65.869Z" fill="#FF0000" fill-opacity="0.2"/>
<path d="M142.411 69.8099C142.085 70.2298 141.61 70.9728 141.373 71.4897L140.928 72.3942L140.305 71.4251C139.564 70.2944 137.785 69.293 137.014 69.5838C135.917 69.9391 135.413 70.9405 135.472 72.6527C135.561 77.2399 138.497 82.667 140.869 82.667C142.322 82.667 143.448 81.8271 144.249 80.0826C145.761 76.8199 146.384 71.3282 145.405 69.8099C144.783 68.8408 143.241 68.8408 142.411 69.8099Z" fill="#FF0000" fill-opacity="0.2"/>
<path d="M133.723 94.9752C133.248 95.7182 132.833 96.4612 132.833 96.6227C132.833 97.1719 132.329 96.8488 132.003 96.1058C131.825 95.6859 131.084 95.0075 130.313 94.6198C128.919 93.8768 128.919 93.8768 128.149 94.5229C127.111 95.3628 126.903 96.5904 127.407 99.1424C128.208 103.471 130.61 107.219 132.566 107.219C133.841 107.219 135.057 106.443 135.769 105.151C136.629 103.665 137.577 99.4332 137.577 97.2365C137.577 94.7167 137.103 93.8445 135.739 93.7153C134.761 93.6184 134.553 93.7476 133.723 94.9752Z" fill="#FF0000" fill-opacity="0.2"/>
<path d="M108.78 215.667H109.023C109.725 215.667 110.076 216.018 110.076 216.72V223.497H120.39V216.72C120.39 216.018 120.741 215.667 121.443 215.667H121.686C122.37 215.667 122.712 216.018 122.712 216.72V232.974C122.712 233.658 122.37 234 121.686 234H121.443C120.741 234 120.39 233.658 120.39 232.974V225.522H110.076V232.974C110.076 233.658 109.725 234 109.023 234H108.78C108.078 234 107.727 233.658 107.727 232.974V216.72C107.727 216.018 108.078 215.667 108.78 215.667ZM128.891 220.689H129.053C129.737 220.689 130.079 221.022 130.079 221.688V232.974C130.079 233.658 129.737 234 129.053 234H128.891C128.207 234 127.865 233.658 127.865 232.974V221.688C127.865 221.022 128.207 220.689 128.891 220.689ZM127.487 216.882C127.487 216.468 127.631 216.117 127.919 215.829C128.207 215.523 128.549 215.37 128.945 215.37C129.359 215.37 129.71 215.523 129.998 215.829C130.304 216.117 130.457 216.468 130.457 216.882C130.457 217.278 130.313 217.629 130.025 217.935C129.737 218.223 129.386 218.367 128.972 218.367C128.558 218.367 128.207 218.223 127.919 217.935C127.631 217.647 127.487 217.296 127.487 216.882ZM135.417 233.865C135.111 233.865 134.841 233.721 134.607 233.433C134.373 233.145 134.256 232.785 134.256 232.353C134.256 231.903 134.427 231.516 134.769 231.192C135.111 230.868 135.534 230.706 136.038 230.706C136.56 230.706 137.01 230.913 137.388 231.327C137.784 231.723 137.982 232.272 137.982 232.974C137.982 234.126 137.685 235.107 137.091 235.917C136.497 236.745 135.786 237.159 134.958 237.159C134.364 237.159 134.067 236.943 134.067 236.511C134.661 236.367 135.147 236.043 135.525 235.539C135.921 235.053 136.119 234.459 136.119 233.757C135.975 233.829 135.741 233.865 135.417 233.865ZM150.308 215.667H155.006C156.806 215.667 158.246 216.054 159.326 216.828C160.406 217.602 160.946 218.79 160.946 220.392C160.946 221.328 160.703 222.147 160.217 222.849C159.731 223.533 159.092 224.001 158.3 224.253C159.326 224.433 160.217 224.856 160.973 225.522C161.729 226.188 162.107 227.196 162.107 228.546C162.107 230.382 161.486 231.75 160.244 232.65C159.02 233.55 157.427 234 155.465 234H150.308C149.624 234 149.282 233.667 149.282 233.001V216.72C149.282 216.018 149.624 215.667 150.308 215.667ZM151.604 217.692V223.551H155.195C156.383 223.551 157.256 223.308 157.814 222.822C158.39 222.336 158.678 221.589 158.678 220.581C158.678 218.655 157.454 217.692 155.006 217.692H151.604ZM151.604 225.387V231.975H155.465C158.363 231.975 159.812 230.832 159.812 228.546C159.812 226.44 158.435 225.387 155.681 225.387H151.604ZM170.02 220.473C173.836 220.473 175.744 222.246 175.744 225.792V231.138C175.744 232.128 176.122 232.758 176.878 233.028C176.608 233.712 176.104 234.054 175.366 234.054C174.826 234.054 174.394 233.865 174.07 233.487C173.764 233.091 173.611 232.578 173.611 231.948C172.477 233.46 171.01 234.216 169.21 234.216C167.752 234.216 166.6 233.847 165.754 233.109C164.926 232.353 164.512 231.345 164.512 230.085C164.512 228.807 164.998 227.772 165.97 226.98C166.96 226.188 168.292 225.792 169.966 225.792C170.974 225.792 171.82 225.9 172.504 226.116C173.062 226.314 173.395 226.44 173.503 226.494V225.306C173.503 224.208 173.224 223.434 172.666 222.984C172.108 222.516 171.262 222.282 170.128 222.282C168.526 222.282 167.284 222.894 166.402 224.118C165.646 224.01 165.268 223.659 165.268 223.065C165.268 222.381 165.736 221.778 166.672 221.256C167.608 220.734 168.724 220.473 170.02 220.473ZM173.503 228.222C172.369 227.718 171.253 227.466 170.155 227.466C169.057 227.466 168.211 227.7 167.617 228.168C167.023 228.636 166.726 229.248 166.726 230.004C166.726 230.742 166.978 231.336 167.482 231.786C168.004 232.218 168.76 232.434 169.75 232.434C170.758 232.434 171.631 232.074 172.369 231.354C173.125 230.634 173.503 229.761 173.503 228.735V228.222ZM180.717 215.073H180.933C181.617 215.073 181.959 215.406 181.959 216.072V222.525C182.319 221.913 182.877 221.409 183.633 221.013C184.389 220.617 185.217 220.419 186.117 220.419C187.791 220.419 189.141 220.986 190.167 222.12C191.211 223.236 191.733 224.946 191.733 227.25C191.733 229.536 191.121 231.273 189.897 232.461C188.673 233.631 187.215 234.216 185.523 234.216C183.849 234.216 182.175 233.901 180.501 233.271C180.231 233.163 180.033 233.028 179.907 232.866C179.781 232.704 179.718 232.461 179.718 232.137V216.072C179.718 215.406 180.051 215.073 180.717 215.073ZM185.874 222.336C184.74 222.336 183.804 222.786 183.066 223.686C182.328 224.568 181.959 225.738 181.959 227.196V231.516C182.967 232.056 184.101 232.326 185.361 232.326C186.621 232.326 187.62 231.903 188.358 231.057C189.114 230.211 189.492 228.942 189.492 227.25C189.492 223.974 188.286 222.336 185.874 222.336ZM194.712 220.716H195.225C195.801 220.716 196.152 220.995 196.278 221.553C197.376 225.873 198.591 229.365 199.923 232.029H200.166C201.678 228.303 202.893 224.811 203.811 221.553C203.973 220.995 204.324 220.716 204.864 220.716H205.296C205.854 220.716 206.133 220.914 206.133 221.31C206.133 221.418 206.106 221.544 206.052 221.688C203.964 228.204 201.696 234.054 199.248 239.238C199.104 239.544 198.951 239.76 198.789 239.886C198.645 240.03 198.411 240.102 198.087 240.102H197.412C196.98 240.102 196.764 239.895 196.764 239.481C196.764 239.355 196.863 239.094 197.061 238.698C198.393 236.124 199.176 234.549 199.41 233.973H199.356C199.032 233.919 198.825 233.847 198.735 233.757C198.645 233.649 198.582 233.586 198.546 233.568C198.51 233.532 198.465 233.469 198.411 233.379C198.357 233.271 198.321 233.208 198.303 233.19C198.285 233.154 198.24 233.073 198.168 232.947C198.114 232.803 198.078 232.713 198.06 232.677C196.674 229.905 195.306 226.242 193.956 221.688C193.902 221.544 193.875 221.418 193.875 221.31C193.875 220.914 194.154 220.716 194.712 220.716Z" fill="#BF9A9A"/>
<g clip-path="url(#clip0_109_47)">
<path d="M28 201.618C28 201.83 28.1594 202 28.3578 202H247.642C247.841 202 248 201.83 248 201.618C248 201.405 247.841 201.235 247.642 201.235H28.3578C28.1594 201.235 28 201.405 28 201.618Z" fill="#3F3D56"/>
<path d="M104.459 115.891L106.336 108.856L109.074 110.362L122.31 105.127L124.532 104.119C125.191 103.18 126.05 102.424 127.039 101.912C129.494 100.598 132.12 100.886 132.902 102.557C133.685 104.227 132.328 106.647 129.872 107.962C128.897 108.501 127.816 108.784 126.718 108.785L119.15 112.71L108.883 118.135L104.459 115.891Z" fill="#FFB6B6"/>
<path d="M99.4184 106.463L99.7988 111.971L105.566 118.02L106.045 116.694L107.085 113.822L108.456 110.021L108.771 109.152L104.25 103.587L100.498 98.9656C99.6118 101.336 99.2444 103.899 99.4184 106.463Z" fill="#E6E6E6"/>
<path d="M131.079 93.5514C131.079 93.5514 130.5 91.5351 131.268 89.9772C132.036 88.4193 132.917 86.6205 132.917 86.6205C132.917 86.6205 134.276 87.0151 133.63 90.0771C133.63 90.0771 135.5 85.9693 136.235 86.3476C136.971 86.7259 136.756 87.7466 136.756 87.7466C137.386 87.6536 138.01 87.9633 138.35 88.5385L137.332 91.0452C137.332 91.0452 140.065 88.5908 140.383 88.8685C140.7 89.1462 141.178 91.1585 141.178 91.1585C141.178 91.1585 142.387 90.7794 142.917 91.2422C143.446 91.705 141.553 94.7346 141.553 94.7346C142.096 93.812 142.828 93.6447 143.738 94.1884C143.738 94.1884 142.66 98.8556 139.72 98.8176C138.713 98.8046 136.493 100.49 135.198 99.7392C132.715 98.299 131.079 93.5514 131.079 93.5514Z" fill="#D7619C"/>
<path d="M134.557 94.155C133.735 91.8117 133.319 91.1081 133.319 91.1081C133.319 91.1081 131.203 90.7324 130.917 93.2778L130.468 92.4323C130.468 92.4323 129.754 94.2685 132.139 97.5943C134.719 101.193 137.555 100.287 137.826 99.7691C137.826 99.7691 141.938 100.492 143.436 96.3615L142.097 96.1727L137.916 98.4501L137.989 96.8177C138.037 95.7424 136.89 95.0953 136.086 95.7444C136.086 95.7444 135.38 96.4984 134.557 94.155Z" fill="#3F3D56"/>
<path d="M127.902 111.866C127.78 111.791 127.712 111.638 127.744 111.484C129.06 105.245 133.279 98.0646 133.322 97.9927C133.419 97.8291 133.623 97.779 133.775 97.8837C133.927 97.9872 133.973 98.2036 133.876 98.3673C133.835 98.4383 129.675 105.519 128.384 111.638C128.344 111.827 128.169 111.946 127.992 111.903C127.959 111.895 127.929 111.882 127.902 111.866Z" fill="#3F3D56"/>
<path d="M144.006 102.65C144.817 103.147 145.505 103.845 146.013 104.686L149.195 106.757L158.769 112.518L162.43 116.952L159.097 119.985L147.303 110.994L143.893 108.512C142.959 108.441 142.055 108.131 141.257 107.61C139.243 106.336 138.225 104.191 138.984 102.822C139.743 101.452 141.991 101.374 144.006 102.65Z" fill="#FFB6B6"/>
<path d="M158.768 112.518L159.909 119.243L160.05 120.085L173.074 111.098L174.054 106.823L174.048 106.785L173.011 101.609L158.768 112.518Z" fill="#E6E6E6"/>
<path d="M93.2513 196.252L96.5721 197.339L102.075 184.165L97.1743 182.561L93.2513 196.252Z" fill="#FFB6B6"/>
<path d="M104.652 199.897C104.702 200.117 104.584 200.736 104.522 200.952C104.331 201.617 103.672 201.991 103.05 201.788L92.7659 198.42C92.3412 198.281 92.1024 197.801 92.2325 197.347L92.3636 196.889C92.3636 196.889 92.2491 195.347 93.7823 193.995C93.7823 193.995 94.7037 195.748 97.2447 194.306L98.1366 193.383L101.359 197.989L103.573 199.045C104.058 199.276 104.526 199.346 104.652 199.897Z" fill="#2F2E41"/>
<path d="M127.33 199.536L130.703 198.654L129.128 184.325L124.148 185.627L127.33 199.536Z" fill="#FFB6B6"/>
<path d="M138.87 196.435C139.018 196.596 139.213 197.192 139.263 197.412C139.418 198.088 139.03 198.77 138.398 198.935L127.95 201.664C127.519 201.777 127.083 201.495 126.978 201.034L126.872 200.569C126.872 200.569 126.035 199.306 126.706 197.306C126.706 197.306 128.336 198.309 129.83 195.68L130.154 194.4L135.127 196.595L137.535 196.292C138.062 196.226 138.498 196.03 138.87 196.435Z" fill="#2F2E41"/>
<path d="M164.448 199.195L160.555 199.194L158.703 183.143L164.449 183.144L164.448 199.195Z" fill="#FFB6B6"/>
<path d="M151.109 199.101C150.988 199.319 150.924 200.023 150.924 200.277C150.924 201.057 151.516 201.689 152.246 201.689H164.302C164.8 201.689 165.204 201.258 165.204 200.726V200.189C165.204 200.189 165.8 198.577 164.572 196.589C164.572 196.589 163.046 198.145 160.765 195.708L160.093 194.406L155.225 198.211L152.527 198.566C151.936 198.644 151.413 198.554 151.109 199.101Z" fill="#2F2E41"/>
<path d="M177.322 196.042L173.548 197.065L168.06 181.994L173.63 180.484L177.322 196.042Z" fill="#FFB6B6"/>
<path d="M164.371 199.457C164.304 199.7 164.404 200.4 164.462 200.646C164.642 201.402 165.361 201.859 166.068 201.667L177.754 198.498C178.237 198.368 178.529 197.843 178.407 197.327L178.283 196.807C178.283 196.807 178.49 195.088 176.843 193.484C176.843 193.484 175.721 195.393 172.95 193.63L171.999 192.545L168.156 197.513L165.622 198.566C165.068 198.797 164.54 198.847 164.371 199.457Z" fill="#2F2E41"/>
<path d="M158.469 124.001L169.623 125.404L171.591 130.664C171.591 130.664 175.855 135.923 170.279 146.092L168.31 162.221L175.625 187.035L167.49 187.357L159.741 163.656L156.173 143.287L155.845 135.222L158.469 124.001Z" fill="#2F2E41"/>
<path d="M159.125 142.235L156.173 143.287L157.284 187.357H166.304L159.125 142.235Z" fill="#2F2E41"/>
<path d="M122.549 133.995L130.094 188.344L124.517 188.694L113.855 155.208L111.002 171.722L100.57 187.993L95.321 186.591L103.631 163.477L101.554 146.267C101.554 146.267 99.2575 138.553 101.554 135.047C103.85 131.54 122.549 133.995 122.549 133.995Z" fill="#2F2E41"/>
<path d="M171.755 90.1648L171.919 97.0023L167.162 98.5801L165.358 97.0023L164.866 91.2167L171.755 90.1648Z" fill="#FFB6B6"/>
<path d="M105.818 90.8659L107.787 84.905L115.332 90.5153L113.691 95.4242L105.818 90.8659Z" fill="#FFB6B6"/>
<path d="M156.101 113.486L157.15 118.5L158.335 124.163L169.747 125.597L173.074 111.098L174.054 106.824L174.048 106.785L173.011 101.61L172.05 96.8269H165.283L157.99 105.646C156.793 107.097 156.078 108.917 155.93 110.81C155.861 111.698 155.917 112.599 156.101 113.486Z" fill="#E6E6E6"/>
<path d="M166.506 93.3205C170.492 93.3205 173.723 89.8668 173.723 85.6064C173.723 81.346 170.492 77.8923 166.506 77.8923C162.52 77.8923 159.289 81.346 159.289 85.6064C159.289 89.8668 162.52 93.3205 166.506 93.3205Z" fill="#FFB6B6"/>
<path d="M114.676 90.8659C118.661 90.8659 121.892 87.4122 121.892 83.1518C121.892 78.8915 118.661 75.4377 114.676 75.4377C110.69 75.4377 107.459 78.8915 107.459 83.1518C107.459 87.4122 110.69 90.8659 114.676 90.8659Z" fill="#FFB6B6"/>
<path d="M99.4184 106.463L99.7988 111.971L101.396 135.124L101.439 135.169C101.469 135.205 104.533 138.385 109.506 135.552C114.305 132.817 123.707 136.576 123.802 136.614L124.09 136.73L121.801 126.032L120.151 118.335L118.97 112.806L117.713 106.947L115.145 94.9512L104.759 89.9368L101.137 97.4546C100.901 97.9491 100.685 98.4504 100.498 98.9657C99.6118 101.336 99.2444 103.899 99.4184 106.463Z" fill="#E6E6E6"/>
<path d="M117.464 82.2753L118.448 81.574V79.1196C118.448 79.1196 123.041 80.1715 122.056 76.3145C121.072 72.4574 116.516 71.6739 112.871 72.1068C112.724 72.1243 112.576 72.1401 112.429 72.1542C108.911 72.4925 106.049 75.3499 105.615 79.097C105.143 83.1672 105.332 87.5086 108.279 87.5349L111.231 88.5868C111.231 88.5868 109.919 81.9247 112.543 83.3272C115.168 84.7298 117.464 82.2753 117.464 82.2753Z" fill="#2F2E41"/>
<path d="M125.988 92.6737C125.988 92.6737 124.551 91.2287 124.495 89.4689C124.439 87.7091 124.371 85.6801 124.371 85.6801C124.371 85.6801 125.734 85.3028 126.593 88.3045C126.593 88.3045 126.312 83.7462 127.127 83.6852C127.941 83.6242 128.227 84.6247 128.227 84.6247C128.732 84.2099 129.417 84.1486 129.979 84.4681L130.258 87.1843C130.258 87.1843 131.493 83.605 131.898 83.6779C132.302 83.7507 133.651 85.2453 133.651 85.2453C133.651 85.2453 134.525 84.2758 135.199 84.3972C135.874 84.5187 135.634 88.153 135.634 88.153C135.678 87.0639 136.236 86.5308 137.278 86.5212C137.278 86.5212 138.506 91.1463 135.935 92.6704C135.054 93.1928 133.908 95.8323 132.435 95.8659C129.61 95.9303 125.988 92.6737 125.988 92.6737Z" fill="#D7619C"/>
<path d="M129.289 91.3552C127.488 89.7556 126.8 89.3649 126.8 89.3649C126.8 89.3649 124.788 90.1593 125.72 92.5217L124.938 92.025C124.938 92.025 125.17 93.998 128.783 95.6236C132.693 97.3825 134.736 95.0937 134.731 94.4999C134.731 94.4999 138.638 92.9494 138.024 88.5684L136.773 89.1141L134.198 93.3066L133.504 91.8502C133.047 90.8909 131.751 90.9364 131.354 91.9258C131.354 91.9258 131.09 92.9547 129.289 91.3552Z" fill="#3F3D56"/>
<path d="M131.719 110.264C131.579 110.264 131.449 110.167 131.406 110.016C129.656 103.9 129.992 95.428 129.995 95.3431C130.003 95.1497 130.158 94.998 130.338 95.0086C130.519 95.0175 130.659 95.1812 130.651 95.3746C130.647 95.4585 130.317 103.812 132.033 109.811C132.086 109.996 131.989 110.192 131.815 110.248C131.783 110.259 131.751 110.264 131.719 110.264Z" fill="#3F3D56"/>
<path d="M104.12 118.668L110.088 116.997L110.251 119.959L120.126 128.535L121.877 129.916C122.861 130.031 123.804 130.397 124.629 130.982C126.71 132.415 127.706 134.725 126.852 136.141C125.998 137.557 123.619 137.542 121.537 136.108C120.698 135.547 119.997 134.779 119.493 133.87L113.17 129.394L104.521 123.367L104.12 118.668Z" fill="#FFB6B6"/>
<path d="M107.996 97.0022L113.278 100.208L112.29 120.405L102.182 122.209L107.996 97.0022Z" fill="#E6E6E6"/>
<path d="M165.189 133.118C165.763 132.329 166.505 131.697 167.354 131.277L169.716 128.198L176.385 118.865L181.003 115.607L183.349 119.557L173.378 130.79L170.604 134.054C170.408 135.032 169.996 135.946 169.402 136.718C167.941 138.673 165.813 139.451 164.649 138.457C163.485 137.463 163.727 135.073 165.189 133.118Z" fill="#FFB6B6"/>
<path d="M167.921 101.572L174.153 96.8147L183.574 118.563L176.385 118.865L167.921 101.572Z" fill="#E6E6E6"/>
<path d="M160.437 81.574C160.437 81.574 161.539 79.1366 162.13 80.9364C162.72 82.7362 165.87 87.2358 165.87 87.2358C165.87 87.2358 167.543 89.7356 165.673 91.8354C163.803 93.9351 159.768 104.134 165.378 102.434C170.988 100.734 173.842 104.734 173.842 104.734C173.842 104.734 178.664 105.134 177.976 99.9346C177.287 94.7351 173.743 91.3354 173.743 85.036C173.743 78.7366 170.397 76.0369 168.429 76.3369C166.46 76.6368 159.256 76.6745 160.437 81.574Z" fill="#2F2E41"/>
</g>
<defs>
<clipPath id="clip0_109_47">
<rect width="220" height="130" fill="white" transform="translate(28 72)"/>
</clipPath>
</defs>
</svg>
