<svg width="234" height="215" viewBox="0 0 234 215" fill="none" xmlns="http://www.w3.org/2000/svg">
<path d="M133.458 39.8425C132.044 40.5203 131.478 41.5987 131.676 43.2009L131.846 44.3718L129.81 43.9404C127.095 43.355 121.75 43.6323 118.752 44.495C113.718 45.9123 109.137 49.1783 107.44 52.5368C106.676 54.0157 106.592 54.4779 106.592 56.8504C106.592 59.2229 106.676 59.6234 107.383 60.7943C107.808 61.5029 108.486 62.2424 108.854 62.4273C109.787 62.8895 109.759 63.0435 108.543 63.7522C105.969 65.2619 105.093 67.9117 106.62 69.5755C107.327 70.3458 108.854 70.9929 109.957 70.9929C110.381 70.9929 110.325 71.1469 109.589 72.0713C107.779 74.3205 107.44 75.4605 107.44 79.0038C107.44 82.7012 107.893 84.1494 110.07 87.6002L111.314 89.603L110.381 92.8382C109.222 96.9361 108.967 100.911 109.702 103.314C110.636 106.364 113.153 108.614 117.932 110.555C121.863 112.157 124.182 114.252 124.719 116.655C124.861 117.364 124.804 117.518 124.352 117.518C123.051 117.518 118.809 121.554 117.96 123.588C117.791 123.989 117.536 124.297 117.338 124.297C116.716 124.297 111.937 127.501 109.674 129.411C106.874 131.784 104.386 134.711 102.434 137.915C101.643 139.24 100.907 140.319 100.822 140.288C100.738 140.288 100.257 139.702 99.8043 138.994C97.655 135.759 94.3179 134.957 90.9808 136.837C90.0193 137.392 88.9447 137.854 88.6336 137.854C87.163 137.854 83.9107 135.296 82.2422 132.831C81.5635 131.815 80.9979 130.89 80.9979 130.767C80.9979 130.613 81.5918 130.397 82.3553 130.305C89.3971 129.288 95.3077 126.7 98.3903 123.249C101.077 120.26 102.576 116.409 102.548 112.496C102.519 109.784 101.869 108.306 99.7478 106.118C96.7218 102.914 95.9865 101.065 94.5725 92.7149C93.4412 85.998 92.5928 82.8553 90.896 79.0963C87.5024 71.5783 83.3169 67.3263 77.8587 65.909C73.8429 64.8922 66.2355 65.0154 61.0602 66.2479C50.2288 68.8053 42.48 75.0908 38.2662 84.6423C36.3148 89.1408 35.9755 91.1436 36.0038 98.5383C36.032 107.504 35.8624 108.182 32.1011 114.745C28.8205 120.414 28.2266 124.05 29.9235 127.809C31.3941 131.106 35.2119 134.033 39.256 134.957C41.6033 135.512 46.7786 135.481 50.3985 134.896C52.8872 134.495 56.2808 133.478 58.4584 132.462C58.9109 132.246 58.9392 132.338 58.7695 133.109C58.2321 135.512 56.4788 137.977 54.386 139.24C52.9437 140.103 52.6892 140.165 49.4652 140.165C46.3827 140.165 45.9302 140.226 44.4879 140.966C40.5003 142.999 37.6157 147.744 35.0705 156.279C33.6565 160.993 33.204 163.612 33.204 166.662C33.204 169.805 33.8827 172.085 35.3533 173.718L36.3431 174.827L35.7775 177.231C35.2685 179.388 35.2685 179.634 35.6927 179.973C36.0886 180.343 36.0886 180.651 35.6361 183.794C35.1271 187.275 35.2119 188.046 36.1169 187.676C36.5128 187.522 36.8805 185.766 37.3329 181.976C37.5309 180.189 37.644 180.158 39.4257 180.836C40.67 181.329 41.1225 181.236 41.1225 180.528C41.1225 180.096 39.5671 179.326 37.9551 179.018C37.3612 178.895 36.8805 178.771 36.8805 178.741C36.9087 178.71 37.0784 177.97 37.2764 177.138C37.6157 175.783 37.7289 175.598 38.3228 175.721C39.7933 175.998 40.1327 175.906 40.1327 175.29C40.1327 174.92 39.9065 174.643 39.5671 174.581C38.1531 174.365 37.7289 174.15 36.8805 173.41C35.6644 172.27 34.8443 170.391 34.618 168.111C34.5332 167.063 34.5332 166.2 34.618 166.2C34.7029 166.2 35.3533 167.032 36.032 168.049C37.2198 169.774 38.0117 170.36 38.0117 169.528C38.0117 169.312 37.2481 168.08 36.3148 166.755C34.7594 164.567 34.618 164.259 34.7877 163.273C34.8725 162.688 35.0422 162.195 35.1553 162.195C35.2402 162.195 35.8906 163.119 36.5694 164.198C37.2481 165.307 37.9268 166.2 38.0399 166.2C38.7187 166.2 38.4359 165.338 37.0219 163.15C35.4099 160.623 35.2685 160.13 35.8341 158.682L36.1734 157.82L37.4461 159.853C38.6056 161.733 39.4257 162.41 39.4257 161.517C39.4257 161.332 38.8035 160.161 38.0117 158.929C37.2481 157.696 36.5976 156.433 36.5976 156.125C36.5976 155.817 36.8239 155.047 37.1067 154.369L37.5875 153.167L38.9449 155.385C39.6802 156.587 40.3872 157.573 40.5286 157.573C41.2074 157.573 40.9811 156.864 39.5105 154.492L37.9551 151.935L38.6056 150.456C38.9449 149.624 39.3408 148.946 39.454 148.946C39.5671 148.946 40.1893 149.963 40.8114 151.226C42.0558 153.691 42.4517 154.184 42.7062 153.475C42.7628 153.229 42.1972 151.842 41.4053 150.332L39.963 147.621L40.7266 146.388L41.4902 145.125L42.7345 147.806C43.4132 149.285 44.0637 150.486 44.2334 150.486C44.8838 150.486 44.7141 149.685 43.5546 147.159L42.282 144.417L43.0739 143.585C43.4981 143.153 43.9788 142.784 44.1202 142.784C44.2899 142.784 44.7141 143.585 45.0818 144.54C45.8453 146.635 46.0999 147.036 46.4675 146.635C46.6372 146.45 46.4675 145.618 46.0433 144.509C45.2232 142.321 45.1949 141.952 45.8736 141.736C49.0127 140.781 51.7842 141.921 52.8872 144.632C53.3962 145.896 54.0184 146.234 54.3012 145.403C54.5274 144.786 53.9618 143.307 53.1134 142.321C52.5195 141.613 52.4912 141.52 52.9437 141.335C53.1982 141.243 53.8487 140.966 54.3577 140.75C55.291 140.349 55.291 140.349 57.9211 142.753C62.9833 147.405 67.4233 149.562 72.3723 149.809C76.7841 149.993 80.2343 148.884 83.1755 146.234C84.6178 144.971 86.5125 141.982 86.965 140.288C87.2761 139.148 87.3892 139.086 88.4073 139.086C89.0861 139.086 90.2738 138.686 91.5465 138.008C93.8372 136.806 94.4028 136.714 95.9299 137.392C100.059 139.271 102.774 146.851 102.774 156.341C102.745 158.467 102.576 161.147 102.378 162.318C102.123 163.705 102.095 164.783 102.236 165.399C102.745 167.309 102.548 167.648 100.37 168.234L99.6629 168.419V165.492C99.6629 160.593 98.6166 156.125 96.4955 151.996C95.2512 149.593 94.4311 148.607 93.8654 148.823C93.2716 149.1 93.3281 149.439 94.3179 150.979C95.5057 152.89 97.0046 156.433 97.5985 158.806C98.3055 161.64 98.3055 169.004 97.5702 171.531C97.2308 172.794 97.146 173.441 97.3439 173.657C97.8813 174.242 98.5034 173.657 98.8145 172.301C99.3518 170.021 99.5498 169.682 100.568 169.528C101.077 169.435 101.586 169.497 101.671 169.651C101.756 169.805 102.067 171.315 102.321 173.01C102.661 175.074 102.972 176.152 103.255 176.276C104.16 176.645 104.216 175.875 103.622 172.332L103.028 168.85L103.594 168.388C104.131 167.957 104.16 167.772 103.877 166.662C103.707 165.985 103.65 164.598 103.735 163.427C104.499 154.862 104.131 149.624 102.463 144.447L101.643 141.89L103.368 139.025C105.715 135.112 110.296 130.274 113.803 127.932C115.245 126.946 116.49 126.207 116.546 126.269C116.603 126.33 116.405 127.409 116.066 128.641C115.472 131.014 114.736 138.963 115.019 139.826C115.415 140.935 116.292 140.226 119.035 136.56C122.768 131.568 123.56 130.767 124.55 130.767C125.228 130.767 125.596 131.075 126.529 132.493C127.18 133.417 128.056 134.957 128.481 135.882L129.244 137.546L128.594 141.613C127.717 147.529 127.123 153.568 126.925 159.699L126.727 165.029L127.406 164.906C128.085 164.814 128.085 164.783 128.283 159.73C128.509 153.783 129.159 146.974 130.008 141.551L130.63 137.73L133.317 135.635C134.787 134.464 136.173 133.448 136.343 133.355C136.541 133.263 137.304 133.478 138.039 133.879C139.793 134.834 140.783 136.56 141.574 140.165C141.914 141.705 142.31 143.03 142.479 143.153C142.988 143.523 143.413 142.814 143.611 141.335C143.696 140.565 144.487 137.669 145.336 134.927C146.184 132.184 147.033 128.888 147.202 127.594L147.513 125.252L149.267 126.638C159.023 134.372 166.546 145.988 169.798 158.343C170.336 160.284 170.675 161.147 171.014 161.209C171.948 161.394 171.863 160.254 170.675 156.371C167.932 147.282 163.633 139.61 157.355 132.493C154.697 129.504 148.164 123.68 147.457 123.68C147.287 123.68 147.174 123.372 147.174 122.972C147.174 121.123 145.081 117.919 143.469 117.241C142.762 116.964 142.734 116.871 142.96 115.608C143.073 114.868 143.186 114.191 143.215 114.098C143.215 114.006 144.035 113.821 145.081 113.698C147.57 113.42 150.879 112.219 153.113 110.832C155.262 109.446 158.288 106.303 159.617 104.054C160.381 102.729 160.89 102.266 162.304 101.527C164.595 100.387 166.207 98.754 167.112 96.7821C168.158 94.3788 168.271 92.7149 167.479 91.0203L166.829 89.6338L167.479 87.8467C170.505 79.5584 170.534 68.2198 167.508 62.0575C166.235 59.4078 164.991 57.9904 162.983 56.8196C160.664 55.4947 157.949 55.2174 155.771 56.1109L154.357 56.7272L153.876 54.6936C152.321 48.2848 148.164 43.2317 142.366 40.7052C138.888 39.2263 135.409 38.8565 133.458 39.8425ZM120.704 50.5341C120.958 50.6265 121.156 50.9654 121.156 51.2735C121.156 51.7049 120.817 51.8589 119.544 52.013C117.508 52.2595 115.868 53.0606 114.454 54.4779C113.831 55.0941 113.096 55.5871 112.842 55.5871C111.993 55.5871 112.361 54.4163 113.577 53.3071C115.104 51.8589 116.886 50.9346 118.696 50.6573C119.516 50.5341 120.194 50.4108 120.223 50.38C120.251 50.38 120.449 50.4416 120.704 50.5341ZM126.869 51.366C127.208 51.9514 126.529 52.506 125.709 52.3211C124.691 52.0438 124.267 51.6125 124.465 51.0578C124.578 50.7189 124.861 50.6573 125.653 50.8114C126.218 50.9346 126.756 51.1811 126.869 51.366ZM77.6608 67.2647C80.5454 68.0658 81.9311 68.8977 83.9107 70.9312C86.258 73.3962 88.1528 76.2924 89.7648 79.959C91.3202 83.5331 92.1969 86.8916 93.2998 93.4852C94.6573 101.404 95.7319 104.177 98.5034 106.703C99.2953 107.443 100.144 108.429 100.37 108.891C101.614 111.541 101.416 115.053 99.8043 118.597C98.9276 120.507 97.2308 123.003 97.0046 122.694C96.948 122.664 97.0046 121.77 97.1177 120.753C97.6267 116.07 95.7319 108.49 94.2896 109.507C93.922 109.754 93.922 109.939 94.2614 110.801C95.8168 115.022 96.2127 118.874 95.4492 122.633L95.0815 124.543L92.6211 125.806C91.2919 126.484 90.0759 127.07 89.991 127.07C89.8779 127.07 89.9062 126.7 90.0759 126.207C90.4718 125.067 90.5001 120.661 90.1042 120.23C89.9345 120.045 89.5951 119.983 89.3406 120.106C88.9447 120.26 88.8881 120.538 89.0295 121.678C89.2557 123.311 88.7184 126.577 88.0962 127.378C87.672 127.902 83.3734 129.134 83.0623 128.826C83.0058 128.764 83.0906 127.686 83.2886 126.453C83.4865 124.944 83.5148 124.143 83.3169 123.927C82.7513 123.311 82.2139 123.927 82.016 125.437C81.5352 129.257 81.5635 129.227 80.8565 129.227C80.3191 129.227 80.1495 128.949 79.7535 127.439C79.499 126.453 79.301 125.221 79.301 124.728C79.301 123.835 79.3859 123.773 81.0827 123.403C83.3734 122.91 87.0216 120.969 88.6901 119.398C93.2716 114.992 94.12 108.09 91.2071 98.908C90.7263 97.3983 90.3304 96.135 90.3304 96.1042C90.3304 96.0426 90.5566 96.0426 90.8394 96.0734C92.0555 96.1658 91.2071 89.9727 89.3689 85.6591C88.0397 82.5163 86.2015 79.6201 85.5227 79.6201C84.6178 79.6201 84.6743 80.0514 85.6924 81.6536C87.7286 84.7348 89.4254 89.1716 89.9062 92.6533L90.1042 94.1015L89.0295 93.6085C88.4073 93.3312 87.361 92.9306 86.6822 92.7458L85.4379 92.376L84.8157 89.7878C84.0804 86.5527 83.0623 84.1185 81.4221 81.6228C80.1495 79.6509 79.7253 79.2811 79.1031 79.5584C78.5375 79.7741 78.6506 80.1747 79.697 81.5612C81.0544 83.3791 82.5533 86.5218 83.232 88.9868C84.1653 92.2528 84.2218 92.1295 81.2524 92.0987H78.6789L78.1698 89.9111C77.887 88.7094 77.2649 86.8608 76.7841 85.844C75.9074 83.9337 74.352 81.7769 73.8995 81.7769C73.2208 81.7769 73.447 82.7628 74.6065 84.6423C75.6812 86.4602 76.671 89.1716 77.1517 91.6674C77.2931 92.4376 77.2366 92.4684 75.1155 92.9614C73.8995 93.2695 72.7966 93.4852 72.6269 93.4852C72.4572 93.4852 72.2309 92.8998 72.1178 92.1911C71.6653 89.0792 68.3565 83.7796 67.0274 83.9953C66.2355 84.1185 66.0375 85.5975 66.0375 91.6057L66.0658 96.3199L64.4821 97.0285C63.6054 97.4291 62.5873 97.9529 62.1914 98.2302C61.6824 98.5999 61.4561 98.6307 61.3147 98.3534C60.9188 97.6756 61.1167 91.5441 61.5975 89.5106C62.0783 87.477 61.9369 86.7683 61.0885 87.1073C60.1552 87.5078 59.5048 92.6533 59.8159 97.1826L60.0138 99.8016L58.9392 101.096C57.3272 102.975 56.6202 104.731 56.4505 107.073C56.2808 109.63 56.9313 111.263 59.4765 115.022C60.438 116.44 61.4278 118.104 61.6541 118.72C63.2943 122.972 62.3328 127.717 59.3351 130.212C58.119 131.26 55.6021 132.493 55.3475 132.215C55.291 132.154 55.4607 131.507 55.6869 130.767C56.4788 128.302 56.2525 125.036 54.8385 118.966C54.1315 115.916 53.5659 112.927 53.5659 112.28C53.5659 111.079 53.1134 110.586 52.4347 111.048C51.8691 111.417 52.265 114.529 53.5659 119.675C55.1779 126.115 55.1213 129.997 53.3114 132.308C52.6326 133.17 52.3215 133.294 49.6066 133.725L46.6372 134.187L45.7322 133.047C44.1202 131.044 43.3849 127.255 43.9223 123.68C44.092 122.571 44.8838 119.49 45.6757 116.84C47.0897 112.157 47.2311 111.048 46.3827 111.048C45.8453 111.048 42.989 120.445 42.5082 123.773C42.084 126.762 42.48 129.781 43.6112 132.092C44.0354 132.986 44.4313 133.817 44.4879 133.971C44.5444 134.126 43.6112 134.156 42.2254 134.033C37.5875 133.633 35.2685 131.291 34.9574 126.731C34.7877 123.896 35.3533 121.955 38.1531 116.132C40.7831 110.647 41.4336 108.583 41.4336 105.779C41.4619 103.807 41.1791 103.129 40.4438 103.437C40.1327 103.561 40.0196 104.115 40.0196 105.656C40.0196 108.275 39.4822 110.247 37.7289 113.821C33.4302 122.602 32.7515 125.468 34.0524 129.535C34.3352 130.459 34.5332 131.26 34.5049 131.322C34.2504 131.568 31.9879 128.703 31.3092 127.316C30.687 125.991 30.5456 125.252 30.5456 123.372C30.5174 120.63 31.0264 119.213 34.0524 113.975C37.135 108.583 37.2764 107.936 37.3047 99.4935C37.3329 93.6701 37.4178 92.0371 37.842 90.2808C40.9811 77.3092 51.4731 68.4355 65.7265 66.7101C69.2898 66.2787 75.059 66.5252 77.6608 67.2647ZM146.75 68.1274C145.534 71.6091 144.827 77.34 145.449 78.9422C145.901 80.1131 146.891 80.6985 147.938 80.4212C148.362 80.2979 149.352 79.466 150.115 78.6033C150.907 77.6481 151.416 77.2476 151.303 77.6173C150.907 79.0963 150.568 82.7936 150.568 85.8132C150.568 88.6786 150.652 89.2024 151.162 89.9111C151.953 90.9895 153.311 90.9895 154.499 89.9111L155.375 89.11L155.177 90.8971C155.036 91.9138 154.951 93.4852 154.951 94.4096C154.951 96.9361 155.545 96.8129 157.468 93.8242C159.646 90.4041 162.049 88.9868 164.227 89.7878C168.441 91.2668 166.801 97.6756 161.512 100.418C159.674 101.404 158.062 101.774 153.311 102.297C151.784 102.451 151.642 102.544 151.162 103.591C150.172 105.717 148.333 107.597 145.845 109.137C142.197 111.325 141.405 113.05 141.405 118.751C141.405 121.154 141.518 122.263 141.857 123.003L142.338 123.989L140.698 126.238C138.605 129.103 135.127 132.647 132.383 134.711L130.234 136.344L129.612 135.019C129.272 134.28 128.141 132.431 127.095 130.921C126.049 129.381 124.917 127.532 124.578 126.792L123.928 125.437L124.635 124.019C127.519 118.196 126.36 113.389 121.411 110.801C120.421 110.277 118.611 109.415 117.423 108.891C113.181 107.011 111.343 105.009 110.692 101.619C110.24 99.2778 110.721 96.2891 112.389 90.9587C114.086 85.5359 114.482 83.225 114.256 80.3595L114.058 78.1719L118.385 77.9871C123.305 77.7714 127.463 76.9395 132.383 75.1524C135.975 73.8583 141.914 70.7464 144.912 68.5588C146.071 67.7268 147.061 67.0182 147.089 67.0182C147.146 66.9874 146.976 67.5112 146.75 68.1274ZM165.867 74.721C166.659 77.7714 165.273 84.365 164.114 83.1018C163.859 82.8245 163.888 82.2699 164.255 80.8217C164.566 79.6201 164.736 78.1411 164.68 76.7238C164.623 75.5221 164.68 74.3513 164.821 74.1356C165.132 73.5502 165.641 73.8275 165.867 74.721ZM69.714 89.3257C70.1665 90.3425 70.6755 92.0679 70.8452 93.1463L71.1846 95.0874L72.3441 94.9334C72.9662 94.8409 74.7196 94.4712 76.1902 94.1323C79.8101 93.2695 84.2218 93.2695 86.6822 94.1015L88.4922 94.7177L89.8496 99.247C91.3485 104.3 91.6879 106.642 91.4333 110.216C91.0657 114.807 88.5487 118.566 84.3067 120.784C81.62 122.171 78.9051 122.756 74.2106 123.003C70.6472 123.218 70.3927 123.249 70.3927 123.835C70.3927 124.42 70.5624 124.451 73.645 124.358C75.4266 124.297 77.0952 124.204 77.3497 124.112C77.6891 124.019 77.8587 124.42 78.085 126.145C78.7072 130.428 81.7049 135.42 84.844 137.422C85.9469 138.131 86.0601 138.316 85.9187 139.025C85.551 140.842 84.3067 143.092 82.8361 144.601C76.7275 150.887 66.7728 149.562 58.4584 141.366L56.5353 139.487L57.7514 138.039C59.1371 136.406 59.9573 134.619 60.2401 132.616C60.3815 131.691 60.7491 130.86 61.3713 130.089C63.3226 127.717 64.171 124.512 63.7468 121.185C63.464 119.09 62.757 117.487 60.6077 114.221C57.5251 109.569 57.1009 107.412 58.6846 104.023C59.9573 101.25 62.4176 99.1853 66.1507 97.7988L67.5647 97.275L67.4233 94.8409C67.2819 91.9755 67.2819 90.9895 67.3667 88.124L67.4233 85.998L68.1303 86.7067C68.5262 87.1381 69.2332 88.2781 69.714 89.3257ZM143.639 120.907C143.3 122.879 143.017 122.633 142.791 120.106L142.621 118.288L143.215 119.059C143.696 119.644 143.78 120.014 143.639 120.907ZM124.437 120.661C124.182 121.554 123.843 122.51 123.673 122.756C123.164 123.557 123.56 120.414 124.125 119.49C124.804 118.319 124.946 118.781 124.437 120.661ZM122.146 122.725C122.174 124.574 122.316 125.159 123.22 127.101C123.786 128.333 124.239 129.35 124.182 129.35C122.909 129.812 121.495 131.168 119.233 134.064C117.762 135.974 116.518 137.546 116.49 137.546C116.264 137.546 116.716 133.232 117.197 130.49C117.819 127.131 119.233 123.68 120.732 121.863C121.326 121.185 121.863 120.599 121.976 120.599C122.061 120.599 122.146 121.554 122.146 122.725ZM145.732 122.756C146.099 124.636 146.128 126.084 145.817 125.652C145.279 125.005 144.629 122.694 144.798 121.986C145.081 120.784 145.392 121.061 145.732 122.756ZM144.996 126.484C145.619 128.21 145.675 128.734 145.449 129.658C145.307 130.274 145.138 130.767 145.081 130.767C145.025 130.767 144.516 129.689 143.922 128.364C142.904 125.991 142.875 125.991 143.384 124.975C143.667 124.42 143.978 124.081 144.063 124.204C144.176 124.358 144.6 125.375 144.996 126.484ZM144.176 133.91C143.95 134.711 143.696 135.389 143.639 135.389C143.469 135.389 140.387 129.381 140.387 129.072C140.387 128.918 140.811 128.333 141.292 127.748L142.225 126.731L143.441 129.565L144.629 132.431L144.176 133.91ZM141.263 133.109C142.055 134.742 142.875 136.128 143.073 136.19C143.356 136.313 143.356 136.59 143.13 137.422L142.819 138.501L142.084 136.714C141.292 134.834 139.708 133.078 138.351 132.554L137.502 132.246L138.435 131.198C138.944 130.613 139.453 130.151 139.595 130.151C139.708 130.151 140.472 131.476 141.263 133.109Z" fill="#D7619C"/>
<path d="M52.4065 74.1051C49.9743 75.9846 47.6271 78.9117 47.6271 80.0518C47.6271 81.0685 48.6452 80.4523 49.6633 78.8809C50.5965 77.4328 53.4811 74.6598 54.4709 74.3208C54.8951 74.1668 54.5558 73.15 54.0467 73.15C53.8205 73.15 53.0852 73.5814 52.4065 74.1051Z" fill="#D7619C"/>
<path d="M43.2723 91.4214C42.6501 91.9144 42.339 93.4242 42.1128 97.1832C41.9148 100.018 41.9431 100.172 42.5936 101.035C43.4702 102.144 44.3469 101.959 46.0155 100.326C48.6173 97.7994 48.3628 97.8918 48.8718 99.5557C49.5223 101.62 50.5686 102.729 51.9261 102.729C53.3118 102.729 53.6795 102.082 54.4148 98.5389C55.3763 93.7631 55.0652 92.5615 52.8876 92.5615C52.0392 92.5615 51.5867 92.808 50.4272 94.0096C49.6354 94.8107 48.9284 95.3037 48.8152 95.1496C48.6738 94.9956 48.1082 94.2253 47.5143 93.3934C45.9589 91.2366 44.4035 90.5279 43.2723 91.4214Z" fill="#D7619C"/>
<path d="M116.009 81.0068C115.556 81.2841 115.217 81.7154 115.217 81.9619C115.217 82.3625 115.415 82.4241 116.15 82.27C119.515 81.4997 120.364 81.6538 122.117 83.3792C123.107 84.3036 123.531 84.5501 123.757 84.3036C124.267 83.749 123.588 82.5165 122.23 81.5614C121.241 80.8527 120.647 80.6986 118.893 80.637C117.366 80.5754 116.546 80.6678 116.009 81.0068Z" fill="#D7619C"/>
<path d="M137.361 83.3486C136.173 83.9648 135.834 84.6118 136.428 85.0124C136.597 85.1356 137.304 84.9199 138.011 84.5502C140.217 83.3794 142.989 84.2421 144.205 86.4605C144.714 87.4157 145.76 87.6314 145.76 86.7686C145.76 85.9059 144.176 84.0572 142.847 83.3486C141.207 82.4858 138.945 82.4858 137.361 83.3486Z" fill="#D7619C"/>
<path d="M116.8 86.4295C115.358 87.662 116.093 88.4323 117.734 87.3847C118.752 86.7685 119.374 87.0458 119.968 88.3398C120.647 89.8804 121.749 89.1718 121.156 87.6004C120.477 85.8441 118.186 85.2279 116.8 86.4295Z" fill="#D7619C"/>
<path d="M138.549 87.8471C137.672 88.0936 136.427 89.172 136.427 89.665C136.427 90.4353 137.276 90.5277 137.955 89.819C139.142 88.5866 141.009 89.2336 141.603 91.0823C141.829 91.7293 142.593 91.8218 142.819 91.2056C143.017 90.6201 142.225 88.9563 141.433 88.4017C140.67 87.8779 139.34 87.6006 138.549 87.8471Z" fill="#D7619C"/>
<path d="M125.087 90.4352C123.701 92.0682 123.73 94.718 125.144 94.718C125.681 94.718 125.709 94.5948 125.54 93.5472C125.398 92.5304 125.483 92.1915 126.077 91.4212C126.925 90.312 126.982 89.9422 126.36 89.6649C126.077 89.5417 125.624 89.819 125.087 90.4352Z" fill="#D7619C"/>
<path d="M119.799 96.7208C119.997 98.5695 121.128 99.8944 123.532 101.065C125.03 101.836 125.596 101.928 127.943 101.928C130.064 101.928 130.969 101.805 132.214 101.25C133.769 100.572 136.427 98.3538 136.427 97.7684C136.427 96.9981 135.494 97.2138 134.363 98.2306C131.62 100.665 128.481 101.404 125.228 100.326C122.711 99.4939 121.439 98.323 121.184 96.7208C121.043 95.7349 120.873 95.4576 120.336 95.3959C119.685 95.2727 119.657 95.3343 119.799 96.7208Z" fill="#D7619C"/>
<path d="M123.899 104.146C123.418 104.67 123.786 105.194 124.861 105.502C126.048 105.872 126.812 105.748 126.812 105.225C126.812 104.608 124.323 103.715 123.899 104.146Z" fill="#D7619C"/>
<path d="M82.7231 95.8274C82.1858 96.0739 81.3374 96.7825 80.8001 97.3988C79.9234 98.4155 79.8668 98.5388 80.2628 99.001C80.6587 99.4323 80.8001 99.3707 81.7616 98.3539C83.6847 96.3512 84.9856 96.0739 87.1632 97.2139C88.0399 97.7069 88.4923 97.7685 88.6903 97.5528C88.9166 97.3063 88.8883 97.0598 88.6055 96.6901C87.6157 95.3652 84.5897 94.9339 82.7231 95.8274Z" fill="#D7619C"/>
<path d="M84.8159 99.3086C83.3453 99.9865 82.5252 102.482 83.6847 102.667C84.1372 102.729 84.3351 102.513 84.5331 101.743C84.7593 100.942 84.9856 100.695 85.636 100.634C86.0885 100.572 86.5693 100.664 86.739 100.849C87.1632 101.311 88.0681 101.281 88.0681 100.788C88.0681 99.7092 85.9754 98.754 84.8159 99.3086Z" fill="#D7619C"/>
<path d="M66.7734 99.7402C64.709 100.48 62.6162 103.037 62.6162 104.886C62.6162 105.841 63.6909 105.687 64.0302 104.639C64.5958 102.975 65.0483 102.328 66.0664 101.589C67.1128 100.819 67.8198 100.757 71.1003 101.25C71.5811 101.312 71.8073 101.188 71.8073 100.88C71.8073 99.8018 68.6117 99.0932 66.7734 99.7402Z" fill="#D7619C"/>
<path d="M68.0739 104.424C66.9426 104.947 66.2356 106.118 66.3487 107.258C66.4619 108.521 67.48 108.46 67.7062 107.166C67.8193 106.642 67.989 106.057 68.1021 105.872C68.4132 105.317 69.9969 105.44 70.5908 105.995C70.9867 106.426 71.1564 106.426 71.5241 106.118C72.0897 105.625 71.6372 104.978 70.3363 104.362C69.2333 103.869 69.2051 103.869 68.0739 104.424Z" fill="#D7619C"/>
<path d="M79.8953 104.67C79.6691 104.978 79.7822 105.348 80.3195 106.149C80.9983 107.166 81.1114 108.214 80.6872 109.785C80.5175 110.463 81.6204 110.586 82.0446 109.939C82.7234 108.953 82.4971 106.95 81.5639 105.564C80.6589 104.177 80.4044 104.054 79.8953 104.67Z" fill="#D7619C"/>
<path d="M83.4867 111.356C82.2424 112.774 80.6587 113.729 79.1033 114.006C78.17 114.16 77.8589 114.068 77.1236 113.39C76.6429 112.959 76.049 112.589 75.7662 112.589C74.9743 112.589 75.3985 113.883 76.4732 114.684C77.3216 115.3 77.7175 115.393 79.0467 115.269C79.9234 115.177 81.2243 114.776 82.0161 114.345C83.5433 113.513 85.636 111.233 85.4381 110.648C85.2118 109.908 84.5048 110.155 83.4867 111.356Z" fill="#D7619C"/>
<path d="M80.6589 117.58C79.8104 117.888 79.6125 118.659 80.2629 118.936C80.8568 119.182 82.695 118.227 82.695 117.703C82.695 117.149 81.8466 117.087 80.6589 117.58Z" fill="#D7619C"/>
<path d="M105.416 1.2017C104.853 1.81548 104.408 2.55848 104.408 2.81691C104.408 3.4953 103.875 3.36609 103.519 2.59078C103.074 1.71857 101.473 0.684831 100.494 0.684831C99.9903 0.684831 99.4863 1.00787 99.0712 1.55705C98.5078 2.33235 98.4485 2.72 98.5967 4.27061C98.8933 7.56565 100.821 11.959 102.451 13.122C103.4 13.8004 105.001 13.8327 105.95 13.1543C107.551 12.0236 108.886 7.88869 108.974 3.91526C109.004 1.84778 108.915 1.26631 108.441 0.717135C107.581 -0.284298 106.573 -0.122777 105.416 1.2017Z" fill="#FF0000" fill-opacity="0.2"/>
<path d="M78.5535 1.97685C78.2867 2.17067 77.753 2.84906 77.3972 3.52745C77.0413 4.17354 76.7152 4.75502 76.6855 4.81962C76.6559 4.85193 76.0925 4.30276 75.4402 3.59206C74.0763 2.10606 72.5641 1.84763 71.7042 2.88137C70.5479 4.27045 71.4077 9.47144 73.335 12.6373C75.5588 16.32 78.7611 16.0615 80.3326 12.0558C81.6965 8.66384 81.9633 3.01058 80.8366 2.10606C80.1843 1.58919 79.2651 1.55689 78.5535 1.97685Z" fill="#FF0000" fill-opacity="0.2"/>
<path d="M128.01 5.56231C127.595 5.91765 126.973 6.75756 126.676 7.37135L126.142 8.5343L125.52 7.56517C125.164 7.016 124.393 6.33761 123.8 6.01457C120.509 4.33474 119.56 8.88965 122.021 14.4137C123.296 17.2242 124.423 18.4517 125.964 18.6778C126.913 18.8071 127.299 18.6778 128.07 17.9672C129.849 16.3196 131.064 12.4431 131.094 8.34048C131.094 6.78987 130.975 6.33761 130.353 5.69152C129.463 4.72239 129.018 4.69009 128.01 5.56231Z" fill="#FF0000" fill-opacity="0.2"/>
<path d="M92.4893 16.6755C92.0446 16.9339 91.3922 17.7092 91.0364 18.4199L90.4138 19.6798L89.2574 18.4199C88.3086 17.3862 87.8935 17.1601 86.915 17.1601C85.2249 17.1601 84.6912 18.1292 84.9284 20.8428C85.3435 25.753 88.0121 30.0818 90.651 30.0818C93.1713 30.0818 95.2172 25.5592 95.2172 19.9705C95.2172 17.7092 95.1579 17.4831 94.4463 16.8693C93.5271 16.0617 93.5271 16.0617 92.4893 16.6755Z" fill="#FF0000" fill-opacity="0.2"/>
<path d="M114.401 26.8511C113.985 27.368 113.541 28.111 113.452 28.4664C113.274 29.0801 113.155 29.0478 112.088 27.8203C110.694 26.2374 109.301 26.0112 108.144 27.1096C107.67 27.5941 107.611 28.0141 107.729 30.1462C107.848 32.2137 108.055 33.0859 108.945 35.0564C110.724 38.9653 112.592 40.1928 114.786 38.9653C115.942 38.3192 116.773 36.7363 117.455 33.7966C118.166 30.7277 118.225 27.5941 117.573 26.5927C116.891 25.4944 115.349 25.6236 114.401 26.8511Z" fill="#FF0000" fill-opacity="0.2"/>
<path d="M76.1813 44.5862C75.7958 44.9416 75.2324 45.7169 74.9063 46.3306L74.3726 47.429L73.3051 46.2337C71.9116 44.6508 70.8145 44.3278 69.7767 45.1677C69.0355 45.7815 68.9762 46.0076 69.0058 48.0751C69.0355 52.7915 71.8819 57.8633 74.5208 57.8633C77.1004 57.8633 79.2056 53.2438 79.2056 47.5259C79.2056 45.523 79.1463 45.2646 78.4347 44.6508C77.4562 43.8109 77.1004 43.8109 76.1813 44.5862Z" fill="#FF0000" fill-opacity="0.2"/>
<path d="M98.122 46.2015C97.7366 46.5568 97.1732 47.2998 96.8767 47.9136L96.343 49.012L95.2459 47.7844C93.8227 46.2338 92.7553 45.9431 91.7175 46.783C91.0652 47.2998 90.8873 47.7521 90.828 48.9797C90.7094 50.8533 91.5989 54.1483 92.8442 56.5066C96.2244 62.8382 101.146 58.4125 101.146 49.1089C101.146 47.2998 101.028 46.7507 100.553 46.2338C99.8121 45.4262 99.0709 45.4262 98.122 46.2015Z" fill="#FF0000" fill-opacity="0.2"/>
<path d="M109.064 65.9393C108.649 66.4561 108.204 67.1991 108.115 67.5545C107.937 68.2006 107.818 68.136 106.603 66.9407C105.891 66.1977 105.061 65.5839 104.794 65.5839C102.511 65.4224 101.799 66.9407 102.481 70.5588C103.993 78.3764 108.826 81.1546 111.228 75.5659C112.651 72.2709 113.155 66.8115 112.118 65.4547C111.465 64.6148 109.894 64.8409 109.064 65.9393Z" fill="#FF0000" fill-opacity="0.2"/>
<path d="M86.4107 69.8802C86.0845 70.3002 85.6101 71.0431 85.3729 71.56L84.9282 72.4645L84.3055 71.4954C83.5642 70.3648 81.7852 69.3633 81.0143 69.6541C79.9172 70.0094 79.4131 71.0108 79.4725 72.723C79.5614 77.3102 82.4968 82.7373 84.8689 82.7373C86.3217 82.7373 87.4485 81.8974 88.249 80.153C89.7612 76.8902 90.3839 71.3985 89.4054 69.8802C88.7827 68.9111 87.2409 68.9111 86.4107 69.8802Z" fill="#FF0000" fill-opacity="0.2"/>
<path d="M77.7228 95.0455C77.2484 95.7885 76.8333 96.5315 76.8333 96.693C76.8333 97.2422 76.3293 96.9191 76.0031 96.1761C75.8252 95.7562 75.0839 95.0778 74.313 94.6901C72.9194 93.9471 72.9194 93.9471 72.1485 94.5932C71.1108 95.4331 70.9032 96.6607 71.4073 99.2127C72.2078 103.542 74.6095 107.289 76.5665 107.289C77.8414 107.289 79.0571 106.514 79.7687 105.221C80.6286 103.735 81.5774 99.5035 81.5774 97.3068C81.5774 94.7871 81.103 93.9148 79.7391 93.7856C78.7606 93.6887 78.5531 93.8179 77.7228 95.0455Z" fill="#FF0000" fill-opacity="0.2"/>
<path d="M3.78 189.667H4.023C4.725 189.667 5.076 190.018 5.076 190.72V197.497H15.39V190.72C15.39 190.018 15.741 189.667 16.443 189.667H16.686C17.37 189.667 17.712 190.018 17.712 190.72V206.974C17.712 207.658 17.37 208 16.686 208H16.443C15.741 208 15.39 207.658 15.39 206.974V199.522H5.076V206.974C5.076 207.658 4.725 208 4.023 208H3.78C3.078 208 2.727 207.658 2.727 206.974V190.72C2.727 190.018 3.078 189.667 3.78 189.667ZM23.8906 194.689H24.0526C24.7366 194.689 25.0786 195.022 25.0786 195.688V206.974C25.0786 207.658 24.7366 208 24.0526 208H23.8906C23.2066 208 22.8646 207.658 22.8646 206.974V195.688C22.8646 195.022 23.2066 194.689 23.8906 194.689ZM22.4866 190.882C22.4866 190.468 22.6306 190.117 22.9186 189.829C23.2066 189.523 23.5486 189.37 23.9446 189.37C24.3586 189.37 24.7096 189.523 24.9976 189.829C25.3036 190.117 25.4566 190.468 25.4566 190.882C25.4566 191.278 25.3126 191.629 25.0246 191.935C24.7366 192.223 24.3856 192.367 23.9716 192.367C23.5576 192.367 23.2066 192.223 22.9186 191.935C22.6306 191.647 22.4866 191.296 22.4866 190.882ZM30.417 207.865C30.111 207.865 29.841 207.721 29.607 207.433C29.373 207.145 29.256 206.785 29.256 206.353C29.256 205.903 29.427 205.516 29.769 205.192C30.111 204.868 30.534 204.706 31.038 204.706C31.56 204.706 32.01 204.913 32.388 205.327C32.784 205.723 32.982 206.272 32.982 206.974C32.982 208.126 32.685 209.107 32.091 209.917C31.497 210.745 30.786 211.159 29.958 211.159C29.364 211.159 29.067 210.943 29.067 210.511C29.661 210.367 30.147 210.043 30.525 209.539C30.921 209.053 31.119 208.459 31.119 207.757C30.975 207.829 30.741 207.865 30.417 207.865ZM43.2017 194.446C43.2017 193.078 43.8137 191.908 45.0377 190.936C46.2617 189.964 47.7647 189.478 49.5467 189.478C51.3467 189.478 52.7237 189.703 53.6777 190.153C54.6317 190.585 55.1087 191.125 55.1087 191.773C55.1087 192.421 54.7127 192.826 53.9207 192.988C53.2367 191.962 51.8597 191.449 49.7897 191.449C48.5657 191.449 47.5667 191.737 46.7927 192.313C46.0187 192.871 45.6317 193.555 45.6317 194.365C45.6317 195.175 45.9467 195.796 46.5767 196.228C47.2067 196.66 48.1247 197.038 49.3307 197.362C50.5547 197.668 51.4907 197.947 52.1387 198.199C52.8047 198.451 53.4707 198.784 54.1367 199.198C55.4327 199.99 56.0807 201.187 56.0807 202.789C56.0807 204.373 55.4327 205.678 54.1367 206.704C52.8407 207.712 51.2207 208.216 49.2767 208.216C47.3327 208.216 45.8117 207.964 44.7137 207.46C43.6337 206.938 43.0937 206.326 43.0937 205.624C43.0937 204.904 43.5527 204.427 44.4707 204.193C45.1367 205.543 46.6397 206.218 48.9797 206.218C50.4737 206.218 51.6347 205.921 52.4627 205.327C53.3087 204.715 53.7317 203.941 53.7317 203.005C53.7317 202.051 53.3087 201.322 52.4627 200.818C51.6347 200.314 50.3297 199.846 48.5477 199.414C46.7837 198.964 45.4517 198.361 44.5517 197.605C43.6517 196.849 43.2017 195.796 43.2017 194.446ZM60.8529 195.985C61.5189 195.463 62.2299 195.076 62.9859 194.824C63.7419 194.572 64.6599 194.446 65.7399 194.446C66.8199 194.446 67.7649 194.689 68.5749 195.175C69.4029 195.661 69.8169 196.183 69.8169 196.741C69.8169 197.425 69.4299 197.812 68.6559 197.902C68.4759 197.506 68.0709 197.146 67.4409 196.822C66.8109 196.48 66.0639 196.309 65.1999 196.309C63.9939 196.309 62.9949 196.741 62.2029 197.605C61.4109 198.451 61.0149 199.693 61.0149 201.331C61.0149 202.969 61.4199 204.22 62.2299 205.084C63.0399 205.948 64.0119 206.38 65.1459 206.38C66.9459 206.38 68.1609 205.795 68.7909 204.625C69.1329 204.625 69.4209 204.733 69.6549 204.949C69.8889 205.147 70.0059 205.408 70.0059 205.732C70.0059 206.362 69.5739 206.938 68.7099 207.46C67.8459 207.964 66.8559 208.216 65.7399 208.216C64.6419 208.216 63.7059 208.09 62.9319 207.838C62.1759 207.568 61.4739 207.172 60.8259 206.65C60.1779 206.11 59.6649 205.39 59.2869 204.49C58.9089 203.59 58.7199 202.546 58.7199 201.358C58.7199 200.152 58.9089 199.09 59.2869 198.172C59.6829 197.236 60.2049 196.507 60.8529 195.985ZM73.9511 189.073H74.1401C74.8241 189.073 75.1661 189.415 75.1661 190.099V197.389C75.4721 196.597 75.9941 195.922 76.7321 195.364C77.4701 194.806 78.3341 194.527 79.3241 194.527C80.8361 194.527 82.0421 194.959 82.9421 195.823C83.8421 196.669 84.2921 198.046 84.2921 199.954V206.974C84.2921 207.334 84.2111 207.595 84.0491 207.757C83.8871 207.919 83.6261 208 83.2661 208H83.0501C82.3841 208 82.0511 207.658 82.0511 206.974V200.089C82.0511 197.587 80.9711 196.336 78.8111 196.336C77.6771 196.336 76.7861 196.804 76.1381 197.74C75.5081 198.676 75.1931 199.855 75.1931 201.277V206.974C75.1931 207.658 74.8421 208 74.1401 208H73.9511C73.5911 208 73.3301 207.919 73.1681 207.757C73.0061 207.595 72.9251 207.334 72.9251 206.974V190.099C72.9251 189.415 73.2671 189.073 73.9511 189.073ZM89.1913 194.689H89.3533C90.0553 194.689 90.4063 195.031 90.4063 195.715V196.849C91.2343 195.283 92.5033 194.5 94.2133 194.5C95.3113 194.5 96.2203 194.797 96.9403 195.391C97.6783 195.967 98.1823 196.777 98.4523 197.821C98.7403 196.777 99.2713 195.958 100.045 195.364C100.819 194.77 101.71 194.473 102.718 194.473C105.814 194.473 107.362 196.282 107.362 199.9V207.001C107.362 207.667 107.002 208 106.282 208H106.12C105.436 208 105.094 207.667 105.094 207.001V200.035C105.094 197.569 104.158 196.336 102.286 196.336C100.972 196.336 100.072 196.813 99.5863 197.767C99.1183 198.721 98.8843 200.017 98.8843 201.655V207.001C98.8843 207.667 98.5333 208 97.8313 208H97.6423C96.9583 208 96.6163 207.667 96.6163 207.001V200.035C96.6163 197.569 95.6713 196.336 93.7813 196.336C91.5313 196.336 90.4063 198.082 90.4063 201.574V207.001C90.4063 207.667 90.0553 208 89.3533 208H89.1913C88.5073 208 88.1653 207.667 88.1653 207.001V195.715C88.1653 195.031 88.5073 194.689 89.1913 194.689ZM110.189 201.385C110.189 199.135 110.819 197.416 112.079 196.228C113.339 195.04 114.788 194.446 116.426 194.446C118.064 194.446 119.36 194.869 120.314 195.715C121.268 196.543 121.745 197.578 121.745 198.82C121.745 200.062 121.25 201.034 120.26 201.736C119.288 202.42 118.028 202.762 116.48 202.762C114.932 202.762 113.537 202.519 112.295 202.033C112.295 203.347 112.745 204.409 113.645 205.219C114.545 206.011 115.643 206.407 116.939 206.407C118.955 206.407 120.215 205.786 120.719 204.544C121.025 204.544 121.286 204.634 121.502 204.814C121.718 204.976 121.826 205.219 121.826 205.543C121.826 206.173 121.358 206.776 120.422 207.352C119.504 207.928 118.334 208.216 116.912 208.216C115.004 208.216 113.402 207.64 112.106 206.488C110.828 205.336 110.189 203.635 110.189 201.385ZM119.693 198.739C119.693 198.037 119.387 197.443 118.775 196.957C118.181 196.471 117.353 196.228 116.291 196.228C115.247 196.228 114.329 196.651 113.537 197.497C112.745 198.343 112.34 199.297 112.322 200.359C113.618 200.791 114.905 201.007 116.183 201.007C118.523 201.007 119.693 200.251 119.693 198.739ZM127.108 191.098H127.297C127.981 191.098 128.323 191.431 128.323 192.097V194.77H132.049C132.751 194.77 133.102 195.076 133.102 195.688C133.102 196.3 132.751 196.606 132.049 196.606H128.323V203.41C128.323 204.544 128.539 205.345 128.971 205.813C129.421 206.263 130.069 206.488 130.915 206.488C131.779 206.488 132.418 206.281 132.832 205.867C133.282 206.011 133.507 206.299 133.507 206.731C133.507 207.163 133.21 207.523 132.616 207.811C132.022 208.081 131.311 208.216 130.483 208.216C127.549 208.216 126.082 206.614 126.082 203.41V196.606H124.759C124.363 196.606 124.075 196.543 123.895 196.417C123.715 196.291 123.625 196.048 123.625 195.688C123.625 195.076 124.003 194.77 124.759 194.77H126.082V192.097C126.082 191.431 126.424 191.098 127.108 191.098ZM137.945 191.098H138.134C138.818 191.098 139.16 191.431 139.16 192.097V194.77H142.886C143.588 194.77 143.939 195.076 143.939 195.688C143.939 196.3 143.588 196.606 142.886 196.606H139.16V203.41C139.16 204.544 139.376 205.345 139.808 205.813C140.258 206.263 140.906 206.488 141.752 206.488C142.616 206.488 143.255 206.281 143.669 205.867C144.119 206.011 144.344 206.299 144.344 206.731C144.344 207.163 144.047 207.523 143.453 207.811C142.859 208.081 142.148 208.216 141.32 208.216C138.386 208.216 136.919 206.614 136.919 203.41V196.606H135.596C135.2 196.606 134.912 196.543 134.732 196.417C134.552 196.291 134.462 196.048 134.462 195.688C134.462 195.076 134.84 194.77 135.596 194.77H136.919V192.097C136.919 191.431 137.261 191.098 137.945 191.098ZM145.758 201.385C145.758 199.135 146.388 197.416 147.648 196.228C148.908 195.04 150.357 194.446 151.995 194.446C153.633 194.446 154.929 194.869 155.883 195.715C156.837 196.543 157.314 197.578 157.314 198.82C157.314 200.062 156.819 201.034 155.829 201.736C154.857 202.42 153.597 202.762 152.049 202.762C150.501 202.762 149.106 202.519 147.864 202.033C147.864 203.347 148.314 204.409 149.214 205.219C150.114 206.011 151.212 206.407 152.508 206.407C154.524 206.407 155.784 205.786 156.288 204.544C156.594 204.544 156.855 204.634 157.071 204.814C157.287 204.976 157.395 205.219 157.395 205.543C157.395 206.173 156.927 206.776 155.991 207.352C155.073 207.928 153.903 208.216 152.481 208.216C150.573 208.216 148.971 207.64 147.675 206.488C146.397 205.336 145.758 203.635 145.758 201.385ZM155.262 198.739C155.262 198.037 154.956 197.443 154.344 196.957C153.75 196.471 152.922 196.228 151.86 196.228C150.816 196.228 149.898 196.651 149.106 197.497C148.314 198.343 147.909 199.297 147.891 200.359C149.187 200.791 150.474 201.007 151.752 201.007C154.092 201.007 155.262 200.251 155.262 198.739ZM161.517 194.689H161.679C162.363 194.689 162.705 195.022 162.705 195.688V197.146C163.011 196.462 163.497 195.85 164.163 195.31C164.847 194.77 165.576 194.5 166.35 194.5C167.124 194.5 167.709 194.653 168.105 194.959C168.519 195.265 168.726 195.643 168.726 196.093C168.726 196.525 168.537 196.867 168.159 197.119C167.601 196.651 167.007 196.417 166.377 196.417C165.261 196.417 164.379 196.876 163.731 197.794C163.083 198.694 162.759 199.828 162.759 201.196V206.974C162.759 207.334 162.678 207.595 162.516 207.757C162.354 207.919 162.093 208 161.733 208H161.517C161.157 208 160.896 207.919 160.734 207.757C160.572 207.595 160.491 207.334 160.491 206.974V195.688C160.491 195.022 160.833 194.689 161.517 194.689ZM172.647 189.073H172.836C173.52 189.073 173.862 189.406 173.862 190.072V206.974C173.862 207.658 173.52 208 172.836 208H172.647C172.269 208 171.999 207.919 171.837 207.757C171.693 207.595 171.621 207.334 171.621 206.974V190.072C171.621 189.712 171.693 189.46 171.837 189.316C171.999 189.154 172.269 189.073 172.647 189.073ZM179.457 194.689H179.619C180.303 194.689 180.645 195.022 180.645 195.688V206.974C180.645 207.658 180.303 208 179.619 208H179.457C178.773 208 178.431 207.658 178.431 206.974V195.688C178.431 195.022 178.773 194.689 179.457 194.689ZM178.053 190.882C178.053 190.468 178.197 190.117 178.485 189.829C178.773 189.523 179.115 189.37 179.511 189.37C179.925 189.37 180.276 189.523 180.564 189.829C180.87 190.117 181.023 190.468 181.023 190.882C181.023 191.278 180.879 191.629 180.591 191.935C180.303 192.223 179.952 192.367 179.538 192.367C179.124 192.367 178.773 192.223 178.485 191.935C178.197 191.647 178.053 191.296 178.053 190.882ZM186.064 194.689H186.253C186.937 194.689 187.279 195.031 187.279 195.715V197.038C187.621 196.354 188.161 195.751 188.899 195.229C189.637 194.707 190.483 194.446 191.437 194.446C192.895 194.446 194.083 194.887 195.001 195.769C195.937 196.633 196.405 198.01 196.405 199.9V206.974C196.405 207.334 196.324 207.595 196.162 207.757C196 207.919 195.739 208 195.379 208H195.163C194.497 208 194.164 207.658 194.164 206.974V199.981C194.164 198.667 193.885 197.731 193.327 197.173C192.769 196.615 191.959 196.336 190.897 196.336C189.835 196.336 188.971 196.768 188.305 197.632C187.639 198.496 187.306 199.639 187.306 201.061V206.974C187.306 207.658 186.955 208 186.253 208H186.064C185.704 208 185.443 207.919 185.281 207.757C185.119 207.595 185.038 207.334 185.038 206.974V195.715C185.038 195.031 185.38 194.689 186.064 194.689ZM204.874 204.139L203.659 204.085C203.227 204.085 202.858 204.202 202.552 204.436C202.246 204.652 202.093 204.895 202.093 205.165C202.093 205.849 202.669 206.191 203.821 206.191H205.819C209.653 206.191 211.57 207.37 211.57 209.728C211.57 210.97 210.967 211.978 209.761 212.752C208.573 213.526 207.043 213.949 205.171 214.021H204.523C202.993 214.021 201.688 213.715 200.608 213.103C199.528 212.491 198.988 211.771 198.988 210.943C198.988 210.547 199.078 210.232 199.258 209.998C199.456 209.764 199.708 209.629 200.014 209.593C200.356 210.295 200.959 210.88 201.823 211.348C202.687 211.816 203.704 212.05 204.874 212.05H205.063C206.413 212.05 207.466 211.843 208.222 211.429C208.996 211.015 209.383 210.493 209.383 209.863C209.383 209.251 209.041 208.801 208.357 208.513C207.691 208.243 206.53 208.108 204.874 208.108C203.236 208.108 202.003 207.946 201.175 207.622C200.347 207.298 199.933 206.668 199.933 205.732C199.933 204.796 200.59 204.058 201.904 203.518C200.338 202.636 199.555 201.232 199.555 199.306C199.555 197.776 200.077 196.588 201.121 195.742C202.165 194.896 203.452 194.473 204.982 194.473C205.756 194.473 206.467 194.635 207.115 194.959C207.781 195.283 208.285 195.634 208.627 196.012C209.311 195.562 209.653 194.743 209.653 193.555C210.139 193.555 210.571 193.708 210.949 194.014C211.327 194.302 211.516 194.671 211.516 195.121C211.516 196.021 210.85 196.669 209.518 197.065C209.914 197.605 210.112 198.397 210.112 199.441C210.112 200.971 209.608 202.141 208.6 202.951C207.61 203.743 206.368 204.139 204.874 204.139ZM207.142 196.984C206.548 196.462 205.792 196.201 204.874 196.201C203.956 196.201 203.191 196.462 202.579 196.984C201.967 197.488 201.661 198.271 201.661 199.333C201.661 200.395 201.967 201.187 202.579 201.709C203.191 202.213 203.956 202.465 204.874 202.465C205.792 202.465 206.548 202.213 207.142 201.709C207.754 201.187 208.06 200.395 208.06 199.333C208.06 198.271 207.754 197.488 207.142 196.984Z" fill="#BF9A9A"/>
</svg>
