<svg width="63" height="58" viewBox="0 0 63 58" fill="none" xmlns="http://www.w3.org/2000/svg">
<path d="M31.9881 2.92334C28.657 2.92334 25.4006 3.91114 22.6309 5.76183C19.8611 7.61252 17.7024 10.243 16.4276 13.3206C15.1528 16.3982 14.8193 19.7846 15.4691 23.0518C16.119 26.3189 17.7231 29.32 20.0786 31.6755C22.4341 34.031 25.4352 35.6351 28.7023 36.285C31.9695 36.9348 35.3559 36.6013 38.4335 35.3265C41.5111 34.0517 44.1416 31.893 45.9923 29.1232C47.843 26.3535 48.8308 23.0971 48.8308 19.766C48.8308 15.299 47.0563 11.015 43.8977 7.85643C40.7391 4.69783 36.4551 2.92334 31.9881 2.92334ZM40.9472 20.8427L26.5107 28.061C26.3272 28.1526 26.1234 28.1959 25.9185 28.1866C25.7136 28.1773 25.5145 28.1158 25.3401 28.0079C25.1657 27.9001 25.0217 27.7494 24.9219 27.5702C24.8221 27.391 24.7698 27.1893 24.7699 26.9842V12.5477C24.77 12.3427 24.8225 12.1411 24.9224 11.9621C25.0222 11.7831 25.1662 11.6326 25.3406 11.5249C25.515 11.4171 25.714 11.3557 25.9188 11.3465C26.1236 11.3373 26.3273 11.3805 26.5107 11.4722L40.9472 18.6904C41.1468 18.7905 41.3146 18.944 41.4318 19.134C41.5491 19.3239 41.6112 19.5427 41.6112 19.766C41.6112 19.9892 41.5491 20.208 41.4318 20.398C41.3146 20.5879 41.1468 20.7415 40.9472 20.8415" fill="#BF9A9A"/>
<path d="M1.81805 45.8376H4.18405C5.07671 45.8376 5.80471 46.0542 6.36805 46.4876C6.93138 46.9122 7.21305 47.5926 7.21305 48.5286C7.21305 49.4559 6.93138 50.1406 6.36805 50.5826C5.80471 51.0159 5.07671 51.2326 4.18405 51.2326H2.44205V54.1706C2.44205 54.4999 2.27305 54.6646 1.93505 54.6646H1.81805C1.48005 54.6646 1.31105 54.4999 1.31105 54.1706V46.3446C1.31105 46.0066 1.48005 45.8376 1.81805 45.8376ZM2.44205 46.7996V50.2576H4.19705C5.47105 50.2576 6.10805 49.6812 6.10805 48.5286C6.10805 47.3759 5.47105 46.7996 4.19705 46.7996H2.44205ZM9.44092 45.5516H9.53192C9.86126 45.5516 10.0259 45.7119 10.0259 46.0326V54.1706C10.0259 54.4999 9.86126 54.6646 9.53192 54.6646H9.44092C9.25892 54.6646 9.12892 54.6256 9.05092 54.5476C8.98159 54.4696 8.94692 54.3439 8.94692 54.1706V46.0326C8.94692 45.8592 8.98159 45.7379 9.05092 45.6686C9.12892 45.5906 9.25892 45.5516 9.44092 45.5516ZM14.2797 48.1516C16.117 48.1516 17.0357 49.0052 17.0357 50.7126V53.2866C17.0357 53.7632 17.2177 54.0666 17.5817 54.1966C17.4517 54.5259 17.209 54.6906 16.8537 54.6906C16.5937 54.6906 16.3857 54.5996 16.2297 54.4176C16.0823 54.2269 16.0087 53.9799 16.0087 53.6766C15.4627 54.4046 14.7563 54.7686 13.8897 54.7686C13.1877 54.7686 12.633 54.5909 12.2257 54.2356C11.827 53.8716 11.6277 53.3862 11.6277 52.7796C11.6277 52.1642 11.8617 51.6659 12.3297 51.2846C12.8063 50.9032 13.4477 50.7126 14.2537 50.7126C14.739 50.7126 15.1463 50.7646 15.4757 50.8686C15.7443 50.9639 15.9047 51.0246 15.9567 51.0506V50.4786C15.9567 49.9499 15.8223 49.5772 15.5537 49.3606C15.285 49.1352 14.8777 49.0226 14.3317 49.0226C13.5603 49.0226 12.9623 49.3172 12.5377 49.9066C12.1737 49.8546 11.9917 49.6856 11.9917 49.3996C11.9917 49.0702 12.217 48.7799 12.6677 48.5286C13.1183 48.2772 13.6557 48.1516 14.2797 48.1516ZM15.9567 51.8826C15.4107 51.6399 14.8733 51.5186 14.3447 51.5186C13.816 51.5186 13.4087 51.6312 13.1227 51.8566C12.8367 52.0819 12.6937 52.3766 12.6937 52.7406C12.6937 53.0959 12.815 53.3819 13.0577 53.5986C13.309 53.8066 13.673 53.9106 14.1497 53.9106C14.635 53.9106 15.0553 53.7372 15.4107 53.3906C15.7747 53.0439 15.9567 52.6236 15.9567 52.1296V51.8826ZM18.754 48.2686H19.001C19.2783 48.2686 19.4473 48.4029 19.508 48.6716C20.0367 50.7516 20.6217 52.4329 21.263 53.7156H21.38C22.108 51.9216 22.693 50.2402 23.135 48.6716C23.213 48.4029 23.382 48.2686 23.642 48.2686H23.85C24.1187 48.2686 24.253 48.3639 24.253 48.5546C24.253 48.6066 24.24 48.6672 24.214 48.7366C23.2087 51.8739 22.1167 54.6906 20.938 57.1866C20.8687 57.3339 20.795 57.4379 20.717 57.4986C20.6477 57.5679 20.535 57.6026 20.379 57.6026H20.054C19.846 57.6026 19.742 57.5029 19.742 57.3036C19.742 57.2429 19.7897 57.1172 19.885 56.9266C20.5263 55.6872 20.9033 54.9289 21.016 54.6516H20.99C20.834 54.6256 20.7343 54.5909 20.691 54.5476C20.6477 54.4956 20.6173 54.4652 20.6 54.4566C20.5827 54.4392 20.561 54.4089 20.535 54.3656C20.509 54.3136 20.4917 54.2832 20.483 54.2746C20.4743 54.2572 20.4527 54.2182 20.418 54.1576C20.392 54.0882 20.3747 54.0449 20.366 54.0276C19.6987 52.6929 19.04 50.9292 18.39 48.7366C18.364 48.6672 18.351 48.6066 18.351 48.5546C18.351 48.3639 18.4853 48.2686 18.754 48.2686ZM28.6128 46.2146C28.6128 45.9719 28.7514 45.8506 29.0288 45.8506H29.3408C29.4881 45.8506 29.5878 45.8766 29.6398 45.9286C29.7004 45.9806 29.7438 46.0196 29.7698 46.0456C29.7958 46.0716 29.8218 46.1236 29.8478 46.2016C29.8738 46.2709 29.8954 46.3229 29.9128 46.3576C29.9301 46.4096 29.9648 46.5439 30.0168 46.7606C30.7188 49.3779 31.5854 51.6009 32.6168 53.4296C33.6914 51.2196 34.5364 48.9966 35.1518 46.7606L35.1908 46.5786C35.2601 46.3186 35.3078 46.1712 35.3338 46.1366C35.3598 46.0932 35.3901 46.0499 35.4248 46.0066C35.4594 45.9632 35.4941 45.9329 35.5288 45.9156C35.6154 45.8722 35.7151 45.8506 35.8278 45.8506H36.1398C36.4171 45.8506 36.5558 45.9719 36.5558 46.2146C36.5558 46.2666 36.5384 46.3619 36.5038 46.5006C35.6024 49.5252 34.6188 52.0039 33.5528 53.9366C33.5354 53.9626 33.5051 54.0189 33.4618 54.1056C33.4184 54.1922 33.3881 54.2442 33.3708 54.2616C33.3621 54.2789 33.3361 54.3179 33.2928 54.3786C33.2581 54.4392 33.2278 54.4782 33.2018 54.4956C33.1844 54.5042 33.1541 54.5259 33.1108 54.5606C33.0674 54.5952 33.0241 54.6169 32.9808 54.6256C32.8681 54.6516 32.7598 54.6646 32.6558 54.6646H32.5128C32.2961 54.6646 32.1531 54.6386 32.0838 54.5866C32.0231 54.5346 31.9798 54.5042 31.9538 54.4956C31.9364 54.4782 31.9061 54.4392 31.8628 54.3786C31.8281 54.3179 31.8021 54.2789 31.7848 54.2616C31.7761 54.2442 31.7501 54.1922 31.7068 54.1056C31.6634 54.0189 31.6331 53.9626 31.6158 53.9366C30.5498 52.0039 29.5661 49.5252 28.6648 46.5006C28.6301 46.3619 28.6128 46.2666 28.6128 46.2146ZM38.7831 48.2556H38.8611C39.1905 48.2556 39.3551 48.4159 39.3551 48.7366V54.1706C39.3551 54.4999 39.1905 54.6646 38.8611 54.6646H38.7831C38.4538 54.6646 38.2891 54.4999 38.2891 54.1706V48.7366C38.2891 48.4159 38.4538 48.2556 38.7831 48.2556ZM38.1071 46.4226C38.1071 46.2232 38.1765 46.0542 38.3151 45.9156C38.4538 45.7682 38.6185 45.6946 38.8091 45.6946C39.0085 45.6946 39.1775 45.7682 39.3161 45.9156C39.4635 46.0542 39.5371 46.2232 39.5371 46.4226C39.5371 46.6132 39.4678 46.7822 39.3291 46.9296C39.1905 47.0682 39.0215 47.1376 38.8221 47.1376C38.6228 47.1376 38.4538 47.0682 38.3151 46.9296C38.1765 46.7909 38.1071 46.6219 38.1071 46.4226ZM46.3455 45.2916H46.4495C46.7788 45.2916 46.9435 45.4476 46.9435 45.7595V54.1966C46.9435 54.5086 46.7788 54.6646 46.4495 54.6646H46.3455C46.0162 54.6646 45.8515 54.5172 45.8515 54.2226V53.5856C45.6608 53.9236 45.3878 54.2052 45.0325 54.4306C44.6772 54.6472 44.2742 54.7556 43.8235 54.7556C43.0522 54.7556 42.4152 54.4912 41.9125 53.9626C41.4098 53.4339 41.1585 52.6236 41.1585 51.5316C41.1585 50.4309 41.4358 49.5902 41.9905 49.0096C42.5452 48.4202 43.2515 48.1256 44.1095 48.1256C44.7855 48.1256 45.3662 48.3249 45.8515 48.7236V45.7595C45.8515 45.4476 46.0162 45.2916 46.3455 45.2916ZM45.8515 49.7896C45.3922 49.3129 44.8418 49.0746 44.2005 49.0746C43.5592 49.0746 43.0695 49.2826 42.7315 49.6986C42.3935 50.1059 42.2245 50.7212 42.2245 51.5446C42.2245 52.3679 42.3978 52.9616 42.7445 53.3256C43.0912 53.6896 43.5505 53.8716 44.1225 53.8716C44.7032 53.8716 45.1365 53.6549 45.4225 53.2216C45.7085 52.7882 45.8515 52.2509 45.8515 51.6096V49.7896ZM48.4815 51.4796C48.4815 50.3962 48.7849 49.5686 49.3915 48.9966C49.9982 48.4246 50.6959 48.1386 51.4845 48.1386C52.2732 48.1386 52.8972 48.3422 53.3565 48.7496C53.8159 49.1482 54.0455 49.6466 54.0455 50.2446C54.0455 50.8426 53.8072 51.3106 53.3305 51.6486C52.8625 51.9779 52.2559 52.1426 51.5105 52.1426C50.7652 52.1426 50.0935 52.0256 49.4955 51.7916C49.4955 52.4242 49.7122 52.9356 50.1455 53.3256C50.5789 53.7069 51.1075 53.8976 51.7315 53.8976C52.7022 53.8976 53.3089 53.5986 53.5515 53.0006C53.6989 53.0006 53.8245 53.0439 53.9285 53.1306C54.0325 53.2086 54.0845 53.3256 54.0845 53.4816C54.0845 53.7849 53.8592 54.0752 53.4085 54.3526C52.9665 54.6299 52.4032 54.7686 51.7185 54.7686C50.7999 54.7686 50.0285 54.4912 49.4045 53.9366C48.7892 53.3819 48.4815 52.5629 48.4815 51.4796ZM53.0575 50.2056C53.0575 49.8676 52.9102 49.5816 52.6155 49.3476C52.3295 49.1136 51.9309 48.9966 51.4195 48.9966C50.9169 48.9966 50.4749 49.2002 50.0935 49.6076C49.7122 50.0149 49.5172 50.4742 49.5085 50.9856C50.1325 51.1936 50.7522 51.2976 51.3675 51.2976C52.4942 51.2976 53.0575 50.9336 53.0575 50.2056ZM56.095 49.0096C56.7103 48.4289 57.4643 48.1386 58.357 48.1386C59.2496 48.1386 60.0036 48.4289 60.619 49.0096C61.2343 49.5902 61.542 50.4092 61.542 51.4666C61.542 52.5239 61.2343 53.3386 60.619 53.9106C60.0036 54.4826 59.2496 54.7686 58.357 54.7686C57.4643 54.7686 56.7103 54.4826 56.095 53.9106C55.4796 53.3386 55.172 52.5239 55.172 51.4666C55.172 50.4092 55.4796 49.5902 56.095 49.0096ZM59.852 49.6726C59.4706 49.2479 58.9723 49.0356 58.357 49.0356C57.7416 49.0356 57.239 49.2479 56.849 49.6726C56.4676 50.0886 56.277 50.6866 56.277 51.4666C56.277 52.2379 56.4676 52.8359 56.849 53.2606C57.239 53.6766 57.7416 53.8846 58.357 53.8846C58.9723 53.8846 59.4706 53.6766 59.852 53.2606C60.242 52.8359 60.437 52.2379 60.437 51.4666C60.437 50.6866 60.242 50.0886 59.852 49.6726Z" fill="#7C7C7C"/>
</svg>
