<svg width="198" height="121" viewBox="0 0 198 121" fill="none" xmlns="http://www.w3.org/2000/svg">
<path d="M181.917 18.3437C181.444 18.0206 179.837 17.2492 178.34 16.6383C175.746 15.5794 175.601 15.4585 173.272 13.1647C170.725 10.6696 169.923 10.1841 168.348 10.2111C167.267 10.2621 166.145 10.9114 164.946 12.1986C163.23 14.0402 162.551 14.2541 159.145 14.0666C157.406 13.9526 155.575 13.9775 155.061 14.093C152.731 14.6925 150.737 16.9508 149.874 19.9767C149.236 22.2462 149.442 26.8971 150.335 30.097C152.159 36.5769 154.734 40.2296 159.893 43.7238C160.257 44.0062 160.032 44.7626 158.223 49.5965C153.315 62.7855 144.921 76.8639 135.765 87.2845L132.553 90.9695L134.17 87.6106C137.068 81.6483 138.768 76.8135 139.605 72.3108C140.65 66.7922 139.497 64.0292 136.776 65.4834C135.949 65.9356 135.599 66.3118 134.488 68.0187C129.934 75.0849 127.745 84.4053 128.676 92.7935L128.9 94.8106L127.481 96.1359C122.559 100.705 117.347 104.912 112.839 107.968C110.797 109.328 110.465 109.645 110.443 110.143C110.441 110.503 110.549 110.703 110.806 110.705C111.648 110.712 119.913 104.614 124.962 100.266C130.562 95.4428 138.628 86.4699 143.251 80.0029L145.138 77.3445L147.501 77.2641C150.322 77.1276 153.036 76.5912 156.084 75.5386C162.363 73.3154 169.064 68.2223 169.156 65.5492C169.183 64.2924 168.731 63.5105 167.654 63.0028C166.522 62.4747 165.036 62.8018 162.022 64.2536C157.539 66.4118 150.475 70.9033 148.851 72.646C148.039 73.5173 147.896 72.9973 148.673 71.8863C152.152 66.7667 157.838 54.8411 160.511 47.1011C161.315 44.7332 161.445 44.4748 161.901 44.6183C164.698 45.4194 168.015 45.1871 171.136 43.9756C173.689 42.9789 175.197 42.0734 178.658 39.4679C183.777 35.559 185.037 33.3345 183.683 30.5099C182.69 28.4865 182.699 27.2095 183.658 26.1798C184.415 25.3679 184.868 23.3363 184.547 22.1365C184.191 20.6969 183.121 19.1517 181.917 18.3437ZM177.787 25.114C177.594 26.5092 175.969 28.4115 174.408 29.0571C170.79 30.524 164.536 29.0361 159.89 25.546C157.759 23.9522 156.908 22.5286 157.03 20.6938C157.398 15.2295 168.423 15.28 172.798 20.7632C173.761 21.9882 173.869 22.2685 173.806 23.3255C173.723 24.7216 173.058 25.5941 171.81 26.0228C170.139 26.5878 165.313 25.2712 164.096 23.9244C162.878 22.5775 163.753 20.4496 165.623 20.2255C166.668 20.0944 168.093 20.545 168.309 21.1055C168.597 21.8262 167.918 22.08 166.821 21.7119C165.214 21.1001 164.109 21.9291 165.073 22.9945C165.691 23.678 168.559 24.6793 170.188 24.7924C171.305 24.8614 171.709 24.745 172.207 24.2103C172.631 23.7549 172.781 23.357 172.673 22.9571C172.244 21.4371 169.165 19.0773 166.552 18.3176C164.962 17.8456 161.591 17.8978 160.416 18.4469C159.368 18.8972 158.446 19.8075 158.203 20.6236C157.471 23.1517 163.359 27.2107 169.103 28.1357C172.945 28.7658 175.792 27.4921 176.58 24.8248C176.879 23.8695 177.524 23.336 177.777 23.8569C177.849 24.0171 177.863 24.5959 177.787 25.114ZM155.413 29.4402C155.586 30.8783 156.342 32.8799 157.158 34.0239C157.43 34.4053 157.446 34.7047 157.188 34.9819C156.874 35.3186 156.71 35.2574 156.129 34.5343C155.075 33.2885 154.158 30.7868 154.079 28.9704C153.998 27.553 154.054 27.334 154.549 27.2782C155.135 27.243 155.153 27.3031 155.413 29.4402ZM160.554 38.1422C160.422 38.6799 159.819 38.5353 158.927 37.7897C158.053 37.0642 157.965 36.4848 158.627 36.171C159.068 35.9352 160.668 37.5845 160.554 38.1422ZM167.984 65.5795C167.703 66.515 165.526 68.6921 163.097 70.3882C160.594 72.1635 157.158 73.8713 154.404 74.7267C152.532 75.31 148.608 76.0361 148.591 75.8165C148.61 75.7568 150.778 74.697 153.461 73.442C156.125 72.2067 158.422 71.0882 158.551 70.9496C158.662 70.8308 158.627 70.5511 158.427 70.33C158.155 70.0285 157.273 70.3405 154.003 71.8701C151.743 72.9091 149.906 73.6922 149.889 73.5923C149.891 73.313 152.486 71.3987 155.687 69.3099C159.293 66.9849 164.31 64.4919 165.979 64.2062C167.409 63.9785 168.265 64.5642 167.984 65.5795ZM138.834 67.1963C139.156 68.3164 138.205 73.4167 136.988 77.2578C135.903 80.641 132.125 89.3298 131.722 89.3265C131.63 89.3058 131.896 87.9911 132.273 86.3579C132.971 83.4305 134.446 79.3521 135.354 77.8231C135.614 77.3862 135.746 76.8486 135.656 76.6283C135.314 75.7675 134.797 76.2422 133.775 78.4886C132.027 82.2654 130.675 87.123 130.243 91.3098C130.146 92.167 129.995 92.7644 129.886 92.6437C129.577 92.302 129.694 85.9577 130.059 83.4266C130.771 78.4639 133.084 72.3771 135.73 68.4679C136.803 66.9203 137.025 66.6827 137.722 66.5288C138.584 66.3562 138.62 66.3565 138.834 67.1963Z" fill="#E65D5D" fill-opacity="0.4"/>
<path d="M7.30957 58.498C7.28743 58.332 7.14355 58.2048 6.87793 58.1162C6.62337 58.0277 6.34115 57.9613 6.03125 57.917C5.66602 57.8727 5.26204 57.8451 4.81934 57.834C4.49837 57.834 4.19954 57.8506 3.92285 57.8838C3.67936 57.9059 3.44141 57.9447 3.20898 58C2.98763 58.0664 2.83268 58.1494 2.74414 58.249C2.60026 58.3597 2.41211 58.3874 2.17969 58.332C1.94727 58.2767 1.79232 58.0885 1.71484 57.7676C1.69271 57.6458 1.65951 57.5296 1.61523 57.4189C1.58203 57.3304 1.54883 57.2363 1.51562 57.1367C1.47135 57.0371 1.42155 56.9596 1.36621 56.9043C1.53223 56.5723 1.70931 56.2734 1.89746 56.0078C2.09668 55.7422 2.3125 55.4821 2.54492 55.2275C2.78841 54.973 3.05404 54.7184 3.3418 54.4639C3.64062 54.2093 3.97266 53.9215 4.33789 53.6006C4.68099 53.3128 5.04069 52.9697 5.41699 52.5713C5.80436 52.1729 6.15853 51.7246 6.47949 51.2266C6.81152 50.7285 7.08822 50.1862 7.30957 49.5996C7.54199 49.002 7.6748 48.36 7.70801 47.6738C7.73014 47.1094 7.63053 46.7165 7.40918 46.4951C7.19889 46.2738 6.93327 46.1631 6.6123 46.1631C6.45736 46.1631 6.28027 46.2295 6.08105 46.3623C5.88184 46.484 5.68815 46.6611 5.5 46.8936C5.32292 47.1149 5.16243 47.375 5.01855 47.6738C4.88574 47.9727 4.8138 48.2881 4.80273 48.6201C4.79167 48.7087 4.7972 48.7917 4.81934 48.8691C4.84147 48.9355 4.86361 49.002 4.88574 49.0684C4.91895 49.1237 4.96875 49.168 5.03516 49.2012C4.85807 49.3451 4.68099 49.4391 4.50391 49.4834C4.41536 49.5055 4.33236 49.5166 4.25488 49.5166C4.16634 49.5166 4.0612 49.5111 3.93945 49.5C3.81771 49.4779 3.7015 49.4391 3.59082 49.3838C3.49121 49.3174 3.40267 49.2233 3.3252 49.1016C3.25879 48.9798 3.23112 48.8138 3.24219 48.6035C3.25326 48.3932 3.3418 48.111 3.50781 47.7568C3.6849 47.4027 3.94499 47.0596 4.28809 46.7275C4.64225 46.3844 5.07943 46.0911 5.59961 45.8477C6.11979 45.6042 6.72852 45.4824 7.42578 45.4824C7.89062 45.4824 8.24479 45.582 8.48828 45.7812C8.74284 45.9805 8.92546 46.2184 9.03613 46.4951C9.14681 46.7718 9.20768 47.054 9.21875 47.3418C9.22982 47.6185 9.22982 47.8454 9.21875 48.0225C9.19661 48.4873 9.08594 48.9632 8.88672 49.4502C8.69857 49.9372 8.44954 50.4186 8.13965 50.8945C7.84082 51.3704 7.49772 51.8353 7.11035 52.2891C6.73405 52.7428 6.35221 53.1689 5.96484 53.5674C5.57747 53.9658 5.19564 54.3311 4.81934 54.6631C4.4541 54.9951 4.13314 55.2773 3.85645 55.5098C3.55762 55.7643 3.3252 56.0189 3.15918 56.2734C3.00423 56.528 2.88802 56.766 2.81055 56.9873C3.07617 56.8545 3.44141 56.7217 3.90625 56.5889C4.37109 56.4561 4.90234 56.3896 5.5 56.3896C5.85417 56.3896 6.18066 56.4062 6.47949 56.4395C6.73405 56.4616 6.97754 56.5059 7.20996 56.5723C7.44238 56.6276 7.60286 56.7106 7.69141 56.8213C7.71354 56.943 7.72461 57.0537 7.72461 57.1533C7.72461 57.2529 7.71908 57.347 7.70801 57.4355C7.69694 57.5352 7.68034 57.6237 7.6582 57.7012C7.63607 57.7897 7.6084 57.8783 7.5752 57.9668C7.51986 58.1217 7.43132 58.2988 7.30957 58.498ZM12.0908 46.1465C12.1019 46.1354 12.1074 46.1354 12.1074 46.1465H12.0908ZM13.834 47.043C13.5241 47.043 13.2474 47.0706 13.0039 47.126C12.9264 47.3473 12.8324 47.6296 12.7217 47.9727C12.611 48.3158 12.4893 48.6921 12.3564 49.1016C12.2347 49.5 12.113 49.915 11.9912 50.3467C11.8805 50.7783 11.7809 51.1989 11.6924 51.6084C11.8031 51.4756 11.9414 51.3372 12.1074 51.1934C12.2734 51.0384 12.4616 50.9001 12.6719 50.7783C12.8822 50.6455 13.109 50.5348 13.3525 50.4463C13.596 50.3577 13.8506 50.3135 14.1162 50.3135C14.4814 50.3135 14.7858 50.3799 15.0293 50.5127C15.2839 50.6455 15.4775 50.8281 15.6104 51.0605C15.7542 51.2819 15.8483 51.542 15.8926 51.8408C15.9479 52.1396 15.959 52.4495 15.9258 52.7705C15.8704 53.4456 15.7155 54.1208 15.4609 54.7959C15.2064 55.471 14.8799 56.0798 14.4814 56.6221C14.083 57.1533 13.6292 57.5905 13.1201 57.9336C12.611 58.2656 12.0798 58.4316 11.5264 58.4316C11.2386 58.4316 10.9674 58.3652 10.7129 58.2324C10.4694 58.1107 10.2536 57.9502 10.0654 57.751C9.87728 57.5518 9.72786 57.3304 9.61719 57.0869C9.51758 56.8324 9.47884 56.5833 9.50098 56.3398C9.53418 55.8861 9.79427 55.4766 10.2812 55.1113C10.3698 55.0339 10.4639 54.9674 10.5635 54.9121C10.641 54.8568 10.724 54.807 10.8125 54.7627C10.901 54.7074 10.984 54.6686 11.0615 54.6465C10.9951 55.1777 11.0173 55.5872 11.1279 55.875C11.2386 56.1628 11.377 56.373 11.543 56.5059C11.7311 56.6608 11.958 56.7493 12.2236 56.7715C12.5778 56.7715 12.9043 56.6719 13.2031 56.4727C13.502 56.2624 13.7565 55.9967 13.9668 55.6758C14.1882 55.3548 14.3652 54.9896 14.498 54.5801C14.6309 54.1706 14.7139 53.7555 14.7471 53.335C14.8024 52.7816 14.7305 52.3499 14.5312 52.04C14.332 51.7301 14.0775 51.5752 13.7676 51.5752C13.4355 51.5752 13.1257 51.6859 12.8379 51.9072C12.5612 52.1175 12.29 52.3831 12.0244 52.7041C11.9248 52.8258 11.8141 52.9089 11.6924 52.9531C11.5706 52.9863 11.4489 53.0029 11.3271 53.0029C11.2165 53.0029 11.1113 52.9863 11.0117 52.9531C10.9121 52.9089 10.8346 52.8701 10.7793 52.8369C10.7461 52.8148 10.7018 52.7816 10.6465 52.7373C10.5911 52.682 10.5413 52.6045 10.4971 52.5049C10.4528 52.4053 10.4251 52.2725 10.4141 52.1064C10.4141 51.9404 10.4583 51.7246 10.5469 51.459C10.6354 51.1823 10.7461 50.8503 10.8789 50.4629C11.0117 50.0645 11.1445 49.6549 11.2773 49.2344C11.4102 48.8138 11.5374 48.4098 11.6592 48.0225C11.7809 47.6351 11.875 47.3086 11.9414 47.043C12.041 46.6667 12.0964 46.4287 12.1074 46.3291C12.1296 46.2184 12.1296 46.1576 12.1074 46.1465C12.1628 46.1354 12.2956 46.1022 12.5059 46.0469C12.7161 45.9915 12.9762 45.9362 13.2861 45.8809C13.6071 45.8255 13.9613 45.7757 14.3486 45.7314C14.7471 45.6872 15.1455 45.665 15.5439 45.665C15.9756 45.665 16.3242 45.6872 16.5898 45.7314C16.8555 45.7646 17.0492 45.8311 17.1709 45.9307C17.3037 46.0303 17.3757 46.1742 17.3867 46.3623C17.3978 46.5394 17.3646 46.7663 17.2871 47.043C17.2539 47.1426 17.2096 47.2477 17.1543 47.3584C17.099 47.4469 17.027 47.5521 16.9385 47.6738C16.861 47.7845 16.7614 47.9007 16.6396 48.0225C16.5179 47.779 16.3021 47.5908 15.9922 47.458C15.6934 47.3141 15.3835 47.2145 15.0625 47.1592C14.6862 47.0928 14.2767 47.054 13.834 47.043ZM30.3359 54.6963C30.181 54.9176 29.9818 55.1943 29.7383 55.5264C29.4948 55.8473 29.2402 56.1738 28.9746 56.5059C28.7201 56.8268 28.4655 57.1257 28.2109 57.4023C27.9674 57.668 27.7627 57.8561 27.5967 57.9668C27.486 58.0332 27.3587 58.0885 27.2148 58.1328C27.071 58.1771 26.9215 58.2048 26.7666 58.2158C26.6227 58.2269 26.4844 58.2158 26.3516 58.1826C26.2188 58.1605 26.1025 58.1162 26.0029 58.0498C25.9033 57.9723 25.8203 57.8617 25.7539 57.7178C25.6986 57.596 25.6432 57.4355 25.5879 57.2363C25.5436 57.0371 25.527 56.7881 25.5381 56.4893C25.2725 56.932 24.9792 57.2751 24.6582 57.5186C24.3372 57.751 24.0329 57.9225 23.7451 58.0332C23.4131 58.1549 23.0811 58.2269 22.749 58.249C22.5941 58.249 22.4281 58.1937 22.251 58.083C22.0739 57.9834 21.9245 57.8229 21.8027 57.6016C21.681 57.3691 21.6035 57.0758 21.5703 56.7217C21.5371 56.3564 21.5814 55.9248 21.7031 55.4268C21.8581 54.7516 22.1016 54.1374 22.4336 53.584C22.7767 53.0306 23.1475 52.5602 23.5459 52.1729C23.9443 51.7744 24.3372 51.4756 24.7246 51.2764C25.112 51.0771 25.4329 50.9886 25.6875 51.0107C25.9863 51.0661 26.2298 51.1546 26.418 51.2764C26.5729 51.387 26.6725 51.5531 26.7168 51.7744C26.7721 51.9847 26.6836 52.2669 26.4512 52.6211C26.6061 52.5879 26.7334 52.5658 26.833 52.5547C26.9437 52.5436 27.0267 52.5381 27.082 52.5381C27.1484 52.5381 27.1927 52.5436 27.2148 52.5547C27.2259 52.5768 27.2314 52.6266 27.2314 52.7041C27.2314 52.7705 27.2148 52.8978 27.1816 53.0859C27.1484 53.2741 27.0986 53.5286 27.0322 53.8496C26.9658 54.1706 26.8773 54.5856 26.7666 55.0947C26.7445 55.1943 26.7223 55.2884 26.7002 55.377C26.6891 55.4544 26.6725 55.5374 26.6504 55.626C26.6393 55.7035 26.6227 55.7975 26.6006 55.9082C26.5785 56.0189 26.5508 56.1572 26.5176 56.3232C26.5065 56.4229 26.501 56.5335 26.501 56.6553C26.512 56.766 26.5342 56.8711 26.5674 56.9707C26.6006 57.0703 26.6504 57.1533 26.7168 57.2197C26.7943 57.2751 26.8994 57.3027 27.0322 57.3027C27.1429 57.3027 27.2868 57.2363 27.4639 57.1035C27.641 56.9596 27.8291 56.7826 28.0283 56.5723C28.2275 56.3509 28.4323 56.113 28.6426 55.8584C28.8639 55.5928 29.0687 55.3382 29.2568 55.0947C29.445 54.8512 29.611 54.6354 29.7549 54.4473C29.9098 54.2591 30.0205 54.1208 30.0869 54.0322C30.1755 53.9326 30.264 53.8773 30.3525 53.8662C30.4411 53.8441 30.5075 53.8662 30.5518 53.9326C30.596 53.999 30.6016 54.0986 30.5684 54.2314C30.5462 54.3643 30.4688 54.5192 30.3359 54.6963ZM25.4717 55.4268C25.527 55.2054 25.5934 54.9453 25.6709 54.6465C25.7484 54.3477 25.8148 54.0599 25.8701 53.7832C25.9255 53.5065 25.9642 53.2796 25.9863 53.1025C26.0195 52.9144 26.014 52.8258 25.9697 52.8369C25.9144 52.848 25.8535 52.8646 25.7871 52.8867C25.7318 52.9089 25.6598 52.9255 25.5713 52.9365C25.4827 52.9476 25.3942 52.9642 25.3057 52.9863C25.3942 52.8092 25.444 52.6654 25.4551 52.5547C25.4772 52.4329 25.4827 52.3389 25.4717 52.2725C25.4606 52.195 25.4385 52.1341 25.4053 52.0898C25.2835 51.9902 25.0677 52.0732 24.7578 52.3389C24.459 52.5934 24.1104 53.0693 23.7119 53.7666C23.5459 54.0544 23.4131 54.3643 23.3135 54.6963C23.2139 55.0173 23.1419 55.3216 23.0977 55.6094C23.0645 55.8971 23.0589 56.1517 23.0811 56.373C23.1032 56.5833 23.1475 56.7217 23.2139 56.7881C23.3356 56.9098 23.474 56.9707 23.6289 56.9707C23.7839 56.9596 23.9388 56.9154 24.0938 56.8379C24.2598 56.7493 24.4202 56.6387 24.5752 56.5059C24.7412 56.373 24.8851 56.2347 25.0068 56.0908C25.1396 55.9469 25.2448 55.8141 25.3223 55.6924C25.4108 55.5706 25.4606 55.4821 25.4717 55.4268ZM34.1543 58.415C33.8997 58.415 33.6784 58.3652 33.4902 58.2656C33.3132 58.1771 33.1693 58.0553 33.0586 57.9004C32.9479 57.7454 32.876 57.5684 32.8428 57.3691C32.8096 57.1589 32.8206 56.9375 32.876 56.7051C32.9092 56.5501 32.9645 56.3454 33.042 56.0908C33.1195 55.8252 33.1969 55.543 33.2744 55.2441C33.363 54.9342 33.4404 54.6299 33.5068 54.3311C33.5843 54.0212 33.6341 53.7445 33.6562 53.501C33.6784 53.2464 33.6673 53.0417 33.623 52.8867C33.5788 52.7207 33.4847 52.6377 33.3408 52.6377C33.1637 52.6377 32.9811 52.6986 32.793 52.8203C32.6048 52.931 32.4111 53.0859 32.2119 53.2852C32.0238 53.4844 31.8301 53.7168 31.6309 53.9824C31.4427 54.237 31.2546 54.5026 31.0664 54.7793C30.9668 55.1556 30.8838 55.4876 30.8174 55.7754C30.751 56.0521 30.6901 56.3066 30.6348 56.5391C30.5905 56.7604 30.5462 56.9596 30.502 57.1367C30.4577 57.3027 30.4189 57.4632 30.3857 57.6182C30.3525 57.7288 30.2529 57.8395 30.0869 57.9502C29.9209 58.0498 29.7438 58.1328 29.5557 58.1992C29.3675 58.2656 29.207 58.2988 29.0742 58.2988C28.9303 58.2988 28.8695 58.249 28.8916 58.1494C28.9027 58.083 28.9414 57.9336 29.0078 57.7012C29.0632 57.4688 29.1351 57.1976 29.2236 56.8877C29.3011 56.5667 29.3841 56.2292 29.4727 55.875C29.5612 55.5208 29.6442 55.1833 29.7217 54.8623C29.777 54.6077 29.8379 54.3255 29.9043 54.0156C29.9596 53.75 30.026 53.4401 30.1035 53.0859C30.1921 52.7318 30.2917 52.3444 30.4023 51.9238C30.4798 51.8574 30.5573 51.8076 30.6348 51.7744C30.7233 51.7301 30.8118 51.6969 30.9004 51.6748C30.9889 51.6416 31.083 51.6195 31.1826 51.6084C31.2712 51.6084 31.3597 51.6139 31.4482 51.625C31.5257 51.6361 31.6032 51.6582 31.6807 51.6914C31.7692 51.7135 31.8467 51.7523 31.9131 51.8076C31.8799 51.8851 31.8411 51.9958 31.7969 52.1396C31.7526 52.2725 31.7083 52.4163 31.6641 52.5713C31.6198 52.7484 31.5645 52.931 31.498 53.1191C31.6419 52.9199 31.8024 52.7207 31.9795 52.5215C32.1676 52.3112 32.3669 52.123 32.5771 51.957C32.7985 51.791 33.0309 51.6582 33.2744 51.5586C33.5179 51.4479 33.7669 51.3926 34.0215 51.3926C34.2318 51.3926 34.4199 51.4535 34.5859 51.5752C34.752 51.6969 34.8792 51.8685 34.9678 52.0898C35.0674 52.3001 35.1227 52.5547 35.1338 52.8535C35.1559 53.1523 35.1172 53.4788 35.0176 53.833L34.835 54.5635C34.7796 54.7959 34.7077 55.0726 34.6191 55.3936C34.5417 55.7035 34.4421 56.0465 34.3203 56.4229C34.2539 56.6663 34.2262 56.8766 34.2373 57.0537C34.2594 57.2308 34.3701 57.3193 34.5693 57.3193C34.7686 57.3193 35.0176 57.1976 35.3164 56.9541C35.6263 56.7106 35.9362 56.4173 36.2461 56.0742C36.556 55.7311 36.8493 55.3825 37.126 55.0283C37.4027 54.6631 37.613 54.3698 37.7568 54.1484C37.8564 54.0046 37.9505 53.9105 38.0391 53.8662C38.1276 53.8219 38.194 53.8164 38.2383 53.8496C38.2936 53.8828 38.3213 53.9603 38.3213 54.082C38.3213 54.1927 38.277 54.3366 38.1885 54.5137C38.111 54.6686 37.9893 54.8734 37.8232 55.1279C37.6683 55.3825 37.4801 55.6536 37.2588 55.9414C37.0374 56.2292 36.7995 56.5225 36.5449 56.8213C36.2904 57.109 36.0247 57.3747 35.748 57.6182C35.4714 57.8506 35.1947 58.0387 34.918 58.1826C34.6523 58.3376 34.3978 58.415 34.1543 58.415ZM42.3555 54.8291C42.3001 55.1722 42.2448 55.4987 42.1895 55.8086C42.1452 56.1185 42.1175 56.3675 42.1064 56.5557C42.0954 56.8324 42.1452 57.0316 42.2559 57.1533C42.3665 57.2751 42.4883 57.3359 42.6211 57.3359C42.776 57.3359 42.9642 57.2585 43.1855 57.1035C43.418 56.9486 43.6615 56.7549 43.916 56.5225C44.1706 56.29 44.4251 56.0355 44.6797 55.7588C44.9342 55.4821 45.1667 55.222 45.377 54.9785C45.5983 54.724 45.7809 54.5026 45.9248 54.3145C46.0798 54.1263 46.1849 54.0046 46.2402 53.9492C46.3066 53.8828 46.373 53.8441 46.4395 53.833C46.5169 53.8219 46.5778 53.833 46.6221 53.8662C46.6663 53.8994 46.6885 53.9603 46.6885 54.0488C46.6885 54.1374 46.6442 54.248 46.5557 54.3809C46.4229 54.5911 46.2513 54.8402 46.041 55.1279C45.8307 55.4046 45.5983 55.6924 45.3438 55.9912C45.0892 56.29 44.818 56.5833 44.5303 56.8711C44.2536 57.1589 43.9714 57.4134 43.6836 57.6348C43.4069 57.8561 43.1357 58.0332 42.8701 58.166C42.6156 58.3099 42.3831 58.3818 42.1729 58.3818C42.0179 58.3818 41.8685 58.3376 41.7246 58.249C41.5918 58.1605 41.4701 58.0443 41.3594 57.9004C41.2487 57.7565 41.1602 57.596 41.0938 57.4189C41.0384 57.2419 41.0163 57.0648 41.0273 56.8877C41.0384 56.8102 41.055 56.6774 41.0771 56.4893C40.6123 57.0094 40.1419 57.4245 39.666 57.7344C39.2012 58.0332 38.7529 58.1826 38.3213 58.1826C38.1663 58.1826 38.0003 58.1439 37.8232 58.0664C37.6462 57.9889 37.4857 57.8617 37.3418 57.6846C37.209 57.5075 37.0983 57.2751 37.0098 56.9873C36.9212 56.6995 36.888 56.3509 36.9102 55.9414C36.9434 55.2995 37.0706 54.6908 37.292 54.1152C37.5133 53.5397 37.79 53.0417 38.1221 52.6211C38.4652 52.1895 38.847 51.8519 39.2676 51.6084C39.6992 51.3538 40.1309 51.2266 40.5625 51.2266C40.7507 51.2266 40.9222 51.2764 41.0771 51.376C41.2321 51.4645 41.3649 51.5863 41.4756 51.7412C41.5863 51.8851 41.6748 52.0456 41.7412 52.2227C41.8187 52.3997 41.874 52.5658 41.9072 52.7207C41.9847 52.3997 42.0566 52.0843 42.123 51.7744C42.1895 51.4645 42.2559 51.1712 42.3223 50.8945C42.4329 50.485 42.5492 50.0423 42.6709 49.5664C42.7816 49.1569 42.9089 48.6865 43.0527 48.1553C43.1966 47.624 43.3571 47.0651 43.5342 46.4785C43.6449 46.39 43.75 46.3236 43.8496 46.2793C43.9492 46.235 44.0433 46.2018 44.1318 46.1797C44.2314 46.1465 44.3255 46.1299 44.4141 46.1299C44.5247 46.1299 44.6243 46.1465 44.7129 46.1797C44.8014 46.2018 44.8734 46.2738 44.9287 46.3955C44.9951 46.5062 45.0394 46.6777 45.0615 46.9102C45.0837 47.1426 45.0837 47.458 45.0615 47.8564C45.0394 48.3434 44.9508 48.8747 44.7959 49.4502C44.652 50.0257 44.4583 50.6234 44.2148 51.2432C43.9714 51.8519 43.6891 52.4661 43.3682 53.0859C43.0583 53.6947 42.7207 54.2757 42.3555 54.8291ZM41.376 55.0449C41.4202 54.8346 41.459 54.6243 41.4922 54.4141C41.5365 54.2038 41.5863 53.988 41.6416 53.7666C41.6195 53.7777 41.5973 53.7887 41.5752 53.7998C41.5641 53.8109 41.5475 53.8219 41.5254 53.833C41.4036 53.8883 41.3206 53.8883 41.2764 53.833C41.2321 53.7666 41.21 53.667 41.21 53.5342C41.21 53.4678 41.2044 53.3516 41.1934 53.1855C41.1823 53.0085 41.1491 52.8314 41.0938 52.6543C41.0495 52.4661 40.9775 52.3057 40.8779 52.1729C40.7783 52.029 40.64 51.957 40.4629 51.957C40.2083 51.957 39.9482 52.0898 39.6826 52.3555C39.417 52.61 39.168 52.9255 38.9355 53.3018C38.7031 53.667 38.5094 54.0599 38.3545 54.4805C38.1995 54.901 38.111 55.2773 38.0889 55.6094C38.0667 56.1406 38.1331 56.5225 38.2881 56.7549C38.443 56.9873 38.6533 57.1035 38.9189 57.1035C39.1182 57.1035 39.334 57.026 39.5664 56.8711C39.8099 56.7161 40.0423 56.528 40.2637 56.3066C40.4961 56.0853 40.7064 55.8584 40.8945 55.626C41.0938 55.3936 41.2542 55.1999 41.376 55.0449ZM58.5752 54.6963C58.4202 54.9176 58.221 55.1943 57.9775 55.5264C57.734 55.8473 57.4795 56.1738 57.2139 56.5059C56.9593 56.8268 56.7048 57.1257 56.4502 57.4023C56.2067 57.668 56.002 57.8561 55.8359 57.9668C55.7253 58.0332 55.598 58.0885 55.4541 58.1328C55.3102 58.1771 55.1608 58.2048 55.0059 58.2158C54.862 58.2269 54.7236 58.2158 54.5908 58.1826C54.458 58.1605 54.3418 58.1162 54.2422 58.0498C54.1426 57.9723 54.0596 57.8617 53.9932 57.7178C53.9378 57.596 53.8825 57.4355 53.8271 57.2363C53.7829 57.0371 53.7663 56.7881 53.7773 56.4893C53.5117 56.932 53.2184 57.2751 52.8975 57.5186C52.5765 57.751 52.2721 57.9225 51.9844 58.0332C51.6523 58.1549 51.3203 58.2269 50.9883 58.249C50.8333 58.249 50.6673 58.1937 50.4902 58.083C50.3132 57.9834 50.1637 57.8229 50.042 57.6016C49.9202 57.3691 49.8428 57.0758 49.8096 56.7217C49.7764 56.3564 49.8206 55.9248 49.9424 55.4268C50.0973 54.7516 50.3408 54.1374 50.6729 53.584C51.016 53.0306 51.3867 52.5602 51.7852 52.1729C52.1836 51.7744 52.5765 51.4756 52.9639 51.2764C53.3512 51.0771 53.6722 50.9886 53.9268 51.0107C54.2256 51.0661 54.4691 51.1546 54.6572 51.2764C54.8122 51.387 54.9118 51.5531 54.9561 51.7744C55.0114 51.9847 54.9229 52.2669 54.6904 52.6211C54.8454 52.5879 54.9727 52.5658 55.0723 52.5547C55.1829 52.5436 55.266 52.5381 55.3213 52.5381C55.3877 52.5381 55.432 52.5436 55.4541 52.5547C55.4652 52.5768 55.4707 52.6266 55.4707 52.7041C55.4707 52.7705 55.4541 52.8978 55.4209 53.0859C55.3877 53.2741 55.3379 53.5286 55.2715 53.8496C55.2051 54.1706 55.1165 54.5856 55.0059 55.0947C54.9837 55.1943 54.9616 55.2884 54.9395 55.377C54.9284 55.4544 54.9118 55.5374 54.8896 55.626C54.8786 55.7035 54.862 55.7975 54.8398 55.9082C54.8177 56.0189 54.79 56.1572 54.7568 56.3232C54.7458 56.4229 54.7402 56.5335 54.7402 56.6553C54.7513 56.766 54.7734 56.8711 54.8066 56.9707C54.8398 57.0703 54.8896 57.1533 54.9561 57.2197C55.0335 57.2751 55.1387 57.3027 55.2715 57.3027C55.3822 57.3027 55.526 57.2363 55.7031 57.1035C55.8802 56.9596 56.0684 56.7826 56.2676 56.5723C56.4668 56.3509 56.6715 56.113 56.8818 55.8584C57.1032 55.5928 57.3079 55.3382 57.4961 55.0947C57.6842 54.8512 57.8503 54.6354 57.9941 54.4473C58.1491 54.2591 58.2598 54.1208 58.3262 54.0322C58.4147 53.9326 58.5033 53.8773 58.5918 53.8662C58.6803 53.8441 58.7467 53.8662 58.791 53.9326C58.8353 53.999 58.8408 54.0986 58.8076 54.2314C58.7855 54.3643 58.708 54.5192 58.5752 54.6963ZM53.7109 55.4268C53.7663 55.2054 53.8327 54.9453 53.9102 54.6465C53.9876 54.3477 54.054 54.0599 54.1094 53.7832C54.1647 53.5065 54.2035 53.2796 54.2256 53.1025C54.2588 52.9144 54.2533 52.8258 54.209 52.8369C54.1536 52.848 54.0928 52.8646 54.0264 52.8867C53.971 52.9089 53.8991 52.9255 53.8105 52.9365C53.722 52.9476 53.6335 52.9642 53.5449 52.9863C53.6335 52.8092 53.6833 52.6654 53.6943 52.5547C53.7165 52.4329 53.722 52.3389 53.7109 52.2725C53.6999 52.195 53.6777 52.1341 53.6445 52.0898C53.5228 51.9902 53.307 52.0732 52.9971 52.3389C52.6982 52.5934 52.3496 53.0693 51.9512 53.7666C51.7852 54.0544 51.6523 54.3643 51.5527 54.6963C51.4531 55.0173 51.3812 55.3216 51.3369 55.6094C51.3037 55.8971 51.2982 56.1517 51.3203 56.373C51.3424 56.5833 51.3867 56.7217 51.4531 56.7881C51.5749 56.9098 51.7132 56.9707 51.8682 56.9707C52.0231 56.9596 52.1781 56.9154 52.333 56.8379C52.499 56.7493 52.6595 56.6387 52.8145 56.5059C52.9805 56.373 53.1243 56.2347 53.2461 56.0908C53.3789 55.9469 53.484 55.8141 53.5615 55.6924C53.6501 55.5706 53.6999 55.4821 53.7109 55.4268ZM64.7344 53.8662C64.6569 54.165 64.5684 54.4915 64.4688 54.8457C64.3802 55.1888 64.3083 55.543 64.2529 55.9082C64.1976 56.2734 64.1644 56.6387 64.1533 57.0039C64.1533 57.3691 64.2031 57.7178 64.3027 58.0498C64.2031 58.1051 64.0869 58.1439 63.9541 58.166C63.8213 58.1992 63.694 58.2214 63.5723 58.2324C63.4395 58.2546 63.3011 58.2601 63.1572 58.249C62.9691 58.249 62.8252 58.2103 62.7256 58.1328C62.626 58.0553 62.554 57.9557 62.5098 57.834C62.4766 57.7012 62.471 57.5518 62.4932 57.3857C62.5153 57.2087 62.5596 57.026 62.626 56.8379C62.7367 56.4616 62.9635 55.6813 63.3066 54.4971C63.6608 53.3128 64.0371 51.6914 64.4355 49.6328C64.502 49.2786 64.5573 48.9688 64.6016 48.7031C64.6569 48.4264 64.7067 48.194 64.751 48.0059C64.596 47.9062 64.4411 47.79 64.2861 47.6572C64.1312 47.5133 64.0094 47.3805 63.9209 47.2588C63.932 47.2256 64.015 47.1204 64.1699 46.9434C64.3359 46.7663 64.5241 46.5781 64.7344 46.3789C64.9447 46.1797 65.1549 46.0026 65.3652 45.8477C65.5755 45.6927 65.7471 45.6152 65.8799 45.6152C65.9352 45.6152 66.0016 45.6429 66.0791 45.6982C66.1676 45.7536 66.2507 45.82 66.3281 45.8975C66.4167 45.9639 66.4831 46.0413 66.5273 46.1299C66.5827 46.2074 66.6048 46.2738 66.5938 46.3291L64.7344 53.8662ZM67.7227 56.7549C68.0104 56.7881 68.1986 56.9154 68.2871 57.1367C68.3867 57.3581 68.4089 57.6071 68.3535 57.8838C68.3314 58.0277 68.2871 58.1882 68.2207 58.3652C68.1543 58.5534 68.0602 58.7471 67.9385 58.9463C67.8167 59.1455 67.6673 59.3337 67.4902 59.5107C67.3132 59.6989 67.0973 59.8649 66.8428 60.0088C66.7432 60.0641 66.6602 60.0863 66.5938 60.0752C66.5273 60.0641 66.4831 60.0365 66.4609 59.9922C66.4388 59.9479 66.4388 59.8926 66.4609 59.8262C66.472 59.7598 66.5107 59.6989 66.5771 59.6436C66.6878 59.5329 66.8096 59.3669 66.9424 59.1455C67.0863 58.9352 67.1859 58.7028 67.2412 58.4482C67.1859 58.4593 67.1305 58.4648 67.0752 58.4648C67.0309 58.4759 66.9811 58.4759 66.9258 58.4648C66.7598 58.4427 66.6159 58.3652 66.4941 58.2324C66.3724 58.1107 66.3226 57.9336 66.3447 57.7012C66.389 57.4134 66.5495 57.1755 66.8262 56.9873C67.1029 56.7881 67.4017 56.7106 67.7227 56.7549ZM75.708 45.4824C76.1286 45.4824 76.4883 45.6429 76.7871 45.9639C77.097 46.2738 77.3405 46.6888 77.5176 47.209C77.6947 47.7181 77.8053 48.3102 77.8496 48.9854C77.9049 49.6494 77.8939 50.3356 77.8164 51.0439C77.6504 52.4717 77.3682 53.6615 76.9697 54.6133C76.5713 55.554 76.1341 56.3066 75.6582 56.8711C75.1934 57.4245 74.7174 57.8174 74.2305 58.0498C73.7546 58.2822 73.3451 58.3984 73.002 58.3984C72.7363 58.3984 72.4707 58.3154 72.2051 58.1494C71.9505 57.9834 71.7181 57.7178 71.5078 57.3525C71.2975 56.9873 71.126 56.5225 70.9932 55.958C70.8604 55.3825 70.7884 54.6908 70.7773 53.8828C70.7663 53.3737 70.8216 52.8148 70.9434 52.2061C71.0651 51.5863 71.2311 50.9665 71.4414 50.3467C71.6628 49.7158 71.9229 49.1126 72.2217 48.5371C72.5316 47.9505 72.8691 47.4303 73.2344 46.9766C73.5996 46.5228 73.9925 46.1631 74.4131 45.8975C74.8337 45.6208 75.2653 45.4824 75.708 45.4824ZM76.5381 50.5957C76.5381 50.5404 76.5492 50.402 76.5713 50.1807C76.5934 49.9482 76.6045 49.6826 76.6045 49.3838C76.6156 49.0739 76.61 48.7529 76.5879 48.4209C76.5768 48.0889 76.5326 47.7845 76.4551 47.5078C76.3776 47.2201 76.2614 46.9876 76.1064 46.8105C75.9626 46.6224 75.7689 46.5283 75.5254 46.5283C75.2819 46.5283 74.972 46.7386 74.5957 47.1592C74.2305 47.5798 73.8708 48.1608 73.5166 48.9023C73.1735 49.6439 72.8747 50.5293 72.6201 51.5586C72.3766 52.5768 72.2604 53.6891 72.2715 54.8955C72.2715 55.0173 72.2826 55.2165 72.3047 55.4932C72.3379 55.7588 72.3877 56.0299 72.4541 56.3066C72.5316 56.5833 72.6367 56.8268 72.7695 57.0371C72.9023 57.2474 73.0739 57.3525 73.2842 57.3525C73.6051 57.3525 73.9372 57.1478 74.2803 56.7383C74.6344 56.3177 74.9609 55.7809 75.2598 55.1279C75.5697 54.4749 75.8353 53.75 76.0566 52.9531C76.2891 52.1452 76.4495 51.3594 76.5381 50.5957ZM84.0254 45.4824C84.446 45.4824 84.8057 45.6429 85.1045 45.9639C85.4144 46.2738 85.6579 46.6888 85.835 47.209C86.012 47.7181 86.1227 48.3102 86.167 48.9854C86.2223 49.6494 86.2113 50.3356 86.1338 51.0439C85.9678 52.4717 85.6855 53.6615 85.2871 54.6133C84.8887 55.554 84.4515 56.3066 83.9756 56.8711C83.5107 57.4245 83.0348 57.8174 82.5479 58.0498C82.0719 58.2822 81.6624 58.3984 81.3193 58.3984C81.0537 58.3984 80.7881 58.3154 80.5225 58.1494C80.2679 57.9834 80.0355 57.7178 79.8252 57.3525C79.6149 56.9873 79.4434 56.5225 79.3105 55.958C79.1777 55.3825 79.1058 54.6908 79.0947 53.8828C79.0837 53.3737 79.139 52.8148 79.2607 52.2061C79.3825 51.5863 79.5485 50.9665 79.7588 50.3467C79.9801 49.7158 80.2402 49.1126 80.5391 48.5371C80.849 47.9505 81.1865 47.4303 81.5518 46.9766C81.917 46.5228 82.3099 46.1631 82.7305 45.8975C83.151 45.6208 83.5827 45.4824 84.0254 45.4824ZM84.8555 50.5957C84.8555 50.5404 84.8665 50.402 84.8887 50.1807C84.9108 49.9482 84.9219 49.6826 84.9219 49.3838C84.9329 49.0739 84.9274 48.7529 84.9053 48.4209C84.8942 48.0889 84.8499 47.7845 84.7725 47.5078C84.695 47.2201 84.5788 46.9876 84.4238 46.8105C84.2799 46.6224 84.0863 46.5283 83.8428 46.5283C83.5993 46.5283 83.2894 46.7386 82.9131 47.1592C82.5479 47.5798 82.1882 48.1608 81.834 48.9023C81.4909 49.6439 81.1921 50.5293 80.9375 51.5586C80.694 52.5768 80.5778 53.6891 80.5889 54.8955C80.5889 55.0173 80.5999 55.2165 80.6221 55.4932C80.6553 55.7588 80.7051 56.0299 80.7715 56.3066C80.849 56.5833 80.9541 56.8268 81.0869 57.0371C81.2197 57.2474 81.3913 57.3525 81.6016 57.3525C81.9225 57.3525 82.2546 57.1478 82.5977 56.7383C82.9518 56.3177 83.2783 55.7809 83.5771 55.1279C83.887 54.4749 84.1527 53.75 84.374 52.9531C84.6064 52.1452 84.7669 51.3594 84.8555 50.5957ZM92.3428 45.4824C92.7633 45.4824 93.123 45.6429 93.4219 45.9639C93.7318 46.2738 93.9753 46.6888 94.1523 47.209C94.3294 47.7181 94.4401 48.3102 94.4844 48.9854C94.5397 49.6494 94.5286 50.3356 94.4512 51.0439C94.2852 52.4717 94.0029 53.6615 93.6045 54.6133C93.2061 55.554 92.7689 56.3066 92.293 56.8711C91.8281 57.4245 91.3522 57.8174 90.8652 58.0498C90.3893 58.2822 89.9798 58.3984 89.6367 58.3984C89.3711 58.3984 89.1055 58.3154 88.8398 58.1494C88.5853 57.9834 88.3529 57.7178 88.1426 57.3525C87.9323 56.9873 87.7607 56.5225 87.6279 55.958C87.4951 55.3825 87.4232 54.6908 87.4121 53.8828C87.401 53.3737 87.4564 52.8148 87.5781 52.2061C87.6999 51.5863 87.8659 50.9665 88.0762 50.3467C88.2975 49.7158 88.5576 49.1126 88.8564 48.5371C89.1663 47.9505 89.5039 47.4303 89.8691 46.9766C90.2344 46.5228 90.6273 46.1631 91.0479 45.8975C91.4684 45.6208 91.9001 45.4824 92.3428 45.4824ZM93.1729 50.5957C93.1729 50.5404 93.1839 50.402 93.2061 50.1807C93.2282 49.9482 93.2393 49.6826 93.2393 49.3838C93.2503 49.0739 93.2448 48.7529 93.2227 48.4209C93.2116 48.0889 93.1673 47.7845 93.0898 47.5078C93.0124 47.2201 92.8962 46.9876 92.7412 46.8105C92.5973 46.6224 92.4036 46.5283 92.1602 46.5283C91.9167 46.5283 91.6068 46.7386 91.2305 47.1592C90.8652 47.5798 90.5055 48.1608 90.1514 48.9023C89.8083 49.6439 89.5094 50.5293 89.2549 51.5586C89.0114 52.5768 88.8952 53.6891 88.9062 54.8955C88.9062 55.0173 88.9173 55.2165 88.9395 55.4932C88.9727 55.7588 89.0225 56.0299 89.0889 56.3066C89.1663 56.5833 89.2715 56.8268 89.4043 57.0371C89.5371 57.2474 89.7087 57.3525 89.9189 57.3525C90.2399 57.3525 90.5719 57.1478 90.915 56.7383C91.2692 56.3177 91.5957 55.7809 91.8945 55.1279C92.2044 54.4749 92.4701 53.75 92.6914 52.9531C92.9238 52.1452 93.0843 51.3594 93.1729 50.5957ZM107.716 57.2363C107.716 57.0039 107.738 56.7383 107.782 56.4395C107.838 56.1406 107.904 55.8363 107.981 55.5264C108.059 55.2054 108.136 54.8955 108.214 54.5967C108.291 54.2979 108.358 54.0322 108.413 53.7998C108.479 53.512 108.474 53.2907 108.396 53.1357C108.319 52.9808 108.186 52.9033 107.998 52.9033C107.91 52.9033 107.732 52.9808 107.467 53.1357C107.212 53.2907 106.93 53.5618 106.62 53.9492C106.321 54.3255 106.022 54.8402 105.724 55.4932C105.436 56.1351 105.209 56.9541 105.043 57.9502C104.833 58.0609 104.633 58.1328 104.445 58.166C104.346 58.1882 104.257 58.2048 104.18 58.2158C103.958 58.2269 103.814 58.1882 103.748 58.0996C103.682 58.0221 103.693 57.8229 103.781 57.502C103.826 57.347 103.903 57.098 104.014 56.7549C104.135 56.4118 104.252 56.041 104.362 55.6426C104.473 55.2331 104.567 54.8291 104.645 54.4307C104.733 54.0212 104.777 53.667 104.777 53.3682C104.777 53.1579 104.739 53.014 104.661 52.9365C104.595 52.859 104.495 52.8203 104.362 52.8203C104.263 52.8203 104.097 52.8757 103.864 52.9863C103.632 53.097 103.372 53.3128 103.084 53.6338C102.796 53.9548 102.508 54.403 102.221 54.9785C101.944 55.543 101.706 56.279 101.507 57.1865V57.1533C101.485 57.2419 101.463 57.3304 101.44 57.4189C101.418 57.4964 101.402 57.5794 101.391 57.668C101.38 57.7565 101.363 57.8395 101.341 57.917L100.511 58.2822C100.455 58.3044 100.383 58.321 100.295 58.332C100.217 58.3431 100.14 58.3265 100.062 58.2822C99.9961 58.249 99.9463 58.1715 99.9131 58.0498C99.8799 57.9281 99.891 57.7454 99.9463 57.502L100.992 53.1689C101.025 53.0251 101.053 52.8867 101.075 52.7539C101.097 52.6322 101.108 52.516 101.108 52.4053C101.119 52.2835 101.114 52.1839 101.092 52.1064C101.28 52.0179 101.446 51.9515 101.59 51.9072C101.734 51.863 101.85 51.8298 101.938 51.8076C102.049 51.7744 102.143 51.7578 102.221 51.7578C102.575 51.7578 102.691 52.0622 102.569 52.6709C102.525 52.848 102.459 53.1081 102.37 53.4512C102.58 53.1855 102.802 52.9365 103.034 52.7041C103.278 52.4606 103.521 52.2448 103.765 52.0566C104.008 51.8685 104.252 51.7191 104.495 51.6084C104.75 51.4977 104.999 51.4424 105.242 51.4424C105.43 51.4424 105.585 51.4977 105.707 51.6084C105.84 51.7191 105.939 51.8685 106.006 52.0566C106.083 52.2337 106.128 52.4495 106.139 52.7041C106.15 52.9476 106.139 53.2021 106.105 53.4678C106.283 53.2354 106.476 53.0029 106.687 52.7705C106.908 52.527 107.135 52.3112 107.367 52.123C107.611 51.9349 107.86 51.7799 108.114 51.6582C108.369 51.5365 108.623 51.4756 108.878 51.4756C109.177 51.4756 109.404 51.5641 109.559 51.7412C109.725 51.9183 109.835 52.1452 109.891 52.4219C109.957 52.6986 109.974 52.9974 109.94 53.3184C109.918 53.6393 109.874 53.9492 109.808 54.248L109.243 56.4893C109.121 57.0426 109.238 57.3193 109.592 57.3193C109.868 57.3193 110.173 57.1865 110.505 56.9209C110.837 56.6553 111.158 56.3398 111.468 55.9746C111.789 55.6094 112.088 55.2331 112.364 54.8457C112.641 54.4583 112.873 54.1484 113.062 53.916C113.128 53.8385 113.194 53.7943 113.261 53.7832C113.338 53.7721 113.399 53.7887 113.443 53.833C113.499 53.8662 113.526 53.9271 113.526 54.0156C113.537 54.1042 113.51 54.2148 113.443 54.3477C113.222 54.735 112.951 55.1667 112.63 55.6426C112.309 56.1074 111.955 56.5446 111.567 56.9541C111.191 57.3636 110.787 57.7067 110.355 57.9834C109.924 58.2601 109.476 58.3984 109.011 58.3984C108.856 58.3984 108.701 58.3818 108.546 58.3486C108.402 58.3154 108.264 58.2546 108.131 58.166C108.009 58.0775 107.91 57.9613 107.832 57.8174C107.755 57.6624 107.716 57.4688 107.716 57.2363ZM117.096 55.3604C116.985 55.7809 116.836 56.1738 116.647 56.5391C116.459 56.9043 116.232 57.2197 115.967 57.4854C115.712 57.751 115.419 57.9557 115.087 58.0996C114.766 58.2546 114.412 58.332 114.024 58.332C113.571 58.332 113.211 58.2324 112.945 58.0332C112.691 57.8451 112.497 57.6071 112.364 57.3193C112.243 57.0316 112.171 56.7161 112.148 56.373C112.115 56.0299 112.099 55.709 112.099 55.4102C112.099 55.1999 112.126 54.9674 112.182 54.7129C112.226 54.4583 112.292 54.1982 112.381 53.9326C112.469 53.667 112.58 53.4014 112.713 53.1357C112.857 52.8701 113.023 52.6266 113.211 52.4053C113.277 52.2171 113.377 52.0511 113.51 51.9072C113.654 51.7633 113.814 51.6471 113.991 51.5586C114.179 51.459 114.379 51.387 114.589 51.3428C114.799 51.2874 115.004 51.2598 115.203 51.2598C115.236 51.2598 115.264 51.2653 115.286 51.2764C115.319 51.2874 115.353 51.2985 115.386 51.3096C115.53 51.3206 115.707 51.376 115.917 51.4756C116.138 51.5752 116.349 51.7246 116.548 51.9238C116.758 52.123 116.935 52.3776 117.079 52.6875C117.223 52.9863 117.295 53.3516 117.295 53.7832C117.295 53.8717 117.289 53.9824 117.278 54.1152C117.267 54.237 117.256 54.3421 117.245 54.4307C117.5 54.3311 117.765 54.2093 118.042 54.0654C118.319 53.9215 118.584 53.7721 118.839 53.6172C119.104 53.4512 119.348 53.2852 119.569 53.1191C119.791 52.9531 119.968 52.8037 120.101 52.6709C120.211 52.5713 120.305 52.516 120.383 52.5049C120.46 52.4938 120.516 52.516 120.549 52.5713C120.582 52.6266 120.588 52.7041 120.565 52.8037C120.543 52.9033 120.482 53.014 120.383 53.1357C120.327 53.2021 120.184 53.335 119.951 53.5342C119.73 53.7334 119.464 53.9492 119.154 54.1816C118.844 54.4141 118.507 54.641 118.142 54.8623C117.776 55.0837 117.428 55.2497 117.096 55.3604ZM114.29 52.8369C114.257 52.9365 114.24 53.0417 114.24 53.1523C114.24 53.3294 114.251 53.5176 114.273 53.7168C114.296 53.9049 114.351 54.0765 114.439 54.2314C114.528 54.3864 114.666 54.5192 114.854 54.6299C115.054 54.7295 115.325 54.7793 115.668 54.7793C115.723 54.7793 115.779 54.7793 115.834 54.7793C115.889 54.7682 115.945 54.7572 116 54.7461C116.033 54.6022 116.061 54.4749 116.083 54.3643C116.116 54.2425 116.133 54.1374 116.133 54.0488C116.155 53.8385 116.155 53.6227 116.133 53.4014C116.111 53.18 116.066 52.9808 116 52.8037C115.945 52.6156 115.867 52.4661 115.768 52.3555C115.679 52.2337 115.568 52.1729 115.436 52.1729C115.225 52.1729 115.021 52.2337 114.821 52.3555C114.633 52.4661 114.456 52.6266 114.29 52.8369ZM113.228 55.7588C113.228 55.958 113.239 56.1572 113.261 56.3564C113.283 56.5446 113.327 56.7161 113.394 56.8711C113.46 57.015 113.549 57.1367 113.659 57.2363C113.77 57.3249 113.914 57.3691 114.091 57.3691C114.29 57.3691 114.473 57.3249 114.639 57.2363C114.805 57.1367 114.954 57.015 115.087 56.8711C115.22 56.7161 115.336 56.5446 115.436 56.3564C115.546 56.1572 115.64 55.9525 115.718 55.7422C115.64 55.7533 115.563 55.7643 115.485 55.7754C115.419 55.7754 115.341 55.7754 115.253 55.7754C114.832 55.7754 114.467 55.6536 114.157 55.4102C113.858 55.1556 113.626 54.8346 113.46 54.4473C113.394 54.6797 113.338 54.9066 113.294 55.1279C113.25 55.3493 113.228 55.5596 113.228 55.7588ZM118.241 57.917C118.164 58.0387 118.081 58.1162 117.992 58.1494C117.893 58.1937 117.81 58.1992 117.743 58.166C117.666 58.1439 117.616 58.0885 117.594 58C117.572 57.9115 117.594 57.8008 117.66 57.668C117.693 57.6016 117.771 57.4521 117.893 57.2197C118.003 56.9873 118.142 56.7106 118.308 56.3896C118.463 56.0576 118.634 55.7035 118.822 55.3271C119.01 54.9398 119.188 54.5745 119.354 54.2314C119.531 53.8883 119.691 53.584 119.835 53.3184C119.979 53.0417 120.084 52.8424 120.15 52.7207C120.029 52.61 119.946 52.5326 119.901 52.4883C119.857 52.4329 119.824 52.3223 119.802 52.1562C119.78 52.0124 119.813 51.8242 119.901 51.5918C119.99 51.3594 120.106 51.138 120.25 50.9277C120.394 50.7064 120.554 50.5182 120.731 50.3633C120.909 50.2083 121.08 50.1309 121.246 50.1309C121.556 50.1309 121.772 50.2305 121.894 50.4297C122.026 50.6289 122.104 50.8337 122.126 51.0439C122.148 51.1878 122.137 51.3704 122.093 51.5918C122.049 51.8132 121.965 52.0124 121.844 52.1895C121.877 52.2116 121.921 52.2393 121.977 52.2725C122.032 52.2946 122.12 52.3057 122.242 52.3057C122.419 52.3057 122.541 52.2946 122.607 52.2725C122.685 52.2503 122.801 52.2393 122.956 52.2393C123.144 52.2393 123.299 52.2891 123.421 52.3887C123.543 52.4772 123.642 52.5934 123.72 52.7373C123.797 52.8701 123.853 53.0195 123.886 53.1855C123.93 53.3405 123.958 53.4844 123.969 53.6172C124.002 53.8939 123.93 54.1816 123.753 54.4805C123.576 54.7793 123.36 55.1058 123.105 55.46C122.951 55.6813 122.796 55.9303 122.641 56.207C122.486 56.4837 122.419 56.7327 122.441 56.9541C122.464 57.098 122.502 57.2142 122.558 57.3027C122.613 57.3913 122.768 57.4355 123.022 57.4355C123.211 57.4355 123.415 57.3691 123.637 57.2363C123.869 57.0924 124.102 56.9154 124.334 56.7051C124.577 56.4837 124.815 56.2458 125.048 55.9912C125.28 55.7256 125.496 55.471 125.695 55.2275C125.895 54.973 126.061 54.7461 126.193 54.5469C126.337 54.3477 126.442 54.2038 126.509 54.1152C126.564 54.0267 126.636 53.9658 126.725 53.9326C126.813 53.8994 126.891 53.8994 126.957 53.9326C127.023 53.9658 127.062 54.0322 127.073 54.1318C127.095 54.2314 127.057 54.3643 126.957 54.5303C126.891 54.641 126.774 54.818 126.608 55.0615C126.453 55.305 126.26 55.5762 126.027 55.875C125.806 56.1738 125.557 56.4837 125.28 56.8047C125.004 57.1146 124.71 57.4023 124.4 57.668C124.102 57.9225 123.797 58.1328 123.487 58.2988C123.188 58.4648 122.901 58.5479 122.624 58.5479C122.336 58.5479 122.098 58.4925 121.91 58.3818C121.722 58.2712 121.567 58.1383 121.445 57.9834C121.335 57.8174 121.252 57.6403 121.196 57.4521C121.152 57.2529 121.135 57.0703 121.146 56.9043C121.158 56.7715 121.191 56.6331 121.246 56.4893C121.312 56.3343 121.384 56.1794 121.462 56.0244C121.55 55.8584 121.639 55.6979 121.728 55.543C121.827 55.377 121.916 55.2165 121.993 55.0615C122.181 54.7406 122.331 54.4694 122.441 54.248C122.563 54.0156 122.624 53.8219 122.624 53.667C122.624 53.5674 122.602 53.4788 122.558 53.4014C122.513 53.3239 122.441 53.2852 122.342 53.2852C122.275 53.2852 122.226 53.2907 122.192 53.3018C122.17 53.3018 122.143 53.3018 122.109 53.3018C122.087 53.3018 122.049 53.3073 121.993 53.3184C121.949 53.3184 121.877 53.3184 121.777 53.3184C121.633 53.3184 121.512 53.2962 121.412 53.252C121.312 53.2077 121.218 53.1745 121.13 53.1523C121.086 53.2298 120.986 53.3958 120.831 53.6504C120.676 53.9049 120.493 54.2038 120.283 54.5469C120.084 54.89 119.868 55.2497 119.636 55.626C119.414 56.0023 119.204 56.3564 119.005 56.6885C118.806 57.0094 118.64 57.2861 118.507 57.5186C118.363 57.7399 118.274 57.8727 118.241 57.917ZM133.299 54.5469C132.967 55.0339 132.59 55.5098 132.17 55.9746C131.749 56.4284 131.301 56.8379 130.825 57.2031C130.36 57.5573 129.879 57.8451 129.381 58.0664C128.894 58.2878 128.418 58.3984 127.953 58.3984C127.71 58.3984 127.444 58.3376 127.156 58.2158C126.88 58.1051 126.625 57.9281 126.393 57.6846C126.16 57.4411 125.972 57.1257 125.828 56.7383C125.695 56.3509 125.657 55.8805 125.712 55.3271C125.756 54.8734 125.895 54.3975 126.127 53.8994C126.37 53.3903 126.664 52.9255 127.007 52.5049C127.361 52.0843 127.754 51.7357 128.186 51.459C128.628 51.1823 129.071 51.0439 129.514 51.0439C129.934 51.0439 130.239 51.1491 130.427 51.3594C130.615 51.5697 130.698 51.8298 130.676 52.1396C130.643 52.4827 130.543 52.7982 130.377 53.0859C130.222 53.3737 130.034 53.6338 129.812 53.8662C129.591 54.0986 129.353 54.3089 129.099 54.4971C128.855 54.6852 128.623 54.8568 128.401 55.0117C128.158 55.1777 127.925 55.3382 127.704 55.4932C127.483 55.637 127.289 55.7699 127.123 55.8916C127.134 56.1683 127.184 56.4007 127.272 56.5889C127.361 56.777 127.472 56.932 127.604 57.0537C127.737 57.1644 127.887 57.2474 128.053 57.3027C128.23 57.347 128.407 57.3691 128.584 57.3691C128.96 57.3691 129.353 57.2529 129.763 57.0205C130.172 56.777 130.571 56.4893 130.958 56.1572C131.356 55.8141 131.722 55.46 132.054 55.0947C132.397 54.7295 132.679 54.4141 132.9 54.1484C132.978 54.0599 133.055 54.0101 133.133 53.999C133.221 53.9769 133.288 53.988 133.332 54.0322C133.387 54.0654 133.415 54.1318 133.415 54.2314C133.415 54.32 133.376 54.4251 133.299 54.5469ZM129.049 51.9902C128.916 51.9902 128.756 52.0566 128.567 52.1895C128.39 52.3223 128.213 52.516 128.036 52.7705C127.859 53.014 127.693 53.3184 127.538 53.6836C127.383 54.0378 127.267 54.4473 127.189 54.9121C127.322 54.8125 127.466 54.7129 127.621 54.6133C127.776 54.5026 127.931 54.3864 128.086 54.2646C128.562 53.8994 128.894 53.5785 129.082 53.3018C129.27 53.0251 129.375 52.7871 129.397 52.5879C129.42 52.3776 129.397 52.2282 129.331 52.1396C129.265 52.04 129.171 51.9902 129.049 51.9902ZM136.237 57.917C136.16 58.0387 136.077 58.1162 135.988 58.1494C135.889 58.1937 135.806 58.1992 135.739 58.166C135.662 58.1439 135.612 58.0885 135.59 58C135.568 57.9115 135.59 57.8008 135.656 57.668C135.689 57.6016 135.767 57.4521 135.889 57.2197C135.999 56.9873 136.138 56.7106 136.304 56.3896C136.459 56.0576 136.63 55.7035 136.818 55.3271C137.007 54.9398 137.184 54.5745 137.35 54.2314C137.527 53.8883 137.687 53.584 137.831 53.3184C137.975 53.0417 138.08 52.8424 138.146 52.7207C138.025 52.61 137.942 52.5326 137.897 52.4883C137.853 52.4329 137.82 52.3223 137.798 52.1562C137.776 52.0124 137.809 51.8242 137.897 51.5918C137.986 51.3594 138.102 51.138 138.246 50.9277C138.39 50.7064 138.55 50.5182 138.728 50.3633C138.905 50.2083 139.076 50.1309 139.242 50.1309C139.552 50.1309 139.768 50.2305 139.89 50.4297C140.022 50.6289 140.1 50.8337 140.122 51.0439C140.144 51.1878 140.133 51.3704 140.089 51.5918C140.045 51.8132 139.962 52.0124 139.84 52.1895C139.873 52.2116 139.917 52.2393 139.973 52.2725C140.028 52.2946 140.117 52.3057 140.238 52.3057C140.415 52.3057 140.537 52.2946 140.604 52.2725C140.681 52.2503 140.797 52.2393 140.952 52.2393C141.14 52.2393 141.295 52.2891 141.417 52.3887C141.539 52.4772 141.638 52.5934 141.716 52.7373C141.793 52.8701 141.849 53.0195 141.882 53.1855C141.926 53.3405 141.954 53.4844 141.965 53.6172C141.998 53.8939 141.926 54.1816 141.749 54.4805C141.572 54.7793 141.356 55.1058 141.102 55.46C140.947 55.6813 140.792 55.9303 140.637 56.207C140.482 56.4837 140.415 56.7327 140.438 56.9541C140.46 57.098 140.498 57.2142 140.554 57.3027C140.609 57.3913 140.764 57.4355 141.019 57.4355C141.207 57.4355 141.411 57.3691 141.633 57.2363C141.865 57.0924 142.098 56.9154 142.33 56.7051C142.574 56.4837 142.812 56.2458 143.044 55.9912C143.276 55.7256 143.492 55.471 143.691 55.2275C143.891 54.973 144.057 54.7461 144.189 54.5469C144.333 54.3477 144.438 54.2038 144.505 54.1152C144.56 54.0267 144.632 53.9658 144.721 53.9326C144.809 53.8994 144.887 53.8994 144.953 53.9326C145.02 53.9658 145.058 54.0322 145.069 54.1318C145.091 54.2314 145.053 54.3643 144.953 54.5303C144.887 54.641 144.771 54.818 144.604 55.0615C144.45 55.305 144.256 55.5762 144.023 55.875C143.802 56.1738 143.553 56.4837 143.276 56.8047C143 57.1146 142.706 57.4023 142.396 57.668C142.098 57.9225 141.793 58.1328 141.483 58.2988C141.185 58.4648 140.897 58.5479 140.62 58.5479C140.332 58.5479 140.094 58.4925 139.906 58.3818C139.718 58.2712 139.563 58.1383 139.441 57.9834C139.331 57.8174 139.248 57.6403 139.192 57.4521C139.148 57.2529 139.132 57.0703 139.143 56.9043C139.154 56.7715 139.187 56.6331 139.242 56.4893C139.309 56.3343 139.381 56.1794 139.458 56.0244C139.547 55.8584 139.635 55.6979 139.724 55.543C139.823 55.377 139.912 55.2165 139.989 55.0615C140.177 54.7406 140.327 54.4694 140.438 54.248C140.559 54.0156 140.62 53.8219 140.62 53.667C140.62 53.5674 140.598 53.4788 140.554 53.4014C140.509 53.3239 140.438 53.2852 140.338 53.2852C140.271 53.2852 140.222 53.2907 140.188 53.3018C140.166 53.3018 140.139 53.3018 140.105 53.3018C140.083 53.3018 140.045 53.3073 139.989 53.3184C139.945 53.3184 139.873 53.3184 139.773 53.3184C139.63 53.3184 139.508 53.2962 139.408 53.252C139.309 53.2077 139.215 53.1745 139.126 53.1523C139.082 53.2298 138.982 53.3958 138.827 53.6504C138.672 53.9049 138.49 54.2038 138.279 54.5469C138.08 54.89 137.864 55.2497 137.632 55.626C137.41 56.0023 137.2 56.3564 137.001 56.6885C136.802 57.0094 136.636 57.2861 136.503 57.5186C136.359 57.7399 136.271 57.8727 136.237 57.917ZM151.295 54.5469C150.963 55.0339 150.587 55.5098 150.166 55.9746C149.745 56.4284 149.297 56.8379 148.821 57.2031C148.356 57.5573 147.875 57.8451 147.377 58.0664C146.89 58.2878 146.414 58.3984 145.949 58.3984C145.706 58.3984 145.44 58.3376 145.152 58.2158C144.876 58.1051 144.621 57.9281 144.389 57.6846C144.156 57.4411 143.968 57.1257 143.824 56.7383C143.691 56.3509 143.653 55.8805 143.708 55.3271C143.752 54.8734 143.891 54.3975 144.123 53.8994C144.367 53.3903 144.66 52.9255 145.003 52.5049C145.357 52.0843 145.75 51.7357 146.182 51.459C146.624 51.1823 147.067 51.0439 147.51 51.0439C147.93 51.0439 148.235 51.1491 148.423 51.3594C148.611 51.5697 148.694 51.8298 148.672 52.1396C148.639 52.4827 148.539 52.7982 148.373 53.0859C148.218 53.3737 148.03 53.6338 147.809 53.8662C147.587 54.0986 147.349 54.3089 147.095 54.4971C146.851 54.6852 146.619 54.8568 146.397 55.0117C146.154 55.1777 145.922 55.3382 145.7 55.4932C145.479 55.637 145.285 55.7699 145.119 55.8916C145.13 56.1683 145.18 56.4007 145.269 56.5889C145.357 56.777 145.468 56.932 145.601 57.0537C145.733 57.1644 145.883 57.2474 146.049 57.3027C146.226 57.347 146.403 57.3691 146.58 57.3691C146.956 57.3691 147.349 57.2529 147.759 57.0205C148.168 56.777 148.567 56.4893 148.954 56.1572C149.353 55.8141 149.718 55.46 150.05 55.0947C150.393 54.7295 150.675 54.4141 150.896 54.1484C150.974 54.0599 151.051 54.0101 151.129 53.999C151.217 53.9769 151.284 53.988 151.328 54.0322C151.383 54.0654 151.411 54.1318 151.411 54.2314C151.411 54.32 151.372 54.4251 151.295 54.5469ZM147.045 51.9902C146.912 51.9902 146.752 52.0566 146.563 52.1895C146.386 52.3223 146.209 52.516 146.032 52.7705C145.855 53.014 145.689 53.3184 145.534 53.6836C145.379 54.0378 145.263 54.4473 145.186 54.9121C145.318 54.8125 145.462 54.7129 145.617 54.6133C145.772 54.5026 145.927 54.3864 146.082 54.2646C146.558 53.8994 146.89 53.5785 147.078 53.3018C147.266 53.0251 147.371 52.7871 147.394 52.5879C147.416 52.3776 147.394 52.2282 147.327 52.1396C147.261 52.04 147.167 51.9902 147.045 51.9902ZM158.616 54.6963C158.461 54.9176 158.262 55.1943 158.019 55.5264C157.775 55.8473 157.521 56.1738 157.255 56.5059C157 56.8268 156.746 57.1257 156.491 57.4023C156.248 57.668 156.043 57.8561 155.877 57.9668C155.766 58.0332 155.639 58.0885 155.495 58.1328C155.351 58.1771 155.202 58.2048 155.047 58.2158C154.903 58.2269 154.765 58.2158 154.632 58.1826C154.499 58.1605 154.383 58.1162 154.283 58.0498C154.184 57.9723 154.101 57.8617 154.034 57.7178C153.979 57.596 153.924 57.4355 153.868 57.2363C153.824 57.0371 153.807 56.7881 153.818 56.4893C153.553 56.932 153.259 57.2751 152.938 57.5186C152.618 57.751 152.313 57.9225 152.025 58.0332C151.693 58.1549 151.361 58.2269 151.029 58.249C150.874 58.249 150.708 58.1937 150.531 58.083C150.354 57.9834 150.205 57.8229 150.083 57.6016C149.961 57.3691 149.884 57.0758 149.851 56.7217C149.817 56.3564 149.862 55.9248 149.983 55.4268C150.138 54.7516 150.382 54.1374 150.714 53.584C151.057 53.0306 151.428 52.5602 151.826 52.1729C152.225 51.7744 152.618 51.4756 153.005 51.2764C153.392 51.0771 153.713 50.9886 153.968 51.0107C154.267 51.0661 154.51 51.1546 154.698 51.2764C154.853 51.387 154.953 51.5531 154.997 51.7744C155.052 51.9847 154.964 52.2669 154.731 52.6211C154.886 52.5879 155.014 52.5658 155.113 52.5547C155.224 52.5436 155.307 52.5381 155.362 52.5381C155.429 52.5381 155.473 52.5436 155.495 52.5547C155.506 52.5768 155.512 52.6266 155.512 52.7041C155.512 52.7705 155.495 52.8978 155.462 53.0859C155.429 53.2741 155.379 53.5286 155.312 53.8496C155.246 54.1706 155.158 54.5856 155.047 55.0947C155.025 55.1943 155.003 55.2884 154.98 55.377C154.969 55.4544 154.953 55.5374 154.931 55.626C154.92 55.7035 154.903 55.7975 154.881 55.9082C154.859 56.0189 154.831 56.1572 154.798 56.3232C154.787 56.4229 154.781 56.5335 154.781 56.6553C154.792 56.766 154.814 56.8711 154.848 56.9707C154.881 57.0703 154.931 57.1533 154.997 57.2197C155.075 57.2751 155.18 57.3027 155.312 57.3027C155.423 57.3027 155.567 57.2363 155.744 57.1035C155.921 56.9596 156.109 56.7826 156.309 56.5723C156.508 56.3509 156.713 56.113 156.923 55.8584C157.144 55.5928 157.349 55.3382 157.537 55.0947C157.725 54.8512 157.891 54.6354 158.035 54.4473C158.19 54.2591 158.301 54.1208 158.367 54.0322C158.456 53.9326 158.544 53.8773 158.633 53.8662C158.721 53.8441 158.788 53.8662 158.832 53.9326C158.876 53.999 158.882 54.0986 158.849 54.2314C158.826 54.3643 158.749 54.5192 158.616 54.6963ZM153.752 55.4268C153.807 55.2054 153.874 54.9453 153.951 54.6465C154.029 54.3477 154.095 54.0599 154.15 53.7832C154.206 53.5065 154.244 53.2796 154.267 53.1025C154.3 52.9144 154.294 52.8258 154.25 52.8369C154.195 52.848 154.134 52.8646 154.067 52.8867C154.012 52.9089 153.94 52.9255 153.852 52.9365C153.763 52.9476 153.674 52.9642 153.586 52.9863C153.674 52.8092 153.724 52.6654 153.735 52.5547C153.757 52.4329 153.763 52.3389 153.752 52.2725C153.741 52.195 153.719 52.1341 153.686 52.0898C153.564 51.9902 153.348 52.0732 153.038 52.3389C152.739 52.5934 152.391 53.0693 151.992 53.7666C151.826 54.0544 151.693 54.3643 151.594 54.6963C151.494 55.0173 151.422 55.3216 151.378 55.6094C151.345 55.8971 151.339 56.1517 151.361 56.373C151.383 56.5833 151.428 56.7217 151.494 56.7881C151.616 56.9098 151.754 56.9707 151.909 56.9707C152.064 56.9596 152.219 56.9154 152.374 56.8379C152.54 56.7493 152.701 56.6387 152.855 56.5059C153.021 56.373 153.165 56.2347 153.287 56.0908C153.42 55.9469 153.525 55.8141 153.603 55.6924C153.691 55.5706 153.741 55.4821 153.752 55.4268ZM159.845 57.4355C159.911 57.4798 159.994 57.502 160.094 57.502C160.204 57.502 160.31 57.4798 160.409 57.4355C160.52 57.3913 160.619 57.3304 160.708 57.2529C160.808 57.1755 160.88 57.0758 160.924 56.9541C160.968 56.8324 160.968 56.6608 160.924 56.4395C160.88 56.207 160.808 55.9635 160.708 55.709C160.619 55.4434 160.52 55.1777 160.409 54.9121C160.299 54.6465 160.204 54.403 160.127 54.1816C160.061 54.0156 160.005 53.8607 159.961 53.7168C159.917 53.5951 159.872 53.4788 159.828 53.3682C159.795 53.2464 159.767 53.1634 159.745 53.1191C159.69 53.2077 159.59 53.3516 159.446 53.5508C159.313 53.75 159.164 53.9603 158.998 54.1816C158.843 54.3919 158.694 54.5911 158.55 54.7793C158.406 54.9564 158.306 55.0781 158.251 55.1445C158.162 55.2441 158.074 55.305 157.985 55.3271C157.908 55.3382 157.841 55.3216 157.786 55.2773C157.731 55.222 157.698 55.1501 157.687 55.0615C157.687 54.9619 157.731 54.8457 157.819 54.7129C157.886 54.6243 157.985 54.486 158.118 54.2979C158.251 54.0986 158.384 53.8994 158.517 53.7002C158.649 53.4899 158.771 53.3073 158.882 53.1523C158.993 52.9863 159.053 52.8867 159.064 52.8535C159.087 52.765 159.053 52.6488 158.965 52.5049C158.887 52.361 158.876 52.195 158.932 52.0068C158.976 51.8519 159.076 51.6748 159.23 51.4756C159.385 51.2653 159.568 51.0771 159.778 50.9111C159.989 50.7451 160.204 50.6234 160.426 50.5459C160.647 50.4574 160.846 50.4574 161.023 50.5459C161.167 50.6344 161.284 50.734 161.372 50.8447C161.461 50.9443 161.494 51.0495 161.472 51.1602C161.45 51.2155 161.416 51.2874 161.372 51.376C161.328 51.4645 161.261 51.5752 161.173 51.708C161.084 51.8298 160.957 51.9902 160.791 52.1895C160.824 52.444 160.868 52.6764 160.924 52.8867C160.99 53.097 161.051 53.2796 161.106 53.4346C161.173 53.6227 161.245 53.7943 161.322 53.9492C161.422 54.1484 161.527 54.3532 161.638 54.5635C161.748 54.7738 161.848 54.984 161.937 55.1943C162.025 55.3936 162.097 55.5817 162.152 55.7588C162.208 55.9359 162.224 56.0853 162.202 56.207C162.169 56.3952 162.069 56.6221 161.903 56.8877C161.748 57.1533 161.549 57.4134 161.306 57.668C161.073 57.9115 160.802 58.1217 160.492 58.2988C160.193 58.4759 159.878 58.5645 159.546 58.5645C159.313 58.5645 159.087 58.4925 158.865 58.3486C158.655 58.2048 158.472 58.0387 158.317 57.8506C158.174 57.6514 158.063 57.4577 157.985 57.2695C157.919 57.0814 157.913 56.9375 157.969 56.8379C158.035 56.7051 158.096 56.5999 158.151 56.5225C158.207 56.445 158.29 56.3564 158.4 56.2568C158.445 56.2236 158.5 56.1849 158.566 56.1406C158.622 56.1074 158.699 56.0742 158.799 56.041C158.898 56.0078 159.015 55.9691 159.147 55.9248C159.258 56.2679 159.358 56.5391 159.446 56.7383C159.535 56.9264 159.607 57.0758 159.662 57.1865C159.729 57.3083 159.789 57.3913 159.845 57.4355ZM168.395 55.3604C168.284 55.7809 168.134 56.1738 167.946 56.5391C167.758 56.9043 167.531 57.2197 167.266 57.4854C167.011 57.751 166.718 57.9557 166.386 58.0996C166.065 58.2546 165.711 58.332 165.323 58.332C164.869 58.332 164.51 58.2324 164.244 58.0332C163.99 57.8451 163.796 57.6071 163.663 57.3193C163.541 57.0316 163.469 56.7161 163.447 56.373C163.414 56.0299 163.397 55.709 163.397 55.4102C163.397 55.1999 163.425 54.9674 163.48 54.7129C163.525 54.4583 163.591 54.1982 163.68 53.9326C163.768 53.667 163.879 53.4014 164.012 53.1357C164.156 52.8701 164.322 52.6266 164.51 52.4053C164.576 52.2171 164.676 52.0511 164.809 51.9072C164.952 51.7633 165.113 51.6471 165.29 51.5586C165.478 51.459 165.677 51.387 165.888 51.3428C166.098 51.2874 166.303 51.2598 166.502 51.2598C166.535 51.2598 166.563 51.2653 166.585 51.2764C166.618 51.2874 166.651 51.2985 166.685 51.3096C166.828 51.3206 167.006 51.376 167.216 51.4756C167.437 51.5752 167.647 51.7246 167.847 51.9238C168.057 52.123 168.234 52.3776 168.378 52.6875C168.522 52.9863 168.594 53.3516 168.594 53.7832C168.594 53.8717 168.588 53.9824 168.577 54.1152C168.566 54.237 168.555 54.3421 168.544 54.4307C168.799 54.3311 169.064 54.2093 169.341 54.0654C169.618 53.9215 169.883 53.7721 170.138 53.6172C170.403 53.4512 170.647 53.2852 170.868 53.1191C171.09 52.9531 171.267 52.8037 171.399 52.6709C171.51 52.5713 171.604 52.516 171.682 52.5049C171.759 52.4938 171.814 52.516 171.848 52.5713C171.881 52.6266 171.886 52.7041 171.864 52.8037C171.842 52.9033 171.781 53.014 171.682 53.1357C171.626 53.2021 171.482 53.335 171.25 53.5342C171.029 53.7334 170.763 53.9492 170.453 54.1816C170.143 54.4141 169.806 54.641 169.44 54.8623C169.075 55.0837 168.727 55.2497 168.395 55.3604ZM165.589 52.8369C165.556 52.9365 165.539 53.0417 165.539 53.1523C165.539 53.3294 165.55 53.5176 165.572 53.7168C165.594 53.9049 165.65 54.0765 165.738 54.2314C165.827 54.3864 165.965 54.5192 166.153 54.6299C166.353 54.7295 166.624 54.7793 166.967 54.7793C167.022 54.7793 167.077 54.7793 167.133 54.7793C167.188 54.7682 167.243 54.7572 167.299 54.7461C167.332 54.6022 167.36 54.4749 167.382 54.3643C167.415 54.2425 167.432 54.1374 167.432 54.0488C167.454 53.8385 167.454 53.6227 167.432 53.4014C167.41 53.18 167.365 52.9808 167.299 52.8037C167.243 52.6156 167.166 52.4661 167.066 52.3555C166.978 52.2337 166.867 52.1729 166.734 52.1729C166.524 52.1729 166.319 52.2337 166.12 52.3555C165.932 52.4661 165.755 52.6266 165.589 52.8369ZM164.526 55.7588C164.526 55.958 164.537 56.1572 164.56 56.3564C164.582 56.5446 164.626 56.7161 164.692 56.8711C164.759 57.015 164.847 57.1367 164.958 57.2363C165.069 57.3249 165.213 57.3691 165.39 57.3691C165.589 57.3691 165.771 57.3249 165.938 57.2363C166.104 57.1367 166.253 57.015 166.386 56.8711C166.519 56.7161 166.635 56.5446 166.734 56.3564C166.845 56.1572 166.939 55.9525 167.017 55.7422C166.939 55.7533 166.862 55.7643 166.784 55.7754C166.718 55.7754 166.64 55.7754 166.552 55.7754C166.131 55.7754 165.766 55.6536 165.456 55.4102C165.157 55.1556 164.925 54.8346 164.759 54.4473C164.692 54.6797 164.637 54.9066 164.593 55.1279C164.549 55.3493 164.526 55.5596 164.526 55.7588ZM175.102 58.415C174.847 58.415 174.626 58.3652 174.438 58.2656C174.26 58.1771 174.117 58.0553 174.006 57.9004C173.895 57.7454 173.823 57.5684 173.79 57.3691C173.757 57.1589 173.768 56.9375 173.823 56.7051C173.856 56.5501 173.912 56.3454 173.989 56.0908C174.067 55.8252 174.144 55.543 174.222 55.2441C174.31 54.9342 174.388 54.6299 174.454 54.3311C174.532 54.0212 174.581 53.7445 174.604 53.501C174.626 53.2464 174.615 53.0417 174.57 52.8867C174.526 52.7207 174.432 52.6377 174.288 52.6377C174.111 52.6377 173.928 52.6986 173.74 52.8203C173.552 52.931 173.358 53.0859 173.159 53.2852C172.971 53.4844 172.777 53.7168 172.578 53.9824C172.39 54.237 172.202 54.5026 172.014 54.7793C171.914 55.1556 171.831 55.4876 171.765 55.7754C171.698 56.0521 171.637 56.3066 171.582 56.5391C171.538 56.7604 171.493 56.9596 171.449 57.1367C171.405 57.3027 171.366 57.4632 171.333 57.6182C171.3 57.7288 171.2 57.8395 171.034 57.9502C170.868 58.0498 170.691 58.1328 170.503 58.1992C170.315 58.2656 170.154 58.2988 170.021 58.2988C169.878 58.2988 169.817 58.249 169.839 58.1494C169.85 58.083 169.889 57.9336 169.955 57.7012C170.01 57.4688 170.082 57.1976 170.171 56.8877C170.248 56.5667 170.331 56.2292 170.42 55.875C170.508 55.5208 170.591 55.1833 170.669 54.8623C170.724 54.6077 170.785 54.3255 170.852 54.0156C170.907 53.75 170.973 53.4401 171.051 53.0859C171.139 52.7318 171.239 52.3444 171.35 51.9238C171.427 51.8574 171.505 51.8076 171.582 51.7744C171.671 51.7301 171.759 51.6969 171.848 51.6748C171.936 51.6416 172.03 51.6195 172.13 51.6084C172.218 51.6084 172.307 51.6139 172.396 51.625C172.473 51.6361 172.55 51.6582 172.628 51.6914C172.716 51.7135 172.794 51.7523 172.86 51.8076C172.827 51.8851 172.788 51.9958 172.744 52.1396C172.7 52.2725 172.656 52.4163 172.611 52.5713C172.567 52.7484 172.512 52.931 172.445 53.1191C172.589 52.9199 172.75 52.7207 172.927 52.5215C173.115 52.3112 173.314 52.123 173.524 51.957C173.746 51.791 173.978 51.6582 174.222 51.5586C174.465 51.4479 174.714 51.3926 174.969 51.3926C175.179 51.3926 175.367 51.4535 175.533 51.5752C175.699 51.6969 175.826 51.8685 175.915 52.0898C176.015 52.3001 176.07 52.5547 176.081 52.8535C176.103 53.1523 176.064 53.4788 175.965 53.833L175.782 54.5635C175.727 54.7959 175.655 55.0726 175.566 55.3936C175.489 55.7035 175.389 56.0465 175.268 56.4229C175.201 56.6663 175.174 56.8766 175.185 57.0537C175.207 57.2308 175.317 57.3193 175.517 57.3193C175.716 57.3193 175.965 57.1976 176.264 56.9541C176.574 56.7106 176.883 56.4173 177.193 56.0742C177.503 55.7311 177.797 55.3825 178.073 55.0283C178.35 54.6631 178.56 54.3698 178.704 54.1484C178.804 54.0046 178.898 53.9105 178.986 53.8662C179.075 53.8219 179.141 53.8164 179.186 53.8496C179.241 53.8828 179.269 53.9603 179.269 54.082C179.269 54.1927 179.224 54.3366 179.136 54.5137C179.058 54.6686 178.937 54.8734 178.771 55.1279C178.616 55.3825 178.427 55.6536 178.206 55.9414C177.985 56.2292 177.747 56.5225 177.492 56.8213C177.238 57.109 176.972 57.3747 176.695 57.6182C176.419 57.8506 176.142 58.0387 175.865 58.1826C175.6 58.3376 175.345 58.415 175.102 58.415ZM180.364 57.4355C180.431 57.4798 180.514 57.502 180.613 57.502C180.724 57.502 180.829 57.4798 180.929 57.4355C181.039 57.3913 181.139 57.3304 181.228 57.2529C181.327 57.1755 181.399 57.0758 181.443 56.9541C181.488 56.8324 181.488 56.6608 181.443 56.4395C181.399 56.207 181.327 55.9635 181.228 55.709C181.139 55.4434 181.039 55.1777 180.929 54.9121C180.818 54.6465 180.724 54.403 180.646 54.1816C180.58 54.0156 180.525 53.8607 180.48 53.7168C180.436 53.5951 180.392 53.4788 180.348 53.3682C180.314 53.2464 180.287 53.1634 180.265 53.1191C180.209 53.2077 180.11 53.3516 179.966 53.5508C179.833 53.75 179.684 53.9603 179.518 54.1816C179.363 54.3919 179.213 54.5911 179.069 54.7793C178.925 54.9564 178.826 55.0781 178.771 55.1445C178.682 55.2441 178.593 55.305 178.505 55.3271C178.427 55.3382 178.361 55.3216 178.306 55.2773C178.25 55.222 178.217 55.1501 178.206 55.0615C178.206 54.9619 178.25 54.8457 178.339 54.7129C178.405 54.6243 178.505 54.486 178.638 54.2979C178.771 54.0986 178.903 53.8994 179.036 53.7002C179.169 53.4899 179.291 53.3073 179.401 53.1523C179.512 52.9863 179.573 52.8867 179.584 52.8535C179.606 52.765 179.573 52.6488 179.484 52.5049C179.407 52.361 179.396 52.195 179.451 52.0068C179.495 51.8519 179.595 51.6748 179.75 51.4756C179.905 51.2653 180.088 51.0771 180.298 50.9111C180.508 50.7451 180.724 50.6234 180.945 50.5459C181.167 50.4574 181.366 50.4574 181.543 50.5459C181.687 50.6344 181.803 50.734 181.892 50.8447C181.98 50.9443 182.013 51.0495 181.991 51.1602C181.969 51.2155 181.936 51.2874 181.892 51.376C181.847 51.4645 181.781 51.5752 181.692 51.708C181.604 51.8298 181.477 51.9902 181.311 52.1895C181.344 52.444 181.388 52.6764 181.443 52.8867C181.51 53.097 181.571 53.2796 181.626 53.4346C181.692 53.6227 181.764 53.7943 181.842 53.9492C181.941 54.1484 182.047 54.3532 182.157 54.5635C182.268 54.7738 182.368 54.984 182.456 55.1943C182.545 55.3936 182.617 55.5817 182.672 55.7588C182.727 55.9359 182.744 56.0853 182.722 56.207C182.688 56.3952 182.589 56.6221 182.423 56.8877C182.268 57.1533 182.069 57.4134 181.825 57.668C181.593 57.9115 181.322 58.1217 181.012 58.2988C180.713 58.4759 180.397 58.5645 180.065 58.5645C179.833 58.5645 179.606 58.4925 179.385 58.3486C179.174 58.2048 178.992 58.0387 178.837 57.8506C178.693 57.6514 178.582 57.4577 178.505 57.2695C178.438 57.0814 178.433 56.9375 178.488 56.8379C178.555 56.7051 178.616 56.5999 178.671 56.5225C178.726 56.445 178.809 56.3564 178.92 56.2568C178.964 56.2236 179.02 56.1849 179.086 56.1406C179.141 56.1074 179.219 56.0742 179.318 56.041C179.418 56.0078 179.534 55.9691 179.667 55.9248C179.778 56.2679 179.877 56.5391 179.966 56.7383C180.054 56.9264 180.126 57.0758 180.182 57.1865C180.248 57.3083 180.309 57.3913 180.364 57.4355ZM145.534 79.1279C145.379 79.5264 145.202 79.9137 145.003 80.29C144.804 80.6663 144.582 81.0039 144.339 81.3027C144.095 81.6016 143.835 81.8395 143.559 82.0166C143.282 82.1937 142.983 82.2822 142.662 82.2822C142.142 82.2822 141.749 82.1107 141.483 81.7676C141.218 81.4134 141.035 80.9818 140.936 80.4727C140.781 80.7051 140.615 80.9375 140.438 81.1699C140.26 81.4023 140.072 81.6071 139.873 81.7842C139.674 81.9613 139.469 82.1051 139.259 82.2158C139.049 82.3265 138.838 82.3818 138.628 82.3818C138.34 82.3818 138.097 82.321 137.897 82.1992C137.698 82.0775 137.532 81.9115 137.399 81.7012C137.278 81.4798 137.189 81.2308 137.134 80.9541C137.078 80.6663 137.051 80.362 137.051 80.041V79.8418C137.051 79.4323 137.084 79.0117 137.15 78.5801C137.217 78.1484 137.289 77.75 137.366 77.3848C137.455 77.0195 137.543 76.7041 137.632 76.4385C137.72 76.1618 137.787 75.9792 137.831 75.8906C137.909 75.7799 138.075 75.6748 138.329 75.5752C138.595 75.4645 138.855 75.4202 139.109 75.4424C139.231 75.4535 139.292 75.5033 139.292 75.5918C139.303 75.6803 139.292 75.791 139.259 75.9238C139.215 76.112 139.137 76.3942 139.026 76.7705C138.916 77.1468 138.799 77.5563 138.678 77.999C138.567 78.4417 138.467 78.8789 138.379 79.3105C138.29 79.7422 138.246 80.1019 138.246 80.3896C138.246 80.7438 138.301 80.9984 138.412 81.1533C138.523 81.3083 138.694 81.3857 138.927 81.3857C139.203 81.3857 139.508 81.2308 139.84 80.9209C140.183 80.611 140.515 80.0853 140.836 79.3438C140.825 79.2773 140.819 79.2109 140.819 79.1445C140.819 79.0781 140.819 79.0062 140.819 78.9287C140.819 78.4307 140.836 77.9548 140.869 77.501C140.913 77.0472 140.991 76.6488 141.102 76.3057C141.223 75.9626 141.384 75.6914 141.583 75.4922C141.793 75.293 142.064 75.1934 142.396 75.1934C142.529 75.1934 142.64 75.2321 142.729 75.3096C142.817 75.387 142.861 75.4977 142.861 75.6416C142.861 75.9958 142.734 76.4993 142.479 77.1523C142.236 77.7943 141.943 78.5026 141.6 79.2773C141.566 79.3216 141.544 79.3659 141.533 79.4102C141.566 79.6204 141.605 79.8418 141.649 80.0742C141.705 80.3066 141.777 80.5225 141.865 80.7217C141.954 80.9098 142.059 81.0703 142.181 81.2031C142.302 81.3249 142.446 81.3857 142.612 81.3857C142.856 81.3857 143.077 81.2695 143.276 81.0371C143.487 80.8047 143.669 80.5225 143.824 80.1904C143.99 79.8584 144.134 79.5098 144.256 79.1445C144.378 78.7682 144.472 78.4362 144.538 78.1484C144.505 78.0267 144.477 77.9105 144.455 77.7998C144.433 77.6781 144.422 77.5397 144.422 77.3848C144.422 77.0417 144.472 76.7484 144.571 76.5049C144.671 76.2614 144.798 76.0622 144.953 75.9072C145.119 75.7412 145.291 75.6195 145.468 75.542C145.656 75.4645 145.827 75.4258 145.982 75.4258C146.259 75.4258 146.397 75.5475 146.397 75.791C146.397 75.9681 146.353 76.278 146.265 76.7207C146.176 77.1523 146.049 77.6449 145.883 78.1982C146.082 78.2868 146.337 78.3311 146.646 78.3311C146.934 78.3311 147.2 78.2979 147.443 78.2314C147.687 78.154 147.908 78.0599 148.107 77.9492C148.307 77.8385 148.489 77.7168 148.655 77.584C148.821 77.4512 148.982 77.3239 149.137 77.2021C149.258 77.1136 149.358 77.1081 149.436 77.1855C149.513 77.263 149.502 77.3848 149.402 77.5508C149.314 77.6947 149.159 77.8607 148.938 78.0488C148.727 78.237 148.467 78.4196 148.157 78.5967C147.858 78.7627 147.521 78.9066 147.145 79.0283C146.779 79.139 146.392 79.1943 145.982 79.1943C145.916 79.1943 145.844 79.1888 145.767 79.1777C145.689 79.1667 145.612 79.1501 145.534 79.1279ZM156.441 78.3477C156.519 78.2591 156.596 78.2148 156.674 78.2148C156.762 78.2038 156.829 78.2259 156.873 78.2812C156.928 78.3255 156.951 78.3975 156.939 78.4971C156.939 78.5967 156.895 78.7074 156.807 78.8291C156.596 79.1169 156.353 79.4157 156.076 79.7256C155.799 80.0244 155.501 80.3177 155.18 80.6055C154.87 80.8932 154.554 81.1644 154.233 81.4189C153.912 81.6735 153.603 81.8838 153.304 82.0498C152.972 82.238 152.689 82.332 152.457 82.332C152.236 82.332 152.014 82.1882 151.793 81.9004C151.594 81.6458 151.494 81.3747 151.494 81.0869C151.505 80.7881 151.572 80.4173 151.693 79.9746C151.771 79.6979 151.876 79.3714 152.009 78.9951C152.153 78.6077 152.263 78.237 152.341 77.8828C152.429 77.5286 152.457 77.2298 152.424 76.9863C152.391 76.7318 152.247 76.6045 151.992 76.6045C151.815 76.6045 151.621 76.6654 151.411 76.7871C151.212 76.9089 151.007 77.0693 150.797 77.2686C150.598 77.4567 150.404 77.6725 150.216 77.916C150.028 78.1595 149.862 78.3975 149.718 78.6299C149.629 79.0615 149.541 79.4876 149.452 79.9082C149.375 80.2624 149.292 80.6497 149.203 81.0703C149.126 81.4798 149.048 81.8451 148.971 82.166C148.904 82.2214 148.832 82.2601 148.755 82.2822C148.677 82.3044 148.605 82.3154 148.539 82.3154C148.462 82.3154 148.384 82.3099 148.307 82.2988C148.218 82.2767 148.135 82.2435 148.058 82.1992C147.991 82.1549 147.925 82.0941 147.858 82.0166C147.792 81.9502 147.742 81.8561 147.709 81.7344C148.207 79.6868 148.6 78.0433 148.888 76.8037C149.175 75.5641 149.397 74.6178 149.552 73.9648C149.729 73.1901 149.851 72.6533 149.917 72.3545C149.95 72.1442 149.978 71.9395 150 71.7402C150.022 71.5632 150.033 71.3805 150.033 71.1924C150.033 71.0042 150.017 70.8327 149.983 70.6777C150.072 70.6224 150.166 70.5781 150.266 70.5449C150.376 70.5117 150.481 70.484 150.581 70.4619C150.703 70.4287 150.825 70.401 150.946 70.3789C151.068 70.3568 151.179 70.3457 151.278 70.3457C151.367 70.3457 151.45 70.3568 151.527 70.3789C151.605 70.39 151.655 70.4232 151.677 70.4785C151.743 70.5339 151.771 70.6445 151.76 70.8105C151.76 70.9766 151.749 71.1481 151.727 71.3252C151.682 71.5355 151.632 71.7624 151.577 72.0059C151.345 72.9023 151.085 73.7767 150.797 74.6289C150.509 75.4701 150.243 76.3721 150 77.335C150.144 77.1136 150.315 76.8867 150.515 76.6543C150.714 76.4219 150.93 76.2116 151.162 76.0234C151.406 75.8242 151.66 75.6637 151.926 75.542C152.191 75.4092 152.474 75.3428 152.772 75.3428C152.927 75.3428 153.071 75.3704 153.204 75.4258C153.348 75.4701 153.47 75.5531 153.569 75.6748C153.68 75.7855 153.763 75.9404 153.818 76.1396C153.874 76.3278 153.896 76.5658 153.885 76.8535C153.885 77.0306 153.863 77.2132 153.818 77.4014C153.785 77.5895 153.735 77.7998 153.669 78.0322C153.603 78.2536 153.514 78.5026 153.403 78.7793C153.304 79.056 153.182 79.377 153.038 79.7422C152.938 79.9967 152.861 80.2126 152.806 80.3896C152.75 80.5667 152.761 80.7217 152.839 80.8545C152.938 81.0316 153.132 81.0758 153.42 80.9873C153.719 80.8877 154.161 80.5999 154.748 80.124C154.881 80.0133 155.03 79.875 155.196 79.709C155.362 79.543 155.523 79.377 155.678 79.2109C155.833 79.0339 155.977 78.8678 156.109 78.7129C156.242 78.5579 156.353 78.4362 156.441 78.3477ZM160.16 75.8906C160.304 75.7799 160.442 75.6969 160.575 75.6416C160.719 75.5752 160.846 75.5309 160.957 75.5088C161.079 75.4756 161.201 75.4645 161.322 75.4756C161.621 75.4977 161.804 75.5918 161.87 75.7578C161.948 75.9238 161.959 76.1895 161.903 76.5547C161.87 76.7428 161.804 76.9808 161.704 77.2686C161.604 77.5563 161.488 77.9105 161.355 78.3311C161.223 78.7406 161.079 79.2109 160.924 79.7422C160.78 80.2734 160.642 80.8711 160.509 81.5352C160.376 82.0775 160.232 82.7028 160.077 83.4111C159.944 84.0309 159.784 84.778 159.596 85.6523C159.419 86.5267 159.225 87.5283 159.015 88.6572C158.959 88.9339 158.838 89.0944 158.649 89.1387C158.472 89.1829 158.284 89.1608 158.085 89.0723C158.007 89.028 157.936 88.9782 157.869 88.9229C157.814 88.8675 157.753 88.8011 157.687 88.7236C157.62 88.6572 157.565 88.5632 157.521 88.4414C157.775 87.5117 157.996 86.665 158.185 85.9014C158.384 85.1377 158.561 84.4736 158.716 83.9092C158.882 83.2562 159.037 82.6696 159.181 82.1494C159.236 81.917 159.286 81.6901 159.33 81.4688C159.385 81.2363 159.441 81.0094 159.496 80.7881C159.352 81.0205 159.197 81.2419 159.031 81.4521C158.865 81.6624 158.683 81.8451 158.483 82C158.284 82.1549 158.068 82.2712 157.836 82.3486C157.615 82.4372 157.382 82.4648 157.139 82.4316C156.541 82.3542 156.115 82.1328 155.86 81.7676C155.617 81.4023 155.512 80.9264 155.545 80.3398C155.556 80.1074 155.589 79.8529 155.645 79.5762C155.7 79.2995 155.761 79.0339 155.827 78.7793C155.894 78.5247 155.954 78.2979 156.01 78.0986C156.076 77.8883 156.126 77.7389 156.159 77.6504C156.292 77.2298 156.386 76.8701 156.441 76.5713C156.508 76.2725 156.464 76.0234 156.309 75.8242C156.464 75.7246 156.607 75.6582 156.74 75.625C156.884 75.5807 157.011 75.5475 157.122 75.5254C157.244 75.5143 157.366 75.5143 157.487 75.5254C157.786 75.5697 157.958 75.6803 158.002 75.8574C158.057 76.0345 158.041 76.3001 157.952 76.6543C157.908 76.8424 157.836 77.0859 157.736 77.3848C157.637 77.6725 157.532 77.9714 157.421 78.2812C157.31 78.5911 157.211 78.8789 157.122 79.1445C157.034 79.3991 156.984 79.5817 156.973 79.6924C156.873 80.1904 156.868 80.5778 156.956 80.8545C157.045 81.1201 157.238 81.2529 157.537 81.2529C157.681 81.2529 157.841 81.1921 158.019 81.0703C158.196 80.9375 158.373 80.766 158.55 80.5557C158.738 80.3454 158.921 80.1074 159.098 79.8418C159.275 79.5651 159.435 79.2884 159.579 79.0117C159.734 78.735 159.867 78.4639 159.978 78.1982C160.099 77.9326 160.188 77.6947 160.243 77.4844C160.321 77.0749 160.37 76.7539 160.393 76.5215C160.415 76.2891 160.337 76.0788 160.16 75.8906ZM163.032 80.7383C163.32 80.694 163.547 80.7217 163.713 80.8213C163.89 80.9098 163.967 81.0814 163.945 81.3359C163.934 81.4798 163.873 81.6182 163.763 81.751C163.663 81.8727 163.536 81.9834 163.381 82.083C163.237 82.1826 163.082 82.2601 162.916 82.3154C162.75 82.3708 162.606 82.3984 162.484 82.3984C162.263 82.3984 162.069 82.3486 161.903 82.249C161.726 82.1494 161.649 81.9889 161.671 81.7676C161.682 81.6237 161.732 81.4964 161.82 81.3857C161.898 81.264 162.003 81.1589 162.136 81.0703C162.257 80.9818 162.396 80.9098 162.551 80.8545C162.717 80.7992 162.877 80.7604 163.032 80.7383ZM166.668 80.7383C166.956 80.694 167.183 80.7217 167.349 80.8213C167.526 80.9098 167.603 81.0814 167.581 81.3359C167.57 81.4798 167.509 81.6182 167.398 81.751C167.299 81.8727 167.172 81.9834 167.017 82.083C166.873 82.1826 166.718 82.2601 166.552 82.3154C166.386 82.3708 166.242 82.3984 166.12 82.3984C165.899 82.3984 165.705 82.3486 165.539 82.249C165.362 82.1494 165.285 81.9889 165.307 81.7676C165.318 81.6237 165.368 81.4964 165.456 81.3857C165.534 81.264 165.639 81.1589 165.771 81.0703C165.893 80.9818 166.032 80.9098 166.187 80.8545C166.353 80.7992 166.513 80.7604 166.668 80.7383ZM170.304 80.7383C170.591 80.694 170.818 80.7217 170.984 80.8213C171.161 80.9098 171.239 81.0814 171.217 81.3359C171.206 81.4798 171.145 81.6182 171.034 81.751C170.935 81.8727 170.807 81.9834 170.652 82.083C170.508 82.1826 170.354 82.2601 170.188 82.3154C170.021 82.3708 169.878 82.3984 169.756 82.3984C169.535 82.3984 169.341 82.3486 169.175 82.249C168.998 82.1494 168.92 81.9889 168.942 81.7676C168.953 81.6237 169.003 81.4964 169.092 81.3857C169.169 81.264 169.274 81.1589 169.407 81.0703C169.529 80.9818 169.667 80.9098 169.822 80.8545C169.988 80.7992 170.149 80.7604 170.304 80.7383ZM173.939 80.7383C174.227 80.694 174.454 80.7217 174.62 80.8213C174.797 80.9098 174.875 81.0814 174.853 81.3359C174.841 81.4798 174.781 81.6182 174.67 81.751C174.57 81.8727 174.443 81.9834 174.288 82.083C174.144 82.1826 173.989 82.2601 173.823 82.3154C173.657 82.3708 173.513 82.3984 173.392 82.3984C173.17 82.3984 172.977 82.3486 172.811 82.249C172.633 82.1494 172.556 81.9889 172.578 81.7676C172.589 81.6237 172.639 81.4964 172.728 81.3857C172.805 81.264 172.91 81.1589 173.043 81.0703C173.165 80.9818 173.303 80.9098 173.458 80.8545C173.624 80.7992 173.785 80.7604 173.939 80.7383ZM177.575 80.7383C177.863 80.694 178.09 80.7217 178.256 80.8213C178.433 80.9098 178.51 81.0814 178.488 81.3359C178.477 81.4798 178.416 81.6182 178.306 81.751C178.206 81.8727 178.079 81.9834 177.924 82.083C177.78 82.1826 177.625 82.2601 177.459 82.3154C177.293 82.3708 177.149 82.3984 177.027 82.3984C176.806 82.3984 176.612 82.3486 176.446 82.249C176.269 82.1494 176.192 81.9889 176.214 81.7676C176.225 81.6237 176.275 81.4964 176.363 81.3857C176.441 81.264 176.546 81.1589 176.679 81.0703C176.8 80.9818 176.939 80.9098 177.094 80.8545C177.26 80.7992 177.42 80.7604 177.575 80.7383ZM181.211 80.7383C181.499 80.694 181.726 80.7217 181.892 80.8213C182.069 80.9098 182.146 81.0814 182.124 81.3359C182.113 81.4798 182.052 81.6182 181.941 81.751C181.842 81.8727 181.715 81.9834 181.56 82.083C181.416 82.1826 181.261 82.2601 181.095 82.3154C180.929 82.3708 180.785 82.3984 180.663 82.3984C180.442 82.3984 180.248 82.3486 180.082 82.249C179.905 82.1494 179.827 81.9889 179.85 81.7676C179.861 81.6237 179.91 81.4964 179.999 81.3857C180.076 81.264 180.182 81.1589 180.314 81.0703C180.436 80.9818 180.575 80.9098 180.729 80.8545C180.896 80.7992 181.056 80.7604 181.211 80.7383Z" fill="#A83939"/>
</svg>
