<svg width="75" height="38" viewBox="0 0 75 38" fill="none" xmlns="http://www.w3.org/2000/svg">
<path d="M2.84668 10.4878C3.13444 10.4435 3.36133 10.4712 3.52734 10.5708C3.70443 10.6593 3.7819 10.8309 3.75977 11.0854C3.7487 11.2293 3.68783 11.3677 3.57715 11.5005C3.47754 11.6222 3.35026 11.7329 3.19531 11.8325C3.05143 11.9321 2.89648 12.0096 2.73047 12.0649C2.56445 12.1203 2.42057 12.1479 2.29883 12.1479C2.07747 12.1479 1.88379 12.0981 1.71777 11.9985C1.54069 11.8989 1.46322 11.7384 1.48535 11.5171C1.49642 11.3732 1.54622 11.2459 1.63477 11.1353C1.71224 11.0135 1.81738 10.9084 1.9502 10.8198C2.07194 10.7313 2.21029 10.6593 2.36523 10.604C2.53125 10.5487 2.69173 10.5099 2.84668 10.4878ZM6.48242 10.4878C6.77018 10.4435 6.99707 10.4712 7.16309 10.5708C7.34017 10.6593 7.41764 10.8309 7.39551 11.0854C7.38444 11.2293 7.32357 11.3677 7.21289 11.5005C7.11328 11.6222 6.986 11.7329 6.83105 11.8325C6.68717 11.9321 6.53223 12.0096 6.36621 12.0649C6.2002 12.1203 6.05632 12.1479 5.93457 12.1479C5.71322 12.1479 5.51953 12.0981 5.35352 11.9985C5.17643 11.8989 5.09896 11.7384 5.12109 11.5171C5.13216 11.3732 5.18197 11.2459 5.27051 11.1353C5.34798 11.0135 5.45312 10.9084 5.58594 10.8198C5.70768 10.7313 5.84603 10.6593 6.00098 10.604C6.16699 10.5487 6.32747 10.5099 6.48242 10.4878ZM10.1182 10.4878C10.4059 10.4435 10.6328 10.4712 10.7988 10.5708C10.9759 10.6593 11.0534 10.8309 11.0312 11.0854C11.0202 11.2293 10.9593 11.3677 10.8486 11.5005C10.749 11.6222 10.6217 11.7329 10.4668 11.8325C10.3229 11.9321 10.168 12.0096 10.002 12.0649C9.83594 12.1203 9.69206 12.1479 9.57031 12.1479C9.34896 12.1479 9.15527 12.0981 8.98926 11.9985C8.81217 11.8989 8.7347 11.7384 8.75684 11.5171C8.7679 11.3732 8.81771 11.2459 8.90625 11.1353C8.98372 11.0135 9.08887 10.9084 9.22168 10.8198C9.34342 10.7313 9.48177 10.6593 9.63672 10.604C9.80273 10.5487 9.96322 10.5099 10.1182 10.4878ZM13.7539 10.4878C14.0417 10.4435 14.2686 10.4712 14.4346 10.5708C14.6117 10.6593 14.6891 10.8309 14.667 11.0854C14.6559 11.2293 14.5951 11.3677 14.4844 11.5005C14.3848 11.6222 14.2575 11.7329 14.1025 11.8325C13.9587 11.9321 13.8037 12.0096 13.6377 12.0649C13.4717 12.1203 13.3278 12.1479 13.2061 12.1479C12.9847 12.1479 12.791 12.0981 12.625 11.9985C12.4479 11.8989 12.3704 11.7384 12.3926 11.5171C12.4036 11.3732 12.4535 11.2459 12.542 11.1353C12.6195 11.0135 12.7246 10.9084 12.8574 10.8198C12.9792 10.7313 13.1175 10.6593 13.2725 10.604C13.4385 10.5487 13.599 10.5099 13.7539 10.4878ZM17.3896 10.4878C17.6774 10.4435 17.9043 10.4712 18.0703 10.5708C18.2474 10.6593 18.3249 10.8309 18.3027 11.0854C18.2917 11.2293 18.2308 11.3677 18.1201 11.5005C18.0205 11.6222 17.8932 11.7329 17.7383 11.8325C17.5944 11.9321 17.4395 12.0096 17.2734 12.0649C17.1074 12.1203 16.9635 12.1479 16.8418 12.1479C16.6204 12.1479 16.4268 12.0981 16.2607 11.9985C16.0837 11.8989 16.0062 11.7384 16.0283 11.5171C16.0394 11.3732 16.0892 11.2459 16.1777 11.1353C16.2552 11.0135 16.3604 10.9084 16.4932 10.8198C16.6149 10.7313 16.7533 10.6593 16.9082 10.604C17.0742 10.5487 17.2347 10.5099 17.3896 10.4878ZM21.0254 10.4878C21.3132 10.4435 21.54 10.4712 21.7061 10.5708C21.8831 10.6593 21.9606 10.8309 21.9385 11.0854C21.9274 11.2293 21.8665 11.3677 21.7559 11.5005C21.6562 11.6222 21.529 11.7329 21.374 11.8325C21.2301 11.9321 21.0752 12.0096 20.9092 12.0649C20.7432 12.1203 20.5993 12.1479 20.4775 12.1479C20.2562 12.1479 20.0625 12.0981 19.8965 11.9985C19.7194 11.8989 19.6419 11.7384 19.6641 11.5171C19.6751 11.3732 19.7249 11.2459 19.8135 11.1353C19.891 11.0135 19.9961 10.9084 20.1289 10.8198C20.2507 10.7313 20.389 10.6593 20.5439 10.604C20.71 10.5487 20.8704 10.5099 21.0254 10.4878ZM32.4639 8.87744C32.3089 9.27588 32.1318 9.66325 31.9326 10.0396C31.7334 10.4159 31.512 10.7534 31.2686 11.0522C31.0251 11.3511 30.765 11.589 30.4883 11.7661C30.2116 11.9432 29.9128 12.0317 29.5918 12.0317C29.0716 12.0317 28.6787 11.8602 28.4131 11.5171C28.1475 11.1629 27.9648 10.7313 27.8652 10.2222C27.7103 10.4546 27.5443 10.687 27.3672 10.9194C27.1901 11.1519 27.002 11.3566 26.8027 11.5337C26.6035 11.7108 26.3988 11.8547 26.1885 11.9653C25.9782 12.076 25.7679 12.1313 25.5576 12.1313C25.2699 12.1313 25.0264 12.0705 24.8271 11.9487C24.6279 11.827 24.4619 11.661 24.3291 11.4507C24.2074 11.2293 24.1188 10.9803 24.0635 10.7036C24.0081 10.4159 23.9805 10.1115 23.9805 9.79053V9.59131C23.9805 9.1818 24.0137 8.76123 24.0801 8.32959C24.1465 7.89795 24.2184 7.49951 24.2959 7.13428C24.3844 6.76904 24.473 6.45361 24.5615 6.18799C24.6501 5.9113 24.7165 5.72868 24.7607 5.64014C24.8382 5.52946 25.0042 5.42432 25.2588 5.32471C25.5244 5.21403 25.7845 5.16976 26.0391 5.19189C26.1608 5.20296 26.2217 5.25277 26.2217 5.34131C26.2327 5.42985 26.2217 5.54053 26.1885 5.67334C26.1442 5.86149 26.0667 6.14372 25.9561 6.52002C25.8454 6.89632 25.7292 7.30583 25.6074 7.74854C25.4967 8.19124 25.3971 8.62842 25.3086 9.06006C25.2201 9.4917 25.1758 9.8514 25.1758 10.1392C25.1758 10.4933 25.2311 10.7479 25.3418 10.9028C25.4525 11.0578 25.624 11.1353 25.8564 11.1353C26.1331 11.1353 26.4375 10.9803 26.7695 10.6704C27.1126 10.3605 27.4447 9.8348 27.7656 9.09326C27.7546 9.02686 27.749 8.96045 27.749 8.89404C27.749 8.82764 27.749 8.7557 27.749 8.67822C27.749 8.18018 27.7656 7.70426 27.7988 7.25049C27.8431 6.79671 27.9206 6.39827 28.0312 6.05518C28.153 5.71208 28.3135 5.44092 28.5127 5.2417C28.723 5.04248 28.9941 4.94287 29.3262 4.94287C29.459 4.94287 29.5697 4.98161 29.6582 5.05908C29.7467 5.13656 29.791 5.24723 29.791 5.39111C29.791 5.74528 29.6637 6.24886 29.4092 6.90186C29.1657 7.54378 28.8724 8.25212 28.5293 9.02686C28.4961 9.07113 28.474 9.1154 28.4629 9.15967C28.4961 9.36995 28.5348 9.59131 28.5791 9.82373C28.6344 10.0562 28.7064 10.272 28.7949 10.4712C28.8835 10.6593 28.9886 10.8198 29.1104 10.9526C29.2321 11.0744 29.376 11.1353 29.542 11.1353C29.7855 11.1353 30.0068 11.019 30.2061 10.7866C30.4163 10.5542 30.599 10.272 30.7539 9.93994C30.9199 9.60791 31.0638 9.25928 31.1855 8.89404C31.3073 8.51774 31.4014 8.18571 31.4678 7.89795C31.4346 7.7762 31.4069 7.65999 31.3848 7.54932C31.3626 7.42757 31.3516 7.28923 31.3516 7.13428C31.3516 6.79118 31.4014 6.49788 31.501 6.25439C31.6006 6.0109 31.7279 5.81169 31.8828 5.65674C32.0488 5.49072 32.2204 5.36898 32.3975 5.2915C32.5856 5.21403 32.7572 5.17529 32.9121 5.17529C33.1888 5.17529 33.3271 5.29704 33.3271 5.54053C33.3271 5.71761 33.2829 6.02751 33.1943 6.47021C33.1058 6.90186 32.9785 7.39437 32.8125 7.94775C33.0117 8.0363 33.2663 8.08057 33.5762 8.08057C33.8639 8.08057 34.1296 8.04736 34.373 7.98096C34.6165 7.90348 34.8379 7.80941 35.0371 7.69873C35.2363 7.58805 35.4189 7.46631 35.585 7.3335C35.751 7.20068 35.9115 7.0734 36.0664 6.95166C36.1882 6.86312 36.2878 6.85758 36.3652 6.93506C36.4427 7.01253 36.4316 7.13428 36.332 7.30029C36.2435 7.44417 36.0885 7.61019 35.8672 7.79834C35.6569 7.98649 35.3968 8.16911 35.0869 8.34619C34.7881 8.51221 34.4505 8.65609 34.0742 8.77783C33.709 8.88851 33.3216 8.94385 32.9121 8.94385C32.8457 8.94385 32.7738 8.93831 32.6963 8.92725C32.6188 8.91618 32.5413 8.89958 32.4639 8.87744ZM43.3711 8.09717C43.4486 8.00863 43.526 7.96436 43.6035 7.96436C43.6921 7.95329 43.7585 7.97542 43.8027 8.03076C43.8581 8.07503 43.8802 8.14697 43.8691 8.24658C43.8691 8.34619 43.8249 8.45687 43.7363 8.57861C43.526 8.86637 43.2826 9.1652 43.0059 9.4751C42.7292 9.77393 42.4303 10.0672 42.1094 10.355C41.7995 10.6427 41.484 10.9139 41.1631 11.1685C40.8421 11.423 40.5322 11.6333 40.2334 11.7993C39.9014 11.9875 39.6191 12.0815 39.3867 12.0815C39.1654 12.0815 38.944 11.9377 38.7227 11.6499C38.5234 11.3953 38.4238 11.1242 38.4238 10.8364C38.4349 10.5376 38.5013 10.1668 38.623 9.72412C38.7005 9.44743 38.8057 9.12093 38.9385 8.74463C39.0824 8.35726 39.193 7.98649 39.2705 7.63232C39.359 7.27816 39.3867 6.97933 39.3535 6.73584C39.3203 6.48128 39.1764 6.354 38.9219 6.354C38.7448 6.354 38.5511 6.41488 38.3408 6.53662C38.1416 6.65837 37.9368 6.81885 37.7266 7.01807C37.5273 7.20622 37.3337 7.42204 37.1455 7.66553C36.9574 7.90902 36.7913 8.14697 36.6475 8.37939C36.5589 8.81104 36.4704 9.23714 36.3818 9.65771C36.3044 10.0119 36.2214 10.3993 36.1328 10.8198C36.0553 11.2293 35.9779 11.5946 35.9004 11.9155C35.834 11.9709 35.762 12.0096 35.6846 12.0317C35.6071 12.0539 35.5352 12.0649 35.4688 12.0649C35.3913 12.0649 35.3138 12.0594 35.2363 12.0483C35.1478 12.0262 35.0648 11.993 34.9873 11.9487C34.9209 11.9045 34.8545 11.8436 34.7881 11.7661C34.7217 11.6997 34.6719 11.6056 34.6387 11.4839C35.1367 9.43636 35.5296 7.79281 35.8174 6.55322C36.1051 5.31364 36.3265 4.36735 36.4814 3.71436C36.6585 2.93962 36.7803 2.40283 36.8467 2.104C36.8799 1.89372 36.9076 1.68896 36.9297 1.48975C36.9518 1.31266 36.9629 1.13005 36.9629 0.941895C36.9629 0.753743 36.9463 0.582194 36.9131 0.427246C37.0016 0.371908 37.0957 0.327637 37.1953 0.294434C37.306 0.26123 37.4111 0.233561 37.5107 0.211426C37.6325 0.178223 37.7542 0.150553 37.876 0.128418C37.9977 0.106283 38.1084 0.0952148 38.208 0.0952148C38.2965 0.0952148 38.3796 0.106283 38.457 0.128418C38.5345 0.139486 38.5843 0.172689 38.6064 0.228027C38.6729 0.283366 38.7005 0.394043 38.6895 0.560059C38.6895 0.726074 38.6784 0.897624 38.6562 1.07471C38.612 1.28499 38.5622 1.51188 38.5068 1.75537C38.2744 2.65186 38.0143 3.5262 37.7266 4.37842C37.4388 5.21956 37.1732 6.12158 36.9297 7.08447C37.0736 6.86312 37.2451 6.63623 37.4443 6.40381C37.6436 6.17139 37.8594 5.9611 38.0918 5.77295C38.3353 5.57373 38.5898 5.41325 38.8555 5.2915C39.1211 5.15869 39.4033 5.09229 39.7021 5.09229C39.8571 5.09229 40.001 5.11995 40.1338 5.17529C40.2777 5.21956 40.3994 5.30257 40.499 5.42432C40.6097 5.53499 40.6927 5.68994 40.748 5.88916C40.8034 6.07731 40.8255 6.31527 40.8145 6.60303C40.8145 6.78011 40.7923 6.96273 40.748 7.15088C40.7148 7.33903 40.665 7.54932 40.5986 7.78174C40.5322 8.00309 40.4437 8.25212 40.333 8.52881C40.2334 8.8055 40.1117 9.12646 39.9678 9.4917C39.8682 9.74626 39.7907 9.96208 39.7354 10.1392C39.68 10.3162 39.6911 10.4712 39.7686 10.604C39.8682 10.7811 40.0618 10.8254 40.3496 10.7368C40.6484 10.6372 41.0911 10.3494 41.6777 9.87354C41.8105 9.76286 41.96 9.62451 42.126 9.4585C42.292 9.29248 42.4525 9.12646 42.6074 8.96045C42.7624 8.78337 42.9062 8.61735 43.0391 8.4624C43.1719 8.30745 43.2826 8.18571 43.3711 8.09717ZM47.0898 5.64014C47.2337 5.52946 47.3721 5.44645 47.5049 5.39111C47.6488 5.32471 47.776 5.28044 47.8867 5.2583C48.0085 5.2251 48.1302 5.21403 48.252 5.2251C48.5508 5.24723 48.7334 5.34131 48.7998 5.50732C48.8773 5.67334 48.8883 5.93896 48.833 6.3042C48.7998 6.49235 48.7334 6.73031 48.6338 7.01807C48.5342 7.30583 48.418 7.65999 48.2852 8.08057C48.1523 8.49007 48.0085 8.96045 47.8535 9.4917C47.7096 10.0229 47.5713 10.6206 47.4385 11.2847C47.3057 11.827 47.1618 12.4523 47.0068 13.1606C46.874 13.7804 46.7135 14.5275 46.5254 15.4019C46.3483 16.2762 46.1546 17.2778 45.9443 18.4067C45.889 18.6834 45.7673 18.8439 45.5791 18.8882C45.402 18.9325 45.2139 18.9103 45.0146 18.8218C44.9372 18.7775 44.8652 18.7277 44.7988 18.6724C44.7435 18.617 44.6826 18.5506 44.6162 18.4731C44.5498 18.4067 44.4945 18.3127 44.4502 18.1909C44.7048 17.2612 44.9261 16.4146 45.1143 15.6509C45.3135 14.8872 45.4906 14.2231 45.6455 13.6587C45.8115 13.0057 45.9665 12.4191 46.1104 11.8989C46.1657 11.6665 46.2155 11.4396 46.2598 11.2183C46.3151 10.9858 46.3704 10.759 46.4258 10.5376C46.2819 10.77 46.127 10.9914 45.9609 11.2017C45.7949 11.4119 45.6123 11.5946 45.4131 11.7495C45.2139 11.9045 44.998 12.0207 44.7656 12.0981C44.5443 12.1867 44.3118 12.2144 44.0684 12.1812C43.4707 12.1037 43.0446 11.8823 42.79 11.5171C42.5465 11.1519 42.4414 10.6759 42.4746 10.0894C42.4857 9.85693 42.5189 9.60238 42.5742 9.32568C42.6296 9.04899 42.6904 8.78337 42.7568 8.52881C42.8232 8.27425 42.8841 8.04736 42.9395 7.84814C43.0059 7.63786 43.0557 7.48844 43.0889 7.3999C43.2217 6.97933 43.3158 6.61963 43.3711 6.3208C43.4375 6.02197 43.3932 5.77295 43.2383 5.57373C43.3932 5.47412 43.5371 5.40771 43.6699 5.37451C43.8138 5.33024 43.9411 5.29704 44.0518 5.2749C44.1735 5.26383 44.2952 5.26383 44.417 5.2749C44.7158 5.31917 44.8874 5.42985 44.9316 5.60693C44.987 5.78402 44.9704 6.04964 44.8818 6.40381C44.8376 6.59196 44.7656 6.83545 44.666 7.13428C44.5664 7.42204 44.4613 7.72087 44.3506 8.03076C44.2399 8.34066 44.1403 8.62842 44.0518 8.89404C43.9632 9.1486 43.9134 9.33122 43.9023 9.44189C43.8027 9.93994 43.7972 10.3273 43.8857 10.604C43.9743 10.8696 44.168 11.0024 44.4668 11.0024C44.6107 11.0024 44.7712 10.9416 44.9482 10.8198C45.1253 10.687 45.3024 10.5155 45.4795 10.3052C45.6676 10.0949 45.8503 9.85693 46.0273 9.59131C46.2044 9.31462 46.3649 9.03792 46.5088 8.76123C46.6637 8.48454 46.7965 8.21338 46.9072 7.94775C47.029 7.68213 47.1175 7.44417 47.1729 7.23389C47.2503 6.82438 47.3001 6.50342 47.3223 6.271C47.3444 6.03857 47.2669 5.82829 47.0898 5.64014ZM6.31641 31.5493C6.10612 31.328 5.93457 31.0568 5.80176 30.7358C5.68001 30.4038 5.58594 30.0773 5.51953 29.7563C5.44206 29.3911 5.38672 29.0037 5.35352 28.5942C5.29818 27.7974 5.38672 27.0724 5.61914 26.4194C5.85156 25.7664 6.16699 25.2075 6.56543 24.7427C6.96387 24.2778 7.40658 23.9181 7.89355 23.6636C8.3916 23.409 8.87305 23.2817 9.33789 23.2817C9.54818 23.2817 9.71419 23.3315 9.83594 23.4312C9.96875 23.5308 10.0684 23.6525 10.1348 23.7964C10.2012 23.9403 10.2399 24.0897 10.251 24.2446C10.2731 24.3996 10.2842 24.5269 10.2842 24.6265C10.2842 24.9806 10.2731 25.3293 10.251 25.6724C10.2399 26.0155 10.2122 26.3807 10.168 26.7681C10.1348 27.1554 10.0794 27.5705 10.002 28.0132C9.92448 28.4559 9.82487 28.9484 9.70312 29.4907C9.63672 29.7896 9.54264 30.1714 9.4209 30.6362C9.29915 31.1011 9.15527 31.6157 8.98926 32.1802C9.4873 32.1912 9.88574 32.2134 10.1846 32.2466C10.4945 32.2687 10.6937 32.2853 10.7822 32.2964C10.8597 32.3075 10.915 32.3462 10.9482 32.4126C10.9925 32.479 10.9704 32.5841 10.8818 32.728C10.7933 32.8608 10.666 32.9383 10.5 32.9604C10.3451 32.9826 10.1901 32.9937 10.0352 32.9937C9.94661 32.9937 9.7806 32.9937 9.53711 32.9937C9.30469 32.9937 9.02799 33.0047 8.70703 33.0269C8.47461 33.7131 8.20898 34.4048 7.91016 35.1021C7.6224 35.7882 7.30143 36.408 6.94727 36.9614C6.5931 37.5259 6.20573 37.9797 5.78516 38.3228C5.36458 38.6769 4.91634 38.854 4.44043 38.854C3.75423 38.854 3.17318 38.7212 2.69727 38.4556C2.23242 38.201 1.85612 37.8966 1.56836 37.5425C1.26953 37.1994 1.05371 36.8507 0.920898 36.4966C0.788086 36.1535 0.72168 35.8879 0.72168 35.6997C0.72168 35.3677 0.810221 35.0301 0.987305 34.687C1.16439 34.3439 1.44661 34.0229 1.83398 33.7241C2.21029 33.4142 2.7028 33.1431 3.31152 32.9106C3.92025 32.6782 4.65072 32.5011 5.50293 32.3794C5.8571 32.3351 6.19466 32.3019 6.51562 32.2798C6.83659 32.2466 7.14095 32.2189 7.42871 32.1968C7.65007 31.3667 7.87142 30.52 8.09277 29.6567C8.3252 28.7935 8.52441 27.9966 8.69043 27.2661C8.75684 26.9673 8.82324 26.6463 8.88965 26.3032C8.95605 25.9491 9.00586 25.617 9.03906 25.3071C9.08333 24.9972 9.10547 24.7371 9.10547 24.5269C9.11654 24.3166 9.0944 24.2004 9.03906 24.1782C9.00586 24.1672 8.92285 24.2114 8.79004 24.311C8.65723 24.3996 8.50228 24.5324 8.3252 24.7095C8.14811 24.8866 7.97103 25.1024 7.79395 25.3569C7.62793 25.6004 7.48958 25.866 7.37891 26.1538C7.17969 26.7183 7.02474 27.2716 6.91406 27.814C6.82552 28.2788 6.77018 28.7713 6.74805 29.2915C6.72591 29.8117 6.80892 30.2821 6.99707 30.7026C6.97493 30.8576 6.94173 30.9849 6.89746 31.0845C6.86426 31.1398 6.83659 31.1896 6.81445 31.2339C6.78125 31.2671 6.74251 31.3058 6.69824 31.3501C6.65397 31.3833 6.59863 31.422 6.53223 31.4663C6.47689 31.4995 6.40495 31.5272 6.31641 31.5493ZM6.11719 36.1812C6.23893 35.9266 6.38835 35.5337 6.56543 35.0024C6.74251 34.4712 6.93066 33.8569 7.12988 33.1597C6.58757 33.2261 6.03971 33.3201 5.48633 33.4419C4.93294 33.5526 4.42936 33.7075 3.97559 33.9067C3.53288 34.0949 3.16764 34.3273 2.87988 34.604C2.60319 34.8807 2.46484 35.2072 2.46484 35.5835C2.46484 35.9819 2.54232 36.3306 2.69727 36.6294C2.86328 36.9282 3.05697 37.1772 3.27832 37.3765C3.51074 37.5757 3.74316 37.7251 3.97559 37.8247C4.21908 37.9354 4.42383 37.9907 4.58984 37.9907C4.75586 37.9907 4.91081 37.9243 5.05469 37.7915C5.20964 37.6698 5.34798 37.5148 5.46973 37.3267C5.60254 37.1496 5.71875 36.9559 5.81836 36.7456C5.92904 36.5353 6.02865 36.3472 6.11719 36.1812ZM18.6348 30.105C18.0703 30.105 17.611 30.0441 17.2568 29.9224C16.9137 29.8006 16.6813 29.6457 16.5596 29.4575C16.5042 29.38 16.4544 29.2638 16.4102 29.1089C16.3659 28.9539 16.3825 28.7824 16.46 28.5942C16.6149 28.716 16.7809 28.8101 16.958 28.8765C17.1462 28.9318 17.3177 28.9705 17.4727 28.9927C17.6608 29.0259 17.8434 29.0425 18.0205 29.0425C18.3525 29.0425 18.6735 29.0148 18.9834 28.9595C19.3044 28.9041 19.6198 28.8267 19.9297 28.7271C20.0625 28.063 20.1898 27.4653 20.3115 26.9341C20.4443 26.4028 20.5938 25.9712 20.7598 25.6392C20.9368 25.2739 21.1195 24.9474 21.3076 24.6597C21.5068 24.3608 21.7227 24.1118 21.9551 23.9126C22.1986 23.7023 22.4642 23.5418 22.752 23.4312C23.0397 23.3205 23.3717 23.2651 23.748 23.2651C24.0247 23.2651 24.2406 23.3205 24.3955 23.4312C24.5615 23.5418 24.6833 23.6802 24.7607 23.8462C24.8493 24.0122 24.8991 24.1948 24.9102 24.394C24.9323 24.5822 24.9434 24.7593 24.9434 24.9253C24.9434 25.2905 24.8548 25.689 24.6777 26.1206C24.5007 26.5522 24.2516 26.9784 23.9307 27.3989C23.6097 27.8195 23.2223 28.2179 22.7686 28.5942C22.3258 28.9705 21.8278 29.2804 21.2744 29.5239C21.0863 30.2544 20.8981 30.9793 20.71 31.6987C20.5329 32.4071 20.3558 32.9937 20.1787 33.4585C20.0238 33.8901 19.8245 34.3716 19.5811 34.9028C19.3486 35.4341 19.0609 35.9432 18.7178 36.4302C18.9281 36.563 19.1383 36.7013 19.3486 36.8452C19.57 36.9891 19.7913 37.1164 20.0127 37.2271C20.234 37.3488 20.4554 37.4484 20.6768 37.5259C20.9092 37.6034 21.1527 37.6421 21.4072 37.6421C21.6729 37.631 21.9329 37.5923 22.1875 37.5259C22.4089 37.4705 22.6413 37.3765 22.8848 37.2437C23.1283 37.1219 23.3551 36.9448 23.5654 36.7124C23.6429 36.8452 23.665 37.0444 23.6318 37.3101C23.6097 37.5757 23.5267 37.8413 23.3828 38.1069C23.2389 38.3726 23.0342 38.605 22.7686 38.8042C22.5029 39.0034 22.1709 39.103 21.7725 39.103C21.3519 39.103 20.959 39.0422 20.5938 38.9204C20.2285 38.8097 19.8854 38.6714 19.5645 38.5054C19.2435 38.3394 18.9391 38.1567 18.6514 37.9575C18.3747 37.7694 18.1146 37.5923 17.8711 37.4263C17.5391 37.7472 17.1738 38.0073 16.7754 38.2065C16.377 38.4058 15.9342 38.5054 15.4473 38.5054C15.0599 38.5054 14.75 38.3947 14.5176 38.1733C14.2852 37.9631 14.18 37.6753 14.2021 37.3101C14.2132 37.1772 14.252 37.0168 14.3184 36.8286C14.3848 36.6515 14.512 36.48 14.7002 36.314C14.8773 36.1479 15.1263 36.0041 15.4473 35.8823C15.7682 35.7716 16.1833 35.7163 16.6924 35.7163C16.8805 35.7163 17.0576 35.7329 17.2236 35.7661C17.4007 35.8104 17.5723 35.8602 17.7383 35.9155C17.86 35.6942 17.9818 35.4396 18.1035 35.1519C18.2253 34.8641 18.3581 34.5376 18.502 34.1724C18.7565 33.4751 18.9779 32.7778 19.166 32.0806C19.3542 31.3722 19.5146 30.686 19.6475 30.022C19.4925 30.0552 19.3265 30.0773 19.1494 30.0884C18.9834 30.0994 18.8118 30.105 18.6348 30.105ZM15.8789 37.6089C16.0228 37.5535 16.1888 37.4982 16.377 37.4429C16.5651 37.3875 16.7809 37.2326 17.0244 36.978C16.8584 36.9227 16.7311 36.895 16.6426 36.895C16.2441 36.895 15.9564 36.9504 15.7793 37.061C15.5911 37.1828 15.4971 37.299 15.4971 37.4097C15.4971 37.4871 15.5303 37.5425 15.5967 37.5757C15.6631 37.62 15.7572 37.631 15.8789 37.6089ZM22.1543 26.0542C22.099 26.2202 22.027 26.4637 21.9385 26.7847C21.8499 27.1056 21.7559 27.4764 21.6562 27.897C22.2539 27.5096 22.7298 27.0669 23.084 26.5688C23.4492 26.0708 23.6318 25.5728 23.6318 25.0747C23.6318 24.7759 23.5433 24.6265 23.3662 24.6265C23.2113 24.6265 23.012 24.7482 22.7686 24.9917C22.5251 25.2241 22.3203 25.5783 22.1543 26.0542ZM29.1768 33.1099C29.0661 33.5304 28.9167 33.9233 28.7285 34.2886C28.5404 34.6538 28.3135 34.9692 28.0479 35.2349C27.7933 35.5005 27.5 35.7052 27.168 35.8491C26.847 36.0041 26.4928 36.0815 26.1055 36.0815C25.6517 36.0815 25.292 35.9819 25.0264 35.7827C24.7718 35.5946 24.5781 35.3566 24.4453 35.0688C24.3236 34.7811 24.2516 34.4657 24.2295 34.1226C24.1963 33.7795 24.1797 33.4585 24.1797 33.1597C24.1797 32.9494 24.2074 32.717 24.2627 32.4624C24.307 32.2078 24.3734 31.9478 24.4619 31.6821C24.5505 31.4165 24.6611 31.1509 24.7939 30.8853C24.9378 30.6196 25.1038 30.3761 25.292 30.1548C25.3584 29.9666 25.458 29.8006 25.5908 29.6567C25.7347 29.5129 25.8952 29.3966 26.0723 29.3081C26.2604 29.2085 26.4596 29.1366 26.6699 29.0923C26.8802 29.0369 27.085 29.0093 27.2842 29.0093C27.3174 29.0093 27.3451 29.0148 27.3672 29.0259C27.4004 29.0369 27.4336 29.048 27.4668 29.0591C27.6107 29.0701 27.7878 29.1255 27.998 29.2251C28.2194 29.3247 28.4297 29.4741 28.6289 29.6733C28.8392 29.8726 29.0163 30.1271 29.1602 30.437C29.304 30.7358 29.376 31.1011 29.376 31.5327C29.376 31.6213 29.3704 31.7319 29.3594 31.8647C29.3483 31.9865 29.3372 32.0916 29.3262 32.1802C29.5807 32.0806 29.8464 31.9588 30.123 31.8149C30.3997 31.6711 30.6654 31.5216 30.9199 31.3667C31.1855 31.2007 31.429 31.0347 31.6504 30.8687C31.8717 30.7026 32.0488 30.5532 32.1816 30.4204C32.2923 30.3208 32.3864 30.2655 32.4639 30.2544C32.5413 30.2433 32.5967 30.2655 32.6299 30.3208C32.6631 30.3761 32.6686 30.4536 32.6465 30.5532C32.6243 30.6528 32.5635 30.7635 32.4639 30.8853C32.4085 30.9517 32.2646 31.0845 32.0322 31.2837C31.8109 31.4829 31.5452 31.6987 31.2354 31.9312C30.9255 32.1636 30.5879 32.3905 30.2227 32.6118C29.8574 32.8332 29.5088 32.9992 29.1768 33.1099ZM26.3711 30.5864C26.3379 30.686 26.3213 30.7912 26.3213 30.9019C26.3213 31.0789 26.3324 31.2671 26.3545 31.4663C26.3766 31.6545 26.432 31.826 26.5205 31.981C26.609 32.1359 26.7474 32.2687 26.9355 32.3794C27.1348 32.479 27.4059 32.5288 27.749 32.5288C27.8044 32.5288 27.8597 32.5288 27.915 32.5288C27.9704 32.5177 28.0257 32.5067 28.0811 32.4956C28.1143 32.3517 28.1419 32.2244 28.1641 32.1138C28.1973 31.992 28.2139 31.8869 28.2139 31.7983C28.236 31.5881 28.236 31.3722 28.2139 31.1509C28.1917 30.9295 28.1475 30.7303 28.0811 30.5532C28.0257 30.3651 27.9482 30.2157 27.8486 30.105C27.7601 29.9832 27.6494 29.9224 27.5166 29.9224C27.3063 29.9224 27.1016 29.9832 26.9023 30.105C26.7142 30.2157 26.5371 30.3761 26.3711 30.5864ZM25.3086 33.5083C25.3086 33.7075 25.3197 33.9067 25.3418 34.106C25.3639 34.2941 25.4082 34.4657 25.4746 34.6206C25.541 34.7645 25.6296 34.8862 25.7402 34.9858C25.8509 35.0744 25.9948 35.1187 26.1719 35.1187C26.3711 35.1187 26.5537 35.0744 26.7197 34.9858C26.8857 34.8862 27.0352 34.7645 27.168 34.6206C27.3008 34.4657 27.417 34.2941 27.5166 34.106C27.6273 33.9067 27.7214 33.702 27.7988 33.4917C27.7214 33.5028 27.6439 33.5138 27.5664 33.5249C27.5 33.5249 27.4225 33.5249 27.334 33.5249C26.9134 33.5249 26.5482 33.4032 26.2383 33.1597C25.9395 32.9051 25.707 32.5841 25.541 32.1968C25.4746 32.4292 25.4193 32.6561 25.375 32.8774C25.3307 33.0988 25.3086 33.3091 25.3086 33.5083ZM35.8174 32.7944C35.5296 33.215 35.2308 33.6245 34.9209 34.0229C34.6221 34.4214 34.3288 34.7811 34.041 35.1021C33.7643 35.4119 33.5042 35.661 33.2607 35.8491C33.0283 36.0483 32.8402 36.1479 32.6963 36.1479C32.3532 36.1479 32.071 35.9875 31.8496 35.6665C31.6393 35.3345 31.4733 34.9305 31.3516 34.4546C31.2409 33.9676 31.1689 33.453 31.1357 32.9106C31.1136 32.3573 31.1191 31.8647 31.1523 31.4331C31.1966 31.0015 31.2464 30.6584 31.3018 30.4038C31.3571 30.1382 31.4235 29.9334 31.501 29.7896C31.5895 29.6457 31.6891 29.5405 31.7998 29.4741C31.9215 29.4077 32.071 29.3524 32.248 29.3081C32.3255 29.286 32.4141 29.2694 32.5137 29.2583C32.6133 29.2472 32.7018 29.2528 32.7793 29.2749C32.8678 29.286 32.9342 29.3192 32.9785 29.3745C33.0228 29.4299 33.0283 29.5129 32.9951 29.6235C32.973 29.7231 32.9342 29.8726 32.8789 30.0718C32.8346 30.2599 32.7848 30.4757 32.7295 30.7192C32.6742 30.9627 32.6188 31.2173 32.5635 31.4829C32.5192 31.7485 32.486 32.0031 32.4639 32.2466C32.4307 32.6672 32.4307 33.0379 32.4639 33.3589C32.4971 33.6688 32.5469 33.9344 32.6133 34.1558C32.6797 34.366 32.7516 34.5265 32.8291 34.6372C32.9066 34.7479 32.9674 34.8032 33.0117 34.8032C33.0671 34.8032 33.1667 34.7313 33.3105 34.5874C33.4655 34.4325 33.637 34.2332 33.8252 33.9897C34.0244 33.7463 34.2292 33.464 34.4395 33.1431C34.6608 32.8221 34.8656 32.4901 35.0537 32.147C34.9873 31.9699 34.9596 31.7596 34.9707 31.5161C35.0039 31.1398 35.0869 30.8022 35.2197 30.5034C35.3525 30.1935 35.502 29.9334 35.668 29.7231C35.8451 29.5129 36.0221 29.3524 36.1992 29.2417C36.3874 29.12 36.5534 29.0591 36.6973 29.0591C36.985 29.0591 37.1621 29.1366 37.2285 29.2915C37.306 29.4354 37.3337 29.5848 37.3115 29.7397C37.2894 29.9722 37.1842 30.2931 36.9961 30.7026C36.819 31.1011 36.5866 31.5382 36.2988 32.0142C36.3542 32.0363 36.415 32.0584 36.4814 32.0806C36.5479 32.1027 36.6253 32.1138 36.7139 32.1138C37.0902 32.1138 37.4277 32.0695 37.7266 31.981C38.0365 31.8924 38.3021 31.7873 38.5234 31.6655C38.7559 31.5438 38.9495 31.4165 39.1045 31.2837C39.2705 31.1398 39.4033 31.0236 39.5029 30.9351C39.5693 30.8687 39.6357 30.8354 39.7021 30.8354C39.7686 30.8354 39.8239 30.8521 39.8682 30.8853C39.9124 30.9185 39.9346 30.9683 39.9346 31.0347C39.9346 31.1011 39.9014 31.173 39.835 31.2505C39.4365 31.7375 38.9495 32.1304 38.374 32.4292C37.8096 32.728 37.1455 32.8774 36.3818 32.8774C36.3154 32.8774 36.2324 32.8719 36.1328 32.8608C36.0332 32.8498 35.9281 32.8276 35.8174 32.7944ZM45.7451 32.2964C45.4131 32.7834 45.0368 33.2593 44.6162 33.7241C44.1956 34.1779 43.7474 34.5874 43.2715 34.9526C42.8066 35.3068 42.3252 35.5946 41.8271 35.8159C41.3402 36.0373 40.8643 36.1479 40.3994 36.1479C40.1559 36.1479 39.8903 36.0871 39.6025 35.9653C39.3258 35.8547 39.0713 35.6776 38.8389 35.4341C38.6064 35.1906 38.4183 34.8752 38.2744 34.4878C38.1416 34.1004 38.1029 33.63 38.1582 33.0767C38.2025 32.6229 38.3408 32.147 38.5732 31.6489C38.8167 31.1398 39.11 30.675 39.4531 30.2544C39.8073 29.8338 40.2002 29.4852 40.6318 29.2085C41.0745 28.9318 41.5173 28.7935 41.96 28.7935C42.3805 28.7935 42.6849 28.8986 42.873 29.1089C43.0612 29.3192 43.1442 29.5793 43.1221 29.8892C43.0889 30.2323 42.9893 30.5477 42.8232 30.8354C42.6683 31.1232 42.4801 31.3833 42.2588 31.6157C42.0374 31.8481 41.7995 32.0584 41.5449 32.2466C41.3014 32.4347 41.069 32.6063 40.8477 32.7612C40.6042 32.9272 40.3717 33.0877 40.1504 33.2427C39.929 33.3866 39.7354 33.5194 39.5693 33.6411C39.5804 33.9178 39.6302 34.1502 39.7188 34.3384C39.8073 34.5265 39.918 34.6815 40.0508 34.8032C40.1836 34.9139 40.333 34.9969 40.499 35.0522C40.6761 35.0965 40.8532 35.1187 41.0303 35.1187C41.4066 35.1187 41.7995 35.0024 42.209 34.77C42.6185 34.5265 43.0169 34.2388 43.4043 33.9067C43.8027 33.5636 44.168 33.2095 44.5 32.8442C44.8431 32.479 45.1253 32.1636 45.3467 31.8979C45.4242 31.8094 45.5016 31.7596 45.5791 31.7485C45.6676 31.7264 45.734 31.7375 45.7783 31.7817C45.8337 31.8149 45.8613 31.8813 45.8613 31.981C45.8613 32.0695 45.8226 32.1746 45.7451 32.2964ZM41.4951 29.7397C41.3623 29.7397 41.2018 29.8062 41.0137 29.939C40.8366 30.0718 40.6595 30.2655 40.4824 30.52C40.3053 30.7635 40.1393 31.0679 39.9844 31.4331C39.8294 31.7873 39.7132 32.1968 39.6357 32.6616C39.7686 32.562 39.9124 32.4624 40.0674 32.3628C40.2223 32.2521 40.3773 32.1359 40.5322 32.0142C41.0081 31.6489 41.3402 31.328 41.5283 31.0513C41.7165 30.7746 41.8216 30.5366 41.8438 30.3374C41.8659 30.1271 41.8438 29.9777 41.7773 29.8892C41.7109 29.7896 41.6169 29.7397 41.4951 29.7397ZM51.9209 34.4712C51.1794 34.4712 50.637 34.2332 50.2939 33.7573C49.9619 33.2814 49.8236 32.6395 49.8789 31.8315C49.9232 31.3335 50.0173 30.6971 50.1611 29.9224C50.2829 29.2583 50.4655 28.4227 50.709 27.4155C50.9635 26.4084 51.3066 25.1909 51.7383 23.7632C51.8711 23.6746 52.0039 23.6082 52.1367 23.564C52.2806 23.5086 52.4079 23.4699 52.5186 23.4478C52.6403 23.4146 52.7676 23.3924 52.9004 23.3813C53 23.3703 53.1051 23.3647 53.2158 23.3647C53.3044 23.3647 53.3929 23.3758 53.4814 23.3979C53.57 23.409 53.6419 23.4367 53.6973 23.481C53.1328 24.9308 52.6901 26.1704 52.3691 27.1997C52.0592 28.229 51.8268 29.0757 51.6719 29.7397C51.4837 30.5145 51.3675 31.1509 51.3232 31.6489C51.29 32.2576 51.3786 32.6893 51.5889 32.9438C51.8102 33.1984 52.1367 33.3257 52.5684 33.3257C52.9115 33.3257 53.2601 33.1984 53.6143 32.9438C53.9684 32.6782 54.3115 32.3075 54.6436 31.8315C54.9756 31.3446 55.2799 30.7635 55.5566 30.0884C55.8444 29.4022 56.0879 28.633 56.2871 27.7808C56.3757 27.3049 56.4753 26.8289 56.5859 26.353C56.6745 25.9435 56.7741 25.5063 56.8848 25.0415C56.9954 24.5656 57.1006 24.1229 57.2002 23.7134C57.2998 23.6248 57.4049 23.5584 57.5156 23.5142C57.6374 23.4588 57.748 23.4146 57.8477 23.3813C57.9694 23.3371 58.0911 23.3094 58.2129 23.2983C58.3236 23.2873 58.4342 23.2873 58.5449 23.2983C58.6335 23.3094 58.722 23.326 58.8105 23.3481C58.9102 23.3703 58.9876 23.409 59.043 23.4644C58.8548 24.0509 58.6888 24.5822 58.5449 25.0581C58.4121 25.534 58.2959 25.9435 58.1963 26.2866C58.0745 26.6851 57.9694 27.0392 57.8809 27.3491C57.7923 27.6812 57.6872 28.1128 57.5654 28.644C57.4437 29.1089 57.2943 29.6955 57.1172 30.4038C56.9401 31.1121 56.7243 31.9865 56.4697 33.0269C56.4033 33.2925 56.3203 33.6245 56.2207 34.0229C56.1211 34.4214 55.9883 34.8364 55.8223 35.2681C55.6673 35.6997 55.4681 36.1258 55.2246 36.5464C54.9922 36.978 54.6989 37.3654 54.3447 37.7085C54.0016 38.0516 53.5921 38.3283 53.1162 38.5386C52.6403 38.7489 52.0869 38.854 51.4561 38.854C51.0908 38.8429 50.7643 38.7876 50.4766 38.688C50.222 38.5994 49.984 38.4666 49.7627 38.2896C49.5524 38.1235 49.4307 37.88 49.3975 37.5591C49.4528 37.4373 49.5137 37.3267 49.5801 37.2271C49.6465 37.1274 49.7129 37.0334 49.7793 36.9448C49.8568 36.8452 49.9342 36.7511 50.0117 36.6626C50.0892 36.5851 50.1722 36.5132 50.2607 36.4468C50.3382 36.3914 50.4212 36.3416 50.5098 36.2974C50.5983 36.2531 50.6868 36.231 50.7754 36.231C50.8197 36.3306 50.8861 36.4468 50.9746 36.5796C51.0632 36.7124 51.1738 36.8341 51.3066 36.9448C51.4395 37.0666 51.5889 37.1662 51.7549 37.2437C51.9209 37.3211 52.1035 37.3599 52.3027 37.3599C52.5684 37.3599 52.8506 37.2713 53.1494 37.0942C53.4482 36.9282 53.7415 36.6349 54.0293 36.2144C54.3281 35.8049 54.6159 35.2459 54.8926 34.5376C55.1693 33.8293 55.4294 32.9383 55.6729 31.8647C55.529 32.1193 55.3464 32.396 55.125 32.6948C54.9036 32.9937 54.638 33.2759 54.3281 33.5415C54.0293 33.8071 53.6751 34.0285 53.2656 34.2056C52.8672 34.3826 52.4189 34.4712 51.9209 34.4712ZM63.2764 33.1099C63.1657 33.5304 63.0163 33.9233 62.8281 34.2886C62.64 34.6538 62.4131 34.9692 62.1475 35.2349C61.8929 35.5005 61.5996 35.7052 61.2676 35.8491C60.9466 36.0041 60.5924 36.0815 60.2051 36.0815C59.7513 36.0815 59.3916 35.9819 59.126 35.7827C58.8714 35.5946 58.6777 35.3566 58.5449 35.0688C58.4232 34.7811 58.3512 34.4657 58.3291 34.1226C58.2959 33.7795 58.2793 33.4585 58.2793 33.1597C58.2793 32.9494 58.307 32.717 58.3623 32.4624C58.4066 32.2078 58.473 31.9478 58.5615 31.6821C58.6501 31.4165 58.7607 31.1509 58.8936 30.8853C59.0374 30.6196 59.2035 30.3761 59.3916 30.1548C59.458 29.9666 59.5576 29.8006 59.6904 29.6567C59.8343 29.5129 59.9948 29.3966 60.1719 29.3081C60.36 29.2085 60.5592 29.1366 60.7695 29.0923C60.9798 29.0369 61.1846 29.0093 61.3838 29.0093C61.417 29.0093 61.4447 29.0148 61.4668 29.0259C61.5 29.0369 61.5332 29.048 61.5664 29.0591C61.7103 29.0701 61.8874 29.1255 62.0977 29.2251C62.319 29.3247 62.5293 29.4741 62.7285 29.6733C62.9388 29.8726 63.1159 30.1271 63.2598 30.437C63.4036 30.7358 63.4756 31.1011 63.4756 31.5327C63.4756 31.6213 63.4701 31.7319 63.459 31.8647C63.4479 31.9865 63.4368 32.0916 63.4258 32.1802C63.6803 32.0806 63.946 31.9588 64.2227 31.8149C64.4993 31.6711 64.765 31.5216 65.0195 31.3667C65.2852 31.2007 65.5286 31.0347 65.75 30.8687C65.9714 30.7026 66.1484 30.5532 66.2812 30.4204C66.3919 30.3208 66.486 30.2655 66.5635 30.2544C66.641 30.2433 66.6963 30.2655 66.7295 30.3208C66.7627 30.3761 66.7682 30.4536 66.7461 30.5532C66.724 30.6528 66.6631 30.7635 66.5635 30.8853C66.5081 30.9517 66.3643 31.0845 66.1318 31.2837C65.9105 31.4829 65.6449 31.6987 65.335 31.9312C65.0251 32.1636 64.6875 32.3905 64.3223 32.6118C63.957 32.8332 63.6084 32.9992 63.2764 33.1099ZM60.4707 30.5864C60.4375 30.686 60.4209 30.7912 60.4209 30.9019C60.4209 31.0789 60.432 31.2671 60.4541 31.4663C60.4762 31.6545 60.5316 31.826 60.6201 31.981C60.7087 32.1359 60.847 32.2687 61.0352 32.3794C61.2344 32.479 61.5055 32.5288 61.8486 32.5288C61.904 32.5288 61.9593 32.5288 62.0146 32.5288C62.07 32.5177 62.1253 32.5067 62.1807 32.4956C62.2139 32.3517 62.2415 32.2244 62.2637 32.1138C62.2969 31.992 62.3135 31.8869 62.3135 31.7983C62.3356 31.5881 62.3356 31.3722 62.3135 31.1509C62.2913 30.9295 62.2471 30.7303 62.1807 30.5532C62.1253 30.3651 62.0479 30.2157 61.9482 30.105C61.8597 29.9832 61.749 29.9224 61.6162 29.9224C61.4059 29.9224 61.2012 29.9832 61.002 30.105C60.8138 30.2157 60.6367 30.3761 60.4707 30.5864ZM59.4082 33.5083C59.4082 33.7075 59.4193 33.9067 59.4414 34.106C59.4635 34.2941 59.5078 34.4657 59.5742 34.6206C59.6406 34.7645 59.7292 34.8862 59.8398 34.9858C59.9505 35.0744 60.0944 35.1187 60.2715 35.1187C60.4707 35.1187 60.6533 35.0744 60.8193 34.9858C60.9854 34.8862 61.1348 34.7645 61.2676 34.6206C61.4004 34.4657 61.5166 34.2941 61.6162 34.106C61.7269 33.9067 61.821 33.702 61.8984 33.4917C61.821 33.5028 61.7435 33.5138 61.666 33.5249C61.5996 33.5249 61.5221 33.5249 61.4336 33.5249C61.013 33.5249 60.6478 33.4032 60.3379 33.1597C60.0391 32.9051 59.8066 32.5841 59.6406 32.1968C59.5742 32.4292 59.5189 32.6561 59.4746 32.8774C59.4303 33.0988 59.4082 33.3091 59.4082 33.5083ZM67.1113 36.0151C66.6908 36.0151 66.3477 35.9487 66.082 35.8159C65.8164 35.6831 65.6061 35.5226 65.4512 35.3345C65.3073 35.1353 65.2021 34.925 65.1357 34.7036C65.0804 34.4712 65.0527 34.2609 65.0527 34.0728C65.0527 33.7407 65.0804 33.3921 65.1357 33.0269C65.1911 32.6506 65.2575 32.3075 65.335 31.9976C65.4124 31.6766 65.4788 31.4054 65.5342 31.1841C65.6006 30.9627 65.6449 30.8244 65.667 30.769C65.7666 30.4481 65.8939 30.1714 66.0488 29.939C66.2148 29.6955 66.4417 29.5295 66.7295 29.4409C66.8402 29.4188 66.9564 29.3966 67.0781 29.3745C67.1777 29.3634 67.2773 29.3579 67.377 29.3579C67.4876 29.3579 67.5872 29.3745 67.6758 29.4077C67.377 30.1714 67.139 30.8078 66.9619 31.3169C66.7959 31.826 66.6686 32.241 66.5801 32.562C66.4805 32.9272 66.4196 33.2205 66.3975 33.4419C66.3421 33.9399 66.3864 34.3162 66.5303 34.5708C66.6742 34.8254 66.9674 34.9526 67.4102 34.9526C67.6979 34.9526 67.9746 34.8475 68.2402 34.6372C68.5059 34.4159 68.7493 34.1336 68.9707 33.7905C68.9375 33.6134 68.9209 33.4308 68.9209 33.2427C68.9209 32.8885 68.9486 32.5454 69.0039 32.2134C69.0703 31.8703 69.1423 31.5549 69.2197 31.2671C69.3083 30.9683 69.3968 30.7026 69.4854 30.4702C69.585 30.2378 69.668 30.0552 69.7344 29.9224C69.8561 29.6567 69.9668 29.4963 70.0664 29.4409C70.166 29.3745 70.3265 29.3358 70.5479 29.3247C70.6364 29.3136 70.7083 29.3136 70.7637 29.3247C70.8301 29.3247 70.8854 29.3302 70.9297 29.3413C71.0625 29.3745 71.1289 29.4409 71.1289 29.5405C71.1289 29.7176 71.1178 29.9832 71.0957 30.3374C71.0736 30.6916 71.0072 31.0568 70.8965 31.4331C70.819 31.743 70.7415 32.0086 70.6641 32.23C70.5977 32.4403 70.5312 32.6229 70.4648 32.7778C70.3984 32.9217 70.332 33.0435 70.2656 33.1431C70.1992 33.2316 70.1383 33.3146 70.083 33.3921C70.1051 33.7241 70.1328 33.9897 70.166 34.189C70.1992 34.3882 70.238 34.5431 70.2822 34.6538C70.3376 34.7534 70.3984 34.8254 70.4648 34.8696C70.5423 34.9028 70.6253 34.9194 70.7139 34.9194C70.8688 34.9194 71.0514 34.8475 71.2617 34.7036C71.472 34.5487 71.6878 34.3605 71.9092 34.1392C72.1416 33.9067 72.3685 33.6577 72.5898 33.3921C72.8223 33.1154 73.0326 32.8553 73.2207 32.6118C73.4089 32.3683 73.5693 32.158 73.7021 31.981C73.835 31.7928 73.918 31.6766 73.9512 31.6323C74.0286 31.5327 74.1006 31.4718 74.167 31.4497C74.2445 31.4276 74.3053 31.4386 74.3496 31.4829C74.3939 31.5161 74.416 31.577 74.416 31.6655C74.4271 31.743 74.4049 31.8315 74.3496 31.9312C74.1283 32.3517 73.8516 32.8 73.5195 33.2759C73.1986 33.7407 72.8499 34.1724 72.4736 34.5708C72.1084 34.9692 71.7376 35.3013 71.3613 35.5669C70.985 35.8325 70.6309 35.9653 70.2988 35.9653C70 35.9653 69.762 35.8657 69.585 35.6665C69.4189 35.4562 69.2751 35.1574 69.1533 34.77C68.8988 35.1685 68.5999 35.4784 68.2568 35.6997C67.9137 35.91 67.5319 36.0151 67.1113 36.0151Z" fill="#C666A1"/>
</svg>
