<svg width="27" height="17" viewBox="0 0 27 17" fill="none" xmlns="http://www.w3.org/2000/svg">
<path d="M4.73926 7.35547C4.1748 7.35547 3.71549 7.2946 3.36133 7.17285C3.01823 7.05111 2.78581 6.89616 2.66406 6.70801C2.60872 6.63053 2.55892 6.51432 2.51465 6.35938C2.47038 6.20443 2.48698 6.03288 2.56445 5.84473C2.7194 5.96647 2.88542 6.06055 3.0625 6.12695C3.25065 6.18229 3.4222 6.22103 3.57715 6.24316C3.7653 6.27637 3.94792 6.29297 4.125 6.29297C4.45703 6.29297 4.77799 6.2653 5.08789 6.20996C5.40885 6.15462 5.72428 6.07715 6.03418 5.97754C6.16699 5.31348 6.29427 4.71582 6.41602 4.18457C6.54883 3.65332 6.69824 3.22168 6.86426 2.88965C7.04134 2.52441 7.22396 2.19792 7.41211 1.91016C7.61133 1.61133 7.82715 1.3623 8.05957 1.16309C8.30306 0.952799 8.56868 0.792318 8.85645 0.681641C9.14421 0.570964 9.47624 0.515625 9.85254 0.515625C10.1292 0.515625 10.3451 0.570964 10.5 0.681641C10.666 0.792318 10.7878 0.930664 10.8652 1.09668C10.9538 1.2627 11.0036 1.44531 11.0146 1.64453C11.0368 1.83268 11.0479 2.00977 11.0479 2.17578C11.0479 2.54102 10.9593 2.93945 10.7822 3.37109C10.6051 3.80273 10.3561 4.22884 10.0352 4.64941C9.71419 5.06999 9.32682 5.46842 8.87305 5.84473C8.43034 6.22103 7.93229 6.53092 7.37891 6.77441C7.19076 7.50488 7.0026 8.22982 6.81445 8.94922C6.63737 9.65755 6.46029 10.2441 6.2832 10.709C6.12826 11.1406 5.92904 11.6221 5.68555 12.1533C5.45312 12.6846 5.16536 13.1937 4.82227 13.6807C5.03255 13.8135 5.24284 13.9518 5.45312 14.0957C5.67448 14.2396 5.89583 14.3669 6.11719 14.4775C6.33854 14.5993 6.5599 14.6989 6.78125 14.7764C7.01367 14.8538 7.25716 14.8926 7.51172 14.8926C7.77734 14.8815 8.03743 14.8428 8.29199 14.7764C8.51335 14.721 8.74577 14.627 8.98926 14.4941C9.23275 14.3724 9.45964 14.1953 9.66992 13.9629C9.7474 14.0957 9.76953 14.2949 9.73633 14.5605C9.71419 14.8262 9.63118 15.0918 9.4873 15.3574C9.34342 15.623 9.13867 15.8555 8.87305 16.0547C8.60742 16.2539 8.27539 16.3535 7.87695 16.3535C7.45638 16.3535 7.06348 16.2926 6.69824 16.1709C6.33301 16.0602 5.98991 15.9219 5.66895 15.7559C5.34798 15.5898 5.04362 15.4072 4.75586 15.208C4.47917 15.0199 4.21908 14.8428 3.97559 14.6768C3.64355 14.9977 3.27832 15.2578 2.87988 15.457C2.48145 15.6562 2.03874 15.7559 1.55176 15.7559C1.16439 15.7559 0.854492 15.6452 0.62207 15.4238C0.389648 15.2135 0.284505 14.9258 0.306641 14.5605C0.317708 14.4277 0.356445 14.2673 0.422852 14.0791C0.489258 13.902 0.616536 13.7305 0.804688 13.5645C0.981771 13.3984 1.23079 13.2546 1.55176 13.1328C1.87272 13.0221 2.28776 12.9668 2.79688 12.9668C2.98503 12.9668 3.16211 12.9834 3.32812 13.0166C3.50521 13.0609 3.67676 13.1107 3.84277 13.166C3.96452 12.9447 4.08626 12.6901 4.20801 12.4023C4.32975 12.1146 4.46257 11.7881 4.60645 11.4229C4.861 10.7256 5.08236 10.0283 5.27051 9.33105C5.45866 8.62272 5.61914 7.93652 5.75195 7.27246C5.59701 7.30566 5.43099 7.3278 5.25391 7.33887C5.08789 7.34993 4.91634 7.35547 4.73926 7.35547ZM1.9834 14.8594C2.12728 14.804 2.29329 14.7487 2.48145 14.6934C2.6696 14.638 2.88542 14.4831 3.12891 14.2285C2.96289 14.1732 2.83561 14.1455 2.74707 14.1455C2.34863 14.1455 2.06087 14.2008 1.88379 14.3115C1.69564 14.4333 1.60156 14.5495 1.60156 14.6602C1.60156 14.7376 1.63477 14.793 1.70117 14.8262C1.76758 14.8704 1.86165 14.8815 1.9834 14.8594ZM8.25879 3.30469C8.20345 3.4707 8.13151 3.71419 8.04297 4.03516C7.95443 4.35612 7.86035 4.72689 7.76074 5.14746C8.3584 4.76009 8.83431 4.31738 9.18848 3.81934C9.55371 3.32129 9.73633 2.82324 9.73633 2.3252C9.73633 2.02637 9.64779 1.87695 9.4707 1.87695C9.31576 1.87695 9.11654 1.9987 8.87305 2.24219C8.62956 2.47461 8.4248 2.82878 8.25879 3.30469ZM15.2812 10.3604C15.1706 10.7809 15.0212 11.1738 14.833 11.5391C14.6449 11.9043 14.418 12.2197 14.1523 12.4854C13.8978 12.751 13.6045 12.9557 13.2725 13.0996C12.9515 13.2546 12.5973 13.332 12.21 13.332C11.7562 13.332 11.3965 13.2324 11.1309 13.0332C10.8763 12.8451 10.6826 12.6071 10.5498 12.3193C10.4281 12.0316 10.3561 11.7161 10.334 11.373C10.3008 11.0299 10.2842 10.709 10.2842 10.4102C10.2842 10.1999 10.3118 9.96745 10.3672 9.71289C10.4115 9.45833 10.4779 9.19824 10.5664 8.93262C10.6549 8.66699 10.7656 8.40137 10.8984 8.13574C11.0423 7.87012 11.2083 7.62663 11.3965 7.40527C11.4629 7.21712 11.5625 7.05111 11.6953 6.90723C11.8392 6.76335 11.9997 6.64714 12.1768 6.55859C12.3649 6.45898 12.5641 6.38704 12.7744 6.34277C12.9847 6.28743 13.1895 6.25977 13.3887 6.25977C13.4219 6.25977 13.4495 6.2653 13.4717 6.27637C13.5049 6.28743 13.5381 6.2985 13.5713 6.30957C13.7152 6.32064 13.8923 6.37598 14.1025 6.47559C14.3239 6.5752 14.5342 6.72461 14.7334 6.92383C14.9437 7.12305 15.1208 7.3776 15.2646 7.6875C15.4085 7.98633 15.4805 8.35156 15.4805 8.7832C15.4805 8.87174 15.4749 8.98242 15.4639 9.11523C15.4528 9.23698 15.4417 9.34212 15.4307 9.43066C15.6852 9.33105 15.9508 9.20931 16.2275 9.06543C16.5042 8.92155 16.7699 8.77214 17.0244 8.61719C17.29 8.45117 17.5335 8.28516 17.7549 8.11914C17.9762 7.95312 18.1533 7.80371 18.2861 7.6709C18.3968 7.57129 18.4909 7.51595 18.5684 7.50488C18.6458 7.49382 18.7012 7.51595 18.7344 7.57129C18.7676 7.62663 18.7731 7.7041 18.751 7.80371C18.7288 7.90332 18.668 8.014 18.5684 8.13574C18.513 8.20215 18.3691 8.33496 18.1367 8.53418C17.9154 8.7334 17.6497 8.94922 17.3398 9.18164C17.0299 9.41406 16.6924 9.64095 16.3271 9.8623C15.9619 10.0837 15.6133 10.2497 15.2812 10.3604ZM12.4756 7.83691C12.4424 7.93652 12.4258 8.04167 12.4258 8.15234C12.4258 8.32943 12.4368 8.51758 12.459 8.7168C12.4811 8.90495 12.5365 9.0765 12.625 9.23145C12.7135 9.38639 12.8519 9.51921 13.04 9.62988C13.2393 9.72949 13.5104 9.7793 13.8535 9.7793C13.9089 9.7793 13.9642 9.7793 14.0195 9.7793C14.0749 9.76823 14.1302 9.75716 14.1855 9.74609C14.2188 9.60221 14.2464 9.47493 14.2686 9.36426C14.3018 9.24251 14.3184 9.13737 14.3184 9.04883C14.3405 8.83854 14.3405 8.62272 14.3184 8.40137C14.2962 8.18001 14.252 7.98079 14.1855 7.80371C14.1302 7.61556 14.0527 7.46615 13.9531 7.35547C13.8646 7.23372 13.7539 7.17285 13.6211 7.17285C13.4108 7.17285 13.2061 7.23372 13.0068 7.35547C12.8187 7.46615 12.6416 7.62663 12.4756 7.83691ZM11.4131 10.7588C11.4131 10.958 11.4242 11.1572 11.4463 11.3564C11.4684 11.5446 11.5127 11.7161 11.5791 11.8711C11.6455 12.015 11.734 12.1367 11.8447 12.2363C11.9554 12.3249 12.0993 12.3691 12.2764 12.3691C12.4756 12.3691 12.6582 12.3249 12.8242 12.2363C12.9902 12.1367 13.1396 12.015 13.2725 11.8711C13.4053 11.7161 13.5215 11.5446 13.6211 11.3564C13.7318 11.1572 13.8258 10.9525 13.9033 10.7422C13.8258 10.7533 13.7484 10.7643 13.6709 10.7754C13.6045 10.7754 13.527 10.7754 13.4385 10.7754C13.0179 10.7754 12.6527 10.6536 12.3428 10.4102C12.0439 10.1556 11.8115 9.83464 11.6455 9.44727C11.5791 9.67969 11.5238 9.90658 11.4795 10.1279C11.4352 10.3493 11.4131 10.5596 11.4131 10.7588ZM20.71 3.22168C20.6768 3.34342 20.6104 3.46517 20.5107 3.58691C20.4222 3.69759 20.3171 3.79167 20.1953 3.86914C20.0846 3.93555 19.9684 3.97982 19.8467 4.00195C19.7249 4.02409 19.6253 4.00195 19.5479 3.93555C19.3154 3.75846 19.1937 3.57031 19.1826 3.37109C19.1715 3.16081 19.2214 2.96712 19.332 2.79004C19.4427 2.60189 19.5811 2.44694 19.7471 2.3252C19.9131 2.19238 20.057 2.11491 20.1787 2.09277C20.3005 2.07064 20.4001 2.09831 20.4775 2.17578C20.5661 2.24219 20.6325 2.33626 20.6768 2.45801C20.721 2.56868 20.7432 2.69596 20.7432 2.83984C20.7542 2.98372 20.7432 3.111 20.71 3.22168ZM18.4189 6.75781C18.4743 6.69141 18.5794 6.63607 18.7344 6.5918C18.8893 6.54753 19.0498 6.51432 19.2158 6.49219C19.3818 6.45898 19.5312 6.44238 19.6641 6.44238C19.8079 6.43132 19.891 6.43132 19.9131 6.44238C19.9242 6.45345 19.8965 6.56966 19.8301 6.79102C19.7637 7.01237 19.6807 7.27246 19.5811 7.57129C19.4814 7.87012 19.3763 8.18001 19.2656 8.50098C19.1549 8.81087 19.0719 9.06543 19.0166 9.26465C18.9613 9.46387 18.8949 9.69076 18.8174 9.94531C18.7399 10.1888 18.668 10.4323 18.6016 10.6758C18.5462 10.9082 18.5075 11.1296 18.4854 11.3398C18.4632 11.5501 18.4798 11.7106 18.5352 11.8213C18.5905 11.9541 18.6514 12.0482 18.7178 12.1035C18.7842 12.1478 18.8561 12.1699 18.9336 12.1699C19.1549 12.1699 19.4316 12.0482 19.7637 11.8047C20.1068 11.5612 20.4499 11.2734 20.793 10.9414C21.1471 10.5983 21.4736 10.2552 21.7725 9.91211C22.0713 9.55794 22.2926 9.27572 22.4365 9.06543C22.5251 8.95475 22.6136 8.88281 22.7021 8.84961C22.8018 8.81641 22.8792 8.82194 22.9346 8.86621C23.001 8.91048 23.0342 8.98242 23.0342 9.08203C23.0452 9.18164 23.012 9.29785 22.9346 9.43066C22.7575 9.74056 22.4974 10.1113 22.1543 10.543C21.8112 10.9635 21.446 11.373 21.0586 11.7715C20.6712 12.1589 20.2894 12.4909 19.9131 12.7676C19.5479 13.0443 19.249 13.1882 19.0166 13.1992C18.8285 13.2103 18.6403 13.1771 18.4521 13.0996C18.2751 13.0332 18.109 12.9391 17.9541 12.8174C17.8102 12.6846 17.6885 12.5352 17.5889 12.3691C17.4893 12.1921 17.4339 12.0094 17.4229 11.8213C17.3896 11.5446 17.3896 11.1683 17.4229 10.6924C17.4561 10.2054 17.5169 9.71289 17.6055 9.21484C17.694 8.70573 17.8047 8.22428 17.9375 7.77051C18.0814 7.31673 18.2419 6.97917 18.4189 6.75781ZM24.0635 12.4355C24.1299 12.4798 24.2129 12.502 24.3125 12.502C24.4232 12.502 24.5283 12.4798 24.6279 12.4355C24.7386 12.3913 24.8382 12.3304 24.9268 12.2529C25.0264 12.1755 25.0983 12.0758 25.1426 11.9541C25.1868 11.8324 25.1868 11.6608 25.1426 11.4395C25.0983 11.207 25.0264 10.9635 24.9268 10.709C24.8382 10.4434 24.7386 10.1777 24.6279 9.91211C24.5173 9.64648 24.4232 9.40299 24.3457 9.18164C24.2793 9.01562 24.224 8.86068 24.1797 8.7168C24.1354 8.59505 24.0911 8.47884 24.0469 8.36816C24.0137 8.24642 23.986 8.16341 23.9639 8.11914C23.9085 8.20768 23.8089 8.35156 23.665 8.55078C23.5322 8.75 23.3828 8.96029 23.2168 9.18164C23.0618 9.39193 22.9124 9.59115 22.7686 9.7793C22.6247 9.95638 22.5251 10.0781 22.4697 10.1445C22.3812 10.2441 22.2926 10.305 22.2041 10.3271C22.1266 10.3382 22.0602 10.3216 22.0049 10.2773C21.9495 10.222 21.9163 10.1501 21.9053 10.0615C21.9053 9.96191 21.9495 9.8457 22.0381 9.71289C22.1045 9.62435 22.2041 9.486 22.3369 9.29785C22.4697 9.09863 22.6025 8.89941 22.7354 8.7002C22.8682 8.48991 22.9899 8.30729 23.1006 8.15234C23.2113 7.98633 23.2721 7.88672 23.2832 7.85352C23.3053 7.76497 23.2721 7.64876 23.1836 7.50488C23.1061 7.361 23.0951 7.19499 23.1504 7.00684C23.1947 6.85189 23.2943 6.6748 23.4492 6.47559C23.6042 6.2653 23.7868 6.07715 23.9971 5.91113C24.2074 5.74512 24.4232 5.62337 24.6445 5.5459C24.8659 5.45736 25.0651 5.45736 25.2422 5.5459C25.3861 5.63444 25.5023 5.73405 25.5908 5.84473C25.6794 5.94434 25.7126 6.04948 25.6904 6.16016C25.6683 6.21549 25.6351 6.28743 25.5908 6.37598C25.5465 6.46452 25.4801 6.5752 25.3916 6.70801C25.3031 6.82975 25.1758 6.99023 25.0098 7.18945C25.043 7.44401 25.0872 7.67643 25.1426 7.88672C25.209 8.09701 25.2699 8.27962 25.3252 8.43457C25.3916 8.62272 25.4635 8.79427 25.541 8.94922C25.6406 9.14844 25.7458 9.35319 25.8564 9.56348C25.9671 9.77376 26.0667 9.98405 26.1553 10.1943C26.2438 10.3936 26.3158 10.5817 26.3711 10.7588C26.4264 10.9359 26.443 11.0853 26.4209 11.207C26.3877 11.3952 26.2881 11.6221 26.1221 11.8877C25.9671 12.1533 25.7679 12.4134 25.5244 12.668C25.292 12.9115 25.0208 13.1217 24.7109 13.2988C24.4121 13.4759 24.0967 13.5645 23.7646 13.5645C23.5322 13.5645 23.3053 13.4925 23.084 13.3486C22.8737 13.2048 22.6911 13.0387 22.5361 12.8506C22.3923 12.6514 22.2816 12.4577 22.2041 12.2695C22.1377 12.0814 22.1322 11.9375 22.1875 11.8379C22.2539 11.7051 22.3148 11.5999 22.3701 11.5225C22.4255 11.445 22.5085 11.3564 22.6191 11.2568C22.6634 11.2236 22.7188 11.1849 22.7852 11.1406C22.8405 11.1074 22.918 11.0742 23.0176 11.041C23.1172 11.0078 23.2334 10.9691 23.3662 10.9248C23.4769 11.2679 23.5765 11.5391 23.665 11.7383C23.7536 11.9264 23.8255 12.0758 23.8809 12.1865C23.9473 12.3083 24.0081 12.3913 24.0635 12.4355Z" fill="#9747FF"/>
</svg>
